<?xml version="1.0" standalone="no"?>
<!DOCTYPE svg PUBLIC "-//W3C//DTD SVG 1.1//EN" "http://www.w3.org/Graphics/SVG/1.1/DTD/svg11.dtd" >
<svg>
<metadata>
Created by FontForge 20090914 at Fri Oct 29 00:00:29 2021
 By www-data
Copyright (c) 2010-12, Vernon Adams (vern@newtypography.co.uk), with Reserved Font Names "Nobile" and "Dhyana"
</metadata>
<defs>
<font id="Dhyana-Bold" horiz-adv-x="3" >
  <font-face 
    font-family="Dhyana"
    font-weight="700"
    font-stretch="normal"
    units-per-em="2048"
    panose-1="2 0 8 3 5 0 0 2 0 4"
    ascent="1638"
    descent="-410"
    x-height="1185"
    cap-height="1607"
    bbox="-1339 -709.995 2738 2518"
    underline-thickness="48"
    underline-position="-188"
    unicode-range="U+000D-U+FB04"
  />
<missing-glyph horiz-adv-x="761" 
d="M554 69v1251h-416v-1251h416zM69 1390h554v-1390h-554v1390z" />
    <glyph glyph-name="uni0EB1_uni0EC8" unicode="&#xeb1;&#xec8;" horiz-adv-x="2" 
d="M-989 1550c-14.667 11.333 -32 17 -52 17s-35.333 -2.33301 -46 -7c-24 -10 -35.667 -29 -35 -57c0.666992 -44.667 30.667 -67 90 -67h65v66c0 20.667 -7.33301 36.667 -22 48zM-1051 1724c56 0 103.332 -14.499 141.999 -43.499s58 -68.5 58 -118.5
c0 -27.333 -4.33301 -50 -13 -68l-26 -58h220c102.667 0 169.334 12 200.001 36c28 21.333 44.833 48.166 50.5 80.499s8.83398 64.5 9.50098 96.5h213c0 -268 -165.667 -402 -497 -402h-173c-108.667 0 -183.334 6 -224.001 18s-71.667 23.833 -93 35.5
s-39 25.167 -53 40.5c-30.667 33.333 -46 77 -46 131c0 168 77.333 252 232 252zM-831.001 1825v430h205v-430h-205z" />
    <glyph glyph-name="uni0EB4_uni0EC8" unicode="&#xeb4;&#xec8;" 
d="M-849 1752.5c44 5.66699 90.1631 8.50098 138.496 8.50098s94.5 -2.83301 138.5 -8.5s87.333 -15.334 130 -29.001s79.334 -31.167 110.001 -52.5c69.333 -47.333 104 -113.333 104 -198c0 -125.333 -70.667 -203.333 -212 -234
c-41.333 -9.33301 -87.666 -13.666 -138.999 -12.999h-43v157h46c85.333 4.66699 130 34.667 134 90c0 39.333 -13 67.333 -39 84c-28 18 -57 29 -87 33c-47.333 5.33301 -89.833 8 -127.5 8s-66.5 -0.5 -86.5 -1.5s-41 -3 -63 -6s-40.667 -7.33301 -56 -13
s-29.666 -13.167 -42.999 -22.5c-25.333 -18 -38.666 -45.333 -39.999 -82c1.33301 -60 47 -90 137 -90h48v-157h-46c-166 0 -274 43.667 -324 131c-18.667 32.667 -28 70.667 -28 114s9.83301 81.833 29.5 115.5s45.167 61.167 76.5 82.5s68.5 39.166 111.5 53.499
s86.5 24.333 130.5 30zM-811.004 1925v430h205v-430h-205z" />
    <glyph glyph-name="uni0EB6_uni0EC8" unicode="&#xeb6;&#xec8;" 
d="M-782 1603.5c-20 -1 -41.0039 -3 -63.0039 -6s-40.667 -7.33301 -56 -13s-29.666 -13.167 -42.999 -22.5c-25.333 -18 -38.666 -45.333 -39.999 -82c1.33301 -59.333 47 -89.666 137 -90.999h12v-156h-10c-166 0 -274 43.667 -324 131c-18.667 32.667 -28 70.667 -28 114
s9.83301 81.833 29.5 115.5s45.167 61.167 76.5 82.5s68.333 39.333 111 54c116 26 191 38.667 225 38h4c75.333 0 135 -2.83301 179 -8.5s87.333 -15.334 130 -29.001s79.334 -31.167 110.001 -52.5c69.333 -47.333 104 -113.333 104 -198
c0 -125.333 -70.667 -203.333 -212 -234c-41.333 -9.33301 -87.666 -13.666 -138.999 -12.999h-7v156h10c86.667 4 131.334 34.333 134.001 91c0 49.333 -27.333 84.666 -82 105.999c-34.667 13.333 -81.334 19.833 -140.001 19.5s-98 -1 -118 -2zM-671.004 1385.5
c-11.333 -3.66699 -24.667 -5.49707 -40 -5.49707s-30.333 3.33301 -45 10c-30.667 14 -46 37 -46 69c0 30 16 51.667 48 65c14 5.33301 31.667 8.16602 53 8.49902s41.166 -6.33398 59.499 -20.001s27.5 -29 27.5 -46s-2.5 -30.5 -7.5 -40.5s-11.667 -18.333 -20 -25
s-18.166 -11.834 -29.499 -15.501zM-830.005 1929v430h205v-430h-205z" />
    <glyph glyph-name="uni0EB5_uni0EC8" unicode="&#xeb5;&#xec8;" 
d="M-850 1767c47.333 0 92.835 -2.83105 136.502 -8.49805s86.834 -15.334 129.501 -29.001s79.667 -30.834 111 -51.501c69.333 -46 104.666 -109.333 105.999 -190c-1.33301 -41.333 -19.666 -74.333 -54.999 -99h215v-157h-553v157h44c89.333 0 134 30 134 90
c0 83.333 -89.333 125 -268 125c-72 0 -118.333 -2.33301 -139 -7s-37.834 -9 -51.501 -13s-25.167 -9 -34.5 -15c-8.66699 -6.66699 -17 -14 -25 -22c-14.667 -16 -22.334 -38.667 -23.001 -68c0 -60 45.333 -90 136 -90h47v-157h-44c-166 0 -274 43.667 -324 131
c-18.667 32.667 -28 70.667 -28 114s9.66699 81.833 29 115.5s44.833 61.167 76.5 82.5s69 39 112 53s86.667 24 131 30s90.166 9 137.499 9zM-911.998 1926v430h205v-430h-205z" />
    <glyph glyph-name="uni0EB7_uni0EC8" unicode="&#xeb7;&#xec8;" 
d="M-834 1604c-89.333 0 -146 -4.33105 -170 -12.998c-24 -9.33301 -43.333 -18.333 -58 -27c-28 -17.333 -43 -45.666 -45 -84.999c0 -60 45.333 -90 136 -90h12v-157h-9c-166 0 -274 43.667 -324 131c-18.667 32.667 -28 70.667 -28 114s9.66699 81.833 29 115.5
s45 61.167 77 82.5s69.333 39 112 53c80 26 156.333 39 229 39s131 -2.83301 175 -8.5s87.5 -15.334 130.5 -29.001s80.167 -30.834 111.5 -51.501c70.667 -46.667 106 -110 106 -190c0 -44.667 -18.333 -78 -55 -100h215v-156h-519v157h9c44 0 77.333 6.66699 100 20
s34 36.666 34 69.999c0 83.333 -89.333 125 -268 125zM-926 1458c4 49.333 35 74 93 74c26 -0.666992 48.333 -7.66699 67 -21c17.333 -12.667 26 -30 26 -52c0 -25.333 -9.33301 -45.333 -28 -60c-17.333 -13.333 -39 -20 -65 -20s-48 7.33301 -66 22s-27 33.667 -27 57z
M-922 1929v430h205v-430h-205z" />
    <glyph glyph-name="uni0EBB_uni0EC8" unicode="&#xebb;&#xec8;" horiz-adv-x="2" 
d="M-1234 1469c0 136.667 93.332 213.333 279.999 230c36.667 3.33301 79 5 127 5h200c166 0 285.167 -35 357.5 -105s109.5 -187.333 111.5 -352h-212c0 97.333 -5.16699 157.5 -15.5 180.5s-20.5 41 -30.5 54s-22.333 22.833 -37 29.5
c-33.333 14.667 -75.666 22 -126.999 22h-245l18 -57c6.66699 -20 10 -41 10 -63c0 -50.667 -20 -91 -60 -121s-88 -45 -144 -45c-155.333 0 -233 74 -233 222zM-1072 1467c0 -20 6.66797 -35.667 20.001 -47s31 -17 53 -17c54.667 0 82 22.667 82 68v62h-63
c-58.667 -5.33301 -89.334 -27.333 -92.001 -66zM-842 1927v430h205v-430h-205z" />
    <glyph glyph-name="uni0ECC_uni0EC8" unicode="&#xecc;&#xec8;" horiz-adv-x="4" 
d="M-850 1457c-108 0 -161.999 60.6689 -161.999 182.002c0 129.333 81 194 243 194h132c29.333 0 49.666 5.83301 60.999 17.5s17 32.5 17 62.5h147c-2.66699 -88.667 -21 -151.167 -55 -187.5s-94 -54.5 -180 -54.5h-74l18 -62c2.66699 -4.66699 4 -16.334 4 -35.001
c0 -36.667 -14.5 -65.334 -43.5 -86.001s-64.833 -31 -107.5 -31zM-846.999 1564c40 0 60 17.333 60 52v55h-36c-30.667 0 -52.667 -3.5 -66 -10.5s-20 -19.167 -20 -36.5c0 -16 2.66699 -28 8 -36c10.667 -16 28.667 -24 54 -24zM-768.999 1925v430h205v-430h-205z" />
    <glyph glyph-name="uni0ECD_uni0EC8" unicode="&#xecd;&#xec8;" horiz-adv-x="8" 
d="M-705 1574c26 0 47.501 8.49902 64.501 25.499s25.5 36.167 25.5 57.5c0.666992 21.333 -3 38.666 -11 51.999c-24.667 24.667 -48.334 39.334 -71.001 44.001c-31.333 0 -55.833 -8.5 -73.5 -25.5s-26.5 -38.167 -26.5 -63.5s8.83301 -46.666 26.5 -63.999
s39.5 -26 65.5 -26zM-536.999 1825c45.333 -44 68 -98.499 68 -163.499s-22.833 -119.333 -68.5 -163s-101.667 -65.5 -168 -65.5s-122.166 21.667 -167.499 65s-68 97.666 -68 162.999s22.833 120 68.5 164s101.667 66 168 66s122.166 -22 167.499 -66zM-814.999 1929v430
h205v-430h-205z" />
    <glyph glyph-name="uni0EB1_uni0EC9" unicode="&#xeb1;&#xec9;" horiz-adv-x="2" 
d="M-956 1570c-14.667 11.333 -32 17 -52 17s-35.333 -2.33301 -46 -7c-24 -10 -35.667 -29 -35 -57c0.666992 -44.667 30.667 -67 90 -67h65v66c0 20.667 -7.33301 36.667 -22 48zM-1018 1744c56 0 103.332 -14.499 141.999 -43.499s58 -68.5 58 -118.5
c0 -27.333 -4.33301 -50 -13 -68l-26 -58h220c102.667 0 169.334 12 200.001 36c28 21.333 44.833 48.166 50.5 80.499s8.83398 64.5 9.50098 96.5h213c0 -268 -165.667 -402 -497 -402h-173c-108.667 0 -183.334 6 -224.001 18s-71.667 23.833 -93 35.5
s-39 25.167 -53 40.5c-30.667 33.333 -46 77 -46 131c0 168 77.333 252 232 252zM-1030 2341c-50.667 0 -75.999 -20.668 -75.999 -62.001c3.33301 -31.333 48.333 -48.666 135 -51.999v13c-4.66699 62 -24.334 95.667 -59.001 101zM-1191.5 2167.5
c-34.333 28.333 -51.5 69.5 -51.5 123.5s19.167 97.667 57.5 131s91.5 50 159.5 50s122.667 -18.833 164 -56.5s62 -91.834 62 -162.5c0 -37.333 -6.66699 -66.333 -20 -87s-34.666 -40.334 -63.999 -59l-28 -15h264c91.333 0 152.166 6 182.499 18s51.833 24.333 64.5 37
s23.334 31.334 32.001 56c12.667 36 20.334 100.667 23.001 194h209v-80c0 -140.667 -32 -239 -96 -295c-44 -38.667 -92 -63 -144 -73c-81.333 -15.333 -172.333 -23 -273 -23h-557v79c13.333 5.33301 31.333 11 54 17s41.667 11.333 57 16c15.333 5.33301 31.333 12 48 20
c33.333 16.667 54.666 42.667 63.999 78c-18.667 -7.33301 -49.334 -11 -92.001 -11s-81.167 14.167 -115.5 42.5z" />
    <glyph glyph-name="uni0EB4_uni0EC9" unicode="&#xeb4;&#xec9;" 
d="M-853 1758.5c44 5.66699 90.1631 8.50098 138.496 8.50098s94.5 -2.83301 138.5 -8.5s87.333 -15.334 130 -29.001s79.334 -31.167 110.001 -52.5c69.333 -47.333 104 -113.333 104 -198c0 -125.333 -70.667 -203.333 -212 -234
c-41.333 -9.33301 -87.666 -13.666 -138.999 -12.999h-43v157h46c85.333 4.66699 130 34.667 134 90c0 39.333 -13 67.333 -39 84c-28 18 -57 29 -87 33c-47.333 5.33301 -89.833 8 -127.5 8s-66.5 -0.5 -86.5 -1.5s-41 -3 -63 -6s-40.667 -7.33301 -56 -13
s-29.666 -13.167 -42.999 -22.5c-25.333 -18 -38.666 -45.333 -39.999 -82c1.33301 -60 47 -90 137 -90h48v-157h-46c-166 0 -274 43.667 -324 131c-18.667 32.667 -28 70.667 -28 114s9.83301 81.833 29.5 115.5s45.167 61.167 76.5 82.5s68.5 39.166 111.5 53.499
s86.5 24.333 130.5 30zM-994.004 2340c-50.667 0 -75.999 -20.668 -75.999 -62.001c3.33301 -31.333 48.333 -48.666 135 -51.999v13c-4.66699 62 -24.334 95.667 -59.001 101zM-1155.5 2166.5c-34.333 28.333 -51.5 69.5 -51.5 123.5s19.167 97.667 57.5 131
s91.5 50 159.5 50s122.667 -18.833 164 -56.5s62 -91.834 62 -162.5c0 -37.333 -6.66699 -66.333 -20 -87s-34.666 -40.334 -63.999 -59l-28 -15h264c91.333 0 152.166 6 182.499 18s51.833 24.333 64.5 37s23.334 31.334 32.001 56c12.667 36 20.334 100.667 23.001 194
h209v-80c0 -140.667 -32 -239 -96 -295c-44 -38.667 -92 -63 -144 -73c-81.333 -15.333 -172.333 -23 -273 -23h-557v79c13.333 5.33301 31.333 11 54 17s41.667 11.333 57 16c15.333 5.33301 31.333 12 48 20c33.333 16.667 54.666 42.667 63.999 78
c-18.667 -7.33301 -49.334 -11 -92.001 -11s-81.167 14.167 -115.5 42.5z" />
    <glyph glyph-name="uni0EB6_uni0EC9" unicode="&#xeb6;&#xec9;" 
d="M-785 1601.5c-20 -1 -41.0039 -3 -63.0039 -6s-40.667 -7.33301 -56 -13s-29.666 -13.167 -42.999 -22.5c-25.333 -18 -38.666 -45.333 -39.999 -82c1.33301 -59.333 47 -89.666 137 -90.999h12v-156h-10c-166 0 -274 43.667 -324 131c-18.667 32.667 -28 70.667 -28 114
s9.83301 81.833 29.5 115.5s45.167 61.167 76.5 82.5s68.333 39.333 111 54c116 26 191 38.667 225 38h4c75.333 0 135 -2.83301 179 -8.5s87.333 -15.334 130 -29.001s79.334 -31.167 110.001 -52.5c69.333 -47.333 104 -113.333 104 -198
c0 -125.333 -70.667 -203.333 -212 -234c-41.333 -9.33301 -87.666 -13.666 -138.999 -12.999h-7v156h10c86.667 4 131.334 34.333 134.001 91c0 49.333 -27.333 84.666 -82 105.999c-34.667 13.333 -81.334 19.833 -140.001 19.5s-98 -1 -118 -2zM-674.004 1383.5
c-11.333 -3.66699 -24.667 -5.49707 -40 -5.49707s-30.333 3.33301 -45 10c-30.667 14 -46 37 -46 69c0 30 16 51.667 48 65c14 5.33301 31.667 8.16602 53 8.49902s41.166 -6.33398 59.499 -20.001s27.5 -29 27.5 -46s-2.5 -30.5 -7.5 -40.5s-11.667 -18.333 -20 -25
s-18.166 -11.834 -29.499 -15.501zM-1031 2341c-50.667 0 -75.999 -20.668 -75.999 -62.001c3.33301 -31.333 48.333 -48.666 135 -51.999v13c-4.66699 62 -24.334 95.667 -59.001 101zM-1192.5 2167.5c-34.333 28.333 -51.5 69.5 -51.5 123.5s19.167 97.667 57.5 131
s91.5 50 159.5 50s122.667 -18.833 164 -56.5s62 -91.834 62 -162.5c0 -37.333 -6.66699 -66.333 -20 -87s-34.666 -40.334 -63.999 -59l-28 -15h264c91.333 0 152.166 6 182.499 18s51.833 24.333 64.5 37s23.334 31.334 32.001 56c12.667 36 20.334 100.667 23.001 194
h209v-80c0 -140.667 -32 -239 -96 -295c-44 -38.667 -92 -63 -144 -73c-81.333 -15.333 -172.333 -23 -273 -23h-557v79c13.333 5.33301 31.333 11 54 17s41.667 11.333 57 16c15.333 5.33301 31.333 12 48 20c33.333 16.667 54.666 42.667 63.999 78
c-18.667 -7.33301 -49.334 -11 -92.001 -11s-81.167 14.167 -115.5 42.5z" />
    <glyph glyph-name="uni0EB5_uni0EC9" unicode="&#xeb5;&#xec9;" 
d="M-825 1767c47.333 0 92.835 -2.83105 136.502 -8.49805s86.834 -15.334 129.501 -29.001s79.667 -30.834 111 -51.501c69.333 -46 104.666 -109.333 105.999 -190c-1.33301 -41.333 -19.666 -74.333 -54.999 -99h215v-157h-553v157h44c89.333 0 134 30 134 90
c0 83.333 -89.333 125 -268 125c-72 0 -118.333 -2.33301 -139 -7s-37.834 -9 -51.501 -13s-25.167 -9 -34.5 -15c-8.66699 -6.66699 -17 -14 -25 -22c-14.667 -16 -22.334 -38.667 -23.001 -68c0 -60 45.333 -90 136 -90h47v-157h-44c-166 0 -274 43.667 -324 131
c-18.667 32.667 -28 70.667 -28 114s9.66699 81.833 29 115.5s44.833 61.167 76.5 82.5s69 39 112 53s86.667 24 131 30s90.166 9 137.499 9zM-1059 2341c-50.667 0 -75.999 -20.667 -75.999 -62c3.33301 -31.333 48.333 -48.666 135 -52v13
c-4.66699 62 -24.334 95.667 -59.001 101zM-1220.5 2167.5c-34.333 28.333 -51.5 69.5 -51.5 123.5s19.167 97.667 57.5 131s91.5 50 159.5 50s122.667 -18.833 164 -56.5s62 -91.834 62 -162.5c0 -37.333 -6.66699 -66.333 -20 -87s-34.666 -40.334 -63.999 -59l-28 -15
h264c91.333 0 152.166 6 182.499 18s51.833 24.333 64.5 37s23.334 31.334 32.001 56c12.667 36 20.334 100.667 23.001 194h209v-80c0 -140.667 -32 -239 -96 -295c-44 -38.667 -92 -63 -144 -73c-81.333 -15.333 -172.333 -23 -273 -23h-557v79
c13.333 5.33301 31.333 11 54 17s41.667 11.333 57 16c15.333 5.33301 31.333 12 48 20c33.333 16.667 54.666 42.667 63.999 78c-18.667 -7.33301 -49.334 -11 -92.001 -11s-81.167 14.167 -115.5 42.5z" />
    <glyph glyph-name="uni0EB7_uni0EC9" unicode="&#xeb7;&#xec9;" 
d="M-796 1604c-89.333 0 -146 -4.33105 -170 -12.998c-24 -9.33301 -43.333 -18.333 -58 -27c-28 -17.333 -43 -45.666 -45 -84.999c0 -60 45.333 -90 136 -90h12v-157h-9c-166 0 -274 43.667 -324 131c-18.667 32.667 -28 70.667 -28 114s9.66699 81.833 29 115.5
s45 61.167 77 82.5s69.333 39 112 53c80 26 156.333 39 229 39s131 -2.83301 175 -8.5s87.5 -15.334 130.5 -29.001s80.167 -30.834 111.5 -51.501c70.667 -46.667 106 -110 106 -190c0 -44.667 -18.333 -78 -55 -100h215v-156h-519v157h9c44 0 77.333 6.66699 100 20
s34 36.666 34 69.999c0 83.333 -89.333 125 -268 125zM-888 1458c4 49.333 35 74 93 74c26 -0.666992 48.333 -7.66699 67 -21c17.333 -12.667 26 -30 26 -52c0 -25.333 -9.33301 -45.333 -28 -60c-17.333 -13.333 -39 -20 -65 -20s-48 7.33301 -66 22s-27 33.667 -27 57z
M-1061 2342c-50.667 0 -75.999 -20.667 -75.999 -62c3.33301 -31.333 48.333 -48.666 135 -52v13c-4.66699 62 -24.334 95.667 -59.001 101zM-1222.5 2168.5c-34.333 28.333 -51.5 69.5 -51.5 123.5s19.167 97.667 57.5 131s91.5 50 159.5 50s122.667 -18.833 164 -56.5
s62 -91.834 62 -162.5c0 -37.333 -6.66699 -66.333 -20 -87s-34.666 -40.334 -63.999 -59l-28 -15h264c91.333 0 152.166 6 182.499 18s51.833 24.333 64.5 37s23.334 31.334 32.001 56c12.667 36 20.334 100.667 23.001 194h209v-80c0 -140.667 -32 -239 -96 -295
c-44 -38.667 -92 -63 -144 -73c-81.333 -15.333 -172.333 -23 -273 -23h-557v79c13.333 5.33301 31.333 11 54 17s41.667 11.333 57 16c15.333 5.33301 31.333 12 48 20c33.333 16.667 54.666 42.667 63.999 78c-18.667 -7.33301 -49.334 -11 -92.001 -11
s-81.167 14.167 -115.5 42.5z" />
    <glyph glyph-name="uni0EBB_uni0EC9" unicode="&#xebb;&#xec9;" horiz-adv-x="2" 
d="M-1226 1453c0 136.667 93.332 213.333 279.999 230c36.667 3.33301 79 5 127 5h200c166 0 285.167 -35 357.5 -105s109.5 -187.333 111.5 -352h-212c0 97.333 -5.16699 157.5 -15.5 180.5s-20.5 41 -30.5 54s-22.333 22.833 -37 29.5
c-33.333 14.667 -75.666 22 -126.999 22h-245l18 -57c6.66699 -20 10 -41 10 -63c0 -50.667 -20 -91 -60 -121s-88 -45 -144 -45c-155.333 0 -233 74 -233 222zM-1064 1451c0 -20 6.66797 -35.667 20.001 -47s31 -17 53 -17c54.667 0 82 22.667 82 68v62h-63
c-58.667 -5.33301 -89.334 -27.333 -92.001 -66zM-1033 2341c-50.667 0 -75.999 -20.668 -75.999 -62.001c3.33301 -31.333 48.333 -48.666 135 -51.999v13c-4.66699 62 -24.334 95.667 -59.001 101zM-1194.5 2167.5c-34.333 28.333 -51.5 69.5 -51.5 123.5
s19.167 97.667 57.5 131s91.5 50 159.5 50s122.667 -18.833 164 -56.5s62 -91.834 62 -162.5c0 -37.333 -6.66699 -66.333 -20 -87s-34.666 -40.334 -63.999 -59l-28 -15h264c91.333 0 152.166 6 182.499 18s51.833 24.333 64.5 37s23.334 31.334 32.001 56
c12.667 36 20.334 100.667 23.001 194h209v-80c0 -140.667 -32 -239 -96 -295c-44 -38.667 -92 -63 -144 -73c-81.333 -15.333 -172.333 -23 -273 -23h-557v79c13.333 5.33301 31.333 11 54 17s41.667 11.333 57 16c15.333 5.33301 31.333 12 48 20
c33.333 16.667 54.666 42.667 63.999 78c-18.667 -7.33301 -49.334 -11 -92.001 -11s-81.167 14.167 -115.5 42.5z" />
    <glyph glyph-name="uni0ECC_uni0EC9" unicode="&#xecc;&#xec9;" horiz-adv-x="4" 
d="M-661 1936c-108 0 -161.999 60.6689 -161.999 182.002c0 129.333 81 194 243 194h132c29.333 0 49.666 5.83301 60.999 17.5s17 32.5 17 62.5h147c-2.66699 -88.667 -21 -151.167 -55 -187.5s-94 -54.5 -180 -54.5h-74l18 -62c2.66699 -4.66699 4 -16.334 4 -35.001
c0 -36.667 -14.5 -65.334 -43.5 -86.001s-64.833 -31 -107.5 -31zM-657.999 2043c40 0 60 17.333 60 52v55h-36c-30.667 0 -52.667 -3.5 -66 -10.5s-20 -19.167 -20 -36.5c0 -16 2.66699 -28 8 -36c10.667 -16 28.667 -24 54 -24zM-1002 1734
c-50.667 0 -75.999 -20.668 -75.999 -62.001c3.33301 -31.333 48.333 -48.666 135 -51.999v13c-4.66699 62 -24.334 95.667 -59.001 101zM-1163.5 1560.5c-34.333 28.333 -51.5 69.501 -51.5 123.501s19.167 97.667 57.5 131s91.5 50 159.5 50s122.667 -18.833 164 -56.5
s62 -91.834 62 -162.501c0 -37.333 -6.66699 -66.333 -20 -87s-34.666 -40.334 -63.999 -59.001l-28 -15h264c91.333 0 152.166 6 182.499 18s51.833 24.333 64.5 37s23.334 31.334 32.001 56.001c12.667 36 20.334 100.667 23.001 194h209v-80
c0 -140.667 -32 -239 -96 -295c-44 -38.667 -92 -63 -144 -73c-81.333 -15.333 -172.333 -23 -273 -23h-557v79c13.333 5.33301 31.333 11 54 17s41.667 11.333 57 16c15.333 5.33301 31.333 12 48 20c33.333 16.667 54.666 42.667 63.999 78
c-18.667 -7.33301 -49.334 -11 -92.001 -11s-81.167 14.167 -115.5 42.5z" />
    <glyph glyph-name="uni0ECD_uni0EC9" unicode="&#xecd;&#xec9;" horiz-adv-x="8" 
d="M-616 2033c26 0 47.501 8.5 64.501 25.5s25.5 36.167 25.5 57.5c0.666992 21.333 -3 38.666 -11 52c-24.667 24.667 -48.334 39.334 -71.001 44c-31.333 0 -55.833 -8.5 -73.5 -25.5s-26.5 -38.167 -26.5 -63.5s8.83301 -46.666 26.5 -64
c17.667 -17.333 39.5 -26 65.5 -26zM-447.999 2284c45.333 -44 68 -98.499 68 -163.499s-22.833 -119.333 -68.5 -163s-101.667 -65.5 -168 -65.5s-122.166 21.667 -167.499 65s-68 97.666 -68 162.999s22.833 120 68.5 164s101.667 66 168 66s122.166 -22 167.499 -66z
M-1038 1732c-50.667 0 -75.999 -20.668 -75.999 -62.001c3.33301 -31.333 48.333 -48.666 135 -51.999v13c-4.66699 62 -24.334 95.667 -59.001 101zM-1199.5 1558.5c-34.333 28.333 -51.5 69.501 -51.5 123.501s19.167 97.667 57.5 131s91.5 50 159.5 50
s122.667 -18.833 164 -56.5s62 -91.834 62 -162.501c0 -37.333 -6.66699 -66.333 -20 -87s-34.666 -40.334 -63.999 -59.001l-28 -15h264c91.333 0 152.166 6 182.499 18s51.833 24.333 64.5 37s23.334 31.334 32.001 56.001c12.667 36 20.334 100.667 23.001 194h209v-80
c0 -140.667 -32 -239 -96 -295c-44 -38.667 -92 -63 -144 -73c-81.333 -15.333 -172.333 -23 -273 -23h-557v79c13.333 5.33301 31.333 11 54 17s41.667 11.333 57 16c15.333 5.33301 31.333 12 48 20c33.333 16.667 54.666 42.667 63.999 78
c-18.667 -7.33301 -49.334 -11 -92.001 -11s-81.167 14.167 -115.5 42.5z" />
    <glyph glyph-name="uni0EB1_uni0ECA" unicode="&#xeb1;&#xeca;" horiz-adv-x="2" 
d="M-926 1535c-14.667 11.333 -32 17 -52 17s-35.333 -2.33301 -46 -7c-24 -10 -35.667 -29 -35 -57c0.666992 -44.667 30.667 -67 90 -67h65v66c0 20.667 -7.33301 36.667 -22 48zM-988 1709c56 0 103.332 -14.499 141.999 -43.499s58 -68.5 58 -118.5
c0 -27.333 -4.33301 -50 -13 -68l-26 -58h220c102.667 0 169.334 12 200.001 36c28 21.333 44.833 48.166 50.5 80.499s8.83398 64.5 9.50098 96.5h213c0 -268 -165.667 -402 -497 -402h-173c-108.667 0 -183.334 6 -224.001 18s-71.667 23.833 -93 35.5
s-39 25.167 -53 40.5c-30.667 33.333 -46 77 -46 131c0 168 77.333 252 232 252zM-445.501 2180.5c35 -31 52.501 -75 52.501 -132s-25 -96.167 -75 -117.5h185v-94h-379v95c76 1.33301 114 33.333 114 96c0 47.333 -24.333 71 -73 71c-33.333 0 -59.333 -23.667 -78 -71
h-111l-9 23c-17.333 32 -44 48 -80 48c-20 0 -37 -6.83301 -51 -20.5s-21 -30.5 -21 -50.5c0 -64 37.333 -96 112 -96v-94c-98 0 -169 28 -213 84c-22.667 29.333 -34.167 69.166 -34.5 119.499s14.667 93.833 45 130.5s70.5 55 120.5 55c96.667 0 158.667 -36.667 186 -110
c19.333 44.667 51.666 76.334 96.999 95.001c24 10 56.667 15 98 15s79.5 -15.5 114.5 -46.5z" />
    <glyph glyph-name="uni0EB4_uni0ECA" unicode="&#xeb4;&#xeca;" 
d="M-819 1757.5c44 5.66699 90.1631 8.50098 138.496 8.50098s94.5 -2.83301 138.5 -8.5s87.333 -15.334 130 -29.001s79.334 -31.167 110.001 -52.5c69.333 -47.333 104 -113.333 104 -198c0 -125.333 -70.667 -203.333 -212 -234
c-41.333 -9.33301 -87.666 -13.666 -138.999 -12.999h-43v157h46c85.333 4.66699 130 34.667 134 90c0 39.333 -13 67.333 -39 84c-28 18 -57 29 -87 33c-47.333 5.33301 -89.833 8 -127.5 8s-66.5 -0.5 -86.5 -1.5s-41 -3 -63 -6s-40.667 -7.33301 -56 -13
s-29.666 -13.167 -42.999 -22.5c-25.333 -18 -38.666 -45.333 -39.999 -82c1.33301 -60 47 -90 137 -90h48v-157h-46c-166 0 -274 43.667 -324 131c-18.667 32.667 -28 70.667 -28 114s9.83301 81.833 29.5 115.5s45.167 61.167 76.5 82.5s68.5 39.166 111.5 53.499
s86.5 24.333 130.5 30zM-424.504 2277.5c35 -31 52.501 -75 52.501 -132s-25 -96.167 -75 -117.5h185v-94h-379v95c76 1.33301 114 33.333 114 95.999c0 47.333 -24.333 71 -73 71c-33.333 0 -59.333 -23.667 -78 -71h-111l-9 23c-17.333 32 -44 48 -80 48
c-20 0 -37 -6.83301 -51 -20.5s-21 -30.5 -21 -50.5c0 -64 37.333 -96 112 -96v-94c-98 0 -169 28 -213 84c-22.667 29.333 -34.167 69.166 -34.5 119.5c-0.333008 50.333 14.667 93.833 45 130.5s70.5 55 120.5 55c96.667 0 158.667 -36.667 186 -110
c19.333 44.667 51.666 76.334 96.999 95.001c24 10 56.667 15 98 15s79.5 -15.5 114.5 -46.5z" />
    <glyph glyph-name="uni0EB6_uni0ECA" unicode="&#xeb6;&#xeca;" 
d="M-764 1601.5c-20 -1 -41.0039 -3 -63.0039 -6s-40.667 -7.33301 -56 -13s-29.666 -13.167 -42.999 -22.5c-25.333 -18 -38.666 -45.333 -39.999 -82c1.33301 -59.333 47 -89.666 137 -90.999h12v-156h-10c-166 0 -274 43.667 -324 131c-18.667 32.667 -28 70.667 -28 114
s9.83301 81.833 29.5 115.5s45.167 61.167 76.5 82.5s68.333 39.333 111 54c116 26 191 38.667 225 38h4c75.333 0 135 -2.83301 179 -8.5s87.333 -15.334 130 -29.001s79.334 -31.167 110.001 -52.5c69.333 -47.333 104 -113.333 104 -198
c0 -125.333 -70.667 -203.333 -212 -234c-41.333 -9.33301 -87.666 -13.666 -138.999 -12.999h-7v156h10c86.667 4 131.334 34.333 134.001 91c0 49.333 -27.333 84.666 -82 105.999c-34.667 13.333 -81.334 19.833 -140.001 19.5s-98 -1 -118 -2zM-653.004 1383.5
c-11.333 -3.66699 -24.667 -5.49707 -40 -5.49707s-30.333 3.33301 -45 10c-30.667 14 -46 37 -46 69c0 30 16 51.667 48 65c14 5.33301 31.667 8.16602 53 8.49902s41.166 -6.33398 59.499 -20.001s27.5 -29 27.5 -46s-2.5 -30.5 -7.5 -40.5s-11.667 -18.333 -20 -25
s-18.166 -11.834 -29.499 -15.501zM-440.505 2279.5c35 -31 52.501 -75 52.501 -132s-25 -96.167 -75 -117.5h185v-94h-379v95c76 1.33301 114 33.333 114 95.999c0 47.333 -24.333 71 -73 71c-33.333 0 -59.333 -23.667 -78 -71h-111l-9 23c-17.333 32 -44 48 -80 48
c-20 0 -37 -6.83301 -51 -20.5s-21 -30.5 -21 -50.5c0 -64 37.333 -96 112 -96v-94c-98 0 -169 28 -213 84c-22.667 29.333 -34.167 69.166 -34.5 119.5c-0.333008 50.333 14.667 93.833 45 130.5s70.5 55 120.5 55c96.667 0 158.667 -36.667 186 -110
c19.333 44.667 51.666 76.334 96.999 95.001c24 10 56.667 15 98 15s79.5 -15.5 114.5 -46.5z" />
    <glyph glyph-name="uni0EB5_uni0ECA" unicode="&#xeb5;&#xeca;" 
d="M-791 1766c47.333 0 92.835 -2.83105 136.502 -8.49805s86.834 -15.334 129.501 -29.001s79.667 -30.834 111 -51.501c69.333 -46 104.666 -109.333 105.999 -190c-1.33301 -41.333 -19.666 -74.333 -54.999 -99h215v-157h-553v157h44c89.333 0 134 30 134 90
c0 83.333 -89.333 125 -268 125c-72 0 -118.333 -2.33301 -139 -7s-37.834 -9 -51.501 -13s-25.167 -9 -34.5 -15c-8.66699 -6.66699 -17 -14 -25 -22c-14.667 -16 -22.334 -38.667 -23.001 -68c0 -60 45.333 -90 136 -90h47v-157h-44c-166 0 -274 43.667 -324 131
c-18.667 32.667 -28 70.667 -28 114s9.66699 81.833 29 115.5s44.833 61.167 76.5 82.5s69 39 112 53s86.667 24 131 30s90.166 9 137.499 9zM-479.498 2277.5c35 -31 52.501 -74.999 52.501 -131.999s-25 -96.167 -75 -117.5h185v-94h-379v95
c76 1.33301 114 33.333 114 95.999c0 47.333 -24.333 71 -73 71c-33.333 0 -59.333 -23.667 -78 -71h-111l-9 23c-17.333 32 -44 48 -80 48c-20 0 -37 -6.83301 -51 -20.5s-21 -30.5 -21 -50.5c0 -64 37.333 -96 112 -96v-94c-98 0 -169 28 -213 84
c-22.667 29.333 -34.167 69.166 -34.5 119.5c-0.333008 50.333 14.667 93.833 45 130.5s70.5 55 120.5 55c96.667 0 158.667 -36.667 186 -110c19.333 44.667 51.666 76.334 96.999 95c24 10 56.667 15 98 15s79.5 -15.5 114.5 -46.5z" />
    <glyph glyph-name="uni0EB7_uni0ECA" unicode="&#xeb7;&#xeca;" 
d="M-790 1603c-89.333 0 -146 -4.33105 -170 -12.998c-24 -9.33301 -43.333 -18.333 -58 -27c-28 -17.333 -43 -45.666 -45 -84.999c0 -60 45.333 -90 136 -90h12v-157h-9c-166 0 -274 43.667 -324 131c-18.667 32.667 -28 70.667 -28 114s9.66699 81.833 29 115.5
s45 61.167 77 82.5s69.333 39 112 53c80 26 156.333 39 229 39s131 -2.83301 175 -8.5s87.5 -15.334 130.5 -29.001s80.167 -30.834 111.5 -51.501c70.667 -46.667 106 -110 106 -190c0 -44.667 -18.333 -78 -55 -100h215v-156h-519v157h9c44 0 77.333 6.66699 100 20
s34 36.666 34 69.999c0 83.333 -89.333 125 -268 125zM-882 1457c4 49.333 35 74 93 74c26 -0.666992 48.333 -7.66699 67 -21c17.333 -12.667 26 -30 26 -52c0 -25.333 -9.33301 -45.333 -28 -60c-17.333 -13.333 -39 -20 -65 -20s-48 7.33301 -66 22s-27 33.667 -27 57z
M-510.5 2277.5c35 -31 52.501 -74.999 52.501 -131.999s-25 -96.167 -75 -117.5h185v-94h-379v95c76 1.33301 114 33.333 114 95.999c0 47.333 -24.333 71 -73 71c-33.333 0 -59.333 -23.667 -78 -71h-111l-9 23c-17.333 32 -44 48 -80 48c-20 0 -37 -6.83301 -51 -20.5
s-21 -30.5 -21 -50.5c0 -64 37.333 -96 112 -96v-94c-98 0 -169 28 -213 84c-22.667 29.333 -34.167 69.166 -34.5 119.5c-0.333008 50.333 14.667 93.833 45 130.5s70.5 55 120.5 55c96.667 0 158.667 -36.667 186 -110c19.333 44.667 51.666 76.334 96.999 95
c24 10 56.667 15 98 15s79.5 -15.5 114.5 -46.5z" />
    <glyph glyph-name="uni0EBB_uni0ECA" unicode="&#xebb;&#xeca;" horiz-adv-x="2" 
d="M-1216 1454c0 136.667 93.332 213.333 279.999 230c36.667 3.33301 79 5 127 5h200c166 0 285.167 -35 357.5 -105s109.5 -187.333 111.5 -352h-212c0 97.333 -5.16699 157.5 -15.5 180.5s-20.5 41 -30.5 54s-22.333 22.833 -37 29.5
c-33.333 14.667 -75.666 22 -126.999 22h-245l18 -57c6.66699 -20 10 -41 10 -63c0 -50.667 -20 -91 -60 -121s-88 -45 -144 -45c-155.333 0 -233 74 -233 222zM-1054 1452c0 -20 6.66797 -35.667 20.001 -47s31 -17 53 -17c54.667 0 82 22.667 82 68v62h-63
c-58.667 -5.33301 -89.334 -27.333 -92.001 -66zM-458.5 2180.5c35 -31 52.501 -75 52.501 -132s-25 -96.167 -75 -117.5h185v-94h-379v95c76 1.33301 114 33.333 114 96c0 47.333 -24.333 71 -73 71c-33.333 0 -59.333 -23.667 -78 -71h-111l-9 23
c-17.333 32 -44 48 -80 48c-20 0 -37 -6.83301 -51 -20.5s-21 -30.5 -21 -50.5c0 -64 37.333 -96 112 -96v-94c-98 0 -169 28 -213 84c-22.667 29.333 -34.167 69.166 -34.5 119.499s14.667 93.833 45 130.5s70.5 55 120.5 55c96.667 0 158.667 -36.667 186 -110
c19.333 44.667 51.666 76.334 96.999 95.001c24 10 56.667 15 98 15s79.5 -15.5 114.5 -46.5z" />
    <glyph glyph-name="uni0ECC_uni0ECA" unicode="&#xecc;&#xeca;" horiz-adv-x="4" 
d="M-703 1856c-108 0 -161.999 60.6689 -161.999 182.002c0 129.333 81 194 243 194h132c29.333 0 49.666 5.83301 60.999 17.5s17 32.5 17 62.5h147c-2.66699 -88.667 -21 -151.167 -55 -187.5s-94 -54.5 -180 -54.5h-74l18 -62c2.66699 -4.66699 4 -16.334 4 -35.001
c0 -36.667 -14.5 -65.334 -43.5 -86.001s-64.833 -31 -107.5 -31zM-699.999 1963c40 0 60 17.333 60 52v55h-36c-30.667 0 -52.667 -3.5 -66 -10.5s-20 -19.167 -20 -36.5c0 -16 2.66699 -28 8 -36c10.667 -16 28.667 -24 54 -24zM-429.499 1671.5
c35 -31 52.501 -75 52.501 -132s-25 -96.167 -75 -117.5h185v-94h-379v95c76 1.33301 114 33.333 114 96c0 47.333 -24.333 71 -73 71c-33.333 0 -59.333 -23.667 -78 -71h-111l-9 23c-17.333 32 -44 48 -80 48c-20 0 -37 -6.83301 -51 -20.5s-21 -30.5 -21 -50.5
c0 -64 37.333 -96 112 -96v-94c-98 0 -169 28 -213 84c-22.667 29.333 -34.167 69.166 -34.5 119.499s14.667 93.833 45 130.5s70.5 55 120.5 55c96.667 0 158.667 -36.667 186 -110c19.333 44.667 51.666 76.334 96.999 95.001c24 10 56.667 15 98 15
s79.5 -15.5 114.5 -46.5z" />
    <glyph glyph-name="uni0ECD_uni0ECA" unicode="&#xecd;&#xeca;" horiz-adv-x="8" 
d="M-700 1961c26 0 47.501 8.49805 64.501 25.498s25.5 36.167 25.5 57.5c0.666992 21.333 -3 38.666 -11 52c-24.667 24.667 -48.334 39.334 -71.001 44.001c-31.333 0 -55.833 -8.5 -73.5 -25.5s-26.5 -38.167 -26.5 -63.5s8.83301 -46.666 26.5 -63.999
s39.5 -26 65.5 -26zM-531.999 2212c45.333 -44 68 -98.499 68 -163.499s-22.833 -119.333 -68.5 -163s-101.667 -65.5 -168 -65.5s-122.166 21.667 -167.499 65s-68 97.666 -68 162.999s22.833 120 68.5 164s101.667 66 168 66s122.166 -22 167.499 -66zM-453.499 1669.5
c35 -31 52.501 -75 52.501 -132s-25 -96.167 -75 -117.5h185v-94h-379v95c76 1.33301 114 33.333 114 96c0 47.333 -24.333 71 -73 71c-33.333 0 -59.333 -23.667 -78 -71h-111l-9 23c-17.333 32 -44 48 -80 48c-20 0 -37 -6.83301 -51 -20.5s-21 -30.5 -21 -50.5
c0 -64 37.333 -96 112 -96v-94c-98 0 -169 28 -213 84c-22.667 29.333 -34.167 69.166 -34.5 119.499s14.667 93.833 45 130.5s70.5 55 120.5 55c96.667 0 158.667 -36.667 186 -110c19.333 44.667 51.666 76.334 96.999 95.001c24 10 56.667 15 98 15
s79.5 -15.5 114.5 -46.5z" />
    <glyph glyph-name="uni0EB1_uni0ECB" unicode="&#xeb1;&#xecb;" horiz-adv-x="2" 
d="M-956 1535c-14.667 11.333 -32 17 -52 17s-35.333 -2.33301 -46 -7c-24 -10 -35.667 -29 -35 -57c0.666992 -44.667 30.667 -67 90 -67h65v66c0 20.667 -7.33301 36.667 -22 48zM-1018 1709c56 0 103.332 -14.499 141.999 -43.499s58 -68.5 58 -118.5
c0 -27.333 -4.33301 -50 -13 -68l-26 -58h220c102.667 0 169.334 12 200.001 36c28 21.333 44.833 48.166 50.5 80.499s8.83398 64.5 9.50098 96.5h213c0 -268 -165.667 -402 -497 -402h-173c-108.667 0 -183.334 6 -224.001 18s-71.667 23.833 -93 35.5
s-39 25.167 -53 40.5c-30.667 33.333 -46 77 -46 131c0 168 77.333 252 232 252zM-654.001 1719h-121v119h-120v112h120v120h121v-120h121v-112h-121v-119z" />
    <glyph glyph-name="uni0EB4_uni0ECB" unicode="&#xeb4;&#xecb;" 
d="M-845 1758.5c44 5.66699 90.1631 8.50098 138.496 8.50098s94.5 -2.83301 138.5 -8.5s87.333 -15.334 130 -29.001s79.334 -31.167 110.001 -52.5c69.333 -47.333 104 -113.333 104 -198c0 -125.333 -70.667 -203.333 -212 -234
c-41.333 -9.33301 -87.666 -13.666 -138.999 -12.999h-43v157h46c85.333 4.66699 130 34.667 134 90c0 39.333 -13 67.333 -39 84c-28 18 -57 29 -87 33c-47.333 5.33301 -89.833 8 -127.5 8s-66.5 -0.5 -86.5 -1.5s-41 -3 -63 -6s-40.667 -7.33301 -56 -13
s-29.666 -13.167 -42.999 -22.5c-25.333 -18 -38.666 -45.333 -39.999 -82c1.33301 -60 47 -90 137 -90h48v-157h-46c-166 0 -274 43.667 -324 131c-18.667 32.667 -28 70.667 -28 114s9.83301 81.833 29.5 115.5s45.167 61.167 76.5 82.5s68.5 39.166 111.5 53.499
s86.5 24.333 130.5 30zM-668.004 1884h-121v119h-120v112h120v120h121v-120h121v-112h-121v-119z" />
    <glyph glyph-name="uni0EB6_uni0ECB" unicode="&#xeb6;&#xecb;" 
d="M-769 1602.5c-20 -1 -41.0039 -3 -63.0039 -6s-40.667 -7.33301 -56 -13s-29.666 -13.167 -42.999 -22.5c-25.333 -18 -38.666 -45.333 -39.999 -82c1.33301 -59.333 47 -89.666 137 -90.999h12v-156h-10c-166 0 -274 43.667 -324 131c-18.667 32.667 -28 70.667 -28 114
s9.83301 81.833 29.5 115.5s45.167 61.167 76.5 82.5s68.333 39.333 111 54c116 26 191 38.667 225 38h4c75.333 0 135 -2.83301 179 -8.5s87.333 -15.334 130 -29.001s79.334 -31.167 110.001 -52.5c69.333 -47.333 104 -113.333 104 -198
c0 -125.333 -70.667 -203.333 -212 -234c-41.333 -9.33301 -87.666 -13.666 -138.999 -12.999h-7v156h10c86.667 4 131.334 34.333 134.001 91c0 49.333 -27.333 84.666 -82 105.999c-34.667 13.333 -81.334 19.833 -140.001 19.5s-98 -1 -118 -2zM-658.004 1384.5
c-11.333 -3.66699 -24.667 -5.49707 -40 -5.49707s-30.333 3.33301 -45 10c-30.667 14 -46 37 -46 69c0 30 16 51.667 48 65c14 5.33301 31.667 8.16602 53 8.49902s41.166 -6.33398 59.499 -20.001s27.5 -29 27.5 -46s-2.5 -30.5 -7.5 -40.5s-11.667 -18.333 -20 -25
s-18.166 -11.834 -29.499 -15.501zM-655.005 1884h-121v119h-120v112h120v120h121v-120h121v-112h-121v-119z" />
    <glyph glyph-name="uni0EB5_uni0ECB" unicode="&#xeb5;&#xecb;" 
d="M-792 1767c47.333 0 92.835 -2.83105 136.502 -8.49805s86.834 -15.334 129.501 -29.001s79.667 -30.834 111 -51.501c69.333 -46 104.666 -109.333 105.999 -190c-1.33301 -41.333 -19.666 -74.333 -54.999 -99h215v-157h-553v157h44c89.333 0 134 30 134 90
c0 83.333 -89.333 125 -268 125c-72 0 -118.333 -2.33301 -139 -7s-37.834 -9 -51.501 -13s-25.167 -9 -34.5 -15c-8.66699 -6.66699 -17 -14 -25 -22c-14.667 -16 -22.334 -38.667 -23.001 -68c0 -60 45.333 -90 136 -90h47v-157h-44c-166 0 -274 43.667 -324 131
c-18.667 32.667 -28 70.667 -28 114s9.66699 81.833 29 115.5s44.833 61.167 76.5 82.5s69 39 112 53s86.667 24 131 30s90.166 9 137.499 9zM-716.998 1888h-121v119h-120v112h120v120h121v-120h121v-112h-121v-119z" />
    <glyph glyph-name="uni0EB7_uni0ECB" unicode="&#xeb7;&#xecb;" 
d="M-799 1603c-89.333 0 -146 -4.33105 -170 -12.998c-24 -9.33301 -43.333 -18.333 -58 -27c-28 -17.333 -43 -45.666 -45 -84.999c0 -60 45.333 -90 136 -90h12v-157h-9c-166 0 -274 43.667 -324 131c-18.667 32.667 -28 70.667 -28 114s9.66699 81.833 29 115.5
s45 61.167 77 82.5s69.333 39 112 53c80 26 156.333 39 229 39s131 -2.83301 175 -8.5s87.5 -15.334 130.5 -29.001s80.167 -30.834 111.5 -51.501c70.667 -46.667 106 -110 106 -190c0 -44.667 -18.333 -78 -55 -100h215v-156h-519v157h9c44 0 77.333 6.66699 100 20
s34 36.666 34 69.999c0 83.333 -89.333 125 -268 125zM-891 1457c4 49.333 35 74 93 74c26 -0.666992 48.333 -7.66699 67 -21c17.333 -12.667 26 -30 26 -52c0 -25.333 -9.33301 -45.333 -28 -60c-17.333 -13.333 -39 -20 -65 -20s-48 7.33301 -66 22s-27 33.667 -27 57z
M-727 1888h-121v119h-120v112h120v120h121v-120h121v-112h-121v-119z" />
    <glyph glyph-name="uni0EBB_uni0ECB" unicode="&#xebb;&#xecb;" horiz-adv-x="2" 
d="M-1237 1452c0 136.667 93.332 213.333 279.999 230c36.667 3.33301 79 5 127 5h200c166 0 285.167 -35 357.5 -105s109.5 -187.333 111.5 -352h-212c0 97.333 -5.16699 157.5 -15.5 180.5s-20.5 41 -30.5 54s-22.333 22.833 -37 29.5
c-33.333 14.667 -75.666 22 -126.999 22h-245l18 -57c6.66699 -20 10 -41 10 -63c0 -50.667 -20 -91 -60 -121s-88 -45 -144 -45c-155.333 0 -233 74 -233 222zM-1075 1450c0 -20 6.66797 -35.667 20.001 -47s31 -17 53 -17c54.667 0 82 22.667 82 68v62h-63
c-58.667 -5.33301 -89.334 -27.333 -92.001 -66zM-722 1788h-121v119h-120v112h120v120h121v-120h121v-112h-121v-119z" />
    <glyph glyph-name="uni0ECC_uni0ECB" unicode="&#xecc;&#xecb;" horiz-adv-x="4" 
d="M-829 1447c-108 0 -161.999 60.6689 -161.999 182.002c0 129.333 81 194 243 194h132c29.333 0 49.666 5.83301 60.999 17.5s17 32.5 17 62.5h147c-2.66699 -88.667 -21 -151.167 -55 -187.5s-94 -54.5 -180 -54.5h-74l18 -62c2.66699 -4.66699 4 -16.334 4 -35.001
c0 -36.667 -14.5 -65.334 -43.5 -86.001s-64.833 -31 -107.5 -31zM-825.999 1554c40 0 60 17.333 60 52v55h-36c-30.667 0 -52.667 -3.5 -66 -10.5s-20 -19.167 -20 -36.5c0 -16 2.66699 -28 8 -36c10.667 -16 28.667 -24 54 -24zM-631.999 1804h-121v119h-120v112h120v120
h121v-120h121v-112h-121v-119z" />
    <glyph glyph-name="uni0ECD_uni0ECB" unicode="&#xecd;&#xecb;" horiz-adv-x="8" 
d="M-728 1520c26 0 47.501 8.49902 64.501 25.499s25.5 36.167 25.5 57.5c0.666992 21.333 -3 38.666 -11 51.999c-24.667 24.667 -48.334 39.334 -71.001 44.001c-31.333 0 -55.833 -8.5 -73.5 -25.5s-26.5 -38.167 -26.5 -63.5s8.83301 -46.666 26.5 -63.999
s39.5 -26 65.5 -26zM-559.999 1771c45.333 -44 68 -98.499 68 -163.499s-22.833 -119.333 -68.5 -163s-101.667 -65.5 -168 -65.5s-122.166 21.667 -167.499 65s-68 97.666 -68 162.999s22.833 120 68.5 164s101.667 66 168 66s122.166 -22 167.499 -66zM-682.999 1790h-121
v119h-120v112h120v120h121v-120h121v-112h-121v-119z" />
    <glyph glyph-name=".notdef" horiz-adv-x="761" 
d="M554 69v1251h-416v-1251h416zM69 1390h554v-1390h-554v1390z" />
    <glyph glyph-name="uni0000" horiz-adv-x="2048" 
 />
    <glyph glyph-name="uni0000" horiz-adv-x="2048" 
 />
    <glyph glyph-name="uni000D" unicode="&#xd;" horiz-adv-x="688" 
 />
    <glyph glyph-name="space" unicode=" " horiz-adv-x="514" 
 />
    <glyph glyph-name="exclam" unicode="!" horiz-adv-x="768" 
d="M409 313c100.667 0 151 -53.333 151 -160s-50.333 -160 -151 -160c-50.667 0 -95 11 -133 33c-22 38.667 -33 83.667 -33 135c0 101.333 55.333 152 166 152zM491 464h-194l-69 1143h329z" />
    <glyph glyph-name="quotedbl" unicode="&#x22;" horiz-adv-x="897" 
d="M874 1607c-12.667 -110.667 -30.5 -240.167 -53.5 -388.5s-38.167 -247.833 -45.5 -298.5h-178l-66 563l-11 124h354zM416 1607c-12.667 -110.667 -30.5 -240.167 -53.5 -388.5s-38.167 -247.833 -45.5 -298.5h-178l-68 578l-9 109h354z" />
    <glyph glyph-name="numbersign" unicode="#" horiz-adv-x="1278" 
d="M749 633l29 241h-194l-31 -241h196zM537 490l-53 -372h-197l53 372h-166v143h180l30 241h-199v145h218l49 376h194l-47 -376h202l44 376h198l-47 -376h159v-145h-176l-31 -241h198v-143h-215l-50 -372h-197l52 372h-199z" />
    <glyph glyph-name="dollar" unicode="$" horiz-adv-x="1306" 
d="M713 209c56.667 6.66699 103.333 26.668 140 60.001s55 77.666 55 132.999s-15.667 97 -47 125c-28.667 26 -55 44 -79 54l-69 28v-400zM603.999 1256c-75.333 -1.33301 -132.833 -13.668 -172.5 -37.001s-59.5 -64.333 -59.5 -123c0 -32.667 7.83301 -56.667 23.5 -72
s28 -26.666 37 -33.999s22.833 -14.833 41.5 -22.5l42 -17c9.33301 -3.66699 24.833 -9 46.5 -16l41.5 -13.5v335zM108.499 1011c-5.66699 26 -8.49609 60.668 -8.49609 104.001s8.33301 87.333 25 132s39.5 81.5 68.5 110.5s65.167 52.833 108.5 71.5
c75.333 32.667 176 51 302 55v130h109v-135c174 -10.667 309 -42.334 405 -95.001l-68 -209c-35.333 12.667 -87.166 28.834 -155.499 48.501s-128.833 29.5 -181.5 29.5v-369c120.667 -44.667 206 -81.334 256 -110.001c142.667 -81.333 214 -194.5 214 -339.5
s-41.5 -255.667 -124.5 -332s-198.167 -119.833 -345.5 -130.5v-134h-109v132c-86 0 -160 10 -222 30c-82.667 26.667 -161 55.334 -235 86.001l60 221c160.667 -71.333 293 -107 397 -107v448l-68.5 24.5l-71.5 25.5c-16.667 6 -39.334 14.833 -68.001 26.5
s-51.334 22 -68.001 31s-36.834 20.667 -60.501 35s-42.334 28.333 -56.001 42s-28.5 30.167 -44.5 49.5s-28.333 39.166 -37 59.499s-15.834 43.5 -21.501 69.5z" />
    <glyph glyph-name="percent" unicode="%" horiz-adv-x="1724" 
d="M1223 572.5c-4.66699 -32.333 -6.99902 -68.1689 -6.99902 -107.502s1.16699 -71.833 3.5 -97.5s7.33301 -51.167 15 -76.5s17.667 -46.166 30 -62.499s29.166 -29.5 50.499 -39.5s46.333 -15 75 -15s53.667 5 75 15s38.333 23.167 51 39.5s22.667 37.166 30 62.499
c12.667 44 19 93.667 19 149s-2.5 99.333 -7.5 132s-13.5 63 -25.5 91s-29.833 49.333 -53.5 64s-53.167 22 -88.5 22s-64.833 -7.16699 -88.5 -21.5s-41.5 -35.666 -53.5 -63.999s-20.333 -58.666 -25 -90.999zM1754 450.997c0 -126.667 -29.333 -230.331 -88 -310.998
c-62 -85.333 -153 -128 -273 -128c-80 0 -147.667 20 -203 60c-105.333 75.333 -158 201.666 -158 378.999c0 145.333 29.333 259.166 88 341.499s149.667 123.5 273 123.5c240.667 0 361 -155 361 -465zM220.001 1185.5
c-4.66699 -32.333 -6.99902 -68.1689 -6.99902 -107.502s1.16699 -71.666 3.5 -96.999s7.33301 -50.666 15 -75.999s17.667 -46.166 30 -62.499s29.166 -29.5 50.499 -39.5s46.333 -15 75 -15s53.667 5 75 15s38.333 23.167 51 39.5s22.667 37.166 30 62.499
c12.667 44 19 93.5 19 148.5s-2.5 98.833 -7.5 131.5s-13.5 63 -25.5 91s-29.833 49.333 -53.5 64s-53.167 22 -88.5 22s-64.833 -7.33301 -88.5 -22s-41.5 -36 -53.5 -64s-20.333 -58.167 -25 -90.5zM391.002 624.997c-176.667 0.666992 -290 89.667 -340 267
c-14.667 52 -22 109.333 -22 172c0 145.333 29.333 259.333 88 342s150.167 124 274.5 124s215.5 -41 273.5 -123s87 -191.333 87 -328s-30 -246.5 -90 -329.5s-150.333 -124.5 -271 -124.5zM1136 1527l172 -90l-699 -1470l-173 82z" />
    <glyph glyph-name="ampersand" unicode="&#x26;" horiz-adv-x="1740" 
d="M675 728c-80 -19.333 -143.167 -50.333 -189.5 -93s-69.5 -104 -69.5 -184c0 -180.667 121.333 -271 364 -271c222.667 0 358 40.667 406 122zM1276 753l-1.00098 122.002h243c0 -166 -12.667 -324.333 -38 -475l-13 -68l254 -214l-125 -154l-232 195
c-94 -132.667 -288.667 -199 -584 -199c-322.667 0 -522 95 -598 285c-21.333 53.333 -32 110 -32 170s6.33301 111.667 19 155s29.334 80.666 50.001 111.999s47 60 79 86c53.333 44 123 82.333 209 115c-56 34.667 -105.333 83 -148 145s-64 125.333 -64 190
s12.167 119.5 36.5 164.5s57.833 81.167 100.5 108.5c86 55.333 191.667 83 317 83c175.333 0 302.333 -50 381 -150c41.333 -52 62 -115.667 62 -191c0 -200.667 -106.333 -337.334 -319 -410.001l397 -328c4 62.667 6 148.667 6 258zM709.999 982.002c92 26 158 58 198 96
c38.667 36 58 81.5 58 136.5s-18.833 96.5 -56.5 124.5s-89.167 42 -154.5 42c-139.333 0 -209 -55.667 -209 -167c0 -49.333 16.5 -94.333 49.5 -135s71.167 -73 114.5 -97z" />
    <glyph glyph-name="quotesingle" unicode="'" horiz-adv-x="625" 
d="M489 1607c-10 -92 -27.667 -221.5 -53 -388.5l-45 -298.5h-179l-68 578l-8 109h353z" />
    <glyph glyph-name="parenleft" unicode="(" horiz-adv-x="859" 
d="M641 -270c-134 97.333 -240.501 229.002 -319.501 395.002s-118.5 357 -118.5 573s38.667 408.333 116 577s182.333 302 315 400l143 -171c-93.333 -87.333 -167.166 -200.833 -221.499 -340.5s-81.5 -294.834 -81.5 -465.501s26.5 -324.834 79.5 -462.501
s126.167 -248.5 219.5 -332.5z" />
    <glyph glyph-name="parenright" unicode=")" horiz-adv-x="857" 
d="M231 1677c134.667 -99.333 241.501 -231.171 320.501 -395.504s118.5 -355.166 118.5 -572.499s-39 -409.666 -117 -576.999s-184.667 -301.333 -320 -402l-138 172c93.333 84.667 167.166 197.334 221.499 338.001s81.5 296.334 81.5 467.001s-26.667 324.5 -80 461.5
s-126.333 248.833 -219 335.5z" />
    <glyph glyph-name="asterisk" unicode="*" horiz-adv-x="998" 
d="M617 1640l161 -94l-147 -255h280v-157h-277l151 -251l-163 -96l-139 246l-139 -245l-162 95l151 251h-289v157h292l-148 257l161 91l132 -247z" />
    <glyph glyph-name="plus" unicode="+" horiz-adv-x="1074" 
d="M668 485v-355h-234v355h-297v220h297v354h234v-354h298v-220h-298z" />
    <glyph glyph-name="comma" unicode="," horiz-adv-x="661" 
d="M154 373h362v-322c0 -144 -71.333 -246.667 -214 -308c-28 -12 -60 -23.333 -96 -34l-51 108c82 28.667 131.667 65.667 149 111c8 20 12 44 12 72h-162v373z" />
    <glyph glyph-name="hyphen" unicode="-" horiz-adv-x="1078" 
d="M159 558v225h761v-225h-761z" />
    <glyph glyph-name="period" unicode="." horiz-adv-x="714" 
d="M176 373h363v-373h-363v373z" />
    <glyph glyph-name="slash" unicode="/" horiz-adv-x="982" 
d="M733 1723l241 -80l-606 -1805l-238 78z" />
    <glyph glyph-name="zero" unicode="0" horiz-adv-x="1443" 
d="M719 189c210.667 0 316 140 316 420c0 192.667 -56.667 317 -170 373c-41.333 20 -90 30 -146 30s-104.333 -10.333 -145 -31c-40 -20.667 -72 -50 -96 -88c-45.333 -73.333 -68.333 -170 -69 -290c0 -276 103.333 -414 310 -414zM131 602
c0 195.333 50.3311 348.667 150.998 460s246 167 436 167s336.167 -56 438.5 -168s153.5 -265.5 153.5 -460.5s-51.167 -348.667 -153.5 -461s-248.166 -168.5 -437.499 -168.5s-334.666 56.333 -435.999 169s-152 266.667 -152 462z" />
    <glyph glyph-name="one" unicode="1" horiz-adv-x="861" 
d="M346 974l-179 -81.001l-80 197c118.667 50.667 196.667 83.334 234 98.001l103 16h212v-1204h-290v974z" />
    <glyph glyph-name="two" unicode="2" horiz-adv-x="1167" 
d="M159 1101c132 76 270.668 113.998 416.001 113.998c184.667 0.666992 315.667 -51.666 393 -156.999c41.333 -56 61.666 -124.333 60.999 -205c0 -114 -39 -214.333 -117 -301c-37.333 -41.333 -73 -76.166 -107 -104.499l-55 -46
c-2.66699 -2.33301 -5.33398 -4.5 -8.00098 -6.5l-201 -169h468v-226h-856v193l425 355c76.667 64 124.334 112 143.001 144c24.667 42 37 86 37 132c0 116 -68.667 174 -206 174c-91.333 0 -196.333 -30.333 -315 -91z" />
    <glyph glyph-name="three" unicode="3" horiz-adv-x="1183" 
d="M756 221c0 140 -106 216.668 -318 230.001v209c138.667 0 228.667 32.667 270 98c16 25.333 24.333 56 25 92c0 104 -72.667 156 -218 156c-56 0 -114.667 -10.833 -176 -32.5s-101 -34.834 -119 -39.501l-88 196c128 63.333 251.333 95 370 95
c142.667 -0.666992 258 -28.334 346 -83.001c94.667 -59.333 142 -156 142 -290c0 -78 -22.5 -144 -67.5 -198s-102.167 -86.667 -171.5 -98c80 -20 146.167 -59.5 198.5 -118.5s78.5 -128 78.5 -207s-13 -144.5 -39 -196.5s-62.333 -94 -109 -126
c-94 -63.333 -215.833 -95.166 -365.5 -95.499s-278.5 26.5 -386.5 80.5l73 208c98.667 -49.333 195.5 -74 290.5 -74s162.833 15 203.5 45s61 79.667 61 149z" />
    <glyph glyph-name="four" unicode="4" horiz-adv-x="1271" 
d="M733 276v549l-370 -549h370zM979 1179v-900h185v-215h-185v-302h-246v302h-613l-37 179l675 993z" />
    <glyph glyph-name="five" unicode="5" horiz-adv-x="1168" 
d="M929 613c82.667 -82.667 124.002 -197.167 124.002 -343.5s-46.333 -260.5 -139 -342.5s-211.834 -123 -357.501 -123s-285.834 31.333 -420.501 94l46 214c111.333 -54 228.666 -81 351.999 -81c177.333 0 266 79.667 266 239c0 174.667 -81 262 -243 262
c-79.333 0 -166.666 -28.667 -261.999 -86l-126 108v636h797v-212h-565v-297c51.333 37.333 112.666 56 183.999 56c146.667 0 261.334 -41.333 344.001 -124z" />
    <glyph glyph-name="six" unicode="6" horiz-adv-x="1258" 
d="M677 857c145.333 0 263.167 -44.5 353.5 -133.5s135.5 -208 135.5 -357s-46 -268 -138 -357s-219.833 -133.5 -383.5 -133.5s-293.167 52 -388.5 156s-143 244 -143 420c0.666992 297.333 105 530.333 313 699c122 98.667 272.333 170.667 451 216l67 -221
c-158 -33.333 -282.667 -93.333 -374 -180c-49.333 -46.667 -87 -100.667 -113 -162c76.667 35.333 150 53 220 53zM841.001 177.5c40 56.333 60 127.165 60 212.498c0 170.667 -76 256.334 -228 257.001c-114.667 0 -209.667 -37.667 -285 -113
c-1.33301 -19.333 -2 -49.666 -2 -90.999c3.33301 -233.333 93 -350 269 -350c84 0 146 28.167 186 84.5z" />
    <glyph glyph-name="seven" unicode="7" horiz-adv-x="1149" 
d="M1089 1054l-592 -1270l-251 112l512 1096h-620v222h877z" />
    <glyph glyph-name="eight" unicode="8" horiz-adv-x="1312" 
d="M492 798.5c41.333 -37 96.667 -55.499 166 -55.499s124 18.667 164 56s60 89.666 60 156.999c0 122.667 -75.333 184 -226 184s-226 -61.333 -226 -184c0 -68 20.667 -120.5 62 -157.5zM477.501 128.001c39 -31.333 98.834 -47 179.501 -47s140 15.5 178 46.5
s57 84.5 57 160.5s-20.333 137.833 -61 185.5s-98.334 71.5 -173.001 71.5s-133.167 -23.667 -175.5 -71s-63.5 -109 -63.5 -185s19.5 -129.667 58.5 -161zM468.502 1328c58.333 15.333 127.667 23.002 208 23.002s156.333 -13.333 228 -40s129.834 -69.667 174.501 -129
s67 -132.333 67 -219s-24.833 -158.834 -74.5 -216.501s-113.834 -95.834 -192.501 -114.501c85.333 -18.667 154 -60.334 206 -125.001s78 -146.334 78 -245.001c0.666992 -137.333 -48.333 -239.333 -147 -306c-92 -62.667 -211 -94 -357 -94
c-183.333 0 -320.666 46 -411.999 138c-65.333 66 -98 150.833 -98 254.5s26.167 188.334 78.5 254.001s120.833 106.834 205.5 123.501c-78.667 19.333 -142.834 57.833 -192.501 115.5s-74.5 124.667 -74.5 201s13 139.5 39 189.5s61.833 90.333 107.5 121
s97.667 53.667 156 69z" />
    <glyph glyph-name="nine" unicode="9" horiz-adv-x="1285" 
d="M829 355c-62.667 -38.667 -136.663 -58 -221.996 -58c-150.667 0 -269.834 41.167 -357.501 123.5s-131.5 197.833 -131.5 346.5s45.833 268 137.5 358s219.667 135 384 135s294.166 -50.667 389.499 -152s143 -242.666 143 -423.999c0 -290.667 -105.333 -524 -316 -700
c-123.333 -102.667 -273.333 -174.334 -450 -215.001l-65 222c117.333 24 219.166 66.833 305.499 128.5s147.166 140.167 182.499 235.5zM634.004 1042c-166.667 0 -250.003 -96.667 -250.003 -290c0 -74.667 19.333 -134.5 58 -179.5s88.334 -67.5 149.001 -67.5
s119.167 5.66699 175.5 17s97.833 27 124.5 47c6.66699 70 10.334 114.667 11.001 134c-3.33301 226 -92.666 339 -267.999 339z" />
    <glyph glyph-name="colon" unicode=":" horiz-adv-x="701" 
d="M190 379h366v-379h-366v379zM190 1067h366v-379h-366v379z" />
    <glyph glyph-name="semicolon" unicode=";" horiz-adv-x="692" 
d="M186 1067h363v-379h-363v379zM188 373h362v-322c0 -144 -71.333 -246.667 -214 -308c-28 -12 -60 -23.333 -96 -34l-51 108c82 28.667 131.667 65.667 149 111c8 20 12 44 12 72h-162v373z" />
    <glyph glyph-name="less" unicode="&#x3c;" horiz-adv-x="1238" 
d="M216 739l744 525l41 -249l-557 -383l557 -382l-41 -249l-781 558z" />
    <glyph glyph-name="equal" unicode="=" horiz-adv-x="1112" 
d="M162 278v197h789v-197h-789zM162 601v196h789v-196h-789z" />
    <glyph glyph-name="greater" unicode="&#x3e;" horiz-adv-x="1217" 
d="M289 1l-41 255l552 376l-553 377l41 255l738 -519l44 -186z" />
    <glyph glyph-name="question" unicode="?" horiz-adv-x="1148" 
d="M369 -43c-35.333 15.333 -63.666 41.666 -84.999 78.999s-32 80.333 -32 129c14.667 35.333 39.5 64.166 74.5 86.499s75.833 33.5 122.5 33.5c35.333 -15.333 63.666 -41.666 84.999 -78.999s32 -80.333 32 -129c-14 -35.333 -38.667 -64.166 -74 -86.499
s-76.333 -33.5 -123 -33.5zM264 823c13.333 4.66699 37.498 12.332 72.498 22.999s62.333 19.334 82 26.001s46.334 16.667 80.001 30s60.834 25.5 81.501 36.5s43.5 25.5 68.5 43.5s44.5 36 58.5 54c34 44 51 86 51 126s-4.66699 71 -14 93s-21.833 39.5 -37.5 52.5
s-35.5 23.5 -59.5 31.5c-40 13.333 -86.333 20 -139 20s-127.167 -9.5 -223.5 -28.5s-144.5 -35.833 -144.5 -50.5l-75 215c129.333 65.333 276 98 440 98c273.333 -0.666992 443.333 -81 510 -241c18.667 -45.333 28 -96.333 28 -153
c0 -239.333 -169.667 -410.333 -509 -513v-308h-270v445z" />
    <glyph glyph-name="at" unicode="@" horiz-adv-x="1982" 
d="M1446 -19c-104 -83.333 -256.336 -125.004 -457.003 -125.004c-257.333 0 -463.333 65.667 -618 197c-75.333 64 -133.666 145 -174.999 243s-62 208.667 -62 332c0 178.667 38.167 336.334 114.5 473.001s183.666 242.167 321.999 316.5s297.833 111.5 478.5 111.5
c239.333 0 435.666 -63 588.999 -189c73.333 -60.667 130.833 -137.5 172.5 -230.5s62.5 -188.5 62.5 -286.5s-9.66699 -180.167 -29 -246.5s-48 -124.166 -86 -173.499c-80 -104 -199.333 -156 -358 -156c-97.333 0 -146 57.667 -146 173v62c0 14 0.666992 35 2 63
c-46.667 -151.333 -120 -245.666 -220 -282.999c-41.333 -15.333 -88.333 -23 -141 -23c-116 0 -207.667 37.167 -275 111.5s-101 171.833 -101 292.5c0 152 52.333 278 157 378s234.334 150 389.001 150c168 0 279 -30.333 333 -91c22.667 -25.333 36.667 -56.333 42 -93
c0 -18.667 -0.666992 -46.667 -2 -84l-50 -488c90.667 10 155.834 44.333 195.501 103s59.5 143.334 59.5 254.001c0 183.333 -53.5 321.333 -160.5 414s-259.5 139 -457.5 139s-356.5 -63.5 -475.5 -190.5s-178.5 -291 -178.5 -492s57 -349.667 171 -446
s272.667 -144.5 476 -144.5c82.667 0 161.334 14.333 236.001 43c28 10.667 52.667 20.667 74 30s32.833 14.333 34.5 15s3.83398 1.66699 6.50098 3s5 2.33301 7 3zM1254 992.996c-78.667 13.333 -138.332 20.001 -178.999 20.001
c-109.333 0 -193.666 -35.667 -252.999 -107s-89 -166 -89 -284c0 -62.667 14.667 -113.334 44 -152.001s71.166 -58 125.499 -58s101.666 12.167 141.999 36.5s72.5 55 96.5 92s44.333 82.833 61 137.5c26 85.333 43.333 190.333 52 315z" />
    <glyph glyph-name="A" unicode="A" horiz-adv-x="1513" 
d="M937 1607l532 -1607h-307l-118 369h-576l-117 -369h-308l528 1607h366zM509 516h495l-244 769z" />
    <glyph glyph-name="B" unicode="B" horiz-adv-x="1441" 
d="M1329 628c19.333 -49.333 29 -106.5 29 -171.5s-8.16699 -121.833 -24.5 -170.5s-40.333 -89.334 -72 -122.001s-67.5 -60 -107.5 -82c-40 -21.333 -88 -38 -144 -50c-100 -21.333 -218 -32 -354 -32h-500v1607h402c334 -0.666992 551 -57 651 -169
c54.667 -61.333 82 -139 82 -233c0 -203.333 -114 -318.666 -342 -345.999c204 -27.333 330.667 -104.333 380 -231zM1040 591c-13.333 34 -31 61.001 -53 81.001s-51 36 -87 48c-61.333 20 -144.333 29.667 -249 29h-189v-547h163c132.667 0 225.334 9 278.001 27
c55.333 19.333 93.666 45.666 114.999 78.999c28 42.667 42 92 42 148s-6.66699 101 -20 135zM996 1061c18.667 33.333 27.832 70.666 27.499 111.999s-5.5 74.333 -15.5 99s-25 44.834 -45 60.501s-41.333 28.5 -64 38.5c-23.333 10 -51.666 17.333 -84.999 22
c-58 8 -123.667 12 -197 12h-155v-465h189c185.333 0 300.333 40.333 345 121z" />
    <glyph glyph-name="C" unicode="C" horiz-adv-x="1319" 
d="M823 1411c-230.667 -0.666992 -364 -142.999 -400 -426.999c-7.33301 -58.667 -11 -123.334 -11 -194.001c0 -399.333 137 -599 411 -599c136.667 0 257.667 37 363 111l84 -216c-46 -38 -112.5 -67.5 -199.5 -88.5s-183.333 -31.5 -289 -31.5s-203.5 20 -293.5 60
s-162.667 97.333 -218 172c-110 148 -165 347.333 -165 598c-0.666992 248 55 448 167 600c56 76 129.167 135 219.5 177s187.833 63 292.5 63c216 0 374.333 -35 475 -105l-80 -219c-101.333 66 -220 99 -356 99z" />
    <glyph glyph-name="D" unicode="D" horiz-adv-x="1557" 
d="M661 202c176 0 301.333 54.666 376 163.999c70 102.667 105 247.667 105 435c0 192.667 -32 339.334 -96 440.001c-69.333 109.333 -194.333 164 -375 164h-209v-1203h199zM676 1607c262.667 0 457.667 -67 585 -201s191 -335.667 191 -605
c0 -534 -256.333 -801 -769 -801h-526v1607h519z" />
    <glyph glyph-name="E" unicode="E" horiz-adv-x="1281" 
d="M156 0v1607h1049v-202h-744v-474h649v-186h-649v-546h755v-199h-1060z" />
    <glyph glyph-name="F" unicode="F" horiz-adv-x="1219" 
d="M461 0h-305v1607h1036v-202h-731v-480h653v-186h-653v-739z" />
    <glyph glyph-name="G" unicode="G" horiz-adv-x="1561" 
d="M804 191c186 0 301.335 52.001 346.002 156.001v332h-386v188h656v-867h-182l-51 163c-25.333 -66 -74.5 -115.333 -147.5 -148s-158 -49 -255 -49s-182.833 13.333 -257.5 40s-138 64 -190 112c-52.667 48 -96.334 106.667 -131.001 176
c-68 133.333 -101.667 298.666 -101 495.999c-0.666992 260 59.666 464.667 180.999 614c125.333 154.667 313.333 232 564 232c194 0 352.333 -44 475 -132l-92 -206c-130 75.333 -257.667 113 -383 113c-222.667 0 -360.667 -124.333 -414 -373
c-16 -72.667 -23.667 -155 -23 -247c0 -400 130.333 -600 391 -600z" />
    <glyph glyph-name="H" unicode="H" horiz-adv-x="1601" 
d="M1139 741h-677v-741h-306v1607h306v-681h677v681h305v-1607h-305v741z" />
    <glyph glyph-name="I" unicode="I" horiz-adv-x="846" 
d="M273 150v1304h-186v153h676v-153h-189v-1304h189v-150h-676v150h186z" />
    <glyph glyph-name="J" unicode="J" horiz-adv-x="826" 
d="M39 109c83.333 13.333 147.668 33 193.001 59c89.333 51.333 133.666 163.333 132.999 336v1103h305v-1088c0 -203.333 -43.667 -353 -131 -449s-228 -149 -422 -159z" />
    <glyph glyph-name="K" unicode="K" horiz-adv-x="1469" 
d="M462 0h-306v1607h306v-712h139l466 712h322l-546 -798l607 -809h-343l-514 713h-131v-713z" />
    <glyph glyph-name="L" unicode="L" horiz-adv-x="1216" 
d="M156 0v1607h305v-1405h720v-202h-1025z" />
    <glyph glyph-name="M" unicode="M" horiz-adv-x="1987" 
d="M423 1254v-1254h-267v1607h401l432 -1272l441 1272h401v-1607h-267v1254l-424 -1254h-291z" />
    <glyph glyph-name="N" unicode="N" horiz-adv-x="1651" 
d="M1160 0l-724 1225v-1225h-280v1607h348l711 -1212v1212h280v-1607h-335z" />
    <glyph glyph-name="O" unicode="O" horiz-adv-x="1611" 
d="M824 1635c108 0 207.167 -19.499 297.5 -58.499s163.5 -95.167 219.5 -168.5c110.667 -144.667 166 -344 166 -598c0.666992 -438 -144.333 -706.333 -435 -805c-78.667 -26.667 -173.834 -40 -285.501 -40s-213 20.5 -304 61.5s-163.833 99.833 -218.5 176.5
c-106.667 149.333 -160 354.666 -160 615.999c0 308 81.333 531.333 244 670c114.667 97.333 273.334 146 476.001 146zM970.5 1377.5c-46.333 22.333 -100.664 33.502 -162.997 33.502s-117 -11 -164 -33s-85 -51.167 -114 -87.5s-52.167 -81.5 -69.5 -135.5
c-30.667 -94.667 -46.334 -213.667 -47.001 -357c0 -226 39 -388 117 -486c64 -80 155.667 -120 275 -120c104 0 185.167 28.5 243.5 85.5s98 130.333 119 220s31.5 179.5 31.5 269.5s-3.33301 163.333 -10 220s-18.834 112.167 -36.501 166.5
s-40.834 99.666 -69.501 135.999s-66.167 65.666 -112.5 87.999z" />
    <glyph glyph-name="P" unicode="P" horiz-adv-x="1391" 
d="M598 1607c282.667 0 481.669 -51.335 597.002 -154.002c93.333 -83.333 140.666 -202.666 141.999 -357.999c0 -263.333 -143.667 -421 -431 -473c-94.667 -17.333 -207.334 -25.666 -338.001 -24.999h-106v-597h-306v1607h442zM1030 1096
c0 56 -9.83301 105.667 -29.5 149s-49.5 76.333 -89.5 99c-72 40.667 -177 61 -315 61h-134v-614h97c182 -0.666992 308.333 26.333 379 81c61.333 48 92 122.667 92 224z" />
    <glyph glyph-name="Q" unicode="Q" horiz-adv-x="1618" 
d="M489 1575.5c90 40.333 195.667 60.5029 317 60.5029s228 -20 320 -60c91.333 -38.667 165 -95.334 221 -170.001c110.667 -146.667 166 -341.667 166 -585c0 -494.667 -178 -774.334 -534 -839.001l330 -244l-155 -167l-479 405c-286 36.667 -465 208.667 -537 516
c-22 94 -33 200.833 -33 320.5s13.667 229.5 41 329.5s68.833 187.167 124.5 261.5s128.5 131.666 218.5 171.999zM1205 801.003c-0.666992 225.333 -40.332 388 -118.999 488c-64 81.333 -156.333 122 -277 122c-224 0.666992 -352.667 -139.666 -386 -420.999
c-6.66699 -56 -10 -118.833 -10 -188.5s3.33301 -132.834 10 -189.501s19 -112 37 -166c17.333 -53.333 40.666 -98 69.999 -134c64 -80 157 -120.333 279 -121c224 0.666992 352.667 141.667 386 423c6.66699 56 10 118.333 10 187z" />
    <glyph glyph-name="R" unicode="R" horiz-adv-x="1463" 
d="M1011 1053.5c15.333 32.333 23.001 66.501 23.001 102.501s-3 65.167 -9 87.5s-15.167 41.5 -27.5 57.5s-25.833 30 -40.5 42s-33.334 21.667 -56.001 29s-44 13.333 -64 18s-45 8 -75 10c-50 3.33301 -104.667 5 -164 5h-136v-505h146c164 0 278.333 25.333 343 76
c24.667 19.333 44.667 45.166 60 77.499zM1343 1201c0 -132.667 -40.167 -230.833 -120.5 -294.5s-191.5 -97.5 -333.5 -101.5c227.333 -26 369.333 -102.333 426 -229c22.667 -50.667 34 -111 34 -181v-395h-303v416c0 142 -58 230.667 -174 266
c-63.333 19.333 -152 29 -266 29h-144v-711h-306v1607h445c197.333 0.666992 348 -14.333 452 -45c94 -27.333 164 -68 210 -122c53.333 -62 80 -141.667 80 -239z" />
    <glyph glyph-name="S" unicode="S" horiz-adv-x="1325" 
d="M914.5 1378c-75.667 22 -144 33 -205 33s-108.833 -2.33301 -143.5 -7c-34.667 -5.33301 -67.334 -14.666 -98.001 -27.999c-64 -28 -96 -80.667 -96 -158c0 -46 13.5 -81.833 40.5 -107.5s64.167 -46.834 111.5 -63.501l345 -132
c182.667 -70 298.334 -168.333 347.001 -295c20 -52 30 -115.167 30 -189.5s-14.333 -142.333 -43 -204s-69.334 -111.167 -122.001 -148.5c-104 -74.667 -246.333 -112 -427 -112s-356.334 46 -527.001 138l55 219c142.667 -68 287.334 -110.333 434.001 -127
c29.333 -3.33301 57 -5 83 -5c170.667 0 256 70.333 256 211c0 62 -16.333 111.167 -49 147.5s-79 65.5 -139 87.5l-354 141c-218.667 86 -328 225.333 -328 418c-0.666992 150 55 262 167 336c104.667 69.333 237.334 104 398.001 104c200 0 375 -44.333 525 -133l-64 -208
c-55.333 33.333 -120.833 61 -196.5 83z" />
    <glyph glyph-name="T" unicode="T" horiz-adv-x="1214" 
d="M761 1405v-1405h-306v1405h-436v202h1172v-202h-430z" />
    <glyph glyph-name="U" unicode="U" horiz-adv-x="1589" 
d="M446 729c0 -159.333 12.6689 -273.666 38.002 -342.999c24 -66.667 58.667 -114.667 104 -144c53.333 -34.667 121.666 -51.667 204.999 -51c129.333 0 219 37.667 269 113c33.333 49.333 53.666 101.666 60.999 156.999c11.333 78.667 17 168 17 268v878h306v-874
c0 -382 -115.333 -620.333 -346 -715c-84 -34.667 -185.333 -52 -304 -52s-220.667 17 -306 51s-153.333 84.333 -204 151c-97.333 128 -146 316.333 -146 565v874h306v-878z" />
    <glyph glyph-name="V" unicode="V" horiz-adv-x="1413" 
d="M709 383l373 1224h288l-502 -1607h-323l-502 1607h286z" />
    <glyph glyph-name="W" unicode="W" horiz-adv-x="2028" 
d="M1189 1607l246 -1276l256 1276h295l-348 -1609h-377l-247 1340l-263 -1338h-363l-347 1607h295l255 -1276l246 1276h352z" />
    <glyph glyph-name="X" unicode="X" horiz-adv-x="1374" 
d="M1040 1607h314l-496 -802l497 -805h-329l-339 556l-339 -556h-329l497 805l-496 802h315l352 -578z" />
    <glyph glyph-name="Y" unicode="Y" horiz-adv-x="1291" 
d="M1002 1607h308l-521 -1093v-514h-291v514l-517 1093h306l358 -777z" />
    <glyph glyph-name="Z" unicode="Z" horiz-adv-x="1250" 
d="M1174 1405l-762 -1203h764v-202h-1098v214l765 1191h-765v202h1096v-202z" />
    <glyph glyph-name="bracketleft" unicode="[" horiz-adv-x="1137" 
d="M978 1607v-202h-446v-1203h446v-202h-729v1607h729z" />
    <glyph glyph-name="backslash" unicode="\" horiz-adv-x="1142" 
d="M1013 -70l-262 -89l-602 1806l262 86z" />
    <glyph glyph-name="bracketright" unicode="]" horiz-adv-x="1161" 
d="M935 1607v-1607h-729v202h445v1203h-445v202h729z" />
    <glyph glyph-name="asciicircum" unicode="^" horiz-adv-x="1331" 
d="M763 1135l276 -583l-220 -31l-155 388l-154 -388l-219 31l277 583h195z" />
    <glyph glyph-name="underscore" unicode="_" horiz-adv-x="1204" 
d="M92 -105v220h992v-220h-992z" />
    <glyph glyph-name="grave" unicode="`" horiz-adv-x="844" 
d="M181 776l289 125l187 -626l-124 -57z" />
    <glyph glyph-name="a" unicode="a" horiz-adv-x="1244" 
d="M819 709c0 133.333 -16.334 218.002 -49.001 254.002c-32 35.333 -83 53 -153 53c-133.333 0 -259.333 -34.667 -378 -104l-79 182c136 80.667 290.667 121 464 121c181.333 -0.666992 308.666 -46.334 381.999 -137.001c69.333 -86.667 104 -224 104 -412v-666h-224
l-40 164c-41.333 -62.667 -89.166 -109.667 -143.499 -141s-123.833 -47 -208.5 -47c-129.333 0 -229.833 32.667 -301.5 98s-107.5 160.666 -107.5 285.999c0.666992 178.667 90.334 294.667 269.001 348c52 16 110 25 174 27c104 0 201 -8.66699 291 -26zM818.999 561.002
l-68.999 6.99902l-44 4c-20 1.33301 -40.5 2 -61.5 2s-44.833 -1.33301 -71.5 -4s-52.834 -8.16699 -78.501 -16.5s-46.5 -19.5 -62.5 -33.5c-36 -30.667 -54 -76.667 -54 -138c0 -136.667 63.667 -205 191 -205c52.667 0 98.5 10.833 137.5 32.5s76.5 51.834 112.5 90.501
v261z" />
    <glyph glyph-name="b" unicode="b" horiz-adv-x="1325" 
d="M446 292c38 -38 77.668 -66.666 119.001 -85.999s88.166 -29 140.499 -29s94.833 11.167 127.5 33.5s57.667 54.5 75 96.5c30.667 74.667 45.667 175 45 301c0 156 -19.333 264.333 -58 325c-54 48 -104.333 75.667 -151 83c-65.333 0 -120 -10.833 -164 -32.5
s-88.667 -52.834 -134 -93.501v-598zM446.001 1067c90 98.667 198.999 148.001 326.999 148.001c180.667 0 313.667 -83.667 399 -251c50.667 -99.333 76 -215.333 76 -348c0 -256.667 -68.333 -440.334 -205 -551.001c-73.333 -59.333 -168 -89 -284 -89
c-159.333 0 -272.666 66 -339.999 198l-58 -174h-207v1668l292 44v-645z" />
    <glyph glyph-name="c" unicode="c" horiz-adv-x="1104" 
d="M1041 91c-106.667 -76.667 -236 -115 -388 -115c-182.667 0 -323 54.5 -421 163.5s-147 257.5 -147 445.5c0 122 21.833 230.167 65.5 324.5s109.167 168.833 196.5 223.5s190.333 82 309 82c156 0 284.333 -36.667 385 -110l-63 -193c-84 69.333 -181.333 104 -292 104
c-112 -5.33301 -191.333 -44 -238 -116c-46 -73.333 -69 -175.333 -69 -306c0 -278.667 104 -417.667 312 -417c60 0 112.167 9.16699 156.5 27.5s87.833 44.5 130.5 78.5z" />
    <glyph glyph-name="d" unicode="d" horiz-adv-x="1323" 
d="M710.5 995.5c-37 13.667 -73.167 20.5 -108.5 20.5s-65.5 -5.33301 -90.5 -16s-45.333 -26.667 -61 -48s-28.5 -44 -38.5 -68c-10.667 -24 -18.667 -53.333 -24 -88c-9.33301 -62 -13.833 -122.333 -13.5 -181s2.33301 -106.834 6 -144.501s10.834 -75.167 21.501 -112.5
c10.667 -38.667 24.667 -70.667 42 -96c39.333 -57.333 97.666 -85.666 174.999 -84.999c112.667 0 201 38.667 265 116v597c-32 26 -59.667 46.667 -83 62s-53.5 29.833 -90.5 43.5zM100.5 423.5c-10.333 63 -15.501 132.498 -15.501 208.498s9.66699 148.833 29 218.5
s47.5 131.834 84.5 186.501s85 98 144 130s125.167 48 198.5 48c145.333 0 259.666 -52.667 342.999 -158v611l292 44v-1712h-209l-58 174c-29.333 -57.333 -74.666 -104.666 -135.999 -141.999s-128.666 -56 -201.999 -56s-137.5 11.333 -192.5 34s-100.667 53.5 -137 92.5
s-66.333 86.5 -90 142.5s-40.667 115.5 -51 178.5z" />
    <glyph glyph-name="e" unicode="e" horiz-adv-x="1203" 
d="M693 177c64 0 119.334 8.66699 166.001 26s92.667 43.333 138 78l66 -197c-120.667 -72 -251.667 -108 -393 -108c-184.667 0 -328.334 52.333 -431.001 157s-154 249.667 -154 435c0 191.333 45.333 346 136 464c94 122 233 183 417 183c156 0 275.333 -47.333 358 -142
s124 -224 124 -388c0 -50.667 -1 -100 -3 -148h-733c1.33301 -114 27.5 -202.5 78.5 -265.5s127.833 -94.5 230.5 -94.5zM877.001 704c0 205.333 -77.333 309.334 -232 312.001c-84.667 -2.66699 -148.5 -33.834 -191.5 -93.501s-66.5 -137.167 -70.5 -232.5h494v14z" />
    <glyph glyph-name="f" unicode="f" horiz-adv-x="854" 
d="M820 1453c-74 27.333 -128.667 41 -164 41c-70 0 -114 -39.667 -132 -119c-8 -36.667 -12 -98 -12 -184v-6h312v-132h-312v-1053h-293v1053h-195v132h195c0 261.333 65.333 424.333 196 489c50 24.667 115.333 37 196 37s158.667 -16.667 234 -50z" />
    <glyph glyph-name="g" unicode="g" horiz-adv-x="1280" 
d="M332 -159c0 -93.333 83.334 -139.997 250.001 -139.997c152 0.666992 248.667 11.667 290 33c35.333 18.667 57.666 35.667 66.999 51c18.667 33.333 28 66 28 98s-5.33301 58.167 -16 78.5s-26.5 36.666 -47.5 48.999s-43 22.166 -66 29.499s-51.5 12.666 -85.5 15.999
s-64 5.66602 -90 6.99902s-58 2.33301 -96 3s-67.333 1.66699 -88 3c-40 -22 -74.333 -53.167 -103 -93.5s-43 -85.166 -43 -134.499zM792.001 978.003c-35.333 26.667 -89.667 40 -163 40s-128.333 -14.5 -165 -43.5s-55 -73.833 -55 -134.5c0 -114 44 -193.333 132 -238
l122 13c56 9.33301 100.333 33.5 133 72.5s49 90.5 49 154.5s-17.667 109.333 -53 136zM910 1148c83.333 39.333 187.327 58.999 311.994 58.999h44v-199h-248c48 -62 72 -115 72 -159c0 -121.333 -35 -214.5 -105 -279.5s-166.667 -105.167 -290 -120.5l-328 -43l19 -134
l281 -12c180.667 -8.66699 310.334 -35.334 389.001 -80.001c74.667 -41.333 123.334 -96 146.001 -164c13.333 -38.667 19.833 -86.5 19.5 -143.5s-12.166 -109.5 -35.499 -157.5s-54 -86.5 -92 -115.5s-85.333 -52.167 -142 -69.5
c-97.333 -30.667 -220.666 -46 -369.999 -46c-189.333 0 -321.333 36 -396 108c-58.667 56 -88 139.5 -88 250.5s68.333 198.833 205 263.5c-60.667 8.66699 -103.167 33.334 -127.5 74.001s-38.5 99.334 -42.5 176.001c0.666992 61.333 20.334 105.333 59.001 132
c37.333 26 70.833 42.333 100.5 49l81.5 19c-67.333 8.66699 -121.166 37.667 -161.499 87s-60.5 112 -60.5 188c0 126 42.167 221.5 126.5 286.5s194.333 97.5 330 97.5s236.167 -22.333 301.5 -67z" />
    <glyph glyph-name="h" unicode="h" horiz-adv-x="1350" 
d="M729 1016c-112.667 0 -207.003 -38 -283.003 -114v-902h-292v1662l292 52v-665c46.667 55.333 96.834 96.833 150.501 124.5s119.334 41.5 197.001 41.5s143.834 -12.333 198.501 -37c54.667 -24 98 -59.333 130 -106c61.333 -90 92 -215.333 92 -376v-696h-292v711
c0 149.333 -32.667 243.333 -98 282c-26 15.333 -57.667 23 -95 23z" />
    <glyph glyph-name="i" unicode="i" horiz-adv-x="649" 
d="M179 0v1185h289v-1185h-289zM443 1459.5c-31.333 -31.667 -70.999 -47.5 -118.999 -47.5s-87.167 15.5 -117.5 46.5s-45.5 70.5 -45.5 118.5s15.5 87.833 46.5 119.5s70.167 47.5 117.5 47.5s86.666 -15.833 117.999 -47.5s47 -71.167 47 -118.5
s-15.667 -86.833 -47 -118.5z" />
    <glyph glyph-name="j" unicode="j" horiz-adv-x="656" 
d="M352 1410c-47.333 0 -86.002 15.333 -116.002 46c-30 32 -45 72 -45 120s15 87.667 45 119c30.667 31.333 69.334 47 116.001 47s85.334 -16 116.001 -48c30 -30.667 45 -70 45 -118s-15 -87.667 -45 -119s-68.667 -47 -116 -47zM1.99805 -173
c74 45.333 126.501 101.667 157.501 169s46.5 160 46.5 278v911h294v-998c0 -144 -37.833 -264.833 -113.5 -362.5s-174.834 -160.5 -297.501 -188.5z" />
    <glyph glyph-name="k" unicode="k" horiz-adv-x="1322" 
d="M446 0h-292v1668l292 45v-1007l496 479h325l-538 -525l558 -660h-333l-404 529l-104 -93v-436z" />
    <glyph glyph-name="l" unicode="l" horiz-adv-x="621" 
d="M457 0h-294v1668l294 44v-1712z" />
    <glyph glyph-name="m" unicode="m" horiz-adv-x="1985" 
d="M1556 790c0 149.333 -49 224 -147 224c-82 0 -155.667 -31.667 -221 -95l-43 -43v-876h-292v797c0 71.333 -11.167 124.833 -33.5 160.5s-62.833 53.5 -121.5 53.5c-84.667 0 -168.667 -51 -252 -153v-858h-292v1185h209l59 -193c70 148.667 186 223 348 223
s270.667 -65.333 326 -196c90.667 130.667 220 196 388 196c122.667 0 214.167 -39.667 274.5 -119s90.5 -187 90.5 -323v-773h-293v790z" />
    <glyph glyph-name="n" unicode="n" horiz-adv-x="1332" 
d="M862 950c-27.333 44 -72.168 66 -134.501 66s-118.166 -13.333 -167.499 -40s-87.333 -58.334 -114 -95.001v-881h-292v1185h220l51 -168c35.333 58.667 84.333 106.334 147 143.001s134.667 55 216 55c144 0 248 -40.5 312 -121.5s96 -199.833 96 -356.5v-737h-293v752
c0 88 -13.667 154 -41 198z" />
    <glyph glyph-name="o" unicode="o" horiz-adv-x="1299" 
d="M647 1010c-183.333 0 -274.999 -140.333 -274.999 -421s91.667 -421 275 -421c155.333 0 244.666 96.667 267.999 290c4.66699 38.667 7 82 7 130c0 281.333 -91.667 422 -275 422zM646.001 1210c185.333 0 325.5 -55.167 420.5 -165.5s142.5 -262.5 142.5 -456.5
s-47.5 -345.667 -142.5 -455s-235.167 -164 -420.5 -164s-325.666 54.833 -420.999 164.5s-143 261.167 -143 454.5s47.667 345.333 143 456s235.666 166 420.999 166z" />
    <glyph glyph-name="p" unicode="p" horiz-adv-x="1332" 
d="M956 577c0 136.667 -12.002 235.667 -36.002 297c-25.333 62.667 -58.666 104 -99.999 124c-24 12 -58.167 18 -102.5 18s-91.666 -12.333 -141.999 -37s-93.5 -55.667 -129.5 -93v-572c97.333 -91.333 192 -137 284 -137c150.667 0 226 133.333 226 400zM1231 793
c10.667 -62.667 16.001 -134.5 16.001 -215.5s-10 -157.833 -30 -230.5s-49.5 -137 -88.5 -193s-90.333 -99.667 -154 -131s-136.5 -47 -218.5 -47c-124.667 0 -228 54.667 -310 164v-577l-292 -9v1631h221l54 -173c30.667 62 74.667 111.333 132 148s123.166 55 197.499 55
s138.5 -10 192.5 -30s99.333 -48.167 136 -84.5s67.167 -81 91.5 -134s41.833 -110.833 52.5 -173.5z" />
    <glyph glyph-name="q" unicode="q" horiz-adv-x="1323" 
d="M379 714c-3.33301 -37.333 -5 -79.002 -5 -125.002s1.5 -86.833 4.5 -122.5s9.5 -72.5 19.5 -110.5c10.667 -37.333 24 -68.666 40 -93.999c37.333 -57.333 93 -85.666 167 -84.999c96 0 189 43.667 279 131v562c-76.667 97.333 -166.667 146 -270 146
c-138.667 0 -217 -100.667 -235 -302zM85 585.998c0 419.333 162.332 629 486.999 629c140.667 0 247.334 -68.667 320.001 -206l43 176h241v-1627l-292 -10v593c-92 -110 -198 -165 -318 -165c-192 0 -328.667 83 -410 249c-48 98 -71.667 218.333 -71 361z" />
    <glyph glyph-name="r" unicode="r" horiz-adv-x="852" 
d="M708 956c-83.333 0 -170.667 -38.667 -262 -116v-840h-292v1185h243l36 -191c37.333 62 80.333 110.167 129 144.5s110.667 51.5 186 51.5c15.333 0 39 -0.666992 71 -2v-244c-18.667 8 -55.667 12 -111 12z" />
    <glyph glyph-name="s" unicode="s" horiz-adv-x="1070" 
d="M522 177c132.667 0 199.001 51.665 199.001 154.998c0.666992 37.333 -15 67.333 -47 90c-28 20 -60 36 -96 48l-233 90c-126 46.667 -204.333 114 -235 202c-12.667 36 -19 79.667 -19 131s11.833 98.5 35.5 141.5s56.167 77.5 97.5 103.5c82 51.333 185.333 77 310 77
c79.333 0 159 -9.5 239 -28.5s141.333 -44.833 184 -77.5l-66 -188c-36 26.667 -87.5 49.167 -154.5 67.5s-130.833 27.5 -191.5 27.5c-130 0 -195 -43.333 -195 -130c0 -33.333 12 -58.666 36 -75.999c28.667 -20.667 57 -34.334 85 -41.001l192 -71
c126 -45.333 212.667 -96.666 260 -153.999c46 -54.667 69 -117 69 -187s-11.667 -129 -35 -177s-55.666 -86.667 -96.999 -116c-82 -58.667 -190 -88 -324 -88c-84.667 0 -167.334 10.333 -248.001 31s-144.334 48.334 -191.001 83.001l66 191
c36 -28 89.667 -52.333 161 -73s137.333 -31 198 -31z" />
    <glyph glyph-name="t" unicode="t" horiz-adv-x="919" 
d="M889 72c-101.333 -64 -213.334 -96.001 -336.001 -96.001c-151.333 0 -249.666 64 -294.999 192c-26.667 73.333 -39.667 169 -39 287v599h-203v131h210l10 412l274 70v-482h335v-131h-335v-677c0 -65.333 8 -115 24 -149s47.333 -51 94 -51
c34 0 63.833 6.83301 89.5 20.5s41.167 21.834 46.5 24.501c22.667 12 38.667 21.667 48 29z" />
    <glyph glyph-name="u" unicode="u" horiz-adv-x="1311" 
d="M519 202c24.667 -12 59.666 -18 104.999 -18c84.667 0 165.334 37.667 242.001 113v888h293v-1185h-210l-58 180c-27.333 -62 -68.333 -111.5 -123 -148.5s-121.667 -55.5 -201 -55.5c-148 0 -257.167 40.167 -327.5 120.5s-105.5 199.5 -105.5 357.5v731h290v-747
c0 -79.333 9.66699 -135.5 29 -168.5s41.333 -55.5 66 -67.5z" />
    <glyph glyph-name="v" unicode="v" horiz-adv-x="1178" 
d="M421 0l-401 1185h303l268 -919l263 919h306l-403 -1185h-336z" />
    <glyph glyph-name="w" unicode="w" horiz-adv-x="1634" 
d="M816 838l-197 -838h-286l-313 1185h275l187 -911l201 911h271l197 -911l194 911h271l-313 -1185h-288z" />
    <glyph glyph-name="x" unicode="x" horiz-adv-x="1179" 
d="M362 0h-323l407 595l-414 590h330l231 -389l231 389h324l-407 -590l400 -595h-318l-230 404z" />
    <glyph glyph-name="y" unicode="y" horiz-adv-x="1181" 
d="M20 1185l295 0.000976562l312 -854l239 854h297l-419 -1220c-58 -164.667 -135 -281.667 -231 -351c-80 -58 -175.667 -87 -287 -87l-81 197c106 13.333 184.5 43.666 235.5 90.999s90.5 121 118.5 221z" />
    <glyph glyph-name="z" unicode="z" horiz-adv-x="1061" 
d="M120 986v199h835v-208l-548 -778h555v-199h-861v210l563 776h-544z" />
    <glyph glyph-name="braceleft" unicode="{" horiz-adv-x="856" 
d="M725 1357c-64.667 0 -108.33 -23.3301 -130.997 -69.9971c-21.333 -44.667 -32.333 -122.834 -33 -234.501s-17 -198.834 -49 -261.501s-85 -105 -159 -127c74 -24 127.167 -67.333 159.5 -130s49.166 -146.334 50.499 -251.001c0 -96 3.33301 -156 10 -180
s13.834 -44.5 21.501 -61.5s17.167 -30.167 28.5 -39.5c26.667 -21.333 60.667 -31.666 102 -30.999v-184c-143.333 0 -246.333 36.667 -309 110c-42.667 49.333 -71.334 101.666 -86.001 156.999c-21.333 82.667 -35 155.667 -41 219s-10.5 105 -13.5 125
s-7.83301 41.667 -14.5 65s-15.334 42 -26.001 56c-24.667 32.667 -60.667 49 -108 49v192c78 0 127.667 53.667 149 161c9.33301 48 16.666 97 21.999 147c14.667 143.333 31 233.333 49 270c67.333 136 193.333 204 378 204v-185z" />
    <glyph glyph-name="bar" unicode="|" horiz-adv-x="752" 
d="M246 1709h261v-1844h-261v1844z" />
    <glyph glyph-name="braceright" unicode="}" horiz-adv-x="858" 
d="M521 665c-75.333 22 -128.834 64.167 -160.501 126.5s-48.167 147.166 -49.5 254.499c0 96.667 -3.16699 156.334 -9.5 179.001s-13.5 42.834 -21.5 60.501s-17.667 31.167 -29 40.5c-27.333 21.333 -61.333 32 -102 32v185c143.333 -0.666992 246.333 -37.667 309 -111
c42.667 -50.667 71.334 -103 86.001 -157c21.333 -80.667 35 -153 41 -217s10.333 -106 13 -126s7.33398 -41.667 14.001 -65s15.334 -42 26.001 -56c24.667 -33.333 60.667 -50 108 -50v-192c-76.667 0 -126.334 -53.667 -149.001 -161c-10 -48 -17.667 -96.667 -23 -146
c-14.667 -142.667 -30.667 -232.667 -48 -270c-68 -136.667 -193.667 -205 -377 -205v184c84.667 -0.666992 136 51.666 154 156.999c8 46.667 13.333 94.667 16 144c7.33301 138 21.666 226.667 42.999 266c33.333 62 86.333 104.333 159 127z" />
    <glyph glyph-name="asciitilde" unicode="~" horiz-adv-x="1106" 
d="M997 587c0 -119.333 -31.668 -205.669 -95.001 -259.002c-34 -28 -74.5 -42 -121.5 -42s-89.667 7.33301 -128 22s-78.166 34.667 -119.499 60c-65.333 40 -108.333 60 -129 60s-35.667 -6 -45 -18c-14 -17.333 -21 -52.666 -21 -105.999h-192c0 208.667 75 313 225 313
c65.333 0 128.5 -23 189.5 -69s120.833 -69 179.5 -69c24.667 0 40.5 8.83301 47.5 26.5s10.5 44.834 10.5 81.501h199z" />
    <glyph glyph-name="uni00A0" unicode="&#xa0;" horiz-adv-x="612" 
 />
    <glyph glyph-name="exclamdown" unicode="&#xa1;" horiz-adv-x="806" 
d="M578 -1h-329l69 1131h194zM427 1264c-56.667 0 -98.667 11.668 -126 35.001s-41 63.666 -41 120.999s13.167 99 39.5 125s68.833 39 127.5 39c100.667 0 151 -56.333 151 -169c0 -100.667 -50.333 -151 -151 -151z" />
    <glyph glyph-name="cent" unicode="&#xa2;" horiz-adv-x="1133" 
d="M630 997c-154 -26.667 -231 -158.832 -231 -396.499s77 -371.834 231 -402.501v799zM1056 81.002c-113.333 -61.333 -208.333 -92.002 -285 -92.002v-143h-141v137c-166.667 8.66699 -295.834 67.5 -387.501 176.5s-137.5 253 -137.5 432s46.833 324.333 140.5 436
s221.834 171.834 384.501 180.501v174h141v-180c98.667 -11.333 195.334 -44.666 290.001 -99.999l-63 -192c-25.333 20.667 -59 39 -101 55s-84 26.333 -126 31v-804c36 2 64 6.83301 84 14.5l39.5 15c6.33301 2.33301 16.166 6.5 29.499 12.5c12 6.66699 20 11 24 13
c26 14 42.333 22.667 49 26z" />
    <glyph glyph-name="sterling" unicode="&#xa3;" horiz-adv-x="1195" 
d="M320 724c-76.667 70.667 -115 158.668 -115 264.001c-0.666992 179.333 95 292 287 338c56 13.333 118 20 186 20c150 0 286.667 -39.667 410 -119l-97 -192c-101.333 62 -199.333 93 -294 93c-146.667 0 -220 -58.333 -220 -175c-0.666992 -61.333 15 -115 47 -161
c10.667 -16 27 -37.333 49 -64h421v-133h-410c0 -78 -12.333 -147.833 -37 -209.5s-58 -123.834 -100 -186.501h611v-199h-857v193c40 46.667 74 106.5 102 179.5s42 147.167 42 222.5h-157v129h132z" />
    <glyph glyph-name="currency" unicode="&#xa4;" horiz-adv-x="1409" 
d="M944 636c-77.333 -52.667 -159.165 -79.001 -245.498 -79.001s-162.833 21.333 -229.5 64l-198 -197l-129 130l195 195c-47.333 73.333 -71 153.333 -71 240s26 169 78 247l-202 202l129 129l203 -202c77.333 53.333 160.166 80 248.499 80s168.166 -23.333 239.499 -70
l194 192l129 -129l-195 -195c42.667 -66.667 64 -143.667 64 -231s-26.667 -169.666 -80 -246.999l211 -211l-129 -130zM904.501 806.999c55.667 56.667 83.5 123.169 83.5 199.502s-26 140.666 -78 192.999s-116.667 78.5 -194 78.5s-144 -28 -200 -84
s-84 -122.833 -84 -200.5s26.333 -142.334 79 -194.001s117.5 -77.5 194.5 -77.5s143.333 28.333 199 85z" />
    <glyph glyph-name="yen" unicode="&#xa5;" horiz-adv-x="1300" 
d="M1008 1606h316l-433 -854h230v-116h-279l-38 -118h317v-114h-319v-404h-290v404h-322v114h320l-37 118h-283v116h231l-430 854h311l353 -790z" />
    <glyph glyph-name="brokenbar" unicode="&#xa6;" horiz-adv-x="722" 
d="M239 1662h266v-737h-266v737zM239 646h266v-737h-266v737z" />
    <glyph glyph-name="section" unicode="&#xa7;" horiz-adv-x="1171" 
d="M430.5 666.5c36.333 -17.667 78.501 -26.499 126.501 -26.499s83.333 1.33301 106 4c22.667 4 44.667 10 66 18c44.667 17.333 67 50.666 67 99.999c0 34 -9.83301 60.667 -29.5 80s-44 32 -73 38s-62.167 9 -99.5 9s-67.333 -1.66699 -90 -5
c-22.667 -4 -44.334 -10 -65.001 -18c-42 -16.667 -63 -49.667 -63 -99s18.167 -82.833 54.5 -100.5zM376.001 1019c-146 51.333 -219.002 139.673 -219.002 265.006c0.666992 116 43.667 199 129 249c79.333 46.667 175.333 70 288 70c74.667 0 150.667 -13.833 228 -41.5
s136 -61.5 176 -101.5l-80 -179c-40.667 32 -89.167 59.333 -145.5 82s-105 34 -146 34s-70.333 -0.666992 -88 -2s-35.834 -4.33301 -54.501 -9c-18.667 -5.33301 -34 -12 -46 -20c-26.667 -18.667 -40 -46.667 -40 -84c0 -28 9.33301 -48.333 28 -61
c24.667 -16 46.167 -27.5 64.5 -34.5l136.5 -50l133 -48.5c16 -6 36.5 -14.333 61.5 -25s45 -20.834 60 -30.501s32 -21.334 51 -35.001s34.167 -28.167 45.5 -43.5s22.333 -32.666 33 -51.999c20 -36 30 -85.167 30 -147.5s-19.667 -113.333 -59 -153
s-90.666 -66.5 -153.999 -80.5c68.667 -26.667 121.667 -64 159 -112s56 -112.333 56 -193c0 -132 -62 -224.667 -186 -278c-70.667 -30.667 -150.834 -45.834 -240.501 -45.501s-173.167 14.166 -250.5 41.499s-139.666 60.666 -186.999 99.999l84 189
c30.667 -30.667 76.834 -59 138.501 -85s124.167 -39 187.5 -39s115.833 10.5 157.5 31.5s62.5 58.5 62.5 112.5c0 47.333 -15.667 81.666 -47 102.999c-26 18 -51.167 30.833 -75.5 38.5s-38.166 12.167 -41.499 13.5l-162 56c-126 41.333 -208.333 85.666 -247 132.999
c-40 48.667 -59.833 109.167 -59.5 181.5s20.5 129 60.5 170s93 67.833 159 80.5z" />
    <glyph glyph-name="dieresis" unicode="&#xa8;" horiz-adv-x="1151" 
d="M392 295c-31.333 -31.333 -71.168 -46.999 -119.501 -46.999s-87.666 15.5 -117.999 46.5s-45.5 70.667 -45.5 119s15.333 88.166 46 119.499s70 47 118 47s87.667 -15.667 119 -47s47 -71 47 -119s-15.667 -87.667 -47 -119zM1001.5 295.501
c-31.667 -31.667 -71.502 -47.499 -119.502 -47.499s-87.167 15.5 -117.5 46.5s-45.5 70.667 -45.5 119s15.333 88.166 46 119.499s69.834 47 117.501 47s87.334 -15.833 119.001 -47.5s47.5 -71.167 47.5 -118.5s-15.833 -86.833 -47.5 -118.5z" />
    <glyph glyph-name="copyright" unicode="&#xa9;" horiz-adv-x="2126" 
d="M367 815c0 -212.667 62.501 -384.499 187.501 -515.499s292.167 -196.5 501.5 -196.5c139.333 0 263.166 30 371.499 90s192.333 144 252 252s89.5 230.667 89.5 368s-30 260.666 -90 369.999s-143.333 194.833 -250 256.5s-227.167 92.5 -361.5 92.5
s-255 -31.167 -362 -93.5s-190.167 -148 -249.5 -257s-89 -231.167 -89 -366.5zM1388 1071c-105.333 54 -206.669 81.002 -304.002 81.002s-167.666 -28.5 -210.999 -85.5s-65 -141.167 -65 -252.5s21.667 -194.666 65 -249.999s116.333 -83 219 -83
c72 0 141.333 14.667 208 44c22.667 10 53.667 25 93 45v-185c-56.667 -28.667 -106 -49.834 -148 -63.501s-88.667 -20.5 -140 -20.5c-166.667 0 -293 45.167 -379 135.5s-129 217.666 -129 381.999s43 291.166 129 380.499s209 134 369 134
c92.667 0 190.334 -27 293.001 -81v-181zM1536.5 22.5029c-140.333 -75.667 -298.999 -113.498 -475.999 -113.498s-334.833 38.5 -473.5 115.5s-246.334 184.5 -323.001 322.5s-115 295 -115 471c0 132.667 23.167 255.5 69.5 368.5s110 209 191 288
s178.167 140.833 291.5 185.5s235.5 67 366.5 67s253.5 -22.833 367.5 -68.5s211.333 -108.334 292 -188.001s144 -175.834 190 -288.501s69 -234 69 -364c0 -178 -39.833 -336.167 -119.5 -474.5s-189.667 -245.333 -330 -321z" />
    <glyph glyph-name="ordfeminine" unicode="&#xaa;" horiz-adv-x="1246" 
d="M263 1552c25.333 0 75.833 14.333 151.5 43s137.167 43 184.5 43c134 0 227.667 -31.667 281 -95s80 -166 80 -308v-549h-116l-27 142c-2 0 -7 -5.66699 -15 -17c-23.333 -31.333 -40 -52.333 -50 -63c-60.667 -53.333 -138.667 -80 -234 -80s-171.166 25 -227.499 75
s-84.5 123.167 -84.5 219.5s32.833 169.666 98.5 219.999s160.167 75.5 283.5 75.5s193.666 -13.333 210.999 -40v58c0 84.667 -13.167 145.334 -39.5 182.001s-82 55 -167 55s-169.167 -19.667 -252.5 -59l-24 -11zM367 971c0 -69.333 14.667 -118.333 44 -147
s73 -43 131 -43c102 0 182 33.667 240 101c11.333 13.333 17 20.333 17 21v238c-73.333 11.333 -132 17 -176 17c-170.667 0 -256 -62.333 -256 -187zM270 575h684v-129h-684v129z" />
    <glyph glyph-name="guillemotleft" unicode="&#xab;" horiz-adv-x="1754" 
d="M1135 588l467 -289v-291l-741 465v224l741 464v-291zM396 588l466 -289v-291l-741 465v224l741 464v-291z" />
    <glyph glyph-name="logicalnot" unicode="&#xac;" horiz-adv-x="1388" 
d="M77 768v222h1157v-713h-189v491h-968z" />
    <glyph glyph-name="uni00AD" unicode="&#xad;" horiz-adv-x="1038" 
d="M158 558v214h678v-214h-678z" />
    <glyph glyph-name="registered" unicode="&#xae;" horiz-adv-x="1378" 
d="M1034.5 651.5c-99 -52.333 -210 -78.501 -333 -78.501s-234 25.833 -333 77.5s-176.833 125.167 -233.5 220.5s-85 203.5 -85 324.5s28.5 229.333 85.5 325s135 169.834 234 222.501s202 79 309 79s200.667 -15.5 281 -46.5s149.5 -73.667 207.5 -128
s103.833 -120.333 137.5 -198s50.5 -169.334 50.5 -275.001s-28.667 -206.167 -86 -301.5s-135.5 -169.166 -234.5 -221.499zM195 1194c0 -148.667 46.833 -268.834 140.5 -360.501s215.167 -137.5 364.5 -137.5s271.5 46.333 366.5 139s142.5 212.834 142.5 360.501
s-47.333 268 -142 361s-216.667 139.5 -366 139.5s-271 -46.5 -365 -139.5s-141 -213.833 -141 -362.5zM655 1426h-27.9971v-179h64c16.667 0 28.5 2.66699 35.5 8s10.5 15.333 10.5 30c28 3.33301 49 10 63 20s21 23.5 21 40.5s-2.33301 29.833 -7 38.5
s-11.834 15.5 -21.501 20.5s-19.334 9 -29.001 12s-22.167 5.16699 -37.5 6.5c-22.667 2 -46.334 3 -71.001 3zM924.003 1440c17.333 -25.333 25.833 -61.333 25.5 -108s-14.5 -83 -42.5 -109s-70.333 -44.333 -127 -55l178 -256l-117 -59l-179 292h-38v-272h-124v654h139
c150 0.666992 245 -28.333 285 -87z" />
    <glyph glyph-name="glyph115" unicode="&#xaf;" horiz-adv-x="1003" 
d="M98 215h682v-117h-682v117z" />
    <glyph glyph-name="degree" unicode="&#xb0;" horiz-adv-x="819" 
d="M407 1195c-60 0 -109.667 -19.166 -149 -57.499s-59 -87.5 -59 -147.5s19.5 -109.167 58.5 -147.5s88.833 -57.5 149.5 -57.5s110.167 19 148.5 57s57.5 87.167 57.5 147.5s-19.333 109.666 -58 147.999s-88 57.5 -148 57.5zM203 798.001
c-53.333 52 -80 116.834 -80 194.501s27.333 141.5 82 191.5s122.167 75 202.5 75s147.333 -25.333 201 -76s80.5 -115.834 80.5 -195.501s-27.667 -144.167 -83 -193.5s-123 -74 -203 -74s-146.667 26 -200 78z" />
    <glyph glyph-name="plusminus" unicode="&#xb1;" horiz-adv-x="1158" 
d="M222 -22v197h771v-197h-771zM724 707v-356h-234v356h-297v219h297v354h234v-354h298v-219h-298z" />
    <glyph glyph-name="uni00B2" unicode="&#xb2;" horiz-adv-x="1126" 
d="M270 1586c82.667 34.667 179.663 52.002 290.996 52.002s198.833 -24.333 262.5 -73s95.5 -118 95.5 -208c0 -45.333 -5 -80 -15 -104l-23 -55.5c-5.33301 -13 -14.666 -27.833 -27.999 -44.5l-29.5 -37.5c-6.33301 -8.33301 -18.5 -20.833 -36.5 -37.5
c-18 -16 -29.667 -26.667 -35 -32c-13.333 -12 -38.666 -33.333 -75.999 -64l-191 -162h406v-152h-638v137l271 240c10.667 9.33301 29.834 25.166 57.501 47.499s48.5 40.166 62.5 53.499c14.667 13.333 31.334 31.333 50.001 54c35.333 42 53 90.333 53 145
c0 103.333 -60.333 155 -181 155c-81.333 0 -180 -17.333 -296 -52v138z" />
    <glyph glyph-name="uni00B3" unicode="&#xb3;" horiz-adv-x="1208" 
d="M941.5 1042c50.333 -50 75.502 -113.17 75.502 -189.503s-18.667 -137.166 -56 -182.499c-70.667 -86.667 -181.667 -130 -333 -130c-122 0 -231.333 26 -328 78l51 127c101.333 -48.667 189.333 -73 264 -73s132.667 15.667 174 47s62 79 62 143
c0 120.667 -87.333 190.667 -262 210v135c69.333 0 127.166 14.667 173.499 44s69.5 73.333 69.5 132c0 105.333 -74.667 158 -224 158c-72 0 -150 -19 -234 -57l-47 127c86.667 44 182 66 286 66c104.667 0 191.667 -22 261 -66c74.667 -47.333 112 -119.666 112 -216.999
c0 -71.333 -23.667 -131.166 -71 -179.499s-105.333 -72.5 -174 -72.5c83.333 -16.667 150.166 -50 200.499 -100z" />
    <glyph glyph-name="acute" unicode="&#xb4;" horiz-adv-x="1117" 
d="M449 269l189 623l286 -126l-355 -553z" />
    <glyph glyph-name="uni00B5" unicode="&#xb5;" horiz-adv-x="1320" 
d="M599 -20c-94 0 -174.001 44.333 -240.001 133v-404h-174v1460h174v-727c0 -212.667 84 -319 252 -319c70.667 0 137.334 14.5 200.001 43.5s111.667 64.833 147 107.5v895h208v-1153h-146l-24 154c-114 -126.667 -246.333 -190 -397 -190z" />
    <glyph glyph-name="paragraph" unicode="&#xb6;" horiz-adv-x="1417" 
d="M100 1214c0 224 134 351.333 402 382c54.667 6.66699 116 10 184 10h561v-1606h-232v1457h-138v-1457h-236v801c-360.667 0 -541 137.667 -541 413z" />
    <glyph glyph-name="periodcentered" unicode="&#xb7;" horiz-adv-x="591" 
d="M415.5 569.5c-33.667 -33.667 -75.667 -50.499 -126 -50.499s-92 16.833 -125 50.5s-49.5 75.667 -49.5 126s16.5 92.333 49.5 126s74.667 50.5 125 50.5s92.333 -16.667 126 -50s50.5 -75.333 50.5 -126s-16.833 -92.834 -50.5 -126.501z" />
    <glyph glyph-name="cedilla" unicode="&#xb8;" horiz-adv-x="637" 
d="M309 -642c-38.667 0 -68.002 3 -88.002 9s-32.333 9.5 -37 10.5s-12.167 3.33301 -22.5 7s-16.833 6.16699 -19.5 7.5c-24 9.33301 -37.333 14.333 -40 15v131l20 -6c72.667 -24.667 129.167 -37 169.5 -37s71.166 8.83301 92.499 26.5s32 45 32 82
s-6.66699 65.5 -20 85.5c-13.333 20.667 -32.666 35.667 -57.999 45c-45.333 16.667 -106.666 25 -183.999 25l12 286h122l-7 -181c88.667 0 162 -21.167 220 -63.5s87 -104.5 87 -186.5s-24.667 -145.167 -74 -189.5s-117.666 -66.5 -204.999 -66.5z" />
    <glyph glyph-name="uni00B9" unicode="&#xb9;" horiz-adv-x="740" 
d="M327 1304l-171 -72l-37 113l237 95l140 -26v-936h-169v826z" />
    <glyph glyph-name="ordmasculine" unicode="&#xba;" horiz-adv-x="1265" 
d="M953.5 1504.5c73 -89 109.5 -206.667 109.5 -353s-36.333 -263.166 -109 -350.499s-178 -131 -316 -131s-243.167 43.667 -315.5 131s-108.5 204.166 -108.5 350.499s36.333 264 109 353s177.667 133.5 315 133.5s242.5 -44.5 315.5 -133.5zM371 1154
c0 -170.667 47.332 -280.665 141.999 -329.998c35.333 -18.667 77 -27.834 125 -27.501s89.667 9.5 125 27.5s63 43.667 83 77c38.667 64 58.334 148.333 59.001 253c0 103.333 -19.667 187.666 -59 252.999c-42 70 -110.5 105 -205.5 105s-163.667 -32.5 -206 -97.5
s-63.5 -151.833 -63.5 -260.5zM299.999 575.002h684v-129h-684v129z" />
    <glyph glyph-name="guillemotright" unicode="&#xbb;" horiz-adv-x="1780" 
d="M172 1161l741 -464v-224l-741 -465v291l476 289l-476 282v291zM911 1161l742 -464v-224l-742 -465v291l477 289l-477 282v291z" />
    <glyph glyph-name="onequarter" unicode="&#xbc;" horiz-adv-x="1947" 
d="M1478 244v404l-268 -404h268zM1683 965v-720h146v-172h-146v-241l-209 -9v250h-487l-30 144l547 794zM1222 1498l188 -88l-857 -1525l-184 85zM298 1261l-146 -63l-61 155l271 107l163 -35v-944h-227v780z" />
    <glyph glyph-name="onehalf" unicode="&#xbd;" horiz-adv-x="2119" 
d="M1876.5 893c69 -49.333 103.5 -121.002 103.5 -215.002c0 -84.667 -23 -155.334 -69 -212.001c-25.333 -31.333 -46 -54.666 -62 -69.999c-15.333 -16 -33 -32.667 -53 -50c-24 -20.667 -37.667 -32 -41 -34l-148 -129h347v-192h-680v162l133 110
c130.667 106.667 220 187.834 268 243.501s72 104.834 72 147.501c0 84.667 -51 127 -153 127c-78.667 0 -172.667 -24 -282 -72l-45 175c137.333 55.333 256 83 356 83s184.5 -24.667 253.5 -74zM320 1261l-145 -63l-62 155l272 107l162 -35v-944h-227v780zM1234 1498
l188 -88l-857 -1525l-184 85z" />
    <glyph glyph-name="threequarters" unicode="&#xbe;" horiz-adv-x="2178" 
d="M1714 244v410l-286 -410h286zM1907 965v-721h146v-171h-146v-241l-197 -9v250h-500l-29 144l547 794zM1441 1498l192 -88l-856 -1525l-184 85zM449 649c126 0 188.997 49.334 188.997 148.001c0 59.333 -24 103.333 -72 132s-108 45 -180 49v176
c90.667 0 156.334 20 197.001 60c23.333 22.667 35.333 52.334 36 89.001c0 78.667 -57.333 118 -172 118c-66 0 -144 -19.333 -234 -58l-75 165c82 50.667 181.667 76 299 76c264.667 0 397 -100 397 -300c0 -62.667 -19 -115.334 -57 -158.001s-85 -69 -141 -79
c64.667 -14.667 118.834 -46.334 162.501 -95.001s65.5 -105 65.5 -169s-11.333 -117 -34 -159c-21.333 -42.667 -52 -76.667 -92 -102c-78 -49.333 -174.833 -73.833 -290.5 -73.5s-219.5 21.833 -311.5 64.5l62 176c72.667 -40 156.334 -60 251.001 -60z" />
    <glyph glyph-name="questiondown" unicode="&#xbf;" horiz-adv-x="1209" 
d="M796 1571c35.333 -15.333 63.6689 -41.666 85.002 -78.999s32 -80.333 32 -129c-14.667 -36 -39.334 -65 -74.001 -87s-75.667 -33 -123 -33c-34.667 16 -62.834 42.5 -84.501 79.5s-32.5 79.833 -32.5 128.5c14.667 35.333 39.5 64.166 74.5 86.499
s75.833 33.5 122.5 33.5zM901.003 705c-14.667 -5.33301 -38.3281 -13.167 -70.9951 -23.5l-81.5 -26c-21.667 -7 -48.667 -17 -81 -30s-59.333 -25.167 -81 -36.5s-44.834 -25.666 -69.501 -42.999s-44.334 -35.333 -59.001 -54
c-34.667 -44 -51.834 -87.833 -51.501 -131.5s7.16602 -78 20.499 -103s33.166 -43.833 59.499 -56.5s54.5 -21.334 84.5 -26.001s66 -7 108 -7s110.333 9.16699 205 27.5s142 35.5 142 51.5l74 -214c-129.333 -65.333 -276 -98 -440 -98c-154 0 -280 29 -378 87
c-106.667 63.333 -160 165.666 -160 306.999c0 238.667 169.667 409.334 509 512.001v309h270v-445z" />
    <glyph glyph-name="Agrave" unicode="&#xc0;" horiz-adv-x="1513" 
d="M937 1607l532 -1607h-307l-118 369h-576l-117 -369h-308l528 1607h366zM509 516h495l-244 769zM443 2382l289 125l187 -626l-124 -57z" />
    <glyph glyph-name="Aacute" unicode="&#xc1;" horiz-adv-x="1513" 
d="M937 1607l532 -1607h-307l-118 369h-576l-117 -369h-308l528 1607h366zM509 516h495l-244 769zM587 1875l189 623l286 -126l-355 -553z" />
    <glyph glyph-name="Acircumflex" unicode="&#xc2;" horiz-adv-x="1513" 
d="M937 1607l532 -1607h-307l-118 369h-576l-117 -369h-308l528 1607h366zM509 516h495l-244 769zM858 2443l277 -583l-221 -31l-154 388l-154 -388l-219 31l276 583h195z" />
    <glyph glyph-name="Atilde" unicode="&#xc3;" horiz-adv-x="1513" 
d="M937 1607l532 -1607h-307l-118 369h-576l-117 -369h-308l528 1607h366zM509 516h495l-244 769zM1176 2135c0 -90 -17.334 -162.667 -52.001 -218s-88.334 -83 -161.001 -83c-52 0 -107.333 12.667 -166 38c-49.333 22 -98 47.333 -146 76
c-29.333 14.667 -54.666 22 -75.999 22c-38.667 0 -58 -39.333 -58 -118h-191c0 208.667 74.333 313 223 313c54 0 96.333 -7.16699 127 -21.5s60 -28.833 88 -43.5l48 -24c2 -0.666992 9 -4.33398 21 -11c12 -6.66699 20.333 -11 25 -13l22 -9
c18.667 -7.33301 34.834 -11 48.501 -11s23.667 2.5 30 7.5s10.833 12.833 13.5 23.5c4 16 6 40 6 72h198z" />
    <glyph glyph-name="Adieresis" unicode="&#xc4;" horiz-adv-x="1513" 
d="M937 1607l532 -1607h-307l-118 369h-576l-117 -369h-308l528 1607h366zM509 516h495l-244 769zM556 1868c-31.333 -31.333 -71.168 -46.999 -119.501 -46.999s-87.666 15.5 -117.999 46.5s-45.5 70.667 -45.5 119s15.333 88.166 46 119.499s70 47 118 47
s87.667 -15.667 119 -47s47 -71 47 -119s-15.667 -87.667 -47 -119zM1165.5 1868.5c-31.667 -31.667 -71.502 -47.499 -119.502 -47.499s-87.167 15.5 -117.5 46.5s-45.5 70.667 -45.5 119s15.333 88.166 46 119.499s69.834 47 117.501 47s87.334 -15.833 119.001 -47.5
s47.5 -71.167 47.5 -118.5s-15.833 -86.833 -47.5 -118.5z" />
    <glyph glyph-name="Aring" unicode="&#xc5;" horiz-adv-x="1513" 
d="M937 1607l532 -1607h-307l-118 369h-576l-117 -369h-308l528 1607h366zM509 516h495l-244 769zM883 2246c-32 32 -72.5 48 -121.5 48s-89.333 -16 -121 -48s-47.5 -72.333 -47.5 -121s15.833 -88.834 47.5 -120.501s72.167 -47.5 121.5 -47.5s89.833 15.833 121.5 47.5
s47.5 71.834 47.5 120.501s-16 89 -48 121zM530.5 1906.5c-60.333 58.333 -90.502 131.833 -90.502 220.5s31.167 161.5 93.5 218.5s139.333 85.5 231 85.5s168 -28.833 229 -86.5s91.5 -131.5 91.5 -221.5s-31.667 -163.167 -95 -219.5s-140.666 -84.5 -231.999 -84.5
s-167.166 29.167 -227.499 87.5z" />
    <glyph glyph-name="AE" unicode="&#xc6;" horiz-adv-x="1989" 
d="M932 1413l-378 -894h378v894zM1893 1408h-673v-471h601v-173h-600v-565h690v-199h-978v364h-432l-152 -364h-306l713 1607h1137v-199z" />
    <glyph glyph-name="Ccedilla" unicode="&#xc7;" horiz-adv-x="1319" 
d="M823 1411c-230.667 -0.666992 -364 -142.999 -400 -426.999c-7.33301 -58.667 -11 -123.334 -11 -194.001c0 -399.333 137 -599 411 -599c136.667 0 257.667 37 363 111l84 -216c-46 -38 -112.5 -67.5 -199.5 -88.5s-183.333 -31.5 -289 -31.5s-203.5 20 -293.5 60
s-162.667 97.333 -218 172c-110 148 -165 347.333 -165 598c-0.666992 248 55 448 167 600c56 76 129.167 135 219.5 177s187.833 63 292.5 63c216 0 374.333 -35 475 -105l-80 -219c-101.333 66 -220 99 -356 99zM870 -656.999c-38.667 0 -68.002 3 -88.002 9
s-32.333 9.5 -37 10.5s-12.167 3.33301 -22.5 7s-16.833 6.16699 -19.5 7.5c-24 9.33301 -37.333 14.333 -40 15v131l20 -6c72.667 -24.667 129.167 -37 169.5 -37s71.166 8.83301 92.499 26.5s32 45 32 82s-6.66699 65.5 -20 85.5
c-13.333 20.667 -32.666 35.667 -57.999 45c-45.333 16.667 -106.666 25 -183.999 25l12 286h122l-7 -181c88.667 0 162 -21.167 220 -63.5s87 -104.5 87 -186.5s-24.667 -145.167 -74 -189.5s-117.666 -66.5 -204.999 -66.5z" />
    <glyph glyph-name="Egrave" unicode="&#xc8;" horiz-adv-x="1281" 
d="M156 0v1607h1049v-202h-744v-474h649v-186h-649v-546h755v-199h-1060zM374 2384l289 125l187 -626l-124 -57z" />
    <glyph glyph-name="Eacute" unicode="&#xc9;" horiz-adv-x="1281" 
d="M156 0v1607h1049v-202h-744v-474h649v-186h-649v-546h755v-199h-1060zM518 1877l189 623l286 -126l-355 -553z" />
    <glyph glyph-name="Ecircumflex" unicode="&#xca;" horiz-adv-x="1281" 
d="M156 0v1607h1049v-202h-744v-474h649v-186h-649v-546h755v-199h-1060zM789 2445l277 -583l-221 -31l-154 388l-154 -388l-219 31l276 583h195z" />
    <glyph glyph-name="Edieresis" unicode="&#xcb;" horiz-adv-x="1281" 
d="M156 0v1607h1049v-202h-744v-474h649v-186h-649v-546h755v-199h-1060zM488 1870c-31.333 -31.333 -71.168 -46.999 -119.501 -46.999s-87.666 15.5 -117.999 46.5s-45.5 70.667 -45.5 119s15.333 88.166 46 119.499s70 47 118 47s87.667 -15.667 119 -47s47 -71 47 -119
s-15.667 -87.667 -47 -119zM1097.5 1870.5c-31.667 -31.667 -71.502 -47.499 -119.502 -47.499s-87.167 15.5 -117.5 46.5s-45.5 70.667 -45.5 119s15.333 88.166 46 119.499s69.834 47 117.501 47s87.334 -15.833 119.001 -47.5s47.5 -71.167 47.5 -118.5
s-15.833 -86.833 -47.5 -118.5z" />
    <glyph glyph-name="Igrave" unicode="&#xcc;" horiz-adv-x="846" 
d="M273 150v1304h-186v153h676v-153h-189v-1304h189v-150h-676v150h186zM106 2389l289 125l187 -626l-124 -57z" />
    <glyph glyph-name="Iacute" unicode="&#xcd;" horiz-adv-x="846" 
d="M273 150v1304h-186v153h676v-153h-189v-1304h189v-150h-676v150h186zM251 1882l189 623l286 -126l-355 -553z" />
    <glyph glyph-name="Icircumflex" unicode="&#xce;" horiz-adv-x="846" 
d="M273 150v1304h-186v153h676v-153h-189v-1304h189v-150h-676v150h186zM522 2450l277 -583l-221 -31l-154 388l-154 -388l-219 31l276 583h195z" />
    <glyph glyph-name="Idieresis" unicode="&#xcf;" horiz-adv-x="846" 
d="M273 150v1304h-186v153h676v-153h-189v-1304h189v-150h-676v150h186zM220 1875c-31.333 -31.333 -71.168 -46.999 -119.501 -46.999s-87.666 15.5 -117.999 46.5s-45.5 70.667 -45.5 119s15.333 88.166 46 119.499s70 47 118 47s87.667 -15.667 119 -47s47 -71 47 -119
s-15.667 -87.667 -47 -119zM829.498 1875.5c-31.667 -31.667 -71.502 -47.499 -119.502 -47.499s-87.167 15.5 -117.5 46.5s-45.5 70.667 -45.5 119s15.333 88.166 46 119.499s69.834 47 117.501 47s87.334 -15.833 119.001 -47.5s47.5 -71.167 47.5 -118.5
s-15.833 -86.833 -47.5 -118.5z" />
    <glyph glyph-name="Eth" unicode="&#xd0;" horiz-adv-x="1559" 
d="M619 199c203.333 0.666992 342.668 50.332 418.001 148.999c39.333 52 67.166 113.833 83.499 185.5s24.5 160.834 24.5 267.501s-8 196.5 -24 269.5s-43.667 136.167 -83 189.5c-76 102.667 -215.667 154 -419 154h-153v-490h257v-195h-257v-530h153zM691.002 1607
c508.667 0 763 -269.667 763 -809c0 -258 -64 -455.5 -192 -592.5s-318.333 -205.5 -571 -205.5h-530v729h-163v195h163v683h530z" />
    <glyph glyph-name="Ntilde" unicode="&#xd1;" horiz-adv-x="1651" 
d="M1160 0l-724 1225v-1225h-280v1607h348l711 -1212v1212h280v-1607h-335zM1232 2137c0 -90 -17.334 -162.667 -52.001 -218s-88.334 -83 -161.001 -83c-52 0 -107.333 12.667 -166 38c-49.333 22 -98 47.333 -146 76c-29.333 14.667 -54.666 22 -75.999 22
c-38.667 0 -58 -39.333 -58 -118h-191c0 208.667 74.333 313 223 313c54 0 96.333 -7.16699 127 -21.5s60 -28.833 88 -43.5l48 -24c2 -0.666992 9 -4.33398 21 -11c12 -6.66699 20.333 -11 25 -13l22 -9c18.667 -7.33301 34.834 -11 48.501 -11s23.667 2.5 30 7.5
s10.833 12.833 13.5 23.5c4 16 6 40 6 72h198z" />
    <glyph glyph-name="Ograve" unicode="&#xd2;" horiz-adv-x="1611" 
d="M824 1635c108 0 207.167 -19.499 297.5 -58.499s163.5 -95.167 219.5 -168.5c110.667 -144.667 166 -344 166 -598c0.666992 -438 -144.333 -706.333 -435 -805c-78.667 -26.667 -173.834 -40 -285.501 -40s-213 20.5 -304 61.5s-163.833 99.833 -218.5 176.5
c-106.667 149.333 -160 354.666 -160 615.999c0 308 81.333 531.333 244 670c114.667 97.333 273.334 146 476.001 146zM970.5 1377.5c-46.333 22.333 -100.664 33.502 -162.997 33.502s-117 -11 -164 -33s-85 -51.167 -114 -87.5s-52.167 -81.5 -69.5 -135.5
c-30.667 -94.667 -46.334 -213.667 -47.001 -357c0 -226 39 -388 117 -486c64 -80 155.667 -120 275 -120c104 0 185.167 28.5 243.5 85.5s98 130.333 119 220s31.5 179.5 31.5 269.5s-3.33301 163.333 -10 220s-18.834 112.167 -36.501 166.5
s-40.834 99.666 -69.501 135.999s-66.167 65.666 -112.5 87.999zM488.002 2393l289 125l187 -626l-124 -57z" />
    <glyph glyph-name="Oacute" unicode="&#xd3;" horiz-adv-x="1611" 
d="M824 1635c108 0 207.167 -19.499 297.5 -58.499s163.5 -95.167 219.5 -168.5c110.667 -144.667 166 -344 166 -598c0.666992 -438 -144.333 -706.333 -435 -805c-78.667 -26.667 -173.834 -40 -285.501 -40s-213 20.5 -304 61.5s-163.833 99.833 -218.5 176.5
c-106.667 149.333 -160 354.666 -160 615.999c0 308 81.333 531.333 244 670c114.667 97.333 273.334 146 476.001 146zM970.5 1377.5c-46.333 22.333 -100.664 33.502 -162.997 33.502s-117 -11 -164 -33s-85 -51.167 -114 -87.5s-52.167 -81.5 -69.5 -135.5
c-30.667 -94.667 -46.334 -213.667 -47.001 -357c0 -226 39 -388 117 -486c64 -80 155.667 -120 275 -120c104 0 185.167 28.5 243.5 85.5s98 130.333 119 220s31.5 179.5 31.5 269.5s-3.33301 163.333 -10 220s-18.834 112.167 -36.501 166.5
s-40.834 99.666 -69.501 135.999s-66.167 65.666 -112.5 87.999zM633.002 1886l189 623l286 -126l-355 -553z" />
    <glyph glyph-name="Ocircumflex" unicode="&#xd4;" horiz-adv-x="1611" 
d="M824 1635c108 0 207.167 -19.499 297.5 -58.499s163.5 -95.167 219.5 -168.5c110.667 -144.667 166 -344 166 -598c0.666992 -438 -144.333 -706.333 -435 -805c-78.667 -26.667 -173.834 -40 -285.501 -40s-213 20.5 -304 61.5s-163.833 99.833 -218.5 176.5
c-106.667 149.333 -160 354.666 -160 615.999c0 308 81.333 531.333 244 670c114.667 97.333 273.334 146 476.001 146zM970.5 1377.5c-46.333 22.333 -100.664 33.502 -162.997 33.502s-117 -11 -164 -33s-85 -51.167 -114 -87.5s-52.167 -81.5 -69.5 -135.5
c-30.667 -94.667 -46.334 -213.667 -47.001 -357c0 -226 39 -388 117 -486c64 -80 155.667 -120 275 -120c104 0 185.167 28.5 243.5 85.5s98 130.333 119 220s31.5 179.5 31.5 269.5s-3.33301 163.333 -10 220s-18.834 112.167 -36.501 166.5
s-40.834 99.666 -69.501 135.999s-66.167 65.666 -112.5 87.999zM904.002 2454l277 -583l-221 -31l-154 388l-154 -388l-219 31l276 583h195z" />
    <glyph glyph-name="Otilde" unicode="&#xd5;" horiz-adv-x="1611" 
d="M824 1635c108 0 207.167 -19.499 297.5 -58.499s163.5 -95.167 219.5 -168.5c110.667 -144.667 166 -344 166 -598c0.666992 -438 -144.333 -706.333 -435 -805c-78.667 -26.667 -173.834 -40 -285.501 -40s-213 20.5 -304 61.5s-163.833 99.833 -218.5 176.5
c-106.667 149.333 -160 354.666 -160 615.999c0 308 81.333 531.333 244 670c114.667 97.333 273.334 146 476.001 146zM970.5 1377.5c-46.333 22.333 -100.664 33.502 -162.997 33.502s-117 -11 -164 -33s-85 -51.167 -114 -87.5s-52.167 -81.5 -69.5 -135.5
c-30.667 -94.667 -46.334 -213.667 -47.001 -357c0 -226 39 -388 117 -486c64 -80 155.667 -120 275 -120c104 0 185.167 28.5 243.5 85.5s98 130.333 119 220s31.5 179.5 31.5 269.5s-3.33301 163.333 -10 220s-18.834 112.167 -36.501 166.5
s-40.834 99.666 -69.501 135.999s-66.167 65.666 -112.5 87.999zM1222 2146c0 -90 -17.334 -162.666 -52.001 -217.999s-88.334 -83 -161.001 -83c-52 0 -107.333 12.667 -166 38c-49.333 22 -98 47.333 -146 76c-29.333 14.667 -54.666 22 -75.999 22
c-38.667 0 -58 -39.333 -58 -118h-191c0 208.667 74.333 313 223 313c54 0 96.333 -7.16699 127 -21.5s60 -28.833 88 -43.5l48 -24c2 -0.666992 9 -4.33398 21 -11.001s20.333 -11 25 -13l22 -9c18.667 -7.33301 34.834 -11 48.501 -11s23.667 2.5 30 7.5
s10.833 12.833 13.5 23.5c4 16 6 40 6 72h198z" />
    <glyph glyph-name="Odieresis" unicode="&#xd6;" horiz-adv-x="1611" 
d="M824 1635c108 0 207.167 -19.499 297.5 -58.499s163.5 -95.167 219.5 -168.5c110.667 -144.667 166 -344 166 -598c0.666992 -438 -144.333 -706.333 -435 -805c-78.667 -26.667 -173.834 -40 -285.501 -40s-213 20.5 -304 61.5s-163.833 99.833 -218.5 176.5
c-106.667 149.333 -160 354.666 -160 615.999c0 308 81.333 531.333 244 670c114.667 97.333 273.334 146 476.001 146zM970.5 1377.5c-46.333 22.333 -100.664 33.502 -162.997 33.502s-117 -11 -164 -33s-85 -51.167 -114 -87.5s-52.167 -81.5 -69.5 -135.5
c-30.667 -94.667 -46.334 -213.667 -47.001 -357c0 -226 39 -388 117 -486c64 -80 155.667 -120 275 -120c104 0 185.167 28.5 243.5 85.5s98 130.333 119 220s31.5 179.5 31.5 269.5s-3.33301 163.333 -10 220s-18.834 112.167 -36.501 166.5
s-40.834 99.666 -69.501 135.999s-66.167 65.666 -112.5 87.999zM602.002 1878c-31.333 -31.333 -71.168 -46.999 -119.501 -46.999s-87.666 15.5 -117.999 46.5s-45.5 70.667 -45.5 119s15.333 88.166 46 119.499s70 47 118 47s87.667 -15.667 119 -47s47 -71 47 -119
s-15.667 -87.667 -47 -119zM1211.5 1878.5c-31.667 -31.667 -71.502 -47.499 -119.502 -47.499s-87.167 15.5 -117.5 46.5s-45.5 70.667 -45.5 119s15.333 88.166 46 119.499s69.834 47 117.501 47s87.334 -15.833 119.001 -47.5s47.5 -71.167 47.5 -118.5
s-15.833 -86.833 -47.5 -118.5z" />
    <glyph glyph-name="multiply" unicode="&#xd7;" horiz-adv-x="1361" 
d="M393 1011l306 -296l306 296l154 -164l-298 -287l298 -288l-154 -164l-306 296l-306 -296l-153 164l297 288l-297 287z" />
    <glyph glyph-name="Oslash" unicode="&#xd8;" horiz-adv-x="1612" 
d="M1219 1521c192 -132.667 287.999 -372.667 287.999 -720c0 -433.333 -146 -698.666 -438 -795.999c-78 -26 -163.833 -39 -257.5 -39s-172.5 10 -236.5 30l-69 -163l-124 46l70 165c-231.333 119.333 -347 371.666 -347 756.999c0 255.333 55 457 165 605
c114.667 153.333 291.334 230 530.001 230c112.667 0 214 -18 304 -54l75 177l122 -45zM665.999 215c57.333 -16 110.668 -24 160.001 -24s97.5 11 144.5 33s84.833 51.333 113.5 88c29.333 36 52.666 81 69.999 135c30.667 92.667 45.667 210.667 45 354
c0 198 -30.333 348.333 -91 451zM1010 1356c-56.667 36.667 -115.668 54.999 -177.001 54.999s-110.833 -5.66699 -148.5 -17s-70 -26.833 -97 -46.5s-50.667 -44.167 -71 -73.5s-37.166 -60.666 -50.499 -93.999s-24 -71.333 -32 -114
c-14.667 -72.667 -21.834 -167.167 -21.501 -283.5s21.833 -201.833 64.5 -256.5c4.66699 -116 30.334 -195.667 77.001 -239z" />
    <glyph glyph-name="Ugrave" unicode="&#xd9;" horiz-adv-x="1589" 
d="M446 729c0 -159.333 12.6689 -273.666 38.002 -342.999c24 -66.667 58.667 -114.667 104 -144c53.333 -34.667 121.666 -51.667 204.999 -51c129.333 0 219 37.667 269 113c33.333 49.333 53.666 101.666 60.999 156.999c11.333 78.667 17 168 17 268v878h306v-874
c0 -382 -115.333 -620.333 -346 -715c-84 -34.667 -185.333 -52 -304 -52s-220.667 17 -306 51s-153.333 84.333 -204 151c-97.333 128 -146 316.333 -146 565v874h306v-878zM476.002 2383l289 125l187 -626l-124 -57z" />
    <glyph glyph-name="Uacute" unicode="&#xda;" horiz-adv-x="1589" 
d="M446 729c0 -159.333 12.6689 -273.666 38.002 -342.999c24 -66.667 58.667 -114.667 104 -144c53.333 -34.667 121.666 -51.667 204.999 -51c129.333 0 219 37.667 269 113c33.333 49.333 53.666 101.666 60.999 156.999c11.333 78.667 17 168 17 268v878h306v-874
c0 -382 -115.333 -620.333 -346 -715c-84 -34.667 -185.333 -52 -304 -52s-220.667 17 -306 51s-153.333 84.333 -204 151c-97.333 128 -146 316.333 -146 565v874h306v-878zM621.002 1876l189 623l286 -126l-355 -553z" />
    <glyph glyph-name="Ucircumflex" unicode="&#xdb;" horiz-adv-x="1589" 
d="M446 729c0 -159.333 12.6689 -273.666 38.002 -342.999c24 -66.667 58.667 -114.667 104 -144c53.333 -34.667 121.666 -51.667 204.999 -51c129.333 0 219 37.667 269 113c33.333 49.333 53.666 101.666 60.999 156.999c11.333 78.667 17 168 17 268v878h306v-874
c0 -382 -115.333 -620.333 -346 -715c-84 -34.667 -185.333 -52 -304 -52s-220.667 17 -306 51s-153.333 84.333 -204 151c-97.333 128 -146 316.333 -146 565v874h306v-878zM892.002 2444l277 -583l-221 -31l-154 388l-154 -388l-219 31l276 583h195z" />
    <glyph glyph-name="Udieresis" unicode="&#xdc;" horiz-adv-x="1589" 
d="M446 729c0 -159.333 12.6689 -273.666 38.002 -342.999c24 -66.667 58.667 -114.667 104 -144c53.333 -34.667 121.666 -51.667 204.999 -51c129.333 0 219 37.667 269 113c33.333 49.333 53.666 101.666 60.999 156.999c11.333 78.667 17 168 17 268v878h306v-874
c0 -382 -115.333 -620.333 -346 -715c-84 -34.667 -185.333 -52 -304 -52s-220.667 17 -306 51s-153.333 84.333 -204 151c-97.333 128 -146 316.333 -146 565v874h306v-878zM590.002 1869c-31.333 -31.333 -71.168 -46.999 -119.501 -46.999s-87.666 15.5 -117.999 46.5
s-45.5 70.667 -45.5 119s15.333 88.166 46 119.499s70 47 118 47s87.667 -15.667 119 -47s47 -71 47 -119s-15.667 -87.667 -47 -119zM1199.5 1869.5c-31.667 -31.667 -71.502 -47.499 -119.502 -47.499s-87.167 15.5 -117.5 46.5s-45.5 70.667 -45.5 119
s15.333 88.166 46 119.499s69.834 47 117.501 47s87.334 -15.833 119.001 -47.5s47.5 -71.167 47.5 -118.5s-15.833 -86.833 -47.5 -118.5z" />
    <glyph glyph-name="Yacute" unicode="&#xdd;" horiz-adv-x="1291" 
d="M1002 1607h308l-521 -1093v-514h-291v514l-517 1093h306l358 -777zM472 1877l189 623l286 -126l-355 -553z" />
    <glyph glyph-name="Thorn" unicode="&#xde;" horiz-adv-x="1410" 
d="M450 566c109.333 -30.667 204.668 -46 286.001 -46c168 0 251.667 113 251 339c-0.666992 178 -57 287 -169 327c-34.667 12 -80.334 18.167 -137.001 18.5s-133.667 -12.5 -231 -38.5v-600zM1124.5 446c-100.333 -94.667 -247.167 -141.998 -440.5 -141.998
c-97.333 0 -175.333 26 -234 78v-518h-294v1743h283v-287c100 62 212.667 93 338 93c162 0 286.667 -49 374 -147c82.667 -92.667 124 -228.834 124 -408.501s-50.167 -316.834 -150.5 -411.501z" />
    <glyph glyph-name="germandbls" unicode="&#xdf;" horiz-adv-x="1535" 
d="M613 736l-0.999023 53.0059v133c148 0 246 13.333 294 40c50.667 28 83.334 66.667 98.001 116c8 29.333 12.333 63.666 13 102.999c0 81.333 -24.333 138.333 -73 171s-120.334 49 -215.001 49c-128.667 -0.666992 -208.667 -53.667 -240 -159
c-17.333 -59.333 -26 -140.333 -26 -243v-999h-307v1002c0 202 46.167 353.333 138.5 454s237.166 151 434.499 151c163.333 -0.666992 295 -32.334 395 -95.001c106.667 -68 160.334 -176.667 161.001 -326c0 -100.667 -27.333 -180.334 -82 -239.001
s-130 -93.334 -226 -104.001c320 -34 480 -188.667 480 -464c0 -82.667 -16.167 -156.334 -48.5 -221.001s-75 -117.334 -128 -158.001s-116.833 -74.334 -191.5 -101.001c-134.667 -48 -295.334 -72 -482.001 -72v236c149.333 8.66699 259 25.334 329 50.001
c74.667 26 128 58.667 160 98c41.333 50.667 62 108 62 172s-9.83301 116.167 -29.5 156.5s-45.834 72.833 -78.501 97.5s-73 44.667 -121 60c-81.333 26 -186.666 39 -315.999 39z" />
    <glyph glyph-name="agrave" unicode="&#xe0;" horiz-adv-x="1244" 
d="M819 709c0 133.333 -16.334 218.002 -49.001 254.002c-32 35.333 -83 53 -153 53c-133.333 0 -259.333 -34.667 -378 -104l-79 182c136 80.667 290.667 121 464 121c181.333 -0.666992 308.666 -46.334 381.999 -137.001c69.333 -86.667 104 -224 104 -412v-666h-224
l-40 164c-41.333 -62.667 -89.166 -109.667 -143.499 -141s-123.833 -47 -208.5 -47c-129.333 0 -229.833 32.667 -301.5 98s-107.5 160.666 -107.5 285.999c0.666992 178.667 90.334 294.667 269.001 348c52 16 110 25 174 27c104 0 201 -8.66699 291 -26zM818.999 561.002
l-68.999 6.99902l-44 4c-20 1.33301 -40.5 2 -61.5 2s-44.833 -1.33301 -71.5 -4s-52.834 -8.16699 -78.501 -16.5s-46.5 -19.5 -62.5 -33.5c-36 -30.667 -54 -76.667 -54 -138c0 -136.667 63.667 -205 191 -205c52.667 0 98.5 10.833 137.5 32.5s76.5 51.834 112.5 90.501
v261zM307 1959l289 125l187 -626l-124 -57z" />
    <glyph glyph-name="aacute" unicode="&#xe1;" horiz-adv-x="1244" 
d="M819 709c0 133.333 -16.334 218.002 -49.001 254.002c-32 35.333 -83 53 -153 53c-133.333 0 -259.333 -34.667 -378 -104l-79 182c136 80.667 290.667 121 464 121c181.333 -0.666992 308.666 -46.334 381.999 -137.001c69.333 -86.667 104 -224 104 -412v-666h-224
l-40 164c-41.333 -62.667 -89.166 -109.667 -143.499 -141s-123.833 -47 -208.5 -47c-129.333 0 -229.833 32.667 -301.5 98s-107.5 160.666 -107.5 285.999c0.666992 178.667 90.334 294.667 269.001 348c52 16 110 25 174 27c104 0 201 -8.66699 291 -26zM818.999 561.002
l-68.999 6.99902l-44 4c-20 1.33301 -40.5 2 -61.5 2s-44.833 -1.33301 -71.5 -4s-52.834 -8.16699 -78.501 -16.5s-46.5 -19.5 -62.5 -33.5c-36 -30.667 -54 -76.667 -54 -138c0 -136.667 63.667 -205 191 -205c52.667 0 98.5 10.833 137.5 32.5s76.5 51.834 112.5 90.501
v261zM452 1452l189 623l286 -126l-355 -553z" />
    <glyph glyph-name="acircumflex" unicode="&#xe2;" horiz-adv-x="1244" 
d="M819 709c0 133.333 -16.334 218.002 -49.001 254.002c-32 35.333 -83 53 -153 53c-133.333 0 -259.333 -34.667 -378 -104l-79 182c136 80.667 290.667 121 464 121c181.333 -0.666992 308.666 -46.334 381.999 -137.001c69.333 -86.667 104 -224 104 -412v-666h-224
l-40 164c-41.333 -62.667 -89.166 -109.667 -143.499 -141s-123.833 -47 -208.5 -47c-129.333 0 -229.833 32.667 -301.5 98s-107.5 160.666 -107.5 285.999c0.666992 178.667 90.334 294.667 269.001 348c52 16 110 25 174 27c104 0 201 -8.66699 291 -26zM818.999 561.002
l-68.999 6.99902l-44 4c-20 1.33301 -40.5 2 -61.5 2s-44.833 -1.33301 -71.5 -4s-52.834 -8.16699 -78.501 -16.5s-46.5 -19.5 -62.5 -33.5c-36 -30.667 -54 -76.667 -54 -138c0 -136.667 63.667 -205 191 -205c52.667 0 98.5 10.833 137.5 32.5s76.5 51.834 112.5 90.501
v261zM724 2020l277 -583l-221 -31l-154 388l-154 -388l-219 31l276 583h195z" />
    <glyph glyph-name="atilde" unicode="&#xe3;" horiz-adv-x="1244" 
d="M819 709c0 133.333 -16.334 218.002 -49.001 254.002c-32 35.333 -83 53 -153 53c-133.333 0 -259.333 -34.667 -378 -104l-79 182c136 80.667 290.667 121 464 121c181.333 -0.666992 308.666 -46.334 381.999 -137.001c69.333 -86.667 104 -224 104 -412v-666h-224
l-40 164c-41.333 -62.667 -89.166 -109.667 -143.499 -141s-123.833 -47 -208.5 -47c-129.333 0 -229.833 32.667 -301.5 98s-107.5 160.666 -107.5 285.999c0.666992 178.667 90.334 294.667 269.001 348c52 16 110 25 174 27c104 0 201 -8.66699 291 -26zM818.999 561.002
l-68.999 6.99902l-44 4c-20 1.33301 -40.5 2 -61.5 2s-44.833 -1.33301 -71.5 -4s-52.834 -8.16699 -78.501 -16.5s-46.5 -19.5 -62.5 -33.5c-36 -30.667 -54 -76.667 -54 -138c0 -136.667 63.667 -205 191 -205c52.667 0 98.5 10.833 137.5 32.5s76.5 51.834 112.5 90.501
v261zM1042 1712c0 -90 -17.334 -162.666 -52.001 -217.999s-88.334 -83 -161.001 -83c-52 0 -107.333 12.667 -166 38c-49.333 22 -98 47.333 -146 76c-29.333 14.667 -54.666 22 -75.999 22c-38.667 0 -58 -39.333 -58 -118h-191c0 208.667 74.333 313 223 313
c54 0 96.333 -7.16699 127 -21.5s60 -28.833 88 -43.5l48 -24c2 -0.666992 9 -4.33398 21 -11.001s20.333 -11 25 -13l22 -9c18.667 -7.33301 34.834 -11 48.501 -11s23.667 2.5 30 7.5s10.833 12.833 13.5 23.5c4 16 6 40 6 72h198z" />
    <glyph glyph-name="adieresis" unicode="&#xe4;" horiz-adv-x="1244" 
d="M819 709c0 133.333 -16.334 218.002 -49.001 254.002c-32 35.333 -83 53 -153 53c-133.333 0 -259.333 -34.667 -378 -104l-79 182c136 80.667 290.667 121 464 121c181.333 -0.666992 308.666 -46.334 381.999 -137.001c69.333 -86.667 104 -224 104 -412v-666h-224
l-40 164c-41.333 -62.667 -89.166 -109.667 -143.499 -141s-123.833 -47 -208.5 -47c-129.333 0 -229.833 32.667 -301.5 98s-107.5 160.666 -107.5 285.999c0.666992 178.667 90.334 294.667 269.001 348c52 16 110 25 174 27c104 0 201 -8.66699 291 -26zM818.999 561.002
l-68.999 6.99902l-44 4c-20 1.33301 -40.5 2 -61.5 2s-44.833 -1.33301 -71.5 -4s-52.834 -8.16699 -78.501 -16.5s-46.5 -19.5 -62.5 -33.5c-36 -30.667 -54 -76.667 -54 -138c0 -136.667 63.667 -205 191 -205c52.667 0 98.5 10.833 137.5 32.5s76.5 51.834 112.5 90.501
v261zM421 1445c-31.333 -31.333 -71.168 -46.999 -119.501 -46.999s-87.666 15.5 -117.999 46.5s-45.5 70.667 -45.5 119s15.333 88.166 46 119.499s70 47 118 47s87.667 -15.667 119 -47s47 -71 47 -119s-15.667 -87.667 -47 -119zM1030.5 1445.5
c-31.667 -31.667 -71.502 -47.499 -119.502 -47.499s-87.167 15.5 -117.5 46.5s-45.5 70.667 -45.5 119s15.333 88.166 46 119.499s69.834 47 117.501 47s87.334 -15.833 119.001 -47.5s47.5 -71.167 47.5 -118.5s-15.833 -86.833 -47.5 -118.5z" />
    <glyph glyph-name="aring" unicode="&#xe5;" horiz-adv-x="1244" 
d="M819 709c0 133.333 -16.334 218.002 -49.001 254.002c-32 35.333 -83 53 -153 53c-133.333 0 -259.333 -34.667 -378 -104l-79 182c136 80.667 290.667 121 464 121c181.333 -0.666992 308.666 -46.334 381.999 -137.001c69.333 -86.667 104 -224 104 -412v-666h-224
l-40 164c-41.333 -62.667 -89.166 -109.667 -143.499 -141s-123.833 -47 -208.5 -47c-129.333 0 -229.833 32.667 -301.5 98s-107.5 160.666 -107.5 285.999c0.666992 178.667 90.334 294.667 269.001 348c52 16 110 25 174 27c104 0 201 -8.66699 291 -26zM818.999 561.002
l-68.999 6.99902l-44 4c-20 1.33301 -40.5 2 -61.5 2s-44.833 -1.33301 -71.5 -4s-52.834 -8.16699 -78.501 -16.5s-46.5 -19.5 -62.5 -33.5c-36 -30.667 -54 -76.667 -54 -138c0 -136.667 63.667 -205 191 -205c52.667 0 98.5 10.833 137.5 32.5s76.5 51.834 112.5 90.501
v261zM749 1823c-32 32 -72.5 48 -121.5 48s-89.333 -16 -121 -48s-47.5 -72.333 -47.5 -121s15.833 -88.834 47.5 -120.501s72.167 -47.5 121.5 -47.5s89.833 15.833 121.5 47.5s47.5 71.834 47.5 120.501s-16 89 -48 121zM396.5 1483.5
c-60.333 58.333 -90.502 131.833 -90.502 220.5s31.167 161.5 93.5 218.5s139.333 85.5 231 85.5s168 -28.833 229 -86.5s91.5 -131.5 91.5 -221.5s-31.667 -163.167 -95 -219.5s-140.666 -84.5 -231.999 -84.5s-167.166 29.167 -227.499 87.5z" />
    <glyph glyph-name="ae" unicode="&#xe6;" horiz-adv-x="1899" 
d="M1573 690c0 213.333 -75.667 320 -227 320c-82.667 0 -145.167 -29.667 -187.5 -89s-64.5 -136.333 -66.5 -231h481zM1384 188c59.333 0 117.499 9.00195 174.499 27.002s101.833 41 134.5 69l65 -195c-42.667 -30.667 -100.667 -56.334 -174 -77.001s-154 -31 -242 -31
c-180 0 -313.333 72.667 -400 218c-44 -68.667 -104 -122.5 -180 -161.5s-172.333 -58.5 -289 -58.5s-209.5 32.5 -278.5 97.5s-103.5 161.5 -103.5 289.5c0 188 97 304.667 291 350c56.667 13.333 125.834 20 207.501 20s156.5 -9 224.5 -27
c0 127.333 -16.833 207.333 -50.5 240s-88.5 49 -164.5 49c-56.667 0 -125.334 -9.33301 -206.001 -28c-77.333 -17.333 -134.666 -40 -171.999 -68l-56 189c41.333 36 106.333 64.667 195 86c89.333 21.333 178.666 32 267.999 32c182 0 300 -60 354 -180
c32.667 57.333 80.334 101.666 143.001 132.999s137.334 47 224.001 47c150.667 0 266.167 -47.833 346.5 -143.5s120.5 -223.5 120.5 -383.5c0 -46.667 -1 -95 -3 -145h-721c3.33301 -232.667 100.666 -349 291.999 -349zM813.999 561.002
c-65.333 8.66699 -114.501 13 -147.501 13s-61 -1 -84 -3s-46.167 -5.5 -69.5 -10.5s-43 -12.167 -59 -21.5s-30.667 -21 -44 -35c-26.667 -28.667 -40 -69.667 -40 -123c0 -132.667 65.333 -199 196 -199c48.667 0 91.834 10.333 129.501 31s77.167 49.667 118.5 87v261z
" />
    <glyph glyph-name="ccedilla" unicode="&#xe7;" horiz-adv-x="1107" 
d="M1041 91c-106.667 -76.667 -236 -115 -388 -115c-182.667 0 -323 54.5 -421 163.5s-147 257.5 -147 445.5c0 122 21.833 230.167 65.5 324.5s109.167 168.833 196.5 223.5s190.333 82 309 82c156 0 284.333 -36.667 385 -110l-63 -193c-84 69.333 -181.333 104 -292 104
c-112 -5.33301 -191.333 -44 -238 -116c-46 -73.333 -69 -175.333 -69 -306c0 -278.667 104 -417.667 312 -417c60 0 112.167 9.16699 156.5 27.5s87.833 44.5 130.5 78.5zM734 -642c-38.667 0 -68.002 3 -88.002 9s-32.333 9.5 -37 10.5s-12.167 3.33301 -22.5 7
s-16.833 6.16699 -19.5 7.5c-24 9.33301 -37.333 14.333 -40 15v131l20 -6c72.667 -24.667 129.167 -37 169.5 -37s71.166 8.83301 92.499 26.5s32 45 32 82s-6.66699 65.5 -20 85.5c-13.333 20.667 -32.666 35.667 -57.999 45c-45.333 16.667 -106.666 25 -183.999 25
l12 286h122l-7 -181c88.667 0 162 -21.167 220 -63.5s87 -104.5 87 -186.5s-24.667 -145.167 -74 -189.5s-117.666 -66.5 -204.999 -66.5z" />
    <glyph glyph-name="egrave" unicode="&#xe8;" horiz-adv-x="1203" 
d="M693 177c64 0 119.334 8.66699 166.001 26s92.667 43.333 138 78l66 -197c-120.667 -72 -251.667 -108 -393 -108c-184.667 0 -328.334 52.333 -431.001 157s-154 249.667 -154 435c0 191.333 45.333 346 136 464c94 122 233 183 417 183c156 0 275.333 -47.333 358 -142
s124 -224 124 -388c0 -50.667 -1 -100 -3 -148h-733c1.33301 -114 27.5 -202.5 78.5 -265.5s127.833 -94.5 230.5 -94.5zM877.001 704c0 205.333 -77.333 309.334 -232 312.001c-84.667 -2.66699 -148.5 -33.834 -191.5 -93.501s-66.5 -137.167 -70.5 -232.5h494v14z
M319.001 1968l289 125l187 -626l-124 -57z" />
    <glyph glyph-name="eacute" unicode="&#xe9;" horiz-adv-x="1203" 
d="M693 177c64 0 119.334 8.66699 166.001 26s92.667 43.333 138 78l66 -197c-120.667 -72 -251.667 -108 -393 -108c-184.667 0 -328.334 52.333 -431.001 157s-154 249.667 -154 435c0 191.333 45.333 346 136 464c94 122 233 183 417 183c156 0 275.333 -47.333 358 -142
s124 -224 124 -388c0 -50.667 -1 -100 -3 -148h-733c1.33301 -114 27.5 -202.5 78.5 -265.5s127.833 -94.5 230.5 -94.5zM877.001 704c0 205.333 -77.333 309.334 -232 312.001c-84.667 -2.66699 -148.5 -33.834 -191.5 -93.501s-66.5 -137.167 -70.5 -232.5h494v14z
M464.001 1461l189 623l286 -126l-355 -553z" />
    <glyph glyph-name="ecircumflex" unicode="&#xea;" horiz-adv-x="1203" 
d="M693 177c64 0 119.334 8.66699 166.001 26s92.667 43.333 138 78l66 -197c-120.667 -72 -251.667 -108 -393 -108c-184.667 0 -328.334 52.333 -431.001 157s-154 249.667 -154 435c0 191.333 45.333 346 136 464c94 122 233 183 417 183c156 0 275.333 -47.333 358 -142
s124 -224 124 -388c0 -50.667 -1 -100 -3 -148h-733c1.33301 -114 27.5 -202.5 78.5 -265.5s127.833 -94.5 230.5 -94.5zM877.001 704c0 205.333 -77.333 309.334 -232 312.001c-84.667 -2.66699 -148.5 -33.834 -191.5 -93.501s-66.5 -137.167 -70.5 -232.5h494v14z
M736.001 2029l277 -583l-221 -31l-154 388l-154 -388l-219 31l276 583h195z" />
    <glyph glyph-name="edieresis" unicode="&#xeb;" horiz-adv-x="1203" 
d="M693 177c64 0 119.334 8.66699 166.001 26s92.667 43.333 138 78l66 -197c-120.667 -72 -251.667 -108 -393 -108c-184.667 0 -328.334 52.333 -431.001 157s-154 249.667 -154 435c0 191.333 45.333 346 136 464c94 122 233 183 417 183c156 0 275.333 -47.333 358 -142
s124 -224 124 -388c0 -50.667 -1 -100 -3 -148h-733c1.33301 -114 27.5 -202.5 78.5 -265.5s127.833 -94.5 230.5 -94.5zM877.001 704c0 205.333 -77.333 309.334 -232 312.001c-84.667 -2.66699 -148.5 -33.834 -191.5 -93.501s-66.5 -137.167 -70.5 -232.5h494v14z
M433.001 1454c-31.333 -31.333 -71.168 -46.999 -119.501 -46.999s-87.666 15.5 -117.999 46.5s-45.5 70.667 -45.5 119s15.333 88.166 46 119.499s70 47 118 47s87.667 -15.667 119 -47s47 -71 47 -119s-15.667 -87.667 -47 -119zM1042.5 1454.5
c-31.667 -31.667 -71.502 -47.499 -119.502 -47.499s-87.167 15.5 -117.5 46.5s-45.5 70.667 -45.5 119s15.333 88.166 46 119.499s69.834 47 117.501 47s87.334 -15.833 119.001 -47.5s47.5 -71.167 47.5 -118.5s-15.833 -86.833 -47.5 -118.5z" />
    <glyph glyph-name="igrave" unicode="&#xec;" horiz-adv-x="667" 
d="M-40 1912l290 126l187 -627l-124 -56zM203 0v1185h290v-1185h-290z" />
    <glyph glyph-name="iacute" unicode="&#xed;" horiz-adv-x="667" 
d="M155 1387l189 623l286 -125l-355 -554zM203 0v1185h290v-1185h-290z" />
    <glyph glyph-name="icircumflex" unicode="&#xee;" horiz-adv-x="667" 
d="M433 1954l275 -582l-220 -31l-154 387l-154 -387l-219 31l276 582h196zM203 0v1185h290v-1185h-290z" />
    <glyph glyph-name="idieresis" unicode="&#xef;" horiz-adv-x="667" 
d="M133 1372c-31.333 -31.333 -71.168 -46.999 -119.501 -46.999s-87.666 15.5 -117.999 46.5s-45.5 70.667 -45.5 119s15.333 88.166 46 119.499s70 47 118 47s87.667 -15.667 119 -47s47 -71 47 -119s-15.667 -87.667 -47 -119zM742.498 1372.5
c-31.667 -31.667 -71.502 -47.499 -119.502 -47.499s-87.167 15.5 -117.5 46.5s-45.5 70.667 -45.5 119s15.333 88.166 46 119.499s69.834 47 117.501 47s87.334 -15.833 119.001 -47.5s47.5 -71.167 47.5 -118.5s-15.833 -86.833 -47.5 -118.5zM202.996 0.00195312v1185
h290v-1185h-290z" />
    <glyph glyph-name="eth" unicode="&#xf0;" horiz-adv-x="1272" 
d="M919 1451c82.667 -109.333 146.165 -227.669 190.498 -355.002s66.5 -274.666 66.5 -441.999c0 -332 -101.333 -540.667 -304 -626c-73.333 -30.667 -157.166 -46 -251.499 -46s-175.333 15.5 -243 46.5s-122.834 74.5 -165.501 130.5
c-85.333 112.667 -127.666 260.667 -126.999 444c0.666992 168.667 37.667 310.334 111 425.001c36 56 84.167 100.167 144.5 132.5s128 48.5 203 48.5s141.833 -14 200.5 -42s105.334 -64.667 140.001 -110c-26 98.667 -90 206 -192 322l-239 -74l-43 128l176 55
c-60 56 -121.333 103.333 -184 142l126 150c108 -64 204.333 -137.333 289 -220l296 93l43 -128zM790.998 949.997c-47.333 38 -100.832 57 -160.499 57s-105.5 -11 -137.5 -33c-32.667 -21.333 -57 -52 -73 -92c-30.667 -74 -45.667 -169 -45 -285
c0 -274.667 81.333 -412 244 -412c91.333 0 157.666 36.333 198.999 109c37.333 65.333 58 141 62 227s6 177.667 6 275c-16 64.667 -47.667 116 -95 154z" />
    <glyph glyph-name="ntilde" unicode="&#xf1;" horiz-adv-x="1332" 
d="M862 950c-27.333 44 -72.168 66 -134.501 66s-118.166 -13.333 -167.499 -40s-87.333 -58.334 -114 -95.001v-881h-292v1185h220l51 -168c35.333 58.667 84.333 106.334 147 143.001s134.667 55 216 55c144 0 248 -40.5 312 -121.5s96 -199.833 96 -356.5v-737h-293v752
c0 88 -13.667 154 -41 198zM1083 1721c0 -90 -17.334 -162.666 -52.001 -217.999s-88.334 -83 -161.001 -83c-52 0 -107.333 12.667 -166 38c-49.333 22 -98 47.333 -146 76c-29.333 14.667 -54.666 22 -75.999 22c-38.667 0 -58 -39.333 -58 -118h-191
c0 208.667 74.333 313 223 313c54 0 96.333 -7.16699 127 -21.5s60 -28.833 88 -43.5l48 -24c2 -0.666992 9 -4.33398 21 -11.001s20.333 -11 25 -13l22 -9c18.667 -7.33301 34.834 -11 48.501 -11s23.667 2.5 30 7.5s10.833 12.833 13.5 23.5c4 16 6 40 6 72h198z" />
    <glyph glyph-name="ograve" unicode="&#xf2;" horiz-adv-x="1299" 
d="M651 1010c-183.333 0 -274.999 -140.333 -274.999 -421s91.667 -421 275 -421c155.333 0 244.666 96.667 267.999 290c4.66699 38.667 7 82 7 130c0 281.333 -91.667 422 -275 422zM650.001 1210c185.333 0 325.5 -55.167 420.5 -165.5s142.5 -262.5 142.5 -456.5
s-47.5 -345.667 -142.5 -455s-235.167 -164 -420.5 -164s-325.666 54.833 -420.999 164.5s-143 261.167 -143 454.5s47.667 345.333 143 456s235.666 166 420.999 166zM336.001 1968l289 125l187 -626l-124 -57z" />
    <glyph glyph-name="oacute" unicode="&#xf3;" horiz-adv-x="1299" 
d="M651 1010c-183.333 0 -274.999 -140.333 -274.999 -421s91.667 -421 275 -421c155.333 0 244.666 96.667 267.999 290c4.66699 38.667 7 82 7 130c0 281.333 -91.667 422 -275 422zM650.001 1210c185.333 0 325.5 -55.167 420.5 -165.5s142.5 -262.5 142.5 -456.5
s-47.5 -345.667 -142.5 -455s-235.167 -164 -420.5 -164s-325.666 54.833 -420.999 164.5s-143 261.167 -143 454.5s47.667 345.333 143 456s235.666 166 420.999 166zM480.001 1461l189 623l286 -126l-355 -553z" />
    <glyph glyph-name="ocircumflex" unicode="&#xf4;" horiz-adv-x="1299" 
d="M651 1010c-183.333 0 -274.999 -140.333 -274.999 -421s91.667 -421 275 -421c155.333 0 244.666 96.667 267.999 290c4.66699 38.667 7 82 7 130c0 281.333 -91.667 422 -275 422zM650.001 1210c185.333 0 325.5 -55.167 420.5 -165.5s142.5 -262.5 142.5 -456.5
s-47.5 -345.667 -142.5 -455s-235.167 -164 -420.5 -164s-325.666 54.833 -420.999 164.5s-143 261.167 -143 454.5s47.667 345.333 143 456s235.666 166 420.999 166zM752.001 2029l277 -583l-221 -31l-154 388l-154 -388l-219 31l276 583h195z" />
    <glyph glyph-name="otilde" unicode="&#xf5;" horiz-adv-x="1299" 
d="M651 1010c-183.333 0 -274.999 -140.333 -274.999 -421s91.667 -421 275 -421c155.333 0 244.666 96.667 267.999 290c4.66699 38.667 7 82 7 130c0 281.333 -91.667 422 -275 422zM650.001 1210c185.333 0 325.5 -55.167 420.5 -165.5s142.5 -262.5 142.5 -456.5
s-47.5 -345.667 -142.5 -455s-235.167 -164 -420.5 -164s-325.666 54.833 -420.999 164.5s-143 261.167 -143 454.5s47.667 345.333 143 456s235.666 166 420.999 166zM1071 1721c0 -90 -17.334 -162.666 -52.001 -217.999s-88.334 -83 -161.001 -83
c-52 0 -107.333 12.667 -166 38c-49.333 22 -98 47.333 -146 76c-29.333 14.667 -54.666 22 -75.999 22c-38.667 0 -58 -39.333 -58 -118h-191c0 208.667 74.333 313 223 313c54 0 96.333 -7.16699 127 -21.5s60 -28.833 88 -43.5l48 -24c2 -0.666992 9 -4.33398 21 -11.001
s20.333 -11 25 -13l22 -9c18.667 -7.33301 34.834 -11 48.501 -11s23.667 2.5 30 7.5s10.833 12.833 13.5 23.5c4 16 6 40 6 72h198z" />
    <glyph glyph-name="odieresis" unicode="&#xf6;" horiz-adv-x="1299" 
d="M651 1010c-183.333 0 -274.999 -140.333 -274.999 -421s91.667 -421 275 -421c155.333 0 244.666 96.667 267.999 290c4.66699 38.667 7 82 7 130c0 281.333 -91.667 422 -275 422zM650.001 1210c185.333 0 325.5 -55.167 420.5 -165.5s142.5 -262.5 142.5 -456.5
s-47.5 -345.667 -142.5 -455s-235.167 -164 -420.5 -164s-325.666 54.833 -420.999 164.5s-143 261.167 -143 454.5s47.667 345.333 143 456s235.666 166 420.999 166zM450.001 1454c-31.333 -31.333 -71.168 -46.999 -119.501 -46.999s-87.666 15.5 -117.999 46.5
s-45.5 70.667 -45.5 119s15.333 88.166 46 119.499s70 47 118 47s87.667 -15.667 119 -47s47 -71 47 -119s-15.667 -87.667 -47 -119zM1059.5 1454.5c-31.667 -31.667 -71.502 -47.499 -119.502 -47.499s-87.167 15.5 -117.5 46.5s-45.5 70.667 -45.5 119
s15.333 88.166 46 119.499s69.834 47 117.501 47s87.334 -15.833 119.001 -47.5s47.5 -71.167 47.5 -118.5s-15.833 -86.833 -47.5 -118.5z" />
    <glyph glyph-name="divide" unicode="&#xf7;" horiz-adv-x="1163" 
d="M710.5 922c-29.667 -31.333 -68.334 -46.999 -116.001 -46.999s-86.5 15.5 -116.5 46.5s-45 70.667 -45 119s15 88.166 45 119.499s68.833 47 116.5 47s86.334 -15.667 116.001 -47s44.5 -71 44.5 -119s-14.833 -87.667 -44.5 -119zM711.5 190.001
c-29.667 -31.333 -68.334 -46.999 -116.001 -46.999s-86.5 15.5 -116.5 46.5s-45 70.667 -45 119s15 88.166 45 119.499s68.833 47 116.5 47s86.334 -15.667 116.001 -47s44.5 -71 44.5 -119s-14.833 -87.667 -44.5 -119zM148 570.002v214h893v-214h-893z" />
    <glyph glyph-name="oslash" unicode="&#xf8;" horiz-adv-x="1299" 
d="M736 1015c-19.333 7.33301 -52.333 11.001 -99 11.001s-90.167 -10.667 -130.5 -32s-71.833 -51.333 -94.5 -90c-45.333 -76 -68 -166.333 -68 -271c0 -214.667 41.333 -349.334 124 -404.001zM1213 592.001c0 -189.333 -48.498 -338.333 -145.498 -447
s-236.5 -163 -418.5 -163c-52.667 0 -101.334 5 -146.001 15l-63 -185l-100 34l62 181c-103.333 43.333 -182 112.833 -236 208.5s-81 214.5 -81 356.5c0 190 48.5 340.333 145.5 451s236.5 166 418.5 166c46.667 0 95 -5 145 -15l66 195l97 -34l-65 -191
c103.333 -43.333 182.666 -113.5 237.999 -210.5s83 -217.5 83 -361.5zM562.002 173.001c19.333 -6.66699 52.5 -10 99.5 -10s91.167 11.333 132.5 34c41.333 23.333 74 55 98 95c45.333 78 68 178.667 68 302c0 178.667 -44.667 300.667 -134 366z" />
    <glyph glyph-name="ugrave" unicode="&#xf9;" horiz-adv-x="1311" 
d="M519 202c24.667 -12 59.666 -18 104.999 -18c84.667 0 165.334 37.667 242.001 113v888h293v-1185h-210l-58 180c-27.333 -62 -68.333 -111.5 -123 -148.5s-121.667 -55.5 -201 -55.5c-148 0 -257.167 40.167 -327.5 120.5s-105.5 199.5 -105.5 357.5v731h290v-747
c0 -79.333 9.66699 -135.5 29 -168.5s41.333 -55.5 66 -67.5zM335.999 1968l289 125l187 -626l-124 -57z" />
    <glyph glyph-name="uacute" unicode="&#xfa;" horiz-adv-x="1311" 
d="M519 202c24.667 -12 59.666 -18 104.999 -18c84.667 0 165.334 37.667 242.001 113v888h293v-1185h-210l-58 180c-27.333 -62 -68.333 -111.5 -123 -148.5s-121.667 -55.5 -201 -55.5c-148 0 -257.167 40.167 -327.5 120.5s-105.5 199.5 -105.5 357.5v731h290v-747
c0 -79.333 9.66699 -135.5 29 -168.5s41.333 -55.5 66 -67.5zM480.999 1461l189 623l286 -126l-355 -553z" />
    <glyph glyph-name="ucircumflex" unicode="&#xfb;" horiz-adv-x="1311" 
d="M519 202c24.667 -12 59.666 -18 104.999 -18c84.667 0 165.334 37.667 242.001 113v888h293v-1185h-210l-58 180c-27.333 -62 -68.333 -111.5 -123 -148.5s-121.667 -55.5 -201 -55.5c-148 0 -257.167 40.167 -327.5 120.5s-105.5 199.5 -105.5 357.5v731h290v-747
c0 -79.333 9.66699 -135.5 29 -168.5s41.333 -55.5 66 -67.5zM752.999 2029l277 -583l-221 -31l-154 388l-154 -388l-219 31l276 583h195z" />
    <glyph glyph-name="udieresis" unicode="&#xfc;" horiz-adv-x="1311" 
d="M519 202c24.667 -12 59.666 -18 104.999 -18c84.667 0 165.334 37.667 242.001 113v888h293v-1185h-210l-58 180c-27.333 -62 -68.333 -111.5 -123 -148.5s-121.667 -55.5 -201 -55.5c-148 0 -257.167 40.167 -327.5 120.5s-105.5 199.5 -105.5 357.5v731h290v-747
c0 -79.333 9.66699 -135.5 29 -168.5s41.333 -55.5 66 -67.5zM450.999 1454c-31.333 -31.333 -71.168 -46.999 -119.501 -46.999s-87.666 15.5 -117.999 46.5s-45.5 70.667 -45.5 119s15.333 88.166 46 119.499s70 47 118 47s87.667 -15.667 119 -47s47 -71 47 -119
s-15.667 -87.667 -47 -119zM1060.5 1454.5c-31.667 -31.667 -71.502 -47.499 -119.502 -47.499s-87.167 15.5 -117.5 46.5s-45.5 70.667 -45.5 119s15.333 88.166 46 119.499s69.834 47 117.501 47s87.334 -15.833 119.001 -47.5s47.5 -71.167 47.5 -118.5
s-15.833 -86.833 -47.5 -118.5z" />
    <glyph glyph-name="yacute" unicode="&#xfd;" horiz-adv-x="1181" 
d="M20 1185l295 0.000976562l312 -854l239 854h297l-419 -1220c-58 -164.667 -135 -281.667 -231 -351c-80 -58 -175.667 -87 -287 -87l-81 197c106 13.333 184.5 43.666 235.5 90.999s90.5 121 118.5 221zM434 1461l189 623l286 -126l-355 -553z" />
    <glyph glyph-name="thorn" unicode="&#xfe;" horiz-adv-x="1331" 
d="M737 184c126 0 197 94.3311 213 282.998c2.66699 34 4 72 4 114c0 280 -79.667 420 -239 420c-74 0.666992 -139.333 -17.666 -196 -54.999c-20 -13.333 -44.333 -31.666 -73 -54.999v-600c78.667 -71.333 175.667 -107 291 -107zM1229 779.498
c11.333 -61 16.999 -137.831 16.999 -230.498s-17.167 -183.334 -51.5 -272.001s-88.833 -160 -163.5 -214s-166 -81 -274 -81c-141.333 0 -245.333 44.333 -312 133v-552l-291 -9v2047h287v-556c32 47.333 76.333 85.666 133 114.999s119.334 44 188.001 44
s130 -10.5 184 -31.5s99.5 -50.167 136.5 -87.5s67.833 -82.333 92.5 -135s42.667 -109.5 54 -170.5z" />
    <glyph glyph-name="ydieresis" unicode="&#xff;" horiz-adv-x="1181" 
d="M20 1185l295 0.000976562l312 -854l239 854h297l-419 -1220c-58 -164.667 -135 -281.667 -231 -351c-80 -58 -175.667 -87 -287 -87l-81 197c106 13.333 184.5 43.666 235.5 90.999s90.5 121 118.5 221zM402 1454c-31.333 -31.333 -71.168 -46.999 -119.501 -46.999
s-87.666 15.5 -117.999 46.5s-45.5 70.667 -45.5 119s15.333 88.166 46 119.499s70 47 118 47s87.667 -15.667 119 -47s47 -71 47 -119s-15.667 -87.667 -47 -119zM1011.5 1454.5c-31.667 -31.667 -71.502 -47.499 -119.502 -47.499s-87.167 15.5 -117.5 46.5
s-45.5 70.667 -45.5 119s15.333 88.166 46 119.499s69.834 47 117.501 47s87.334 -15.833 119.001 -47.5s47.5 -71.167 47.5 -118.5s-15.833 -86.833 -47.5 -118.5z" />
    <glyph glyph-name="OE" unicode="&#x152;" horiz-adv-x="2325" 
d="M1200 0v1607h1049v-202h-744v-474h649v-186h-649v-546h755v-199h-1060zM824 1635c108 0 207.167 -19.499 297.5 -58.499s163.5 -95.167 219.5 -168.5c110.667 -144.667 166 -344 166 -598c0.666992 -438 -144.333 -706.333 -435 -805
c-78.667 -26.667 -173.834 -40 -285.501 -40s-213 20.5 -304 61.5s-163.833 99.833 -218.5 176.5c-106.667 149.333 -160 354.666 -160 615.999c0 308 81.333 531.333 244 670c114.667 97.333 273.334 146 476.001 146zM970.5 1377.5
c-46.333 22.333 -100.664 33.502 -162.997 33.502s-117 -11 -164 -33s-85 -51.167 -114 -87.5s-52.167 -81.5 -69.5 -135.5c-30.667 -94.667 -46.334 -213.667 -47.001 -357c0 -226 39 -388 117 -486c64 -80 155.667 -120 275 -120c104 0 185.167 28.5 243.5 85.5
s98 130.333 119 220s31.5 179.5 31.5 269.5s-3.33301 163.333 -10 220s-18.834 112.167 -36.501 166.5s-40.834 99.666 -69.501 135.999s-66.167 65.666 -112.5 87.999z" />
    <glyph glyph-name="oe" unicode="&#x153;" horiz-adv-x="2045" 
d="M1719 690c0 215.333 -77.333 324.001 -232 326.001c-56.667 -0.666992 -105 -16.334 -145 -47.001c-72 -55.333 -111 -148.333 -117 -279h494zM651 169.001c183.333 0 275 140.167 275 420.5s-91.667 420.5 -275 420.5s-275 -140.167 -275 -420.5
s91.667 -420.5 275 -420.5zM1512 -23.999c-206.667 0 -351.999 72.6689 -435.999 218.002c-30.667 -71.333 -83.834 -126.833 -159.501 -166.5s-164.5 -59.5 -266.5 -59.5c-184 0 -324 55 -420 165s-144 261.5 -144 454.5s47.833 345 143.5 456s235.834 166.5 420.501 166.5
c210.667 0 351.334 -80 422.001 -240c28 52 58.667 94.667 92 128c76 77.333 186.833 116.166 332.5 116.499s259.667 -46.667 342 -141s123.5 -223.833 123.5 -388.5c0 -50.667 -1 -100 -3 -148h-733c1.33301 -112.667 27.166 -200.834 77.499 -264.501
s127.5 -95.5 231.5 -95.5c64.667 0 120.167 8.66699 166.5 26s92.166 43.333 137.499 78l66 -197c-124.667 -72 -255.667 -108 -393 -108z" />
    <glyph glyph-name="Scaron" unicode="&#x160;" horiz-adv-x="1325" 
d="M578 1821l-276 583l220 31l155 -388l153 388l220 -31l-277 -583h-195zM914.5 1378c-75.667 22 -144 33 -205 33s-108.833 -2.33301 -143.5 -7c-34.667 -5.33301 -67.334 -14.666 -98.001 -27.999c-64 -28 -96 -80.667 -96 -158c0 -46 13.5 -81.833 40.5 -107.5
s64.167 -46.834 111.5 -63.501l345 -132c182.667 -70 298.334 -168.333 347.001 -295c20 -52 30 -115.167 30 -189.5s-14.333 -142.333 -43 -204s-69.334 -111.167 -122.001 -148.5c-104 -74.667 -246.333 -112 -427 -112s-356.334 46 -527.001 138l55 219
c142.667 -68 287.334 -110.333 434.001 -127c29.333 -3.33301 57 -5 83 -5c170.667 0 256 70.333 256 211c0 62 -16.333 111.167 -49 147.5s-79 65.5 -139 87.5l-354 141c-218.667 86 -328 225.333 -328 418c-0.666992 150 55 262 167 336
c104.667 69.333 237.334 104 398.001 104c200 0 375 -44.333 525 -133l-64 -208c-55.333 33.333 -120.833 61 -196.5 83z" />
    <glyph glyph-name="scaron" unicode="&#x161;" horiz-adv-x="1092" 
d="M450 1393l-276 583l220 31l155 -388l153 388l220 -31l-277 -583h-195zM534 177c132.667 0 199.001 51.665 199.001 154.998c0.666992 37.333 -15 67.333 -47 90c-28 20 -60 36 -96 48l-233 90c-126 46.667 -204.333 114 -235 202c-12.667 36 -19 79.667 -19 131
s11.833 98.5 35.5 141.5s56.167 77.5 97.5 103.5c82 51.333 185.333 77 310 77c79.333 0 159 -9.5 239 -28.5s141.333 -44.833 184 -77.5l-66 -188c-36 26.667 -87.5 49.167 -154.5 67.5s-130.833 27.5 -191.5 27.5c-130 0 -195 -43.333 -195 -130
c0 -33.333 12 -58.666 36 -75.999c28.667 -20.667 57 -34.334 85 -41.001l192 -71c126 -45.333 212.667 -96.666 260 -153.999c46 -54.667 69 -117 69 -187s-11.667 -129 -35 -177s-55.666 -86.667 -96.999 -116c-82 -58.667 -190 -88 -324 -88
c-84.667 0 -167.334 10.333 -248.001 31s-144.334 48.334 -191.001 83.001l66 191c36 -28 89.667 -52.333 161 -73s137.333 -31 198 -31z" />
    <glyph glyph-name="Ydieresis" unicode="&#x178;" horiz-adv-x="1291" 
d="M1002 1607h308l-521 -1093v-514h-291v514l-517 1093h306l358 -777zM441 1870c-31.333 -31.333 -71.168 -46.999 -119.501 -46.999s-87.666 15.5 -117.999 46.5s-45.5 70.667 -45.5 119s15.333 88.166 46 119.499s70 47 118 47s87.667 -15.667 119 -47s47 -71 47 -119
s-15.667 -87.667 -47 -119zM1050.5 1870.5c-31.667 -31.667 -71.502 -47.499 -119.502 -47.499s-87.167 15.5 -117.5 46.5s-45.5 70.667 -45.5 119s15.333 88.166 46 119.499s69.834 47 117.501 47s87.334 -15.833 119.001 -47.5s47.5 -71.167 47.5 -118.5
s-15.833 -86.833 -47.5 -118.5z" />
    <glyph glyph-name="florin" unicode="&#x192;" horiz-adv-x="835" 
d="M555 1163l-0.999023 -21h295l-4 -132h-296l-26 -645c-6 -107.333 -19.833 -198.5 -41.5 -273.5s-55.167 -138.167 -100.5 -189.5c-40 0 -94.5 5.33301 -163.5 16s-121.167 16 -156.5 16l30 120c0 11.333 10.667 21 32 29s33.666 13.333 36.999 16
c39.333 49.333 61.333 122.333 66 219l30 692h-210l4 132h210c8 221.333 49.333 374.666 124 459.999c63.333 72 155.333 108.333 276 109c48.667 0 97.834 -7.5 147.501 -22.5s81.834 -24.167 96.501 -27.5l-26 -206c-64.667 26 -114.334 39 -149.001 39
s-60.834 -4 -78.501 -12s-32 -20.667 -43 -38s-20 -34.666 -27 -51.999s-12.167 -40 -15.5 -68c-6.66699 -56 -10 -109.667 -10 -161z" />
    <glyph glyph-name="circumflex" unicode="&#x2c6;" horiz-adv-x="1331" 
d="M787 837l277 -583l-221 -31l-154 388l-154 -388l-219 31l276 583h195z" />
    <glyph glyph-name="ring" unicode="&#x2da;" horiz-adv-x="1256" 
d="M749 640c-32 32 -72.5 48 -121.5 48s-89.333 -16 -121 -48s-47.5 -72.333 -47.5 -121s15.833 -88.834 47.5 -120.501s72.167 -47.5 121.5 -47.5s89.833 15.833 121.5 47.5s47.5 71.834 47.5 120.501s-16 89 -48 121zM396.5 300.5
c-60.333 58.333 -90.502 131.833 -90.502 220.5s31.167 161.5 93.5 218.5s139.333 85.5 231 85.5s168 -28.833 229 -86.5s91.5 -131.5 91.5 -221.5s-31.667 -163.167 -95 -219.5s-140.666 -84.5 -231.999 -84.5s-167.166 29.167 -227.499 87.5z" />
    <glyph glyph-name="tilde" unicode="&#x2dc;" horiz-adv-x="1438" 
d="M1155 529c0 -90 -17.334 -162.666 -52.001 -217.999s-88.334 -83 -161.001 -83c-52 0 -107.333 12.667 -166 38c-49.333 22 -98 47.333 -146 76c-29.333 14.667 -54.666 22 -75.999 22c-38.667 0 -58 -39.333 -58 -118h-191c0 208.667 74.333 313 223 313
c54 0 96.333 -7.16699 127 -21.5s60 -28.833 88 -43.5l48 -24c2 -0.666992 9 -4.33398 21 -11.001s20.333 -11 25 -13l22 -9c18.667 -7.33301 34.834 -11 48.501 -11s23.667 2.5 30 7.5s10.833 12.833 13.5 23.5c4 16 6 40 6 72h198z" />
    <glyph glyph-name="uni0306" unicode="&#x306;" horiz-adv-x="1103" 
d="M549 1505c50 0 85.5 13.333 106.5 40s31.5 67.667 31.5 123h176c0 -102 -26 -177.667 -78 -227s-130.667 -74 -236 -74c-210.667 0 -316 100.333 -316 301h177c0 -55.333 10.667 -96.333 32 -123s57 -40 107 -40z" />
    <glyph glyph-name="uni0E81" unicode="&#xe81;" horiz-adv-x="1515" 
d="M664 871l3.00098 -42v-476c0 -108.667 -26.5 -194.667 -79.5 -258s-130.5 -95 -232.5 -95c-185.333 -0 -278 75.333 -278 226c0 56.667 19.167 105.167 57.5 145.5s85.5 60.5 141.5 60.5c4 -1.33301 9.66699 -2 17 -2c14.667 -0.666992 26 -2 34 -4l57 -18v336
c-24 -2.66699 -42.333 -4 -55 -4c-75.333 0 -136.833 18.667 -184.5 56s-71.5 85.666 -71.5 144.999c0.666992 59.333 13 105.333 37 138c45.333 60.667 127.166 91 245.499 91s206.166 -47.333 263.499 -142c108.667 73.333 195.667 117.333 261 132
c32 6.66699 65.667 10 101 10c298.667 0 448 -157.667 448 -473v-697h-284v747c-0.666992 86 -15 147.667 -43 185c-29.333 40 -84.666 60 -165.999 60c-62 -1.33301 -152.667 -41.666 -272 -120.999zM252.001 957c6 -50.667 31 -77.667 75 -81c20.667 0 39.667 3 57 9v46
c-5.33301 58 -27 89.667 -65 95c-44.667 0 -67 -23 -67 -69zM327.001 301c-48.667 0 -73 -25.332 -73 -75.999s21.333 -76.667 64 -78c44 1.33301 66 32.666 66 93.999v60h-57z" />
    <glyph glyph-name="uni0E82" unicode="&#xe82;" horiz-adv-x="1317" 
d="M674 1170c49.333 0 91.835 -0.99707 127.502 -2.99707s71.334 -5.5 107.001 -10.5s68 -11.833 97 -20.5s56.833 -19.167 83.5 -31.5s50 -27.166 70 -44.499c20.667 -17.333 38.334 -37.333 53.001 -60c29.333 -44 44 -92.5 44 -145.5s-5 -95 -15 -126
s-22.333 -57.833 -37 -80.5s-35 -44.5 -61 -65.5s-49.833 -38 -71.5 -51s-50.167 -26.833 -85.5 -41.5c-52 -21.333 -109.667 -41.333 -173 -60l-138 -43c-30.667 -8.66699 -58.5 -15.834 -83.5 -21.501s-46.833 -11.834 -65.5 -18.501
c-18.667 -7.33301 -34.667 -14.333 -48 -21c-30.667 -16.667 -46.334 -36.667 -47.001 -60c-0.666992 -21.333 7.66602 -34.333 24.999 -39c8 -2 24.5 -3 49.5 -3s58.833 6.66699 101.5 20s80.667 28 114 44c90 42.667 173.333 63.667 250 63
c119.333 0 224.333 -61 315 -183c16 -22 34.333 -48.667 55 -80l-163 -143c-42 72 -75.667 118 -101 138c-37.333 29.333 -76.5 44 -117.5 44s-79.833 -4.33301 -116.5 -13s-70.334 -19.334 -101.001 -32.001c-30 -13.333 -60.333 -26 -91 -38
c-74 -29.333 -145.333 -44 -214 -44c-193.333 0 -290 80.333 -290 241c0 78 30.333 140.333 91 187c58 44.667 147.667 86 269 124c19.333 6 33.333 10.667 42 14l98 33l56 16.5l58 17c14.667 4.33301 32.667 10.666 54 18.999s38.666 16.333 51.999 24
s27.666 17.667 42.999 30s27.333 25.5 36 39.5c20 32 30 64.167 30 96.5s-3.5 56.333 -10.5 72s-17.333 28.834 -31 39.501s-29.167 19.667 -46.5 27c-16 6.66699 -35.333 12 -58 16c-40.667 7.33301 -82 11 -124 11s-71.833 -0.166992 -89.5 -0.5
s-39.167 -1.16602 -64.5 -2.49902c-48 -2.66699 -88.333 -10 -121 -22c11.333 2 22.333 3 33 3c48.667 0 89.834 -18.833 123.501 -56.5s50.5 -85.334 50.5 -143.001s-22.5 -105.834 -67.5 -144.501s-102.167 -58 -171.5 -58c-172.667 0 -259 84 -259 252
c0 142 79.333 239.333 238 292c85.333 28.667 184 43 296 43zM397.502 721.003c18.333 0 33.333 9.16699 45 27.5s17.834 39.5 18.501 63.5c0 48 -26.667 72 -80 72h-52c-2.66699 -12 -4 -23.667 -4 -35c0 -26 6.33301 -51 19 -75c17.333 -35.333 35.166 -53 53.499 -53z
" />
    <glyph glyph-name="uni0E84" unicode="&#xe84;" horiz-adv-x="1345" 
d="M686 1170c228.667 0 386.999 -50.665 474.999 -151.998c65.333 -75.333 98 -182.333 98 -321v-697h-283v693c0 110 -21.333 187.167 -64 231.5s-118 66.5 -226 66.5c-134.667 -0.666992 -220 -18.334 -256 -53.001c-20 -19.333 -30 -48.5 -30 -87.5s13 -70.667 39 -95
s63 -36.5 111 -36.5h157v-167h-157c-52 0 -90 -10.833 -114 -32.5s-36 -56.834 -36 -105.501v-5l24 7c4 1.33301 9.5 2.83301 16.5 4.5s12.167 3 15.5 4s7.66602 2.16699 12.999 3.5c8.66699 1.33301 26.334 2 53.001 2s55.334 -8.33301 86.001 -25
c66.667 -35.333 100 -94 100 -176c0 -152.667 -93.333 -229 -280 -229c-99.333 -0 -176 32.333 -230 97s-81 143.667 -81 237s25 164.833 75 214.5s114.667 79.5 194 89.5c-76.667 0 -140.667 20 -192 60s-77 94.667 -77 164c0 205.333 189.667 308 569 308z
M464.999 147.002c44 0 66 27.334 66 82.001c0 21.333 -7.16699 38.666 -21.5 51.999s-32.833 20 -55.5 20h-54v-49c0 -34 4.5 -60 13.5 -78s26.167 -27 51.5 -27z" />
    <glyph glyph-name="uni0E87" unicode="&#xe87;" horiz-adv-x="1051" 
d="M516 937c0 -132 -77.3311 -197.998 -231.998 -197.998c-68 0 -122.167 18.5 -162.5 55.5s-60.5 88.833 -60.5 155.5c0.666992 89.333 55.667 152.666 165 189.999c58 20 125.333 29.667 202 29c378 0 567 -181.333 567 -544v-604
c0 -183.333 -38.833 -319.333 -116.5 -408s-203.834 -133 -378.501 -133c-276.667 0 -415.667 110 -417 330h190c0 -64 18 -108.833 54 -134.5s90.333 -38.5 163 -38.5c55.333 0 95 7.83301 119 23.5s41.5 31.667 52.5 48s19.833 33.5 26.5 51.5
c5.33301 17.333 10 38.666 14 63.999c5.33301 39.333 8.33301 92 9 158v637c0 109.333 -5.5 182.5 -16.5 219.5s-21.833 65.833 -32.5 86.5s-23.334 37.667 -38.001 51c-34 30 -76.333 45.667 -127 47c12.667 -34 19 -62.667 19 -86zM238.002 937.002
c0 -44.667 19.333 -67.001 58 -67.001c46.667 0 70 28.667 70 86v66c-85.333 -7.33301 -128 -35.666 -128 -84.999z" />
    <glyph glyph-name="uni0E88" unicode="&#xe88;" horiz-adv-x="1421" 
d="M448.5 781.5c49 39 105.994 58.5039 170.994 58.5039s115.5 -7.33301 151.5 -22s64 -34.334 84 -59.001s36.833 -53.834 50.5 -87.501s23.334 -68.834 29.001 -105.501s12.167 -75.334 19.5 -116.001c6.66699 -41.333 13.334 -80 20.001 -116
c16 -83.333 47.333 -148 94 -194v536c0 116 -32 198 -96 246c-61.333 46.667 -154 69.667 -278 69c-161.333 0 -276.666 -36 -345.999 -108c-38.667 -40 -58 -94.667 -58 -164h-252c1.33301 112.667 33 202.334 95 269.001c62 68 141.667 115.333 239 142
c99.333 26.667 204.333 40 315 40s204.167 -10 280.5 -30s141.833 -51.333 196.5 -94c110.667 -86.667 166.334 -227 167.001 -421v-607l-276 -100l-45 26c-167.333 95.333 -272.666 257.666 -315.999 486.999l-50 -15c-25.333 -7.33301 -48.666 -11 -69.999 -11
c-59.333 0 -107.333 19.5 -144 58.5s-55 92 -55 159s24.5 120 73.5 159zM682.994 573.004c0 39.333 -4.33203 69.499 -12.999 90.499s-24.5 31.5 -47.5 31.5s-40.5 -7.66699 -52.5 -23s-18 -33.166 -18 -53.499s4 -36.5 12 -48.5c15.333 -22.667 41.666 -33.667 78.999 -33
h41c-0.666992 2 -1 6.66699 -1 14v22z" />
    <glyph glyph-name="uni0E8A" unicode="&#xe8a;" horiz-adv-x="1305" 
d="M330 884c-2.66699 -18.667 -4 -30.333 -4 -35c2 -80 23.333 -120.667 64 -122c47.333 0 71 28.333 71 85c-2.66699 48 -31 72 -85 72h-46zM428 264.001c1.33301 -27.333 17.998 -41.0039 49.998 -41.0039s72.667 7.33301 122 22s95.333 30.667 138 48
c116 46.667 212.333 70 289 70c164 0 246 -90.667 246 -272v-444h-249v425c0 28 -4 46 -12 54c-12.667 12.667 -33.667 19 -63 19s-67 -7.5 -113 -22.5s-89 -31.833 -129 -50.5c-150 -48.667 -243 -72.667 -279 -72h-5c-84 0 -151 20 -201 60s-75 100.333 -75 181
c2 74 35.667 131.667 101 173c61.333 39.333 137.333 72.333 228 99l86 25c37.333 10.667 64.666 18.667 81.999 24l73 23.5c31.333 10.333 55.333 19.5 72 27.5l60.5 30c23.667 12 41.834 24.167 54.501 36.5s25.667 26.5 39 42.5c24 28 36 59 36 93s-2.5 59.667 -7.5 77
s-12 32.333 -21 45s-20.5 23.834 -34.5 33.501s-28.833 17.334 -44.5 23.001s-33.834 10.5 -54.501 14.5c-36 6.66699 -82.667 9.66699 -140 9c-119.333 0 -202.333 -13.333 -249 -40h22c50 0 93.833 -16.5 131.5 -49.5s56.5 -79 56.5 -138s-22.5 -108.667 -67.5 -149
s-101.833 -60.5 -170.5 -60.5c-173.333 0 -260 85 -260 255c0 194 144 304 432 330c37.333 3.33301 75.333 5 114 5c381.333 0 572 -117.667 572 -353c0 -135.333 -67.333 -234.666 -202 -297.999c-42 -19.333 -90.333 -38 -145 -56l-230 -76
c-11.333 -4 -29.666 -9 -54.999 -15s-47.666 -11.833 -66.999 -17.5s-39.666 -12.5 -60.999 -20.5c-44 -17.333 -67.333 -40.666 -70 -69.999z" />
    <glyph glyph-name="uni0E8D" unicode="&#xe8d;" horiz-adv-x="1334" 
d="M696 178c108.667 0 184.332 22.333 226.999 67s64 122 64 232v693h283v-697c0 -209.333 -75.667 -347 -227 -413c-92 -40 -216.333 -60 -373 -60c-361.333 -0 -542 102.333 -542 307c0 101.333 60.667 169.333 182 204c34.667 10 74 16.667 118 20
c-87.333 9.33301 -159.166 39.333 -215.499 90s-84.5 116 -84.5 196c0 104.667 26.667 189 80 253c55.333 66.667 132.333 100 231 100c186 0 279 -76.667 279 -230c0 -80 -32 -138.333 -96 -175c-30.667 -17.333 -69.5 -26 -116.5 -26s-85.5 18 -115.5 54
c0 -62 13.167 -106.833 39.5 -134.5s69.833 -41.5 130.5 -41.5h157v-167h-157c-65.333 0 -109.333 -21.333 -132 -64c-12 -21.333 -17.833 -44.5 -17.5 -69.5s4 -44.833 11 -59.5s17.5 -26.5 31.5 -35.5s29 -16.5 45 -22.5s35.667 -10.333 59 -13
c38.667 -5.33301 85 -8 139 -8zM551.998 941c0 62 -25.333 93 -76 93c-32 0 -54.333 -10.167 -67 -30.5s-19 -48.833 -19 -85.5v-49h75c58 0 87 24 87 72z" />
    <glyph glyph-name="uni0E94" unicode="&#xe94;" horiz-adv-x="1360" 
d="M990 693c0 110.667 -21.333 187.998 -64 231.998s-118.334 66 -227.001 66c-72 0 -128.667 -9.16699 -170 -27.5s-71.5 -48.166 -90.5 -89.499s-28.5 -98 -28.5 -170v-296l39 13c18.667 6 44.5 9 77.5 9s64.833 -9 95.5 -27c62.667 -37.333 94 -98.666 94 -183.999
c0 -80.667 -26 -137.667 -78 -171c-49.333 -32 -112.666 -48 -189.999 -48s-139 16 -185 48c-90 62 -135 164.333 -135 307v342c0 204.667 72 341 216 409c90 42.667 208.333 64 355 64c228.667 0 387.667 -51 477 -153c66.667 -75.333 99.667 -182 99 -320v-697h-285v693z
M410 240.998c0 -62.667 23 -93.999 69 -93.999c40.667 0 61 26 61 78c0 23.333 -6.83301 41.666 -20.5 54.999s-32.5 20 -56.5 20h-53v-59z" />
    <glyph glyph-name="uni0E95" unicode="&#xe95;" horiz-adv-x="1660" 
d="M855 994c21.333 55.333 59.002 98.5029 113.002 129.503s119.333 46.5 196 46.5c274.667 0 412 -159 412 -477v-693h-284v713c0 78.667 -3.83301 130.667 -11.5 156s-15.5 45.166 -23.5 59.499s-17.667 25.5 -29 33.5c-26 18.667 -54.5 28.167 -85.5 28.5
s-54.833 -4.33398 -71.5 -14.001s-29.667 -21.834 -39 -36.501s-16.666 -33.334 -21.999 -56.001c-8.66699 -36.667 -13 -82 -13 -136v-190h-284v151c0 78.667 -2.83301 129.834 -8.5 153.501s-11.834 43.5 -18.501 59.5c-8 16 -16.667 28.667 -26 38
c-22.667 21.333 -50 31.833 -82 31.5s-58 -4.33301 -78 -12s-36 -17.5 -48 -29.5c-10.667 -12 -19.334 -29.333 -26.001 -52c-9.33301 -34 -14.333 -84 -15 -150v-338l40 13c24 7.33301 46.667 11 68 11c58.667 0 106.5 -20.5 143.5 -61.5s55.5 -92.167 55.5 -153.5
c0 -146 -93.667 -219 -281 -219c-64.667 -0 -120.334 14.333 -167.001 43c-94.667 57.333 -142 155.333 -142 294v360c0 158.667 33.5 277.167 100.5 355.5s173.833 117.5 320.5 117.5c78 0 143.5 -15.167 196.5 -45.5s89.5 -73.833 109.5 -130.5zM480.002 147.003
c40.667 0 61 26 61 78c-1.33301 49.333 -27.333 74 -78 74h-52v-64c0 -58.667 23 -88 69 -88z" />
    <glyph glyph-name="uni0E96" unicode="&#xe96;" horiz-adv-x="1434" 
d="M509 1070c110 66.667 220.667 100.002 332 100.002s206.166 -17 284.499 -51s139.833 -86.5 184.5 -157.5s67 -157.5 67 -259.5v-1032h-284v1031c0 98.667 -21 171.667 -63 219s-110 71 -204 71c-48 0 -89.833 -6.83301 -125.5 -20.5s-76.5 -34.834 -122.5 -63.501v-498
l37 13c14 4.66699 35 7 63 7c60 0 109.167 -19.833 147.5 -59.5s57.5 -89.834 57.5 -150.501c0 -146 -96.667 -219 -290 -219c-64.667 0 -120 16 -166 48c-88.667 62 -133 165.667 -133 311v408c-22 -4 -49 -6 -81 -6c-64 0 -116.333 18.5 -157 55.5s-61 86.5 -61 148.5
c0 136.667 84.667 205 254 205c104.667 0 191.334 -33.333 260.001 -100zM642 147.002c19.333 0 35 6.66699 47 20s18 31 18 53c-4 51.333 -31 78 -81 80h-48v-60c6.66699 -56.667 28 -87.667 64 -93zM294 931.002c-3.33301 72.667 -24 109 -62 109
c-38.667 0 -58 -21.333 -58 -64c0 -40.667 17 -61 51 -61c21.333 0 44.333 5.33301 69 16z" />
    <glyph glyph-name="uni0E97" unicode="&#xe97;" horiz-adv-x="1543" 
d="M975 491c0 -160 -33.166 -281.832 -99.499 -365.499s-171.166 -125.5 -314.499 -125.5c-188.667 0 -309 56.667 -361 170c-18.667 40 -27.834 79.667 -27.501 119s7.16602 83.666 20.499 132.999l90 325c-18.667 -5.33301 -41.667 -8 -69 -8
c-59.333 0 -107 20.5 -143 61.5s-54 89.333 -54 145s12.333 99.834 37 132.501c46 61.333 128.667 92 248 92c108 0 188.667 -32 242 -96c28 -33.333 42 -67.5 42 -102.5s-3 -62.5 -9 -82.5l-132 -522c-3.33301 -26.667 -5 -43.334 -5 -50.001v-12
c4.66699 -85.333 43.667 -128 117 -128c42 -0.666992 72.333 14.333 91 45c20.667 33.333 32.667 67 36 101c5.33301 53.333 8 107 8 161v297c0 133.333 32.833 231.5 98.5 294.5s166.167 94.5 301.5 94.5c136 0 232.667 -38.667 290 -116c54.667 -74 82 -184 82 -330v-724
h-284v781c0 74.667 -4.66699 122.667 -14 144c-10 22 -18.333 36.333 -25 43c-14.667 15.333 -32.167 23 -52.5 23s-36.5 -2.16699 -48.5 -6.5s-21.833 -10.833 -29.5 -19.5s-14 -18 -19 -28s-8.83301 -22.667 -11.5 -38c-4 -24 -5.66699 -55 -5 -93v-315zM264.001 1023
c-46.667 0 -70.001 -25.666 -70.001 -76.999c0.666992 -50.667 31 -76 91 -76h31l18 62c2.66699 4.66699 4 13.167 4 25.5s-3.33301 23.833 -10 34.5c-13.333 21.333 -34.666 31.666 -63.999 30.999z" />
    <glyph glyph-name="uni0E99" unicode="&#xe99;" horiz-adv-x="1506" 
d="M1439 498c0 -332 -173.331 -498 -519.998 -498c-109.333 -0 -199.333 20.833 -270 62.5s-116.334 103.834 -137.001 186.501c-39.333 -166 -165.333 -249 -378 -249v180c163.333 1.33301 245 105.666 245 312.999v269c-44 -14.667 -77 -22 -99 -22
c-62.667 0 -112.834 19.5 -150.501 58.5s-56.5 90.5 -56.5 154.5c0 144.667 95.333 217 286 217c96 0 170.5 -32 223.5 -96s79.5 -147.333 79.5 -250v-329c0 -107.333 16 -185.666 48 -234.999c35.333 -54.667 102.333 -82.334 201 -83.001c95.333 0 160.333 23.333 195 70
c33.333 45.333 50 117 50 215v708h283v-672zM311.002 1023c-40.667 0 -61 -25.5 -61 -76.5s28 -76.5 84 -76.5h45v60c0 59.333 -22.667 90.333 -68 93z" />
    <glyph glyph-name="uni0E9A" unicode="&#xe9a;" horiz-adv-x="1425" 
d="M17 950c0 146.667 91.334 219.999 274.001 219.999c81.333 0 149.166 -22.167 203.499 -66.5s81.5 -104.5 81.5 -180.5c0 -40.667 -7.83301 -88.667 -23.5 -144s-25.167 -91 -28.5 -107l-50 -197c-13.333 -49.333 -20 -91 -20 -125s8 -62.167 24 -84.5
s37.333 -39.5 64 -51.5c53.333 -24 112.333 -36.167 177 -36.5s117 3.83398 157 12.501c38.667 8 72.667 22.333 102 43c56 40 84 113.667 84 221v716h284v-663c0 -184 -54 -315.333 -162 -394c-102.667 -75.333 -253 -113 -451 -113c-273.333 0 -445 72.667 -515 218
c-20 41.333 -30 83 -30 125s6.33301 85 19 129l76 276c-21.333 -6 -43.333 -9 -66 -9c-58.667 0 -106.667 20.167 -144 60.5s-56 90.5 -56 150.5zM337.001 950.999c0 48 -26 72 -78 72c-43.333 0 -65 -27 -65 -81c0 -48.667 31.667 -73.334 95 -74.001h7
c0.666992 0.666992 4 1 10 1h9l9 29c8 26.667 12 43.334 12 50.001z" />
    <glyph glyph-name="uni0E9B" unicode="&#xe9b;" horiz-adv-x="1435" 
d="M454 346c0 -112.667 98.3359 -169.001 295.003 -169.001c111.333 0 192.833 23.167 244.5 69.5s77.5 123.5 77.5 231.5v1035h284v-1001c0 -282.667 -135.333 -448 -406 -496c-62.667 -10.667 -128.334 -16 -197.001 -16s-128.834 3.66699 -180.501 11
s-101.334 19.833 -149.001 37.5s-88.5 39.834 -122.5 66.501c-74.667 58.667 -112 140 -112 244c0 42.667 9.66699 93 29 151l67 237c-22.667 -5.33301 -45.334 -8 -68.001 -8c-58 0 -105.667 20.167 -143 60.5s-56 87.833 -56 142.5c0.666992 54 13.667 98 39 132
c48 64 129 96 243 96c80 0 146.167 -22.333 198.5 -67s78.5 -105 78.5 -181c0 -36 -3 -64 -9 -84c-11.333 -36 -17.666 -59.333 -18.999 -70l-74 -293c-13.333 -49.333 -20 -92.333 -20 -129zM337.003 955.999c0 44.667 -23.333 67 -70 67l-1 -1c-48 0 -72 -26.667 -72 -80
c0 -49.333 29.667 -74 89 -74h33l11 40c2 7.33301 5.33301 23.333 10 48z" />
    <glyph glyph-name="uni0E9C" unicode="&#xe9c;" horiz-adv-x="1671" 
d="M1246 930c0 60 -22.3311 91 -66.998 93c-28.667 0.666992 -48.334 -14.333 -59.001 -45c-2.66699 -9.33301 -4 -19.333 -4 -30c0 -52 30 -78 90 -78h21c9.33301 0 15.666 0.333008 18.999 1v59zM479.002 870c57.333 3.33301 86 29.667 86 79s-21 74 -63 74
c-45.333 -2.66699 -68 -33.667 -68 -93v-60h45zM1246 747.001c-22.667 -4.66699 -60.3311 -6.99902 -112.998 -6.99902s-98 19.667 -136 59s-57 91 -57 155c0 144 94.667 216 284 216c115.333 0 198.666 -45 249.999 -135c9.33301 23.333 14 59 14 107v163h175v-163
c0 -90.667 -31.667 -168.667 -95 -234l-44 -42c3.33301 -52 5 -81.333 5 -88v-267c0 -340.667 -125 -511 -375 -511c-183.333 0 -289.333 76 -318 228c-28 -152 -133.333 -228 -316 -228c-246 0 -369 170.333 -369 511v299c0 148.667 44 253 132 313
c46 31.333 109 47 189 47s145 -17 195 -51s75 -85.833 75 -155.5s-19.167 -124.334 -57.5 -164.001s-88.5 -59.5 -150.5 -59.5c-36 0 -69.333 6.66699 -100 20v-331c0 -84.667 4.66699 -138.334 14 -161.001c8 -21.333 16.667 -38.666 26 -51.999
c18 -25.333 46.667 -38.333 86 -39c91.333 0 137 84 137 252v159h284v-157c0 -169.333 45.333 -254 136 -254c75.333 0 117.666 57.333 126.999 172c1.33301 22 2 48 2 78v320z" />
    <glyph glyph-name="uni0E9D" unicode="&#xe9d;" horiz-adv-x="1649" 
d="M433 429c0 -74.667 3.66602 -123 10.999 -145s14.666 -39.333 21.999 -52c6.66699 -12 15.334 -22 26.001 -30c22.667 -17.333 49.667 -25.833 81 -25.5s56.166 4.66602 74.499 12.999s33 19.5 44 33.5s19.833 32.333 26.5 55c10.667 36.667 15.667 87 15 151v159h284
v-159c0.666992 -99.333 14.334 -167.666 41.001 -204.999c22.667 -32 56.667 -47.667 102 -47c42 0 71.333 8.33301 88 25s28.667 32.167 36 46.5s13 31.5 17 51.5c7.33301 36 11 79 11 129v1084h284v-1002c0 -282 -88 -447 -264 -495c-38.667 -10.667 -82 -16 -130 -16
c-97.333 0 -171.666 18.667 -222.999 56s-86.666 94.666 -105.999 171.999c-13.333 -73.333 -45.166 -129.666 -95.499 -168.999s-116 -59 -197 -59s-149.167 11.5 -204.5 34.5s-99.333 57.167 -132 102.5c-62.667 86.667 -94 211.334 -94 374.001v309
c0 140.667 44.667 241.667 134 303c45.333 31.333 99.666 47 162.999 47c195.333 0 293 -71.333 293 -214c0 -64.667 -18.5 -116.834 -55.5 -156.501s-87.167 -59.5 -150.5 -59.5c-18.667 0 -52.334 7 -101.001 21v-332zM563.999 953c0 20 -5.66699 36.666 -17 49.999
s-26.333 20 -45 20c-46 0 -69 -31 -69 -93v-60h44c54.667 6.66699 83.667 34.334 87 83.001z" />
    <glyph glyph-name="uni0E9E" unicode="&#xe9e;" horiz-adv-x="1607" 
d="M17 950c0 146.667 89.668 220.002 269.001 220.002c112 0 195 -36 249 -108c27.333 -36 41 -78.667 41 -128c0 -14.667 -4.33301 -47 -13 -97l-95 -380c-9.33301 -62.667 -14 -106.334 -14 -131.001c0 -98.667 36.333 -148.334 109 -149.001c68.667 0 111 31.333 127 94
c9.33301 34 14 79.333 14 136v762h284v-762c0 -115.333 23 -186.333 69 -213c18.667 -10.667 40.5 -16.167 65.5 -16.5s45.5 3.5 61.5 11.5s28.5 18.333 37.5 31s16.167 29.334 21.5 50.001c8.66699 33.333 13 78.666 13 135.999v764h283v-658
c0 -341.333 -125 -512 -375 -512c-178 0 -284.333 81.667 -319 245c-12.667 -79.333 -45.834 -140 -99.501 -182s-130.5 -63 -230.5 -63s-179.667 28.5 -239 85.5s-89 138.5 -89 244.5c0 51.333 6.33301 98 19 140l76 277c-22.667 -5.33301 -44.667 -8 -66 -8
c-59.333 0 -107.333 20 -144 60s-55 90.333 -55 151zM327.001 915.002l9.00098 40c0 45.333 -24.333 68 -73 68c-43.333 -4 -66.333 -29 -69 -75c0 -28 7.16699 -48.167 21.5 -60.5s37.166 -18.5 68.499 -18.5h31z" />
    <glyph glyph-name="uni0E9F" unicode="&#xe9f;" horiz-adv-x="1603" 
d="M1149 0c-182 0 -288.998 81.6699 -320.998 245.003c-31.333 -158 -133.666 -239.667 -306.999 -245h-10c-114 0.666992 -199 28.5 -255 83.5s-84 139.167 -84 252.5c0 44 7.33301 91.667 22 143l82 300c-20 -9.33301 -48.667 -14 -86 -14c-36 0 -67.333 8.33301 -94 25
c-52 33.333 -78.333 90.666 -79 171.999c0.666992 48 13 88 37 120c45.333 58.667 126.666 88 243.999 88c102.667 0 179.667 -29.333 231 -88c26.667 -30.667 40 -64.334 40 -101.001s-7.33301 -85.667 -22 -147l-87 -356c-14.667 -58.667 -22 -103.334 -22 -134.001
c0 -111.333 37.667 -167 113 -167c66 0 107.667 31.667 125 95c9.33301 34 13.666 79 12.999 135v762h283v-763c0 -92.667 13.333 -155 40 -187c22.667 -28 56 -42 100 -42c40 0 68.667 11 86 33c19.333 24 30.666 49 33.999 75c5.33301 40 8 80.667 8 122v1107h283v-1002
c0 -341.333 -124.667 -512 -374 -512zM253.002 1037c-46.667 -6.66699 -71.334 -31.667 -74.001 -75c0 -34.667 9.33301 -57 28 -67s51 -15 97 -15l8 24l14 64v6c-1.33301 41.333 -25.666 62.333 -72.999 63z" />
    <glyph glyph-name="uni0EA1" unicode="&#xea1;" horiz-adv-x="1764" 
d="M890 506c0 -165.333 42.667 -267.666 128 -306.999c32 -14.667 70.667 -22 116 -22c93.333 0 159.5 23.167 198.5 69.5s58.5 118.833 58.5 217.5v706h283v-663c0 -338 -173.667 -507 -521 -507c-106.667 0 -196 21.333 -268 64s-118.333 104.667 -139 186
c-18.667 -78.667 -65.667 -140 -141 -184s-165.333 -66 -270 -66c-140.667 0 -232 41.333 -274 124c-15.333 30 -23 70.167 -23 120.5s20.5 94 61.5 131s95.833 55.5 164.5 55.5s124 -15.833 166 -47.5s63 -80.167 63 -145.5c0 -26.667 -3.66699 -47.334 -11 -62.001
c82.667 52 124 159.333 124 322v672h284v-664zM278 300c-19.333 0 -34.5 -6.5 -45.5 -19.5s-16.5 -28.667 -16.5 -47s3.16699 -32.833 9.5 -43.5s15.833 -18.667 28.5 -24c20 -9.33301 49.667 -15.333 89 -18v77c-5.33301 50 -27 75 -65 75z" />
    <glyph glyph-name="uni0EA2" unicode="&#xea2;" horiz-adv-x="1353" 
d="M441 388c-12 -21.333 -18.002 -44.5 -18.002 -69.5s3.83301 -45.333 11.5 -61s19 -28.167 34 -37.5s30.5 -17 46.5 -23c16.667 -6 37 -10.333 61 -13c36.667 -4 81.167 -6 133.5 -6s96.333 4.33301 132 13s65.5 23.667 89.5 45c44.667 39.333 67 110 67 212v689
c0 183.333 22.667 330.333 68 441h267c-34.667 -142 -52 -297 -52 -465v-640c-0.666992 -226 -89 -369 -265 -429c-84.667 -29.333 -187.334 -44 -308.001 -44c-175.333 0 -306.666 19.667 -393.999 59c-116 52 -174 134.667 -174 248c0 70.667 25.333 125.667 76 165
s114.667 59 192 59c-78.667 8 -143 37.167 -193 87.5s-75 122.333 -75 216s27.167 173 81.5 238s130.5 97.5 228.5 97.5c186.667 0 280 -76.667 280 -230c0 -60 -19.667 -108.667 -59 -146s-89.666 -56 -150.999 -56c-20.667 0 -40.667 3.5 -60 10.5
s-31.666 11.167 -36.999 12.5v-6c0 -48 12.333 -83 37 -105s62 -33 112 -33h157v-167h-157c-64 0 -107.667 -20.667 -131 -62zM476.998 869c23.333 0 41.833 6.33203 55.5 18.999s20.5 30.334 20.5 53.001c0 54.667 -22 82 -66 82c-42.667 -0.666992 -64 -35.667 -64 -105
v-49h54z" />
    <glyph glyph-name="uni0EA3" unicode="&#xea3;" horiz-adv-x="1348" 
d="M95 348c0 168 84.9951 252 254.995 252c70 0 127.833 -19.167 173.5 -57.5s68.5 -86.833 68.5 -145.5s-17.167 -106 -51.5 -142s-76.833 -54 -127.5 -54l-34 6c50 -22 149.333 -33 298 -33c130 0 225.667 25 287 75c36 29.333 54 66 54 110s-15.167 81.167 -45.5 111.5
s-68.666 54.166 -114.999 71.499s-99.5 33.333 -159.5 48c-58.667 14 -115.334 25.333 -170.001 34c-138 22 -225.667 42.667 -263 62c-38 20 -67 39.667 -87 59c-45.333 43.333 -68 103.333 -68 180c0 131.333 107.333 209 322 233c68 8 131.5 12 190.5 12
s103.833 -0.5 134.5 -1.5s63.334 -3 98.001 -6s65.5 -7.16699 92.5 -12.5s54.333 -12.333 82 -21s51.834 -19 72.501 -31s40.334 -26.667 59.001 -44c18 -16.667 33 -35.667 45 -57c25.333 -46.667 38.333 -101.667 39 -165v-22h-256v26c0 32 -4.83301 55 -14.5 69
s-18 24.833 -25 32.5s-16.667 14.167 -29 19.5l-33 14c-9.66699 4 -22.834 7.16699 -39.501 9.5l-42 6c-11.333 1.66699 -26.666 2.83398 -45.999 3.50098s-34.666 1 -45.999 1h-116c-98.667 0 -160.667 -10.667 -186 -32c-12 -10 -17.833 -22 -17.5 -36
s4.5 -26.333 12.5 -37s19.333 -19.667 34 -27s30.334 -13.833 47.001 -19.5s36 -10.5 58 -14.5s42 -7.33301 60 -10c17.333 -3.33301 36.666 -6.33301 57.999 -9c33.333 -4.66699 60.5 -9 81.5 -13l63.5 -12c21.333 -4 51 -10.333 89 -19s67.5 -16.667 88.5 -24
s47 -17.333 78 -30s55.167 -25.667 72.5 -39s36.5 -29.833 57.5 -49.5s36.833 -40.834 47.5 -63.501c26 -54.667 39 -111.167 39 -169.5s-11.333 -109.666 -34 -153.999s-52.667 -80.5 -90 -108.5c-36.667 -29.333 -81 -53.333 -133 -72
c-95.333 -34.667 -207.666 -52 -336.999 -52c-158 0 -291.667 24.667 -401 74c-56 25.333 -102 61 -138 107s-53.667 101.667 -53 167zM415.995 373c0 54 -21.667 81.333 -65 82c-46 -0.666992 -69.333 -40.667 -70 -120c0 -2 1.66699 -14 5 -36h38
c61.333 2 92 26.667 92 74z" />
    <glyph glyph-name="uni0EA5" unicode="&#xea5;" horiz-adv-x="1373" 
d="M326 300v-24c0 -69.333 8.66699 -112 26 -128c8.66699 -8 23.667 -11.833 45 -11.5s39.5 8.5 54.5 24.5s22.833 37.333 23.5 64c0 46 -29.333 71 -88 75h-61zM1037 324l-0.999023 63v273c0 122.667 -23.333 207.334 -70 254.001c-46 46 -128.667 71.667 -248 77
c-100 0 -177.667 -16.333 -233 -49s-87.666 -86.667 -96.999 -162h-229c0 164 78.333 276.667 235 338c89.333 34.667 190.666 52 303.999 52s205.666 -8.66699 276.999 -26s133.333 -45 186 -83c106 -76.667 159 -205.667 159 -387v-226c0 -176 -31.333 -298.667 -94 -368
c-47.333 -52.667 -116 -79.334 -206 -80.001c-59.333 0 -108.666 16.667 -147.999 50c-38.667 33.333 -67.334 67 -86.001 101l-48 87.5l-37.5 70.5c-11.667 22.667 -25.334 44.167 -41.001 64.5s-32.167 38.166 -49.5 53.499c-38 33.333 -86.167 50 -144.5 50
s-99.5 -28.333 -123.5 -85c24 11.333 55.667 17 95 17c57.333 -5.33301 103.833 -25.166 139.5 -59.499s53.5 -82.333 53.5 -144s-23.5 -111.334 -70.5 -149.001s-103.167 -56.5 -168.5 -56.5s-117 12 -155 36c-79.333 50.667 -119 141 -119 271
c0 56.667 14.833 107.334 44.5 152.001s71.5 79.334 125.5 104.001s110.333 37 169 37s109.667 -7 153 -21s80.5 -32.167 111.5 -54.5s59.667 -47 86 -74s48.833 -53.833 67.5 -80.5s34.667 -51.334 48 -74.001c33.333 -47.333 53.333 -72.666 60 -75.999
c10 0 18.333 1.83301 25 5.5s12 9.16699 16 16.5c3.33301 7.33301 6.33301 14.666 9 21.999c2.66699 9.33301 4.33398 29.333 5.00098 60z" />
    <glyph glyph-name="uni0EA7" unicode="&#xea7;" horiz-adv-x="1310" 
d="M160 521c43.333 44 104 66.0029 182 66.0029s140.5 -18.833 187.5 -56.5s70.5 -86.667 70.5 -147s-16.833 -107.833 -50.5 -142.5s-76.5 -52 -128.5 -52l-56 9c65.333 -24.667 157.5 -37 276.5 -37s205.5 25.5 259.5 76.5s81 132.833 81 245.5v177
c0 121.333 -21.667 206.666 -65 255.999c-44 49.333 -120 74.166 -228 74.499s-186.833 -15.334 -236.5 -47.001s-80.167 -85.5 -91.5 -161.5h-230c-0.666992 224 139 351.333 419 382c38.667 4 88.334 6 149.001 6s121.167 -5.16699 181.5 -15.5s115 -27.5 164 -51.5
s89.5 -55 121.5 -93c66.667 -79.333 100 -191.333 100 -336v-197c0 -238 -117 -387.667 -351 -449c-71.333 -18.667 -141 -28 -209 -28s-124 2.33301 -168 7s-88.167 11.834 -132.5 21.501s-84.833 23.167 -121.5 40.5s-69.334 37.666 -98.001 60.999
c-60.667 49.333 -91 115.833 -91 199.5s21.667 147.5 65 191.5zM321 286.003c68 0 102 24.333 102 73c0 55.333 -22.667 83 -68 83c-45.333 -2 -68 -42 -68 -120c0 -19.333 1.33301 -31.333 4 -36h30z" />
    <glyph glyph-name="uni0EAA" unicode="&#xeaa;" horiz-adv-x="1423" 
d="M1148 23c-33.333 -15.333 -68.6602 -22.999 -105.993 -22.999s-69.833 4.33301 -97.5 13s-51.167 20.667 -70.5 36s-37.5 33 -54.5 53s-31.5 41.333 -43.5 64l-37 70l-35.5 70c-11 22.667 -24 44 -39 64s-30.5 37.667 -46.5 53c-48 29.333 -87 45.666 -117 48.999
c-82 0 -136.333 -26.333 -163 -79c39.333 10.667 73.833 16 103.5 16s60.167 -8.33301 91.5 -25c65.333 -34.667 98 -88.5 98 -161.5s-24.833 -128.333 -74.5 -166s-107.167 -56.5 -172.5 -56.5c-64 -0 -115.333 13.333 -154 40
c-74.667 52.667 -112.334 138.667 -113.001 258c0 91.333 32.167 162.666 96.5 213.999s148.166 77 251.499 77c100.667 0.666992 183 -21.666 247 -66.999c44.667 -31.333 78.667 -61.666 102 -90.999c53.333 -67.333 85.666 -111.666 96.999 -132.999s19 -35 23 -41
s7.33301 -10.5 10 -13.5s6 -6.5 10 -10.5c4 -3.33301 8 -6.33301 12 -9c8 -4.66699 16.667 -7.33398 26 -8.00098c29.333 0 44 32.667 44 98v386c-46 -18 -107 -29.5 -183 -34.5s-128.667 -7.5 -158 -7.5s-60.333 0.666992 -93 2s-66.834 3.5 -102.501 6.5
s-68.334 7.16699 -98.001 12.5s-58.834 12.166 -87.501 20.499s-53.834 18.5 -75.501 30.5s-40.834 26 -57.501 42c-34 32 -51 73 -51 123c0 183.333 192.667 275 578 275c254.667 0 415.334 -51.667 482.001 -155c14.667 48.667 22 96.667 22 144v83h205v-75
c0 -146.667 -34.667 -251.667 -104 -315c4.66699 -35.333 7 -114 7 -236v-191c0 -214.667 -57.333 -348.667 -172 -402zM357.006 146.001c8 -6 22.168 -9 42.501 -9s38.166 8 53.499 24s23.333 37.667 24 65c-3.33301 48 -41 72.667 -113 74h-38v-20
c0 -58 3.16699 -93.333 9.5 -106s13.5 -22 21.5 -28zM1052.01 878.001c-5.33301 75.333 -119.997 113 -343.997 113c-119.333 0 -198 -8.33301 -236 -25c-27.333 -12 -43.833 -24 -49.5 -36s-8.5 -23.167 -8.5 -33.5s2.16699 -19.333 6.5 -27s10.666 -14 18.999 -19
s18.166 -9.5 29.499 -13.5s23.666 -7 36.999 -9s27.333 -3.83301 42 -5.5s29.667 -2.5 45 -2.5c15.333 -1.33301 30.333 -2 45 -2h21.5h20.5c13.333 0 22.666 0.333008 27.999 1c150.667 0 265.334 19.667 344.001 59z" />
    <glyph glyph-name="uni0EAB" unicode="&#xeab;" horiz-adv-x="1966" 
d="M220 740c-62 0 -111.335 19.8281 -148.002 59.4951s-55 91.5 -55 155.5c0 143.333 95.333 215 286 215c108 0 188.333 -32 241 -96c27.333 -33.333 41 -71.166 41 -113.499s-8.33301 -88.5 -25 -138.5l-101 -396c-7.33301 -27.333 -11 -51.333 -11 -72
c0 -59.333 22.5 -103.666 67.5 -132.999s107.833 -44 188.5 -44s140.667 20.833 180 62.5s59 108.167 59 199.5v315c-20 -9.33301 -47 -14 -81 -14c-70.667 0 -125 19 -163 57s-57 86.667 -57 146s11.667 105 35 137c44.667 60 126.334 90 245.001 90s206 -41 262 -123
c84.667 64 156.334 102.333 215.001 115c24 5.33301 49.333 8 76 8c281.333 0 422 -156 422 -468v-702h-284v697c0 114.667 -7.66699 186 -23 214c-21.333 39.333 -44.666 62.5 -69.999 69.5s-50.666 10.5 -75.999 10.5c-26.667 0 -52.667 -4 -78 -12
c-30.667 -9.33301 -60.834 -22.666 -90.501 -39.999s-45.834 -26.666 -48.501 -27.999v-468c0 -295.333 -187.333 -443 -562 -443c-123.333 0 -231 26 -323 78c-96.667 54.667 -150 134.334 -160 239.001c0 3.33301 -0.333008 5.33301 -1 6v16
c0 24.667 4.33301 53.667 13 87l90 326c-8 -1.33301 -29.333 -5.33301 -64 -12zM336.998 955.995c0 19.333 -7.33105 35.333 -21.998 48s-32.334 19 -53.001 19c-44.667 -1.33301 -67.334 -27 -68.001 -77c2.66699 -50.667 33.667 -76 93 -76h29
c12.667 57.333 19.667 86 21 86zM930.5 1008c-8.33301 16 -23.167 24 -44.5 24c-44 0 -66.333 -22.667 -67 -68c0 -46.667 21.333 -70 64 -70c26.667 0 46.667 3.33301 60 10v33c0 31.333 -4.16699 55 -12.5 71z" />
    <glyph glyph-name="uni0EAD" unicode="&#xead;" horiz-adv-x="1313" 
d="M388.5 858c7.66699 -10.667 18.1689 -19 31.502 -25s28.666 -11 45.999 -15c17.333 -2.66699 36 -4.66699 56 -6c44 -2 77 -3.33301 99 -4h11c22 0.666992 36.333 1 43 1c214.667 0 323 28.667 325 86c0 64 -115.333 96 -346 96
c-128.667 0 -210.334 -12.333 -245.001 -37c-21.333 -15.333 -32 -32.5 -32 -51.5s3.83301 -33.833 11.5 -44.5zM152.002 504c43.333 41.333 102.669 62.001 178.002 62.001s135.833 -15.5 181.5 -46.5s68.5 -73.5 68.5 -127.5s-15.667 -97.5 -47 -130.5
s-84.333 -56.833 -159 -71.5c54.667 -22.667 146.334 -34 275.001 -34c69.333 0 119.333 5.16699 150 15.5s54.667 20 72 29s32.5 20.833 45.5 35.5s24.333 29.5 34 44.5s17.667 33.5 24 55.5s11.666 43.5 15.999 64.5s7.5 46.167 9.5 75.5
c3.33301 48.667 5 108.334 5 179.001v62c-43.333 -54.667 -131 -88.667 -263 -102c-26.667 -2.66699 -51.334 -4 -74.001 -4c-382.667 0 -574 94.667 -574 284c0 183.333 186.667 275 560 275c261.333 0 438.666 -49.333 531.999 -148c69.333 -74 104 -173.667 104 -299
v-208c0 -343.333 -201.333 -515 -604 -515c-225.333 0 -393.333 43.333 -504 130c-62.667 49.333 -94.167 113.666 -94.5 192.999s21.167 139.666 64.5 180.999zM353.005 442.001c-32 0 -55.833 -10.167 -71.5 -30.5s-23.5 -46.5 -23.5 -78.5c0 -1.33301 2 -17 6 -47
c46.667 0 82.667 5 108 15s39 29 41 57c0 56 -20 84 -60 84z" />
    <glyph glyph-name="uni0EAE" unicode="&#xeae;" horiz-adv-x="1285" 
d="M423 358c0 34 -7.33301 56.334 -22 67.001s-29 16 -43 16c-46.667 -0.666992 -70 -40.334 -70 -119.001c0 -12 1 -23.333 3 -34h44c58.667 0 88 23.333 88 70zM589 951.001c-75.333 20.667 -129.495 30.999 -162.495 30.999s-49.5 -12 -49.5 -36c0 -16 5.5 -29 16.5 -39
s20.667 -18 29 -24s19 -11.833 32 -17.5l35 -15.5c10.333 -4.66699 23.166 -9.5 38.499 -14.5l38 -12.5c36.667 -12 60.667 -19.667 72 -23l194 -62c106.667 -34.667 177.667 -63.5 213 -86.5s63.666 -44.167 84.999 -63.5c20 -20 36.667 -40.667 50 -62
c29.333 -49.333 44.166 -101 44.499 -155s-6.33398 -99.667 -20.001 -137s-33.5 -68.833 -59.5 -94.5s-56 -47.667 -90 -66s-73.333 -32.833 -118 -43.5c-84 -20 -168 -30 -252 -30s-151.333 3.16699 -202 9.5s-100.334 17.166 -149.001 32.499
c-48 16 -89.333 36.333 -124 61c-76 54.667 -114.333 127.334 -115 218.001c0 177.333 86 266 258 266c70 0 128.667 -19.167 176 -57.5s71 -87.5 71 -147.5s-18 -107 -54 -141s-82 -51 -138 -51l-47 8c62.667 -24.667 160.334 -37 293.001 -37
c186 0 281.667 59.667 287 179c-3.33301 94.667 -80 166 -230 214c-60.667 19.333 -97.667 31.333 -111 36l-60 21c-13.333 4.66699 -32 10.834 -56 18.501l-58.5 19c-15 5 -33.833 11.667 -56.5 20s-41.167 16 -55.5 23s-31 15.833 -50 26.5s-34.5 21.334 -46.5 32.001
s-24.333 23.167 -37 37.5s-22.667 29.5 -30 45.5c-16.667 36.667 -25 75.667 -25 117c0 64 23.5 116.667 70.5 158s99.333 62 157 62s114.5 -6.33301 170.5 -19c55.333 -12.667 104.333 -26.334 147 -41.001c114 -40 210.333 -60.333 289 -61
c17.333 0 32.166 5.16699 44.499 15.5s18.5 23.833 18.5 40.5v65h203v-65c0 -164.667 -71 -247 -213 -247c-46 0 -109.167 10.333 -189.5 31z" />
    <glyph glyph-name="uni0EAF" unicode="&#xeaf;" horiz-adv-x="1426" 
d="M738.5 1111.5c29 -37.667 43.4971 -81.334 43.4971 -131.001s-9.16699 -94.667 -27.5 -135s-45.166 -73 -80.499 -98s-77.833 -37.5 -127.5 -37.5s-90.834 15.167 -123.501 45.5s-49 71.833 -49 124.5c0.666992 3.33301 3.33398 19.333 8.00098 48s9 54 13 76
c-54 -28 -81 -92 -81 -192c0 -90.667 35.333 -154 106 -190c33.333 -17.333 70.333 -26 111 -26s78.834 5.66699 114.501 17s68.5 25.833 98.5 43.5s60.167 39.834 90.5 66.501s57 53 80 79s46.5 55.333 70.5 88c36.667 50 73.334 106 110.001 168l50 86l301 -123
l-619 -1453l-234 98l456 1078l-34 -53c-124 -193.333 -284.667 -290 -482 -290c-138 0.666992 -251.667 33.667 -341 99c-94.667 69.333 -142 168 -142 296c0 81.333 18 154.5 54 219.5s86.333 115.667 151 152s131.167 54.5 199.5 54.5s125.5 -9 171.5 -27
s83.5 -45.833 112.5 -83.5zM500.997 916c0 -38 20.334 -56.999 61.001 -56.999c35.333 2.66699 53.666 27 54.999 73c-2 50.667 -40 79.667 -114 87c-1.33301 -50.667 -2 -80.334 -2 -89.001v-14z" />
    <glyph glyph-name="uni0EB0" unicode="&#xeb0;" horiz-adv-x="1249" 
d="M340 306c-14.667 11.333 -32 17 -52 17s-35.333 -2.33301 -46 -7c-24 -10 -35.667 -29 -35 -57c0.666992 -44.667 30.667 -67 90 -67h65v66c0 20.667 -7.33301 36.667 -22 48zM278 480c56 0 103.332 -14.499 141.999 -43.499s58 -68.5 58 -118.5
c0 -27.333 -4.33301 -50 -13 -68l-26 -58h220c102.667 0 169.334 12 200.001 36c28 21.333 44.833 48.166 50.5 80.499s8.83398 64.5 9.50098 96.5h213c0 -268 -165.667 -402 -497 -402h-173c-108.667 0 -183.334 6 -224.001 18s-71.667 23.833 -93 35.5
s-39 25.167 -53 40.5c-30.667 33.333 -46 77 -46 131c0 168 77.333 252 232 252zM339.999 894.001c-14.667 11.333 -32 17 -52 17s-35.333 -2.33301 -46 -7c-24 -10 -35.667 -29 -35 -57c0.666992 -44.667 30.667 -67 90 -67h65v66c0 20.667 -7.33301 36.667 -22 48z
M277.999 1068c56 0 103.332 -14.499 141.999 -43.499s58 -68.5 58 -118.5c0 -27.333 -4.33301 -50 -13 -68l-26 -58h220c102.667 0 169.334 12 200.001 36c28 21.333 44.833 48.166 50.5 80.499s8.83398 64.5 9.50098 96.5h213c0 -268 -165.667 -402 -497 -402h-173
c-108.667 0 -183.334 6 -224.001 18s-71.667 23.833 -93 35.5s-39 25.167 -53 40.5c-30.667 33.333 -46 77 -46 131c0 168 77.333 252 232 252z" />
    <glyph glyph-name="uni0EB1" unicode="&#xeb1;" horiz-adv-x="2" 
d="M-940 1550c-14.667 11.333 -32 17 -52 17s-35.333 -2.33301 -46 -7c-24 -10 -35.667 -29 -35 -57c0.666992 -44.667 30.667 -67 90 -67h65v66c0 20.667 -7.33301 36.667 -22 48zM-1002 1724c56 0 103.332 -14.499 141.999 -43.499s58 -68.5 58 -118.5
c0 -27.333 -4.33301 -50 -13 -68l-26 -58h220c102.667 0 169.334 12 200.001 36c28 21.333 44.833 48.166 50.5 80.499s8.83398 64.5 9.50098 96.5h213c0 -268 -165.667 -402 -497 -402h-173c-108.667 0 -183.334 6 -224.001 18s-71.667 23.833 -93 35.5
s-39 25.167 -53 40.5c-30.667 33.333 -46 77 -46 131c0 168 77.333 252 232 252z" />
    <glyph glyph-name="uni0EB2" unicode="&#xeb2;" horiz-adv-x="957" 
d="M303 708c-73.333 0 -132.5 18 -177.5 54s-67.5 88 -67.5 156c0 128 69.333 208 208 240c41.333 9.33301 87 14 137 14c154.667 0 271.667 -32.167 351 -96.5s119 -166.833 119 -307.5v-768h-283v818c0 59.333 -7.5 104 -22.5 134s-43.167 50.333 -84.5 61l17 -114
c0 -127.333 -65.667 -191 -197 -191zM234 937c0 -52.667 28 -79.001 84 -79.001c46.667 0 70 37.667 70 113v50c-64 0 -102.667 -4.66699 -116 -14c-25.333 -17.333 -38 -40.666 -38 -69.999z" />
    <glyph glyph-name="uni0EB3" unicode="&#xeb3;" horiz-adv-x="1020" 
d="M328 728c-74.667 0 -134.165 17.833 -178.498 53.5s-66.5 87.834 -66.5 156.501c-0.666992 128 67.666 208 204.999 240c41.333 9.33301 87.666 14 138.999 14c154 0 270.833 -31.833 350.5 -95.5s119.5 -165.5 119.5 -305.5v-791h-283v838
c0 59.333 -7.5 104.166 -22.5 134.499s-43.167 50.833 -84.5 61.5l18 -113c0 -128.667 -65.667 -193 -197 -193zM258.002 958c0 -52 28.333 -78 85 -78c43.333 0 66.333 37.333 69 112l-1 50c-65.333 0 -104.333 -4.66699 -117 -14c-24 -18 -36 -41.333 -36 -70z
M-213.998 1637c20.667 -35.333 31 -80.501 31 -135.501s-22.667 -104.167 -68 -147.5s-95.5 -65 -150.5 -65s-100.667 9.83301 -137 29.5s-65 47.167 -86 82.5s-31.5 74.333 -31.5 117c0 65.333 22.833 120 68.5 164s96.167 66 151.5 66s101 -9.66699 137 -29
s64.333 -46.666 85 -81.999zM-485.998 1455c18 -18 40.5 -27 67.5 -27s49.5 8.33301 67.5 25s27 38.667 27 66s-9.16699 49.833 -27.5 67.5s-41 26.5 -68 26.5s-49.333 -8.83301 -67 -26.5s-26.5 -39.5 -26.5 -65.5s9 -48 27 -66z" />
    <glyph glyph-name="uni0EB4" unicode="&#xeb4;" 
d="M-803 1773.5c44 5.66699 90.1631 8.50098 138.496 8.50098s94.5 -2.83301 138.5 -8.5s87.333 -15.334 130 -29.001s79.334 -31.167 110.001 -52.5c69.333 -47.333 104 -113.333 104 -198c0 -125.333 -70.667 -203.333 -212 -234
c-41.333 -9.33301 -87.666 -13.666 -138.999 -12.999h-43v157h46c85.333 4.66699 130 34.667 134 90c0 39.333 -13 67.333 -39 84c-28 18 -57 29 -87 33c-47.333 5.33301 -89.833 8 -127.5 8s-66.5 -0.5 -86.5 -1.5s-41 -3 -63 -6s-40.667 -7.33301 -56 -13
s-29.666 -13.167 -42.999 -22.5c-25.333 -18 -38.666 -45.333 -39.999 -82c1.33301 -60 47 -90 137 -90h48v-157h-46c-166 0 -274 43.667 -324 131c-18.667 32.667 -28 70.667 -28 114s9.83301 81.833 29.5 115.5s45.167 61.167 76.5 82.5s68.5 39.166 111.5 53.499
s86.5 24.333 130.5 30z" />
    <glyph glyph-name="uni0EB5" unicode="&#xeb5;" 
d="M-832 1782c47.333 0 92.835 -2.83105 136.502 -8.49805s86.834 -15.334 129.501 -29.001s79.667 -30.834 111 -51.501c69.333 -46 104.666 -109.333 105.999 -190c-1.33301 -41.333 -19.666 -74.333 -54.999 -99h215v-157h-553v157h44c89.333 0 134 30 134 90
c0 83.333 -89.333 125 -268 125c-72 0 -118.333 -2.33301 -139 -7s-37.834 -9 -51.501 -13s-25.167 -9 -34.5 -15c-8.66699 -6.66699 -17 -14 -25 -22c-14.667 -16 -22.334 -38.667 -23.001 -68c0 -60 45.333 -90 136 -90h47v-157h-44c-166 0 -274 43.667 -324 131
c-18.667 32.667 -28 70.667 -28 114s9.66699 81.833 29 115.5s44.833 61.167 76.5 82.5s69 39 112 53s86.667 24 131 30s90.166 9 137.499 9z" />
    <glyph glyph-name="uni0EB6" unicode="&#xeb6;" 
d="M-736 1617.5c-20 -1 -41.0039 -3 -63.0039 -6s-40.667 -7.33301 -56 -13s-29.666 -13.167 -42.999 -22.5c-25.333 -18 -38.666 -45.333 -39.999 -82c1.33301 -59.333 47 -89.666 137 -90.999h12v-156h-10c-166 0 -274 43.667 -324 131c-18.667 32.667 -28 70.667 -28 114
s9.83301 81.833 29.5 115.5s45.167 61.167 76.5 82.5s68.333 39.333 111 54c116 26 191 38.667 225 38h4c75.333 0 135 -2.83301 179 -8.5s87.333 -15.334 130 -29.001s79.334 -31.167 110.001 -52.5c69.333 -47.333 104 -113.333 104 -198
c0 -125.333 -70.667 -203.333 -212 -234c-41.333 -9.33301 -87.666 -13.666 -138.999 -12.999h-7v156h10c86.667 4 131.334 34.333 134.001 91c0 49.333 -27.333 84.666 -82 105.999c-34.667 13.333 -81.334 19.833 -140.001 19.5s-98 -1 -118 -2zM-625.004 1399.5
c-11.333 -3.66699 -24.667 -5.49707 -40 -5.49707s-30.333 3.33301 -45 10c-30.667 14 -46 37 -46 69c0 30 16 51.667 48 65c14 5.33301 31.667 8.16602 53 8.49902s41.166 -6.33398 59.499 -20.001s27.5 -29 27.5 -46s-2.5 -30.5 -7.5 -40.5s-11.667 -18.333 -20 -25
s-18.166 -11.834 -29.499 -15.501z" />
    <glyph glyph-name="uni0EB7" unicode="&#xeb7;" 
d="M-832 1619c-89.333 0 -146 -4.33105 -170 -12.998c-24 -9.33301 -43.333 -18.333 -58 -27c-28 -17.333 -43 -45.666 -45 -84.999c0 -60 45.333 -90 136 -90h12v-157h-9c-166 0 -274 43.667 -324 131c-18.667 32.667 -28 70.667 -28 114s9.66699 81.833 29 115.5
s45 61.167 77 82.5s69.333 39 112 53c80 26 156.333 39 229 39s131 -2.83301 175 -8.5s87.5 -15.334 130.5 -29.001s80.167 -30.834 111.5 -51.501c70.667 -46.667 106 -110 106 -190c0 -44.667 -18.333 -78 -55 -100h215v-156h-519v157h9c44 0 77.333 6.66699 100 20
s34 36.666 34 69.999c0 83.333 -89.333 125 -268 125zM-924 1473c4 49.333 35 74 93 74c26 -0.666992 48.333 -7.66699 67 -21c17.333 -12.667 26 -30 26 -52c0 -25.333 -9.33301 -45.333 -28 -60c-17.333 -13.333 -39 -20 -65 -20s-48 7.33301 -66 22s-27 33.667 -27 57z
" />
    <glyph glyph-name="uni0EB8" unicode="&#xeb8;" horiz-adv-x="2" 
d="M-416 -394c-92.667 1.33301 -138.999 49.999 -138.999 145.999c0 50 18.667 88.667 56 116s88.333 41 153 41s118 -15 160 -45s63 -73.667 63 -131c0 -54.667 -9.5 -100 -28.5 -136s-35.833 -64.167 -50.5 -84.5s-31.334 -40.5 -50.001 -60.5
c-34.667 -35.333 -70.334 -67 -107.001 -95l-113 99c58 64.667 99.667 117.334 125 158.001l-29 -4c-21.333 -2.66699 -34.666 -4 -39.999 -4zM-299.999 -248.001c0 36.667 -21 55 -63 55s-63 -20.667 -63 -62c0 -25.333 6.5 -41.666 19.5 -48.999s25.167 -11 36.5 -11h58
c8 23.333 12 45.666 12 66.999z" />
    <glyph glyph-name="uni0EB9" unicode="&#xeb9;" horiz-adv-x="2" 
d="M-715.5 -285.5c-13.667 -9.66699 -20.5 -23.3301 -20.5 -40.9971s6.83301 -32.334 20.5 -44.001s30.834 -17.5 51.501 -17.5h64l-3 64c0 13.333 -6.83301 24.666 -20.5 33.999s-28.167 15.666 -43.5 18.999c-18.667 0 -34.834 -4.83301 -48.501 -14.5zM-480 -499.996
c0 -46 29 -72.666 87 -79.999c39.333 0 64.333 9.33301 75 28c12 20 18 40 18 60v341h161v-267c0 -100 -18.667 -173.667 -56 -221s-102 -71 -194 -71c-162.667 0 -244 58 -244 174c0 8 1 20 3 36l7 42c-20 -20 -40 -30 -60 -30c-54 0 -98.833 13.833 -134.5 41.5
s-53.5 68.5 -53.5 122.5s18.5 97.667 55.5 131s81.5 50 133.5 50s94.667 -6.83301 128 -20.5s60 -35 80 -64s30 -59.167 30 -90.5s-6 -63.833 -18 -97.5s-18 -61.834 -18 -84.501z" />
    <glyph glyph-name="uni0EBB" unicode="&#xebb;" horiz-adv-x="2" 
d="M-1185 1469c0 136.667 93.332 213.333 279.999 230c36.667 3.33301 79 5 127 5h200c166 0 285.167 -35 357.5 -105s109.5 -187.333 111.5 -352h-212c0 97.333 -5.16699 157.5 -15.5 180.5s-20.5 41 -30.5 54s-22.333 22.833 -37 29.5
c-33.333 14.667 -75.666 22 -126.999 22h-245l18 -57c6.66699 -20 10 -41 10 -63c0 -50.667 -20 -91 -60 -121s-88 -45 -144 -45c-155.333 0 -233 74 -233 222zM-1023 1467c0 -20 6.66797 -35.667 20.001 -47s31 -17 53 -17c54.667 0 82 22.667 82 68v62h-63
c-58.667 -5.33301 -89.334 -27.333 -92.001 -66z" />
    <glyph glyph-name="uni0EBC" unicode="&#xebc;" 
d="M-1128 -402c45.333 3.33301 68 26.668 68 70.001v87c-80 -10.667 -120.333 -39.334 -121 -86.001c4 -45.333 21.667 -69 53 -71zM-365 -216.998l-3.00098 126.997v7h196c0 -150 -5.66699 -243.333 -17 -280s-23.666 -67.667 -36.999 -93
c-13.333 -26.667 -29.333 -46.667 -48 -60c-44.667 -32 -93.667 -48 -147 -48s-97.833 6.33301 -133.5 19s-66.667 28.667 -93 48s-53.5 41.333 -81.5 66s-53.333 48.334 -76 71.001c-54.667 54.667 -108 92.334 -160 113.001l27 -110c3.33301 -18.667 5 -36.667 5 -54
c0 -50 -16.833 -88.667 -50.5 -116s-82 -41 -145 -41s-113.833 21.833 -152.5 65.5s-58 103.167 -58 178.5c0.666992 119.333 64.334 195 191.001 227c37.333 9.33301 77 14 119 14s83.167 -6.66699 123.5 -20s78.666 -31.5 114.999 -54.5s69.666 -46 99.999 -69l97.5 -76.5
c34.667 -28 60.167 -47.333 76.5 -58s27 -17 32 -19s15.333 -3 31 -3s30.167 4.33301 43.5 13c12 8 21.333 20.333 28 37c10.667 28.667 16.334 67.334 17.001 116.001z" />
    <glyph glyph-name="uni0EBD" unicode="&#xebd;" horiz-adv-x="1262" 
d="M395 156c42.667 0 63.999 18.667 63.999 56c0 32.667 -6.16699 53.5 -18.5 62.5s-27.166 13.5 -44.499 13.5c-34.667 0 -52 -35.333 -52 -106v-26h51zM620.999 219c0 -122 -62.665 -183 -187.998 -183c-16 0 -45.667 3.33301 -89 10
c2.66699 -124 44.334 -204.667 125.001 -242c40.667 -18.667 92.667 -28 156 -28c96.667 0 164.334 24 203.001 72s58 123.667 58 227v295c0 91.333 -9.33301 160 -28 206s-55.334 82.333 -110.001 109l-300 147l-47 24c-12 6 -26.667 14 -44 24s-31.166 19.333 -41.499 28
s-21.833 19 -34.5 31s-23 24.333 -31 37c-7.33301 13.333 -14.333 28 -21 44c-13.333 32.667 -20 71 -20 115c0 88.667 27.333 157.5 82 206.5s128.334 73.5 221.001 73.5c53.333 -0.666992 117.333 -20.334 192 -59.001l94 -49c73.333 -39.333 134.333 -59 183 -59
c62.667 0 94 55.667 94 167h210c0 -118 -22.833 -206.333 -68.5 -265s-121.834 -88 -228.501 -88c-60 0 -116.333 9.66699 -169 29s-90.834 34 -114.501 44s-54.834 24 -93.501 42l-78 36c-60 -1.33301 -90 -25.666 -90 -72.999c0 -38.667 29.667 -74.667 89 -108l420 -203
c61.333 -30 101.333 -54.5 120 -73.5s32.834 -35.167 42.501 -48.5s17.667 -27.5 24 -42.5s12.166 -31.833 17.499 -50.5c9.33301 -33.333 13.666 -78.333 12.999 -135v-389c0 -327.333 -192.333 -491 -577 -491c-218.667 0 -373.334 75 -464.001 225
c-45.333 74.667 -67.833 162.5 -67.5 263.5s29 181.167 86 240.5s134.167 89 231.5 89c162 0 243 -66 243 -198z" />
    <glyph glyph-name="uni0EC0" unicode="&#xec0;" horiz-adv-x="744" 
d="M504 382c52 0 93.832 -17.501 125.499 -52.501s47.5 -79.833 47.5 -134.5c0 -130 -85.333 -195 -256 -195c-93.333 0 -169.166 30.167 -227.499 90.5s-87.5 137.833 -87.5 232.5v329c0 205.333 38.667 347 116 425c60.667 61.333 148.667 92 264 92
c27.333 0 48.333 -1 63 -3s23.834 -3.16699 27.501 -3.5s11.5 -1.83301 23.5 -4.5c11.333 -2.66699 18.333 -4 21 -4c22.667 -2.66699 39.334 -5.66699 50.001 -9v-191c-10 1.33301 -25.333 4.33301 -46 9c-50.667 9.33301 -82.334 14 -95.001 14
c-21.333 0 -37.833 -1.5 -49.5 -4.5s-21.667 -6.83301 -30 -11.5s-15.833 -11.5 -22.5 -20.5s-12.167 -17.5 -16.5 -25.5s-8 -18.667 -11 -32s-5.33301 -25 -7 -35s-2.83398 -23.333 -3.50098 -40c-1.33301 -33.333 -2 -61.666 -2 -84.999v-360c57.333 12.667 96 19 116 19z
M388.999 245.999c-0.666992 -78.667 17.667 -118 55 -118s56.333 22.667 57 68c0 43.333 -21.667 65 -65 65h-47v-15z" />
    <glyph glyph-name="uni0EC1" unicode="&#xec1;" horiz-adv-x="1365" 
d="M520 382c52 0 93.832 -17.501 125.499 -52.501s47.5 -79.833 47.5 -134.5c0 -130 -85.333 -195 -256 -195c-93.333 0 -169.166 30.167 -227.499 90.5s-87.5 137.833 -87.5 232.5v329c0 205.333 38.667 347 116 425c60.667 61.333 148.667 92 264 92
c27.333 0 48.333 -1 63 -3s23.834 -3.16699 27.501 -3.5s11.5 -1.83301 23.5 -4.5c11.333 -2.66699 18.333 -4 21 -4c22.667 -2.66699 39.334 -5.66699 50.001 -9v-191c-10 1.33301 -25.333 4.33301 -46 9c-50.667 9.33301 -82.334 14 -95.001 14
c-21.333 0 -37.833 -1.5 -49.5 -4.5s-21.667 -6.83301 -30 -11.5s-15.833 -11.5 -22.5 -20.5s-12.167 -17.5 -16.5 -25.5s-8 -18.667 -11 -32s-5.33301 -25 -7 -35s-2.83398 -23.333 -3.50098 -40c-1.33301 -33.333 -2 -61.666 -2 -84.999v-360c57.333 12.667 96 19 116 19z
M404.999 245.999c-0.666992 -78.667 17.667 -118 55 -118s56.333 22.667 57 68c0 43.333 -21.667 65 -65 65h-47v-15zM1140 381.999c52 0 93.832 -17.501 125.499 -52.501s47.5 -79.833 47.5 -134.5c0 -130 -85.333 -195 -256 -195c-93.333 0 -169.166 30.167 -227.499 90.5
s-87.5 137.833 -87.5 232.5v329c0 205.333 38.667 347 116 425c60.667 61.333 148.667 92 264 92c27.333 0 48.333 -1 63 -3s23.834 -3.16699 27.501 -3.5s11.5 -1.83301 23.5 -4.5c11.333 -2.66699 18.333 -4 21 -4c22.667 -2.66699 39.334 -5.66699 50.001 -9v-191
c-10 1.33301 -25.333 4.33301 -46 9c-50.667 9.33301 -82.334 14 -95.001 14c-21.333 0 -37.833 -1.5 -49.5 -4.5s-21.667 -6.83301 -30 -11.5s-15.833 -11.5 -22.5 -20.5s-12.167 -17.5 -16.5 -25.5s-8 -18.667 -11 -32s-5.33301 -25 -7 -35s-2.83398 -23.333 -3.50098 -40
c-1.33301 -33.333 -2 -61.666 -2 -84.999v-360c57.333 12.667 96 19 116 19zM1025 245.998c-0.666992 -78.667 17.667 -118 55 -118s56.333 22.667 57 68c0 43.333 -21.667 65 -65 65h-47v-15z" />
    <glyph glyph-name="uni0EC2" unicode="&#xec2;" horiz-adv-x="815" 
d="M546 225c0 50 -24.667 75.001 -74 75.001h-54v-56c0 -32 4.33301 -56.167 13 -72.5s24.167 -24.5 46.5 -24.5s39.333 7.16699 51 21.5s17.5 33.166 17.5 56.499zM557 12.501c-34.667 -8.33301 -75.4932 -12.502 -122.493 -12.502s-90.333 9 -130 27
s-71.834 43.667 -96.501 77c-48.667 66 -73 154.333 -73 265v690c0 109.333 -3.33301 175.5 -10 198.5s-13.667 43.5 -21 61.5c-12.667 32 -35.667 62.333 -69 91l-37 33c-56 44.667 -90.667 80.334 -104 107.001c-17.333 34 -27.333 61.5 -30 82.5s-4 45.833 -4 74.5
s6.66699 59.834 20 93.501s31.333 63.167 54 88.5c50.667 56.667 111 85 181 85c51.333 0 91.666 -4.5 120.999 -13.5s52 -16.333 68 -22s33.167 -14.5 51.5 -26.5l44.5 -29.5c11.333 -7.66699 26 -19.334 44 -35.001s31.167 -27.5 39.5 -35.5l41 -40l40.5 -39l231 -220
l-130 -170l-138 137c-58.667 56 -126 115.667 -202 179c-45.333 45.333 -78.833 71.666 -100.5 78.999s-41.334 11 -59.001 11s-32.667 -7.83301 -45 -23.5s-18.5 -30.667 -18.5 -45s0.666992 -24.166 2 -29.499s3.66602 -10.833 6.99902 -16.5s6.66602 -10.667 9.99902 -15
s7.66602 -9.16602 12.999 -14.499s9.83301 -9.66602 13.5 -12.999l15 -13.5c6.33301 -5.66699 10.833 -9.83398 13.5 -12.501l79 -67c40.667 -34.667 72.334 -69.667 95.001 -105c44.667 -69.333 67 -173.666 67 -312.999v-674c60 16 99.333 24 118 24
c59.333 0 108 -20 146 -60s57 -84.833 57 -134.5s-7.83301 -88.834 -23.5 -117.501s-37.334 -51.5 -65.001 -68.5s-58.834 -29.667 -93.501 -38z" />
    <glyph glyph-name="uni0EC3" unicode="&#xec3;" horiz-adv-x="937" 
d="M490 247c0 -66.667 21 -100 63 -100c44.667 0 67 26.333 67 79c0 24 -7 42.5 -21 55.5s-33.333 19.5 -58 19.5h-51v-54zM208 1484c79.333 0 119 32.6689 119 98.002c0 28.667 -10 59.167 -30 91.5s-41 52.833 -63 61.5h190c54 -52 81 -102 81 -150
c-0.666992 -44.667 -9 -82.334 -25 -113.001s-38 -56 -66 -76c-58.667 -40 -122.667 -60 -192 -60s-127.5 6.66699 -174.5 20s-88.833 32.666 -125.5 57.999c-79.333 54 -119 132 -119 234c0 265.333 186 398 558 398c224.667 0 381.667 -46 471 -138
c68 -70 102.333 -170 103 -300c0 -146.667 -58.667 -274.667 -176 -384c-33.333 -30.667 -68.833 -61.167 -106.5 -91.5l-77.5 -63.5c-14 -12 -25.833 -24.333 -35.5 -37s-17.5 -27.334 -23.5 -44.001s-10.667 -32 -14 -46c-4 -14.667 -6.66699 -34 -8 -58
c-2.66699 -34 -4 -79.667 -4 -137v-341c57.333 16 97 24 119 24c59.333 0 108.333 -20.167 147 -60.5s58 -85 58 -134s-8 -88.167 -24 -117.5c-14.667 -28.667 -36 -51.334 -64 -68.001c-55.333 -33.333 -125.333 -50 -210 -50c-206.667 0 -310 122 -310 366v419
c0 111.333 9 196.333 27 255s54.667 109.334 110 152.001l160 126c95.333 72.667 155 145.334 179 218.001c10.667 31.333 16 64.333 16 99c0 143.333 -111.5 215 -334.5 215s-334.5 -71 -334.5 -213c0 -102 59.667 -153 179 -153z" />
    <glyph glyph-name="uni0EC4" unicode="&#xec4;" horiz-adv-x="877" 
d="M481 0c-104 0 -182.165 32.667 -234.498 98s-78.5 154 -78.5 266v607c0 150 33.333 269.333 100 358c36.667 48.667 86.667 101.667 150 159l83 76c3.33301 3.33301 11.666 10.666 24.999 21.999c13.333 12 22.666 20.667 27.999 26c16 18.667 24.167 39.5 24.5 62.5
s-5.5 41 -17.5 54s-31.333 19.5 -58 19.5s-56.667 -8.5 -90 -25.5s-64.666 -37.833 -93.999 -62.5l-87 -72c-68 -58.667 -128.667 -88 -182 -88c-88 0 -157.167 24.667 -207.5 74s-75.5 117 -75.5 203v195h193v-206c0 -20 6.66699 -35.667 20 -47s32 -17 56 -17
c0.666992 0 1 -0.333008 1 -1c23.333 0 49.333 6.66699 78 20c29.333 13.333 56.333 29.833 81 49.5l80.5 64.5l83.5 65c62 46.667 125.667 69.667 191 69c86 0 157.667 -33 215 -99c36.667 -42 55 -90.667 55 -146c0 -93.333 -25.667 -167.666 -77 -222.999l-114 -102
c-42.667 -38 -76 -74.333 -100 -109c-52.667 -76.667 -79 -183 -79 -319v-568c58.667 18.667 102.5 28 131.5 28s59.5 -9 91.5 -27c66.667 -38 100 -99.667 100 -185c0 -108.667 -60 -177.667 -180 -207c-34.667 -8 -72.334 -12 -113.001 -12zM513.002 148
c43.333 0 65.667 25.668 67 77.001c0 21.333 -6.33301 39.166 -19 53.499s-29.667 21.5 -51 21.5h-59v-57c0 -32 4.33301 -55.833 13 -71.5s25 -23.5 49 -23.5z" />
    <glyph glyph-name="uni0EC6" unicode="&#xec6;" horiz-adv-x="1438" 
d="M743 1003c76 112.667 173.003 168.996 291.003 168.996c151.333 0 250.666 -64.667 297.999 -194c27.333 -74.667 41 -171.334 41 -290.001v-470c0 -309.333 -99.667 -500.666 -299 -573.999c-70.667 -26 -156 -39 -256 -39c-186.667 0 -332.667 70.667 -438 212l69 73
c128.667 -68 252.667 -102 372 -102c97.333 0 165.666 29.333 204.999 88c35.333 52 55.333 128 60 228c1.33301 28.667 2 62 2 100v574l2 88c0 50 -4 81.333 -12 94c-14 22 -33.333 33.333 -58 34c-14 0 -29.333 -3.66699 -46 -11c-24.667 -10 -46.167 -25.667 -64.5 -47
l-43.5 -52c-10.667 -12 -22 -23.333 -34 -34c-26.667 -24 -56.334 -36 -89.001 -36c-34 0 -61.667 8.5 -83 25.5s-38.166 32 -50.499 45l-37.5 38.5c-13.333 12.667 -26.666 24.334 -39.999 35.001c-44.667 22 -79.667 33.667 -105 35c-14.667 0 -24.667 -3.66699 -30 -11
s-9.5 -13.666 -12.5 -18.999s-5.5 -12.666 -7.5 -21.999s-3.5 -17.333 -4.5 -24s-1.83301 -16 -2.5 -28c-1.33301 -24 -2.16602 -41.333 -2.49902 -52s-0.5 -17.667 -0.5 -21c49.333 14 87.666 21 114.999 21s57 -9 89 -27c68 -38 102 -99.333 102 -184
c0 -146 -91.667 -219 -275 -219c-96 0 -172.333 29 -229 87s-85 135.333 -85 232c0 126.667 27.333 231.667 82 315c57.333 87.333 144.666 131 261.999 131c85.333 0 170.666 -38 255.999 -114c24 -21.333 43.667 -39.666 59 -54.999zM381.003 575.996
c8.66699 -14.667 24.334 -22.001 47.001 -22.001c44 0 66.333 25.667 67 77c-0.666992 50.667 -27.334 76 -80.001 76h-48v-61c0 -31.333 4.66699 -54.666 14 -69.999z" />
    <glyph glyph-name="uni0EC8" unicode="&#xec8;" horiz-adv-x="7" 
d="M-598 1407v430h205v-430h-205z" />
    <glyph glyph-name="uni0EC9" unicode="&#xec9;" horiz-adv-x="2" 
d="M-957 1791c-50.667 0 -75.999 -20.668 -75.999 -62.001c3.33301 -31.333 48.333 -48.666 135 -51.999v13c-4.66699 62 -24.334 95.667 -59.001 101zM-1118.5 1617.5c-34.333 28.333 -51.5 69.501 -51.5 123.501s19.167 97.667 57.5 131s91.5 50 159.5 50
s122.667 -18.833 164 -56.5s62 -91.834 62 -162.501c0 -37.333 -6.66699 -66.333 -20 -87s-34.666 -40.334 -63.999 -59.001l-28 -15h264c91.333 0 152.166 6 182.499 18s51.833 24.333 64.5 37s23.334 31.334 32.001 56.001c12.667 36 20.334 100.667 23.001 194h209v-80
c0 -140.667 -32 -239 -96 -295c-44 -38.667 -92 -63 -144 -73c-81.333 -15.333 -172.333 -23 -273 -23h-557v79c13.333 5.33301 31.333 11 54 17s41.667 11.333 57 16c15.333 5.33301 31.333 12 48 20c33.333 16.667 54.666 42.667 63.999 78
c-18.667 -7.33301 -49.334 -11 -92.001 -11s-81.167 14.167 -115.5 42.5z" />
    <glyph glyph-name="uni0ECA" unicode="&#xeca;" horiz-adv-x="4" 
d="M-399.5 1727.5c35 -31 52.501 -75 52.501 -132s-25 -96.167 -75 -117.5h185v-94h-379v95c76 1.33301 114 33.333 114 96c0 47.333 -24.333 71 -73 71c-33.333 0 -59.333 -23.667 -78 -71h-111l-9 23c-17.333 32 -44 48 -80 48c-20 0 -37 -6.83301 -51 -20.5
s-21 -30.5 -21 -50.5c0 -64 37.333 -96 112 -96v-94c-98 0 -169 28 -213 84c-22.667 29.333 -34.167 69.166 -34.5 119.499s14.667 93.833 45 130.5s70.5 55 120.5 55c96.667 0 158.667 -36.667 186 -110c19.333 44.667 51.666 76.334 96.999 95.001c24 10 56.667 15 98 15
s79.5 -15.5 114.5 -46.5z" />
    <glyph glyph-name="uni0ECB" unicode="&#xecb;" horiz-adv-x="10" 
d="M-630 1384h-121v119h-120v112h120v120h121v-120h121v-112h-121v-119z" />
    <glyph glyph-name="uni0ECC" unicode="&#xecc;" horiz-adv-x="4" 
d="M-642 1483c-108 0 -161.999 60.6689 -161.999 182.002c0 129.333 81 194 243 194h132c29.333 0 49.666 5.83301 60.999 17.5s17 32.5 17 62.5h147c-2.66699 -88.667 -21 -151.167 -55 -187.5s-94 -54.5 -180 -54.5h-74l18 -62c2.66699 -4.66699 4 -16.334 4 -35.001
c0 -36.667 -14.5 -65.334 -43.5 -86.001s-64.833 -31 -107.5 -31zM-638.999 1590c40 0 60 17.333 60 52v55h-36c-30.667 0 -52.667 -3.5 -66 -10.5s-20 -19.167 -20 -36.5c0 -16 2.66699 -28 8 -36c10.667 -16 28.667 -24 54 -24z" />
    <glyph glyph-name="uni0ECD" unicode="&#xecd;" horiz-adv-x="8" 
d="M-685 1575c26 0 47.501 8.49902 64.501 25.499s25.5 36.167 25.5 57.5c0.666992 21.333 -3 38.666 -11 51.999c-24.667 24.667 -48.334 39.334 -71.001 44.001c-31.333 0 -55.833 -8.5 -73.5 -25.5s-26.5 -38.167 -26.5 -63.5s8.83301 -46.666 26.5 -63.999
s39.5 -26 65.5 -26zM-516.999 1826c45.333 -44 68 -98.499 68 -163.499s-22.833 -119.333 -68.5 -163s-101.667 -65.5 -168 -65.5s-122.166 21.667 -167.499 65s-68 97.666 -68 162.999s22.833 120 68.5 164s101.667 66 168 66s122.166 -22 167.499 -66z" />
    <glyph glyph-name="uni0ED0" unicode="&#xed0;" horiz-adv-x="1289" 
d="M79 644c0 67.333 8.33398 132.5 25.001 195.5s41.334 120.167 74.001 171.5s71.667 96 117 134s98 67.333 158 88s124.667 31 194 31s134.166 -10.333 194.499 -31s113.166 -50 158.499 -88s84.333 -82.667 117 -134c66 -104 99 -227.667 99 -371
c0 -239.333 -68.667 -417 -206 -533c-94 -79.333 -215 -119 -363 -119c-182 0 -323.667 60.667 -425 182c-95.333 114.667 -143 272.667 -143 474zM306.001 634c0 -60 7.00098 -116.333 21.001 -169s34.667 -99.667 62 -141s63 -73.833 107 -97.5s94.333 -35.5 151 -35.5
s107.167 11.833 151.5 35.5s80.166 56.167 107.499 97.5c55.333 84 83 188.333 83 313c-0.666992 118 -29 217 -85 297c-59.333 84 -145 125.667 -257 125c-111.333 0.666992 -197 -41 -257 -125c-56 -80 -84 -180 -84 -300z" />
    <glyph glyph-name="uni0ED1" unicode="&#xed1;" horiz-adv-x="1382" 
d="M935 639c0 -153.333 -107.332 -230 -321.999 -230c-173.333 0 -312.666 44.333 -417.999 133c-74 62.667 -111 143.334 -111 242.001c0 156.667 56.667 277 170 361c108 80 245 120 411 120c279.333 0 480.333 -89.333 603 -268c61.333 -90 92 -199.333 92 -328
c0 -171.333 -54.667 -316.333 -164 -435c-106.667 -116 -241.334 -194.667 -404.001 -236c-80 -20.667 -162.667 -31 -248 -31v155c117.333 6.66699 221.333 43.334 312 110.001c93.333 68.667 157.333 155 192 259c18.667 54.667 28 111.667 28 171
c0 125.333 -35.5 222.666 -106.5 291.999s-169.833 104 -296.5 104c-204 0 -306 -91.333 -306 -274c0 -98.667 43 -165.334 129 -200.001c-10.667 32.667 -16 56.667 -16 72c0 129.333 77.333 194 232 194c93.333 0 158.666 -32 195.999 -96
c18.667 -32 27.667 -70.333 27 -115zM694.001 718c-43.333 0 -65 -24.667 -65 -74v-79c86 4 129 32 129 84c0 44.667 -21.333 67.667 -64 69z" />
    <glyph glyph-name="uni0ED2" unicode="&#xed2;" horiz-adv-x="1454" 
d="M839 586c-53.333 -4 -85.333 -10.667 -96 -20c-20 -16.667 -30 -37.334 -30 -62.001c4.66699 -43.333 25 -66.666 61 -69.999c43.333 0 65 23.667 65 71v81zM378 456c0 -186 128.501 -279.001 385.501 -279.001s385.5 74.333 385.5 223
c0.666992 76 -35.666 130 -108.999 162c-21.333 9.33301 -45 16.333 -71 21c14 -48.667 21 -75.667 21 -81c0 -133.333 -78.667 -200 -236 -200c-64.667 0 -117.5 18.333 -158.5 55s-61.5 81.167 -61.5 133.5s10.167 95 30.5 128s47.833 59.167 82.5 78.5
c69.333 38.667 152.666 58 249.999 58c184 -0.666992 325.333 -41.667 424 -123c73.333 -60.667 110 -141.334 110 -242.001c-0.666992 -195.333 -135.667 -317.666 -405 -366.999c-84 -15.333 -170.167 -23 -258.5 -23s-162.833 5 -223.5 15s-118.5 26.167 -173.5 48.5
s-102.5 49.833 -142.5 82.5c-88 71.333 -132.333 167.333 -133 288c-0.666992 114.667 29.666 214 90.999 298c57.333 80 130.666 148.667 219.999 206c92 59.333 169.333 107 232 143c118.667 68.667 203.334 130.334 254.001 185.001c30 32 52.5 64.5 67.5 97.5
s22.5 73.5 22.5 121.5h212c0 -118 -26.333 -218.667 -79 -302c-48 -76.667 -112.333 -142.667 -193 -198c-75.333 -52 -143.333 -96 -204 -132c-172.667 -103.333 -278.667 -197 -318 -281c-14.667 -32 -22 -70.667 -22 -116z" />
    <glyph glyph-name="uni0ED3" unicode="&#xed3;" horiz-adv-x="1717" 
d="M245 300c-42 -3.33301 -63 -27 -63 -71s28.333 -70 85 -78l44 -4v55c0 65.333 -22 98 -66 98zM238 431c148 0 222 -64.3379 222 -193.005c0 -17.333 -4 -38 -12 -62c83.333 49.333 125 159 125 329v665h283v-658c0 -169.333 44.667 -273.333 134 -312
c34.667 -14.667 76.667 -22.334 126 -23.001c90 0 153.5 24.333 190.5 73s55.5 123.334 55.5 224.001v387c0 98.667 -28 180.334 -84 245.001c-49.333 57.333 -113.333 109.333 -192 156l-110 62c-88 48 -147.333 87.333 -178 118s-50.667 56.834 -60 78.501
s-14 48.5 -14 80.5c0 89.333 26.5 158.833 79.5 208.5s125.167 74.5 216.5 74.5c62 0 123.667 -16 185 -48c62.667 -32.667 109 -61.334 139 -86.001l137 -107l123 -95l-117 -148l-127 95l-54 41l-57.5 44c-14.333 10.667 -32.666 23.5 -54.999 38.5
s-42.166 26.5 -59.499 34.5c-42.667 20 -81 30 -115 30c-18.667 0 -35 -5.66699 -49 -17s-21 -23.666 -21 -36.999s2.83301 -24.666 8.5 -33.999s12 -17.666 19 -24.999s16.667 -15.333 29 -24s22.166 -15.167 29.499 -19.5l31 -18l37 -22
c11.333 -7 36.166 -21.333 74.499 -43l95 -54c25 -14.333 55.167 -33.5 90.5 -57.5s64.666 -46 87.999 -66s48 -44.667 74 -74s46.333 -58.666 61 -87.999c34.667 -69.333 52.334 -144 53.001 -224v-383c0 -168.667 -43 -293.667 -129 -375s-216.333 -122 -391 -122
c-139.333 0 -247.666 38 -324.999 114c-39.333 38.667 -64 84 -74 136c-20.667 -78.667 -69.334 -140 -146.001 -184s-167.667 -66 -273 -66s-185 26 -239 78c-38 36.667 -57 87.167 -57 151.5s21.167 114 63.5 149s98.833 52.5 169.5 52.5z" />
    <glyph glyph-name="uni0ED4" unicode="&#xed4;" horiz-adv-x="1475" 
d="M1132 803c-44.667 0 -68 -26 -70 -78v-5c-0.666992 -0.666992 -1 -4 -1 -10s1.33301 -26.333 4 -61h51c50 0 75 25.667 75 77s-19.667 77 -59 77zM863 862.5c56.667 57.667 131.503 86.499 224.503 86.499s162.667 -17.5 209 -52.5s69.833 -92.167 70.5 -171.5
c0 -82 -33 -142.333 -99 -181c-31.333 -18.667 -63.666 -28 -96.999 -28s-59.333 4.66699 -78 14c27.333 -73.333 71.166 -135.166 131.499 -185.499s132.5 -84.166 216.5 -101.499l-38 -245h-683c-322 0 -520 98 -594 294c-20.667 54.667 -31 116.334 -31 185.001
s2.83301 128.667 8.5 180s15.167 98.666 28.5 141.999s31.333 81.333 54 114c45.333 65.333 111.666 118 198.999 158l437 203c66.667 30 132.667 87.333 198 172l42 54l176 -147l-46 -65c-10.667 -15.333 -26 -35.5 -46 -60.5s-38 -45.167 -54 -60.5
c-42.667 -40 -85.334 -69.667 -128.001 -89l-412 -193c-86.667 -42 -139.334 -104.333 -158.001 -187c-12 -52 -17.833 -126.833 -17.5 -224.5s24.333 -171.5 72 -221.5s122.5 -75 224.5 -75h423l-53 31c-72 41.333 -133.333 95.666 -184 162.999
c-54 72 -81 157.5 -81 256.5s28.333 177.333 85 235z" />
    <glyph glyph-name="uni0ED5" unicode="&#xed5;" horiz-adv-x="1477" 
d="M1100 649c61.333 0 92 25.333 92 76s-19.667 76 -59 76c-47.333 0 -71 -33 -71 -99c0 -18 1 -35.667 3 -53h35zM668 1238c0 34.667 -23.5 52 -70.5 52s-70.5 -20.333 -70.5 -61s25.333 -61 76 -61c18.667 0 34.167 6.83301 46.5 20.5s18.5 30.167 18.5 49.5zM361 1246
c0 64.667 23.6689 114.837 71.002 150.504s105.833 53.5 175.5 53.5s122.167 -17 157.5 -51s59 -84 71 -150c32.667 14.667 59.667 32.834 81 54.501l42.5 43.5c7 7.33301 16.5 18.5 28.5 33.5l24.5 30.5c4.33301 5.33301 12.666 16.166 24.999 32.499
s19.833 25.833 22.5 28.5l177 -142c-60.667 -128.667 -151.667 -222 -273 -280c-23.333 -14 -48.333 -23.167 -75 -27.5s-53.334 -8.33301 -80.001 -12s-48.334 -6.83398 -65.001 -9.50098c-56.667 -53.333 -114.667 -90.333 -174 -111
c-48 -22.667 -85.333 -47.667 -112 -75c-53.333 -53.333 -80 -143 -80 -269c0 -186.667 51.333 -301.334 154 -344.001c38.667 -16 86 -24.333 142 -25h423l-52 31c-177.333 106.667 -266 248.667 -266 426c0.666992 133.333 51 226 151 278
c48 25.333 104.667 37.666 170 36.999c178.667 0 268 -74.333 268 -223c0 -60 -19.167 -110 -57.5 -150s-86.833 -60 -145.5 -60c-29.333 0 -53.666 4.66699 -72.999 14c25.333 -71.333 70 -133.333 134 -186s136.333 -86.334 217 -101.001l-39 -243h-753
c-165.333 0 -298.333 39 -399 117c-104.667 80.667 -157 199.667 -157 357c0 140.667 9.16699 243 27.5 307s38.833 112 61.5 144c45.333 63.333 115.333 113.333 210 150l26 9c-39.333 43.333 -59 97.333 -59 162z" />
    <glyph glyph-name="uni0ED6" unicode="&#xed6;" horiz-adv-x="1531" 
d="M531 950c0 48.667 -22.667 72.999 -68 72.999c-41.333 -1.33301 -62 -35 -62 -101v-52h38c61.333 4.66699 92 31.334 92 80.001zM963 1585c-52.667 -1.33301 -78.9932 -21.001 -78.9932 -59.001c0 -49.333 57.667 -107 173 -173l81 -45
c142 -76 238.333 -182.667 289 -320c40.667 -110.667 61 -267.667 61 -471v-27c-2.66699 -192.667 -43.334 -327 -122.001 -403c-60 -58 -143.333 -87 -250 -87c-185.333 0 -292.333 76 -321 228c-10.667 -74 -41.834 -130.5 -93.501 -169.5s-116.334 -58.5 -194.001 -58.5
s-141.167 11.333 -190.5 34c-48.667 23.333 -87.667 57 -117 101c-54.667 83.333 -82.334 202 -83.001 356v318c0.666992 149.333 46.334 254.333 137.001 315c46.667 31.333 100.5 47 161.5 47s112.167 -7.5 153.5 -22.5s74.666 -39 99.999 -72s38 -77.667 38 -134
s-18.5 -104.166 -55.5 -143.499s-87.167 -59 -150.5 -59c-22.667 0 -56 7.33301 -100 22v-356c0 -92.667 10.333 -154 31 -184s52.667 -45 96 -45c85.333 0 128 84 128 252v161h283v-185c0 -152 46 -228 138 -228c40.667 0 69.667 13.333 87 40
c18.667 27.333 29.667 56 33 86c5.33301 46.667 8 92.667 8 138v60c0 144.667 -3.33301 237.834 -10 279.501s-13.167 76.5 -19.5 104.5s-14.166 52.333 -23.499 73s-20.666 41.667 -33.999 63c-24 38.667 -52.167 69.667 -84.5 93s-61.166 42.333 -86.499 57l-69 39.5
c-20.667 11.667 -42.834 25.167 -66.501 40.5s-44.167 31.333 -61.5 48c-18.667 16.667 -35.334 35.667 -50.001 57c-30.667 43.333 -46 102.166 -46 176.499s27.167 135.333 81.5 183s125.5 71.5 213.5 71.5c123.333 0 238.666 -45 345.999 -135l66 -57l127 -116l-127 -122
l-120 87c-10.667 7.33301 -25.834 18.833 -45.501 34.5l-50 38.5c-13.667 10 -29.834 20.333 -48.501 31c-38 22.667 -77 34 -117 34c-6.66699 0 -12.334 1 -17.001 3z" />
    <glyph glyph-name="uni0ED7" unicode="&#xed7;" horiz-adv-x="1499" 
d="M328 300c-49.333 0 -73.999 -24.833 -73.999 -74.5s20.667 -75.5 62 -77.5c33.333 0 53.666 14.667 60.999 44c3.33301 13.333 5 31 5 53v55h-54zM320.001 1026c-46 0 -69.001 -25 -69.001 -75s25 -75 75 -75c2.66699 0 21.334 3.66699 56.001 11v42
c0 62 -20.667 94.333 -62 97zM664 876l3 -46.002v-478c0 -107.333 -27.833 -192.833 -83.5 -256.5s-134.834 -95.5 -237.501 -95.5c-179.333 0 -269 76.333 -269 229c0 60.667 19.833 109.5 59.5 146.5s90.834 55.5 153.501 55.5c7.33301 0 38 -8 92 -24v337
c-17.333 -2.66699 -35.666 -4 -54.999 -4c-74.667 0 -135.834 18.833 -183.501 56.5s-71.5 90.834 -71.5 159.501c0 84 37.333 144.333 112 181c44.667 22 94 33 148 33c53.333 0 97.333 -5.66699 132 -17c60 -20 111.667 -60.667 155 -122
c108 71.333 197.667 114.333 269 129c33.333 6.66699 68.333 10 105 10c290 0 435 -158 435 -474v-521c0 -106.667 15.667 -221.667 47 -345h-280c-33.333 102.667 -50 213.334 -50 332.001v539c0 86 -4.5 142.167 -13.5 168.5s-18.167 46.5 -27.5 60.5
c-8 14.667 -18.667 26 -32 34c-40 16.667 -70 25.667 -90 27c-30.667 0 -54.167 -1 -70.5 -3s-32.5 -5.66699 -48.5 -11l-42 -14.5c-12 -4.33301 -26.167 -10.833 -42.5 -19.5s-28.833 -15.5 -37.5 -20.5l-40 -24z" />
    </font>
</defs>
</svg>
