<?xml version="1.0" standalone="no"?>
<!DOCTYPE svg PUBLIC "-//W3C//DTD SVG 1.1//EN" "http://www.w3.org/Graphics/SVG/1.1/DTD/svg11.dtd" >
<svg>
<metadata>
Created by FontForge 20090914 at Fri Oct 29 00:00:20 2021
 By www-data
Copyright (c) 2010-12, Vernon Adams (vern@newtypography.co.uk), with Reserved Font Names "Nobile" and "Dhyana"
</metadata>
<defs>
<font id="Dhyana-Regular" horiz-adv-x="2097" >
  <font-face 
    font-family="Dhyana"
    font-weight="400"
    font-stretch="normal"
    units-per-em="2048"
    panose-1="2 0 8 3 5 0 0 2 0 4"
    ascent="1638"
    descent="-410"
    x-height="1169"
    cap-height="1579"
    bbox="-1376 -765.999 2670 2537"
    underline-thickness="48"
    underline-position="-188"
    unicode-range="U+000D-U+E018"
  />
<missing-glyph horiz-adv-x="524" 
 />
    <glyph glyph-name="uni0EB1_uni0EC8" unicode="&#xeb1;&#xec8;" horiz-adv-x="4" 
d="M-1002.5 1721c40.333 36 92.168 54.001 155.501 54.001s113.666 -15.333 150.999 -46s56 -72.334 56 -125.001c0 -24.667 -4 -48.334 -12 -71.001l-26 -77h204c114 0 196.167 23.167 246.5 69.5s75.5 124.833 75.5 235.5h119c0 -166 -38.667 -280 -116 -342
c-75.333 -60 -198 -90 -368 -90h-118c-142 0 -241.333 13 -298 39c-58.667 27.333 -96.667 63.333 -114 108c-10.667 26.667 -16 57.334 -16 92.001c0 66 20.167 117 60.5 153zM-731.998 1551c0 72.667 -36 109 -108 109c-68 0 -102 -30.667 -102 -92
c0 -74.667 49.333 -112 148 -112h62v95zM-632.998 1870v443h149v-443h-149z" />
    <glyph glyph-name="uni0EB4_uni0EC8" unicode="&#xeb4;&#xec8;" horiz-adv-x="4" 
d="M-520 1440c106 0 172.332 20 198.999 60c12 17.333 18 39.333 18 66c0 106.667 -131.167 160 -393.5 160s-393.5 -53.667 -393.5 -161c0.666992 -52.667 23.667 -87.667 69 -105c36.667 -13.333 86.334 -20 149.001 -20h48v-105h-68c-223.333 0 -335 79 -335 237
c0 176.667 177.167 265 531.5 265s531.5 -95.333 531.5 -286c0 -144 -120 -216 -360 -216h-43v105h47zM-778.001 1965v443h149v-443h-149z" />
    <glyph glyph-name="uni0EB6_uni0EC8" unicode="&#xeb6;&#xec8;" horiz-adv-x="4" 
d="M-507 1439c88.667 0 147.669 11.3359 177.002 34.0029c26.667 20 40 50.667 40 92c0 105.333 -131.333 158.333 -394 159h-5c-259.333 0 -389 -53.333 -389 -160c0 -74.667 50 -115.667 150 -123c18.667 -1.33301 41.667 -2 69 -2h48v-105h-68
c-223.333 0 -335 79 -335 237c0 176.667 177 265 531 265c235.333 0 391.666 -37.667 468.999 -113c41.333 -40.667 62.166 -88.334 62.499 -143.001s-8.66699 -97.334 -27 -128.001s-44.5 -54.334 -78.5 -71.001c-64 -31.333 -148.667 -47 -254 -47h-43v105h47z
M-677.998 1618c26 0 48.5 -6.66602 67.5 -19.999s28.5 -31.833 28.5 -55.5s-9 -42.834 -27 -57.501s-40.667 -22 -68 -22s-50.5 7.33301 -69.5 22s-28.5 33.667 -28.5 57s9.66699 41.833 29 55.5s42 20.5 68 20.5zM-777.998 1971v443h149v-443h-149z" />
    <glyph glyph-name="uni0EB5_uni0EC8" unicode="&#xeb5;&#xec8;" horiz-adv-x="5" 
d="M-184 1576c0 -48.667 -27.334 -90.333 -82.001 -125h245v-105h-569v105h50c106 0 172.333 20 199 60c12 17.333 18 39.333 18 66c0 106.667 -131.167 160 -393.5 160s-393.5 -53.667 -393.5 -161c0.666992 -52.667 23.667 -87.667 69 -105
c36.667 -13.333 86.334 -20 149.001 -20h48v-105h-68c-223.333 0 -335 79 -335 237c0 176.667 177.167 265 531.5 265s531.5 -90.667 531.5 -272zM-820.001 1971v443h149v-443h-149z" />
    <glyph glyph-name="uni0EB7_uni0EC8" unicode="&#xeb7;&#xec8;" horiz-adv-x="5" 
d="M-261 1440l245.001 0.00195312v-105h-569v105h50c88.667 0 147.667 11.333 177 34c26.667 20 40 50.667 40 92c0 106.667 -131.333 160 -394 160s-394 -53.667 -394 -161c0 -74.667 50 -115.667 150 -123c18.667 -1.33301 41.667 -2 69 -2h48v-105h-68
c-223.333 0 -335 79 -335 237c0 78 28.333 136.333 85 175s115.334 62 176.001 70c94.667 13.333 173 20 235 20s109.333 -0.833008 142 -2.5s67.667 -4.83398 105 -9.50098s70.833 -11 100.5 -19s58.5 -19 86.5 -33s51.333 -30.333 70 -49
c41.333 -40.667 62.166 -89.834 62.499 -147.501s-26.834 -103.167 -81.501 -136.5zM-784.999 1598.5c18.667 13.667 41.168 20.5 67.501 20.5s49.166 -6.66699 68.499 -20s29 -31.333 29 -54c0 -24 -9.33301 -43.667 -28 -59c-18 -14.667 -40.667 -22 -68 -22
s-50.333 7.33301 -69 22s-28 33.667 -28 57s9.33301 41.833 28 55.5zM-777.998 1952v443h149v-443h-149z" />
    <glyph glyph-name="uni0EBB_uni0EC8" unicode="&#xebb;&#xec8;" horiz-adv-x="5" 
d="M-820 1333c-38 -31.333 -88.499 -47 -151.499 -47s-114.833 18.333 -155.5 55s-61 88.667 -61 156c0 86.667 34 147.5 102 182.5s179 52.5 333 52.5h152c168 0 285.167 -32.5 351.5 -97.5s99.5 -181.167 99.5 -348.5h-118c0 118 -23.333 201 -70 249
s-128.334 72 -245.001 72h-221l26 -72c10 -28 15 -53.333 15 -76c0 -52.667 -19 -94.667 -57 -126zM-911.999 1607c-101.333 0 -153.332 -36.999 -155.999 -110.999c1.33301 -62.667 35.333 -94.334 102 -95.001h2c65.333 0 100.666 34 105.999 102v104h-54zM-730.998 1894
v443h149v-443h-149z" />
    <glyph glyph-name="uni0ECC_uni0EC8" unicode="&#xecc;&#xec8;" horiz-adv-x="14" 
d="M-692 1402c0 -44.667 -15.002 -79.668 -45.002 -105.001s-70.667 -38 -122 -38s-94.166 17.5 -128.499 52.5s-51.5 81 -51.5 138s22.5 102.5 67.5 136.5s94 51 147 51s117.167 -6.66699 192.5 -20s125.333 -20 150 -20s41.334 2.83301 50.001 8.5s15 14.834 19 27.501
c6 18.667 9 45.667 9 81h91c0 -96 -12.667 -158 -38 -186c-23.333 -26 -59.333 -39.333 -108 -40c-39.333 0 -72.333 2.33301 -99 7l-142 25zM-805.002 1529c-79.333 0 -119 -28.667 -119 -86c0 -24 6.66699 -43 20 -57s32 -21 56 -21c58.667 0 88 31.333 88 94v68
c-9.33301 1.33301 -24.333 2 -45 2zM-690.002 1893v443h149v-443h-149z" />
    <glyph glyph-name="uni0ECD_uni0EC8" unicode="&#xecd;&#xec8;" horiz-adv-x="16" 
d="M-433 1652c45.333 -43.333 68.0039 -97.5 68.0039 -162.5s-22.333 -118.833 -67 -161.5s-100.334 -64 -167.001 -64s-122.834 21.333 -168.501 64s-68.5 96.667 -68.5 162s22.667 119.5 68 162.5s101.166 64.5 167.499 64.5s122.166 -21.667 167.499 -65z
M-688.996 1405.5c23.333 -23.667 52.8311 -35.4961 88.498 -35.4961s65.334 11.667 89.001 35s35.5 52.666 35.5 87.999s-12.167 65.166 -36.5 89.499s-53.666 36.5 -87.999 36.5s-63.5 -12.333 -87.5 -37s-36 -54.334 -36 -89.001s11.667 -63.834 35 -87.501z
M-711.998 1907v443h149v-443h-149z" />
    <glyph glyph-name="uni0EB1_uni0EC9" unicode="&#xeb1;&#xec9;" horiz-adv-x="4" 
d="M-1014.5 1721c40.333 36 92.168 54.001 155.501 54.001s113.666 -15.333 150.999 -46s56 -72.334 56 -125.001c0 -24.667 -4 -48.334 -12 -71.001l-26 -77h204c114 0 196.167 23.167 246.5 69.5s75.5 124.833 75.5 235.5h119c0 -166 -38.667 -280 -116 -342
c-75.333 -60 -198 -90 -368 -90h-118c-142 0 -241.333 13 -298 39c-58.667 27.333 -96.667 63.333 -114 108c-10.667 26.667 -16 57.334 -16 92.001c0 66 20.167 117 60.5 153zM-743.998 1551c0 72.667 -36 109 -108 109c-68 0 -102 -30.667 -102 -92
c0 -74.667 49.333 -112 148 -112h62v95zM30.002 2359c-0.666992 -146.667 -44.3311 -249.335 -130.998 -308.001c-81.333 -54.667 -200.333 -82 -357 -82h-482v92c27.333 0 61.666 4.83301 102.999 14.5s69 15.834 83 18.5l24 70c-3.33301 -0.666992 -9.33301 -1 -18 -1h-26
c-150.667 0 -226 57 -226 171c0 58 18.5 103.167 55.5 135.5s87.667 48.5 152 48.5s115.833 -17 154.5 -51s58 -81.5 58 -142.5s-23 -131.167 -69 -210.5l-11 -22h211c173.333 0 279.666 40.333 318.999 121c16 32.667 24 73.334 24 122.001v113h136v-89zM-701.995 2300
c0 42.667 -5.5 73.334 -16.5 92c-11 18.667 -34.5 28 -70.5 28c-73.333 0 -110 -26 -110 -78c0 -64.667 65.667 -97 197 -97v55z" />
    <glyph glyph-name="uni0EB4_uni0EC9" unicode="&#xeb4;&#xec9;" horiz-adv-x="4" 
d="M-521 1440c106 0 172.332 20 198.999 60c12 17.333 18 39.333 18 66c0 106.667 -131.167 160 -393.5 160s-393.5 -53.667 -393.5 -161c0.666992 -52.667 23.667 -87.667 69 -105c36.667 -13.333 86.334 -20 149.001 -20h48v-105h-68c-223.333 0 -335 79 -335 237
c0 176.667 177.167 265 531.5 265s531.5 -95.333 531.5 -286c0 -144 -120 -216 -360 -216h-43v105h47zM-125.001 2378c-0.666992 -146.667 -44.3311 -249.334 -130.998 -308c-81.333 -54.667 -200.333 -82 -357 -82h-482v92c27.333 0 61.666 4.83301 102.999 14.5
s69 15.834 83 18.5l24 70c-3.33301 -0.666992 -9.33301 -1 -18 -1h-26c-150.667 0 -226 57 -226 171c0 58 18.5 103.167 55.5 135.5s87.667 48.5 152 48.5s115.833 -17 154.5 -51s58 -81.5 58 -142.5s-23 -131.167 -69 -210.5l-11 -22h211
c173.333 0 279.666 40.333 318.999 121c16 32.667 24 73.334 24 122v113h136v-89zM-856.998 2319c0 42.667 -5.5 73.334 -16.5 92c-11 18.667 -34.5 28 -70.5 28c-73.333 0 -110 -26 -110 -78c0 -64.667 65.667 -97 197 -97v55z" />
    <glyph glyph-name="uni0EB6_uni0EC9" unicode="&#xeb6;&#xec9;" horiz-adv-x="4" 
d="M-509 1440c88.667 0 147.669 11.3359 177.002 34.0029c26.667 20 40 50.667 40 92c0 105.333 -131.333 158.333 -394 159h-5c-259.333 0 -389 -53.333 -389 -160c0 -74.667 50 -115.667 150 -123c18.667 -1.33301 41.667 -2 69 -2h48v-105h-68
c-223.333 0 -335 79 -335 237c0 176.667 177 265 531 265c235.333 0 391.666 -37.667 468.999 -113c41.333 -40.667 62.166 -88.334 62.499 -143.001s-8.66699 -97.334 -27 -128.001s-44.5 -54.334 -78.5 -71.001c-64 -31.333 -148.667 -47 -254 -47h-43v105h47z
M-679.998 1619c26 0 48.5 -6.66602 67.5 -19.999s28.5 -31.833 28.5 -55.5s-9 -42.834 -27 -57.501s-40.667 -22 -68 -22s-50.5 7.33301 -69.5 22s-28.5 33.667 -28.5 57s9.66699 41.833 29 55.5s42 20.5 68 20.5zM-133.998 2372
c-0.666992 -146.667 -44.3311 -249.334 -130.998 -308c-81.333 -54.667 -200.333 -82 -357 -82h-482v92c27.333 0 61.666 4.83301 102.999 14.5s69 15.834 83 18.5l24 70c-3.33301 -0.666992 -9.33301 -1 -18 -1h-26c-150.667 0 -226 57 -226 171
c0 58 18.5 103.167 55.5 135.5s87.667 48.5 152 48.5s115.833 -17 154.5 -51s58 -81.5 58 -142.5s-23 -131.167 -69 -210.5l-11 -22h211c173.333 0 279.666 40.333 318.999 121c16 32.667 24 73.334 24 122v113h136v-89zM-865.995 2313c0 42.667 -5.5 73.334 -16.5 92
c-11 18.667 -34.5 28 -70.5 28c-73.333 0 -110 -26 -110 -78c0 -64.667 65.667 -97 197 -97v55z" />
    <glyph glyph-name="uni0EB5_uni0EC9" unicode="&#xeb5;&#xec9;" horiz-adv-x="5" 
d="M-211 1564c0 -48.667 -27.334 -90.333 -82.001 -125h245v-105h-569v105h50c106 0 172.333 20 199 60c12 17.333 18 39.333 18 66c0 106.667 -131.167 160 -393.5 160s-393.5 -53.667 -393.5 -161c0.666992 -52.667 23.667 -87.667 69 -105
c36.667 -13.333 86.334 -20 149.001 -20h48v-105h-68c-223.333 0 -335 79 -335 237c0 176.667 177.167 265 531.5 265s531.5 -90.667 531.5 -272zM-163.001 2371c-0.666992 -146.667 -44.3311 -249.335 -130.998 -308.001c-81.333 -54.667 -200.333 -82 -357 -82h-482v92
c27.333 0 61.666 4.83301 102.999 14.5s69 15.834 83 18.5l24 70c-3.33301 -0.666992 -9.33301 -1 -18 -1h-26c-150.667 0 -226 57 -226 171c0 58 18.5 103.167 55.5 135.5s87.667 48.5 152 48.5s115.833 -17 154.5 -51s58 -81.5 58 -142.5s-23 -131.167 -69 -210.5l-11 -22
h211c173.333 0 279.666 40.333 318.999 121c16 32.667 24 73.334 24 122.001v113h136v-89zM-894.998 2312c0 42.667 -5.5 73.334 -16.5 92c-11 18.667 -34.5 28 -70.5 28c-73.333 0 -110 -26 -110 -78c0 -64.667 65.667 -97 197 -97v55z" />
    <glyph glyph-name="uni0EB7_uni0EC9" unicode="&#xeb7;&#xec9;" horiz-adv-x="5" 
d="M-306 1439l245.001 0.00195312v-105h-569v105h50c88.667 0 147.667 11.333 177 34c26.667 20 40 50.667 40 92c0 106.667 -131.333 160 -394 160s-394 -53.667 -394 -161c0 -74.667 50 -115.667 150 -123c18.667 -1.33301 41.667 -2 69 -2h48v-105h-68
c-223.333 0 -335 79 -335 237c0 78 28.333 136.333 85 175s115.334 62 176.001 70c94.667 13.333 173 20 235 20s109.333 -0.833008 142 -2.5s67.667 -4.83398 105 -9.50098s70.833 -11 100.5 -19s58.5 -19 86.5 -33s51.333 -30.333 70 -49
c41.333 -40.667 62.166 -89.834 62.499 -147.501s-26.834 -103.167 -81.501 -136.5zM-829.999 1597.5c18.667 13.667 41.168 20.5 67.501 20.5s49.166 -6.66699 68.499 -20s29 -31.333 29 -54c0 -24 -9.33301 -43.667 -28 -59c-18 -14.667 -40.667 -22 -68 -22
s-50.333 7.33301 -69 22s-28 33.667 -28 57s9.33301 41.833 28 55.5zM-172.998 2365c-0.666992 -146.667 -44.3311 -249.334 -130.998 -308c-81.333 -54.667 -200.333 -82 -357 -82h-482v92c27.333 0 61.666 4.83301 102.999 14.5s69 15.834 83 18.5l24 70
c-3.33301 -0.666992 -9.33301 -1 -18 -1h-26c-150.667 0 -226 57 -226 171c0 58 18.5 103.167 55.5 135.5s87.667 48.5 152 48.5s115.833 -17 154.5 -51s58 -81.5 58 -142.5s-23 -131.167 -69 -210.5l-11 -22h211c173.333 0 279.666 40.333 318.999 121
c16 32.667 24 73.334 24 122v113h136v-89zM-904.995 2306c0 42.667 -5.5 73.334 -16.5 92c-11 18.667 -34.5 28 -70.5 28c-73.333 0 -110 -26 -110 -78c0 -64.667 65.667 -97 197 -97v55z" />
    <glyph glyph-name="uni0EBB_uni0EC9" unicode="&#xebb;&#xec9;" horiz-adv-x="5" 
d="M-865 1328c-38 -31.333 -88.499 -47 -151.499 -47s-114.833 18.333 -155.5 55s-61 88.667 -61 156c0 86.667 34 147.5 102 182.5s179 52.5 333 52.5h152c168 0 285.167 -32.5 351.5 -97.5s99.5 -181.167 99.5 -348.5h-118c0 118 -23.333 201 -70 249
s-128.334 72 -245.001 72h-221l26 -72c10 -28 15 -53.333 15 -76c0 -52.667 -19 -94.667 -57 -126zM-956.999 1602c-101.333 0 -153.332 -36.999 -155.999 -110.999c1.33301 -62.667 35.333 -94.334 102 -95.001h2c65.333 0 100.666 34 105.999 102v104h-54zM-116.998 2332
c-0.666992 -146.667 -44.3311 -249.335 -130.998 -308.001c-81.333 -54.667 -200.333 -82 -357 -82h-482v92c27.333 0 61.666 4.83301 102.999 14.5s69 15.834 83 18.5l24 70c-3.33301 -0.666992 -9.33301 -1 -18 -1h-26c-150.667 0 -226 57 -226 171
c0 58 18.5 103.167 55.5 135.5s87.667 48.5 152 48.5s115.833 -17 154.5 -51s58 -81.5 58 -142.5s-23 -131.167 -69 -210.5l-11 -22h211c173.333 0 279.666 40.333 318.999 121c16 32.667 24 73.334 24 122.001v113h136v-89zM-848.995 2273c0 42.667 -5.5 73.334 -16.5 92
c-11 18.667 -34.5 28 -70.5 28c-73.333 0 -110 -26 -110 -78c0 -64.667 65.667 -97 197 -97v55z" />
    <glyph glyph-name="uni0ECC_uni0EC9" unicode="&#xecc;&#xec9;" horiz-adv-x="14" 
d="M-729 1402c0 -44.667 -15.002 -79.668 -45.002 -105.001s-70.667 -38 -122 -38s-94.166 17.5 -128.499 52.5s-51.5 81 -51.5 138s22.5 102.5 67.5 136.5s94 51 147 51s117.167 -6.66699 192.5 -20s125.333 -20 150 -20s41.334 2.83301 50.001 8.5s15 14.834 19 27.501
c6 18.667 9 45.667 9 81h91c0 -96 -12.667 -158 -38 -186c-23.333 -26 -59.333 -39.333 -108 -40c-39.333 0 -72.333 2.33301 -99 7l-142 25zM-842.002 1529c-79.333 0 -119 -28.667 -119 -86c0 -24 6.66699 -43 20 -57s32 -21 56 -21c58.667 0 88 31.333 88 94v68
c-9.33301 1.33301 -24.333 2 -45 2zM-69.002 2299c-0.666992 -146.667 -44.3311 -249.335 -130.998 -308.002c-81.333 -54.667 -200.333 -82 -357 -82h-482v92c27.333 0 61.666 4.83301 102.999 14.5s69 15.834 83 18.501l24 70c-3.33301 -0.666992 -9.33301 -1 -18 -1h-26
c-150.667 0 -226 57 -226 171c0 58 18.5 103.167 55.5 135.5s87.667 48.5 152 48.5s115.833 -17 154.5 -51s58 -81.5 58 -142.5s-23 -131.167 -69 -210.5l-11 -22h211c173.333 0 279.666 40.333 318.999 121c16 32.667 24 73.334 24 122.001v113h136v-89zM-800.999 2240
c0 42.667 -5.5 73.334 -16.5 92c-11 18.667 -34.5 28 -70.5 28c-73.333 0 -110 -26 -110 -78c0 -64.667 65.667 -97 197 -97v55z" />
    <glyph glyph-name="uni0ECD_uni0EC9" unicode="&#xecd;&#xec9;" horiz-adv-x="16" 
d="M-472 1650c45.333 -43.333 68.0039 -97.5 68.0039 -162.5s-22.333 -118.833 -67 -161.5s-100.334 -64 -167.001 -64s-122.834 21.333 -168.501 64s-68.5 96.667 -68.5 162s22.667 119.5 68 162.5s101.166 64.5 167.499 64.5s122.166 -21.667 167.499 -65z
M-727.996 1403.5c23.333 -23.667 52.8311 -35.4961 88.498 -35.4961s65.334 11.667 89.001 35s35.5 52.666 35.5 87.999s-12.167 65.166 -36.5 89.499s-53.666 36.5 -87.999 36.5s-63.5 -12.333 -87.5 -37s-36 -54.334 -36 -89.001s11.667 -63.834 35 -87.501z
M-164.998 2293c-0.666992 -146.667 -44.3311 -249.334 -130.998 -308.001c-81.333 -54.667 -200.333 -82 -357 -82h-482v92c27.333 0 61.666 4.83301 102.999 14.5s69 15.834 83 18.501l24 70c-3.33301 -0.666992 -9.33301 -1 -18 -1h-26c-150.667 0 -226 57 -226 171
c0 58 18.5 103.167 55.5 135.5s87.667 48.5 152 48.5s115.833 -17 154.5 -51s58 -81.5 58 -142.5s-23 -131.167 -69 -210.5l-11 -22h211c173.333 0 279.666 40.333 318.999 121c16 32.667 24 73.334 24 122v113h136v-89zM-896.995 2234c0 42.667 -5.5 73.334 -16.5 92
c-11 18.667 -34.5 28 -70.5 28c-73.333 0 -110 -26 -110 -78c0 -64.667 65.667 -97 197 -97v55z" />
    <glyph glyph-name="uni0EB1_uni0ECA" unicode="&#xeb1;&#xeca;" horiz-adv-x="4" 
d="M-1074.5 2210c40.333 36 92.168 54 155.501 54s113.666 -15.333 150.999 -46s56 -72.334 56 -125c0 -24.667 -4 -48.334 -12 -71.001l-26 -77h204c114 0 196.167 23.167 246.5 69.5s75.5 124.833 75.5 235.5h119c0 -166 -38.667 -280 -116 -342
c-75.333 -60 -198 -90 -368 -90h-118c-142 0 -241.333 13 -298 39c-58.667 27.333 -96.667 63.333 -114 108c-10.667 26.667 -16 57.334 -16 92.001c0 66 20.167 117 60.5 153zM-803.998 2040c0 72.667 -36 109 -108 109c-68 0 -102 -30.667 -102 -92
c0 -74.667 49.333 -112 148 -112h62v95zM-927.498 1413c-45 34.667 -67.5 83.168 -67.5 145.501s16.5 109.5 49.5 141.5s76.5 48 130.5 48c92.667 0 152.334 -37.333 179.001 -112c28 74.667 84.333 112 169 112c57.333 0 103.333 -15.833 138 -47.5s52 -78.5 52 -140.5
s-30 -101 -90 -117h203v-83h-377v83c106.667 0 160 40 160 120c0 66 -31 99 -93 99c-32.667 0 -58.834 -11 -78.501 -33s-29.5 -50 -29.5 -84h-106c0 34 -10.5 62 -31.5 84s-46.333 33 -76 33s-52.5 -8.66699 -68.5 -26c-16 -16 -24 -42.667 -24 -80
c0 -74.667 48.333 -112.334 145 -113.001v-82c-78 0 -139.5 17.333 -184.5 52z" />
    <glyph glyph-name="uni0EB4_uni0ECA" unicode="&#xeb4;&#xeca;" horiz-adv-x="4" 
d="M-537 1440c106 0 172.332 20 198.999 60c12 17.333 18 39.333 18 66c0 106.667 -131.167 160 -393.5 160s-393.5 -53.667 -393.5 -161c0.666992 -52.667 23.667 -87.667 69 -105c36.667 -13.333 86.334 -20 149.001 -20h48v-105h-68c-223.333 0 -335 79 -335 237
c0 176.667 177.167 265 531.5 265s531.5 -95.333 531.5 -286c0 -144 -120 -216 -360 -216h-43v105h47zM-1101.5 2026c-45 34.667 -67.5 83.167 -67.5 145.5s16.5 109.5 49.5 141.5s76.5 48 130.5 48c92.667 0 152.334 -37.333 179.001 -112c28 74.667 84.333 112 169 112
c57.333 0 103.333 -15.833 138 -47.5s52 -78.5 52 -140.5s-30 -101 -90 -117h203v-83h-377v83c106.667 0 160 40 160 120c0 66 -31 99 -93 99c-32.667 0 -58.834 -11 -78.501 -33s-29.5 -50 -29.5 -84h-106c0 34 -10.5 62 -31.5 84s-46.333 33 -76 33
s-52.5 -8.66699 -68.5 -26c-16 -16 -24 -42.667 -24 -80c0 -74.667 48.333 -112.334 145 -113v-82c-78 0 -139.5 17.333 -184.5 52z" />
    <glyph glyph-name="uni0EB6_uni0ECA" unicode="&#xeb6;&#xeca;" horiz-adv-x="4" 
d="M-513 1439c88.667 0 147.669 11.3359 177.002 34.0029c26.667 20 40 50.667 40 92c0 105.333 -131.333 158.333 -394 159h-5c-259.333 0 -389 -53.333 -389 -160c0 -74.667 50 -115.667 150 -123c18.667 -1.33301 41.667 -2 69 -2h48v-105h-68
c-223.333 0 -335 79 -335 237c0 176.667 177 265 531 265c235.333 0 391.666 -37.667 468.999 -113c41.333 -40.667 62.166 -88.334 62.499 -143.001s-8.66699 -97.334 -27 -128.001s-44.5 -54.334 -78.5 -71.001c-64 -31.333 -148.667 -47 -254 -47h-43v105h47z
M-683.998 1618c26 0 48.5 -6.66602 67.5 -19.999s28.5 -31.833 28.5 -55.5s-9 -42.834 -27 -57.501s-40.667 -22 -68 -22s-50.5 7.33301 -69.5 22s-28.5 33.667 -28.5 57s9.66699 41.833 29 55.5s42 20.5 68 20.5zM-1077.5 2021c-45 34.667 -67.5 83.167 -67.5 145.5
s16.5 109.5 49.5 141.5s76.5 48 130.5 48c92.667 0 152.334 -37.333 179.001 -112c28 74.667 84.333 112 169 112c57.333 0 103.333 -15.833 138 -47.5s52 -78.5 52 -140.5s-30 -101 -90 -117h203v-83h-377v83c106.667 0 160 40 160 120c0 66 -31 99 -93 99
c-32.667 0 -58.834 -11 -78.501 -33s-29.5 -50 -29.5 -84h-106c0 34 -10.5 62 -31.5 84s-46.333 33 -76 33s-52.5 -8.66699 -68.5 -26c-16 -16 -24 -42.667 -24 -80c0 -74.667 48.333 -112.334 145 -113v-82c-78 0 -139.5 17.333 -184.5 52z" />
    <glyph glyph-name="uni0EB5_uni0ECA" unicode="&#xeb5;&#xeca;" horiz-adv-x="5" 
d="M-184 1576c0 -48.667 -27.334 -90.333 -82.001 -125h245v-105h-569v105h50c106 0 172.333 20 199 60c12 17.333 18 39.333 18 66c0 106.667 -131.167 160 -393.5 160s-393.5 -53.667 -393.5 -161c0.666992 -52.667 23.667 -87.667 69 -105
c36.667 -13.333 86.334 -20 149.001 -20h48v-105h-68c-223.333 0 -335 79 -335 237c0 176.667 177.167 265 531.5 265s531.5 -90.667 531.5 -272zM-1126.5 2014c-45 34.667 -67.5 83.168 -67.5 145.501s16.5 109.5 49.5 141.5s76.5 48 130.5 48
c92.667 0 152.334 -37.333 179.001 -112c28 74.667 84.333 112 169 112c57.333 0 103.333 -15.833 138 -47.5s52 -78.5 52 -140.5s-30 -101 -90 -117h203v-83h-377v83c106.667 0 160 40 160 120c0 66 -31 99 -93 99c-32.667 0 -58.834 -11 -78.501 -33s-29.5 -50 -29.5 -84
h-106c0 34 -10.5 62 -31.5 84s-46.333 33 -76 33s-52.5 -8.66699 -68.5 -26c-16 -16 -24 -42.667 -24 -80c0 -74.667 48.333 -112.334 145 -113.001v-82c-78 0 -139.5 17.333 -184.5 52z" />
    <glyph glyph-name="uni0EB7_uni0ECA" unicode="&#xeb7;&#xeca;" horiz-adv-x="5" 
d="M-293 1469l245.001 0.00195312v-105h-569v105h50c88.667 0 147.667 11.333 177 34c26.667 20 40 50.667 40 92c0 106.667 -131.333 160 -394 160s-394 -53.667 -394 -161c0 -74.667 50 -115.667 150 -123c18.667 -1.33301 41.667 -2 69 -2h48v-105h-68
c-223.333 0 -335 79 -335 237c0 78 28.333 136.333 85 175s115.334 62 176.001 70c94.667 13.333 173 20 235 20s109.333 -0.833008 142 -2.5s67.667 -4.83398 105 -9.50098s70.833 -11 100.5 -19s58.5 -19 86.5 -33s51.333 -30.333 70 -49
c41.333 -40.667 62.166 -89.834 62.499 -147.501s-26.834 -103.167 -81.501 -136.5zM-816.999 1627.5c18.667 13.667 41.168 20.5 67.501 20.5s49.166 -6.66699 68.499 -20s29 -31.333 29 -54c0 -24 -9.33301 -43.667 -28 -59c-18 -14.667 -40.667 -22 -68 -22
s-50.333 7.33301 -69 22s-28 33.667 -28 57s9.33301 41.833 28 55.5zM-1153.5 2026c-45 34.667 -67.5 83.167 -67.5 145.5s16.5 109.5 49.5 141.5s76.5 48 130.5 48c92.667 0 152.334 -37.333 179.001 -112c28 74.667 84.333 112 169 112
c57.333 0 103.333 -15.833 138 -47.5s52 -78.5 52 -140.5s-30 -101 -90 -117h203v-83h-377v83c106.667 0 160 40 160 120c0 66 -31 99 -93 99c-32.667 0 -58.834 -11 -78.501 -33s-29.5 -50 -29.5 -84h-106c0 34 -10.5 62 -31.5 84s-46.333 33 -76 33
s-52.5 -8.66699 -68.5 -26c-16 -16 -24 -42.667 -24 -80c0 -74.667 48.333 -112.334 145 -113v-82c-78 0 -139.5 17.333 -184.5 52z" />
    <glyph glyph-name="uni0EBB_uni0ECA" unicode="&#xebb;&#xeca;" horiz-adv-x="5" 
d="M-865 1328c-38 -31.333 -88.499 -47 -151.499 -47s-114.833 18.333 -155.5 55s-61 88.667 -61 156c0 86.667 34 147.5 102 182.5s179 52.5 333 52.5h152c168 0 285.167 -32.5 351.5 -97.5s99.5 -181.167 99.5 -348.5h-118c0 118 -23.333 201 -70 249
s-128.334 72 -245.001 72h-221l26 -72c10 -28 15 -53.333 15 -76c0 -52.667 -19 -94.667 -57 -126zM-956.999 1602c-101.333 0 -153.332 -36.999 -155.999 -110.999c1.33301 -62.667 35.333 -94.334 102 -95.001h2c65.333 0 100.666 34 105.999 102v104h-54zM-1097.5 1942
c-45 34.667 -67.5 83.168 -67.5 145.501s16.5 109.5 49.5 141.5s76.5 48 130.5 48c92.667 0 152.334 -37.333 179.001 -112c28 74.667 84.333 112 169 112c57.333 0 103.333 -15.833 138 -47.5s52 -78.5 52 -140.5s-30 -101 -90 -117h203v-83h-377v83
c106.667 0 160 40 160 120c0 66 -31 99 -93 99c-32.667 0 -58.834 -11 -78.501 -33s-29.5 -50 -29.5 -84h-106c0 34 -10.5 62 -31.5 84s-46.333 33 -76 33s-52.5 -8.66699 -68.5 -26c-16 -16 -24 -42.667 -24 -80c0 -74.667 48.333 -112.334 145 -113.001v-82
c-78 0 -139.5 17.333 -184.5 52z" />
    <glyph glyph-name="uni0ECC_uni0ECA" unicode="&#xecc;&#xeca;" horiz-adv-x="14" 
d="M-665 1445c0 -44.667 -15.002 -79.668 -45.002 -105.001s-70.667 -38 -122 -38s-94.166 17.5 -128.499 52.5s-51.5 81 -51.5 138s22.5 102.5 67.5 136.5s94 51 147 51s117.167 -6.66699 192.5 -20s125.333 -20 150 -20s41.334 2.83301 50.001 8.5s15 14.834 19 27.501
c6 18.667 9 45.667 9 81h91c0 -96 -12.667 -158 -38 -186c-23.333 -26 -59.333 -39.333 -108 -40c-39.333 0 -72.333 2.33301 -99 7l-142 25zM-778.002 1572c-79.333 0 -119 -28.667 -119 -86c0 -24 6.66699 -43 20 -57s32 -21 56 -21c58.667 0 88 31.333 88 94v68
c-9.33301 1.33301 -24.333 2 -45 2zM-1030.5 1942c-45 34.667 -67.5 83.168 -67.5 145.501s16.5 109.5 49.5 141.5s76.5 48 130.5 48c92.667 0 152.334 -37.333 179.001 -112c28 74.667 84.333 112 169 112c57.333 0 103.333 -15.833 138 -47.5s52 -78.5 52 -140.5
s-30 -101 -90 -117h203v-83h-377v83c106.667 0 160 40 160 120c0 66 -31 99 -93 99c-32.667 0 -58.834 -11 -78.501 -33s-29.5 -50 -29.5 -84h-106c0 34 -10.5 62 -31.5 84s-46.333 33 -76 33s-52.5 -8.66699 -68.5 -26c-16 -16 -24 -42.667 -24 -80
c0 -74.667 48.333 -112.334 145 -113.001v-82c-78 0 -139.5 17.333 -184.5 52z" />
    <glyph glyph-name="uni0ECD_uni0ECA" unicode="&#xecd;&#xeca;" horiz-adv-x="16" 
d="M-519 1650c45.333 -43.333 68.0039 -97.5 68.0039 -162.5s-22.333 -118.833 -67 -161.5s-100.334 -64 -167.001 -64s-122.834 21.333 -168.501 64s-68.5 96.667 -68.5 162s22.667 119.5 68 162.5s101.166 64.5 167.499 64.5s122.166 -21.667 167.499 -65z
M-774.996 1403.5c23.333 -23.667 52.8311 -35.4961 88.498 -35.4961s65.334 11.667 89.001 35s35.5 52.666 35.5 87.999s-12.167 65.166 -36.5 89.499s-53.666 36.5 -87.999 36.5s-63.5 -12.333 -87.5 -37s-36 -54.334 -36 -89.001s11.667 -63.834 35 -87.501zM-1068.5 1942
c-45 34.667 -67.5 83.168 -67.5 145.501s16.5 109.5 49.5 141.5s76.5 48 130.5 48c92.667 0 152.334 -37.333 179.001 -112c28 74.667 84.333 112 169 112c57.333 0 103.333 -15.833 138 -47.5s52 -78.5 52 -140.5s-30 -101 -90 -117h203v-83h-377v83
c106.667 0 160 40 160 120c0 66 -31 99 -93 99c-32.667 0 -58.834 -11 -78.501 -33s-29.5 -50 -29.5 -84h-106c0 34 -10.5 62 -31.5 84s-46.333 33 -76 33s-52.5 -8.66699 -68.5 -26c-16 -16 -24 -42.667 -24 -80c0 -74.667 48.333 -112.334 145 -113.001v-82
c-78 0 -139.5 17.333 -184.5 52z" />
    <glyph glyph-name="uni0EB1_uni0ECB" unicode="&#xeb1;&#xecb;" horiz-adv-x="4" 
d="M-1058.5 1775c40.333 36 92.168 54.001 155.501 54.001s113.666 -15.333 150.999 -46s56 -72.334 56 -125.001c0 -24.667 -4 -48.334 -12 -71.001l-26 -77h204c114 0 196.167 23.167 246.5 69.5s75.5 124.833 75.5 235.5h119c0 -166 -38.667 -280 -116 -342
c-75.333 -60 -198 -90 -368 -90h-118c-142 0 -241.333 13 -298 39c-58.667 27.333 -96.667 63.333 -114 108c-10.667 26.667 -16 57.334 -16 92.001c0 66 20.167 117 60.5 153zM-787.998 1605c0 72.667 -36 109 -108 109c-68 0 -102 -30.667 -102 -92
c0 -74.667 49.333 -112 148 -112h62v95zM-557.998 1915h-123v121h-124v114h124v122h123v-122h124v-114h-124v-121z" />
    <glyph glyph-name="uni0EB4_uni0ECB" unicode="&#xeb4;&#xecb;" horiz-adv-x="4" 
d="M-552 1493c106 0 172.332 20 198.999 60c12 17.333 18 39.333 18 66c0 106.667 -131.167 160 -393.5 160s-393.5 -53.667 -393.5 -161c0.666992 -52.667 23.667 -87.667 69 -105c36.667 -13.333 86.334 -20 149.001 -20h48v-105h-68c-223.333 0 -335 79 -335 237
c0 176.667 177.167 265 531.5 265s531.5 -95.333 531.5 -286c0 -144 -120 -216 -360 -216h-43v105h47zM-697.001 1915h-123v121h-124v114h124v122h123v-122h124v-114h-124v-121z" />
    <glyph glyph-name="uni0EB6_uni0ECB" unicode="&#xeb6;&#xecb;" horiz-adv-x="4" 
d="M-549 1493c88.667 0 147.669 11.3359 177.002 34.0029c26.667 20 40 50.667 40 92c0 105.333 -131.333 158.333 -394 159h-5c-259.333 0 -389 -53.333 -389 -160c0 -74.667 50 -115.667 150 -123c18.667 -1.33301 41.667 -2 69 -2h48v-105h-68
c-223.333 0 -335 79 -335 237c0 176.667 177 265 531 265c235.333 0 391.666 -37.667 468.999 -113c41.333 -40.667 62.166 -88.334 62.499 -143.001s-8.66699 -97.334 -27 -128.001s-44.5 -54.334 -78.5 -71.001c-64 -31.333 -148.667 -47 -254 -47h-43v105h47z
M-719.998 1672c26 0 48.5 -6.66602 67.5 -19.999s28.5 -31.833 28.5 -55.5s-9 -42.834 -27 -57.501s-40.667 -22 -68 -22s-50.5 7.33301 -69.5 22s-28.5 33.667 -28.5 57s9.66699 41.833 29 55.5s42 20.5 68 20.5zM-693.998 1915h-123v121h-124v114h124v122h123v-122h124
v-114h-124v-121z" />
    <glyph glyph-name="uni0EB5_uni0ECB" unicode="&#xeb5;&#xecb;" horiz-adv-x="5" 
d="M-245 1618c0 -48.667 -27.334 -90.333 -82.001 -125h245v-105h-569v105h50c106 0 172.333 20 199 60c12 17.333 18 39.333 18 66c0 106.667 -131.167 160 -393.5 160s-393.5 -53.667 -393.5 -161c0.666992 -52.667 23.667 -87.667 69 -105
c36.667 -13.333 86.334 -20 149.001 -20h48v-105h-68c-223.333 0 -335 79 -335 237c0 176.667 177.167 265 531.5 265s531.5 -90.667 531.5 -272zM-763.001 1915h-123v121h-124v114h124v122h123v-122h124v-114h-124v-121z" />
    <glyph glyph-name="uni0EB7_uni0ECB" unicode="&#xeb7;&#xecb;" horiz-adv-x="5" 
d="M-288 1493l245.001 0.00195312v-105h-569v105h50c88.667 0 147.667 11.333 177 34c26.667 20 40 50.667 40 92c0 106.667 -131.333 160 -394 160s-394 -53.667 -394 -161c0 -74.667 50 -115.667 150 -123c18.667 -1.33301 41.667 -2 69 -2h48v-105h-68
c-223.333 0 -335 79 -335 237c0 78 28.333 136.333 85 175s115.334 62 176.001 70c94.667 13.333 173 20 235 20s109.333 -0.833008 142 -2.5s67.667 -4.83398 105 -9.50098s70.833 -11 100.5 -19s58.5 -19 86.5 -33s51.333 -30.333 70 -49
c41.333 -40.667 62.166 -89.834 62.499 -147.501s-26.834 -103.167 -81.501 -136.5zM-811.999 1651.5c18.667 13.667 41.168 20.5 67.501 20.5s49.166 -6.66699 68.499 -20s29 -31.333 29 -54c0 -24 -9.33301 -43.667 -28 -59c-18 -14.667 -40.667 -22 -68 -22
s-50.333 7.33301 -69 22s-28 33.667 -28 57s9.33301 41.833 28 55.5zM-724.998 1915h-123v121h-124v114h124v122h123v-122h124v-114h-124v-121z" />
    <glyph glyph-name="uni0EBB_uni0ECB" unicode="&#xebb;&#xecb;" horiz-adv-x="5" 
d="M-865 1381c-38 -31.333 -88.499 -47 -151.499 -47s-114.833 18.333 -155.5 55s-61 88.667 -61 156c0 86.667 34 147.5 102 182.5s179 52.5 333 52.5h152c168 0 285.167 -32.5 351.5 -97.5s99.5 -181.167 99.5 -348.5h-118c0 118 -23.333 201 -70 249
s-128.334 72 -245.001 72h-221l26 -72c10 -28 15 -53.333 15 -76c0 -52.667 -19 -94.667 -57 -126zM-956.999 1655c-101.333 0 -153.332 -36.999 -155.999 -110.999c1.33301 -62.667 35.333 -94.334 102 -95.001h2c65.333 0 100.666 34 105.999 102v104h-54zM-676.998 1915
h-123v121h-124v114h124v122h123v-122h124v-114h-124v-121z" />
    <glyph glyph-name="uni0ECC_uni0ECB" unicode="&#xecc;&#xecb;" horiz-adv-x="14" 
d="M-726 1505c0 -44.667 -15.002 -79.668 -45.002 -105.001s-70.667 -38 -122 -38s-94.166 17.5 -128.499 52.5s-51.5 81 -51.5 138s22.5 102.5 67.5 136.5s94 51 147 51s117.167 -6.66699 192.5 -20s125.333 -20 150 -20s41.334 2.83301 50.001 8.5s15 14.834 19 27.501
c6 18.667 9 45.667 9 81h91c0 -96 -12.667 -158 -38 -186c-23.333 -26 -59.333 -39.333 -108 -40c-39.333 0 -72.333 2.33301 -99 7l-142 25zM-839.002 1632c-79.333 0 -119 -28.667 -119 -86c0 -24 6.66699 -43 20 -57s32 -21 56 -21c58.667 0 88 31.333 88 94v68
c-9.33301 1.33301 -24.333 2 -45 2zM-628.002 1915h-123v121h-124v114h124v122h123v-122h124v-114h-124v-121z" />
    <glyph glyph-name="uni0ECD_uni0ECB" unicode="&#xecd;&#xecb;" horiz-adv-x="16" 
d="M-494 1723c45.333 -43.333 68.0039 -97.5 68.0039 -162.5s-22.333 -118.833 -67 -161.5s-100.334 -64 -167.001 -64s-122.834 21.333 -168.501 64s-68.5 96.667 -68.5 162s22.667 119.5 68 162.5s101.166 64.5 167.499 64.5s122.166 -21.667 167.499 -65z
M-749.996 1476.5c23.333 -23.667 52.8311 -35.4961 88.498 -35.4961s65.334 11.667 89.001 35s35.5 52.666 35.5 87.999s-12.167 65.166 -36.5 89.499s-53.666 36.5 -87.999 36.5s-63.5 -12.333 -87.5 -37s-36 -54.334 -36 -89.001s11.667 -63.834 35 -87.501z
M-641.998 1915h-123v121h-124v114h124v122h123v-122h124v-114h-124v-121z" />
    <glyph glyph-name=".notdef" horiz-adv-x="524" 
 />
    <glyph glyph-name="uni0000" horiz-adv-x="2048" 
 />
    <glyph glyph-name="uni0000" horiz-adv-x="2048" 
 />
    <glyph glyph-name="uni000D" unicode="&#xd;" horiz-adv-x="688" 
 />
    <glyph glyph-name="space" unicode=" " horiz-adv-x="512" 
 />
    <glyph glyph-name="exclam" unicode="!" horiz-adv-x="448" 
d="M327 186v-202h-209v202h209zM314 399h-174v1180h174v-1180z" />
    <glyph glyph-name="quotedbl" unicode="&#x22;" horiz-adv-x="796" 
d="M681 1579l1 -48c0 -10.667 -0.333008 -18.334 -1 -23.001l-60 -450h-108l-60 450c-0.666992 4.66699 -1 12.334 -1 23.001l1 48h228zM343 1579l1 -48c0 -10.667 -0.333008 -18.334 -1 -23.001l-60 -450h-108l-60 450c-0.666992 4.66699 -1 12.334 -1 23.001l1 48h228z
" />
    <glyph glyph-name="numbersign" unicode="#" horiz-adv-x="1056" 
d="M599 561h-186l-33 -266h-141l33 266h-166v123h176l27 221h-175v125h189l31 279h139l-31 -279h189l28 277h142l-31 -277h160v-125h-172l-27 -221h176v-123h-188l-31 -266h-141zM425 684h183l26 221h-182z" />
    <glyph glyph-name="dollar" unicode="$" horiz-adv-x="1019" 
d="M576 1236c49.333 -1.33301 116.835 -7.83691 202.502 -19.5039s128.5 -26.5 128.5 -44.5v-1l-52 -131c-75.333 31.333 -168.333 50.666 -279 57.999v-389c150 -50 251.833 -103 305.5 -159s80.5 -126 80.5 -210c0 -165.333 -78 -274.666 -234 -327.999
c-45.333 -16 -96 -26 -152 -30v-160h-103v158c-68 4.66699 -130.333 15.334 -187 32.001s-110.667 33.667 -162 51l49 144c109.333 -41.333 209.333 -67.333 300 -78v443c-104.667 23.333 -168.667 39.833 -192 49.5s-46 20 -68 31s-39.333 22.333 -52 34
s-26.334 25.834 -41.001 42.501s-26 34.334 -34 53.001c-17.333 44 -26 90.5 -26 139.5s8.33301 91.167 25 126.5s38.667 64.333 66 87s59.333 42 96 58c65.333 28.667 140.666 44.334 225.999 47.001v150h103v-154zM473.002 744.996l-0.00195312 354.999
c-122 0 -198.333 -28 -229 -84c-13.333 -24.667 -20.166 -53.167 -20.499 -85.5s7.83398 -59.833 24.501 -82.5s38.667 -40.667 66 -54c49.333 -25.333 102.333 -41.666 159 -48.999zM576 538.995v-405.001c62 1.33301 114.333 19.333 157 54s64 81.667 64 141
c0 42.667 -6.66699 71.834 -20 87.501l-27.5 32.5c-5 6 -13.167 12.667 -24.5 20l-26 17c-6 4 -16.167 9.16699 -30.5 15.5l-29.5 13c-5.33301 2.33301 -16 6.5 -32 12.5s-26.333 10 -31 12z" />
    <glyph glyph-name="percent" unicode="%" horiz-adv-x="1671" 
d="M1291 89c125.333 0 188 100.5 188 301.5s-62.667 301.5 -188 301.5s-188 -100.5 -188 -301.5s62.667 -301.5 188 -301.5zM985.5 530.5c10.333 47.667 27.1709 92.166 50.5039 133.499s56.666 73.666 99.999 96.999s95 35 155 35s111.667 -11.667 155 -35
s76.666 -55.666 99.999 -96.999s40.166 -85.833 50.499 -133.5s15.5 -107.5 15.5 -179.5c0 -72.667 -16 -141 -48 -205c-55.333 -112 -146.333 -167.667 -273 -167c-108.667 0 -190.334 40.667 -245.001 122c-25.333 37.333 -44.333 79 -57 125s-19 96.333 -19 151
s5.16699 105.834 15.5 153.501zM380.005 787.999c125.333 0 188 100.5 188 301.5s-62.667 301.5 -188 301.5s-188 -100.5 -188 -301.5s62.667 -301.5 188 -301.5zM74.5049 1229.5c10.333 47.667 27.1689 92.166 50.502 133.499s56.666 73.666 99.999 96.999s95 35 155 35
s111.667 -11.667 155 -35s76.666 -55.666 99.999 -96.999s40.166 -85.833 50.499 -133.5s15.5 -107.5 15.5 -179.5s-16 -140 -48 -204c-55.333 -112 -146.333 -168 -273 -168c-109.333 0 -191.333 40.667 -246 122c-25.333 37.333 -44.166 79 -56.499 125
s-18.5 96.333 -18.5 151s5.16699 105.834 15.5 153.501zM425.008 36.998l682 1460l129 -67l-681 -1452z" />
    <glyph glyph-name="ampersand" unicode="&#x26;" horiz-adv-x="1536" 
d="M778 -29c-51.333 -6.66699 -103.166 -10 -155.499 -10s-104.833 4.66699 -157.5 14s-103.834 25 -153.501 47s-92.5 49.333 -128.5 82c-79.333 72 -119 169.333 -119 292c0 220.667 111.333 362.667 334 426c-51.333 32 -97.833 75.5 -139.5 130.5
s-62.5 109.5 -62.5 163.5s10.667 102.667 32 146c22.667 42.667 52.667 77.334 90 104.001c74.667 52 167 78.333 277 79c109.333 0 202 -26 278 -78c82 -56 123 -140 123 -252c0 -86.667 -29 -155 -87 -205c-46.667 -40 -112 -74.667 -196 -104l-76 -25l495 -390
c9.33301 140 14 275 14 405h164c0 -185.333 -15.667 -358.333 -47 -519l226 -182l-86 -102l-211 177c-20.667 -38.667 -53.834 -72.5 -99.501 -101.5s-96.667 -50.833 -153 -65.5s-110.166 -25.334 -161.499 -32.001zM246 418c0 -124 35.333 -209.332 106 -255.999
c64 -41.333 157 -62 279 -62c233.333 0 383 52 449 156l-588 470c-164 -34.667 -246 -137.334 -246 -308.001zM836 1119c0 64.667 -23.001 112.667 -69.001 144s-103.333 47 -172 47c-155.333 0 -233 -63 -233 -189c0 -44 19.5 -88.667 58.5 -134s81.167 -80 126.5 -104
c5.33301 1.33301 18.5 5.16602 39.5 11.499l42 12.5c7 2 19.833 6.16699 38.5 12.5s31.834 11.5 39.501 15.5l34 18c15 8 25.833 15.5 32.5 22.5l25 26.5c10.667 10.667 18 21.334 22 32.001c10.667 28 16 56.333 16 85z" />
    <glyph glyph-name="quotesingle" unicode="'" horiz-adv-x="353" 
d="M289 1579l1 -48c0 -10.667 -0.333008 -18.334 -1 -23.001l-60 -450h-108l-60 450c-0.666992 4.66699 -1 12.334 -1 23.001l1 48h228z" />
    <glyph glyph-name="parenleft" unicode="(" horiz-adv-x="467" 
d="M491 1493c-67.333 -59.333 -124.332 -135.668 -170.999 -229.001c-87.333 -175.333 -131 -365.333 -131 -570c0.666992 -136 22.334 -278 65.001 -426c21.333 -74.667 51.166 -144.667 89.499 -210s82.166 -117 131.499 -155l-83 -108c-66 42 -124.667 98.833 -176 170.5
s-92 149.334 -122 233.001s-52.667 167.667 -68 252s-23 166.166 -23 245.499s7.5 160.833 22.5 244.5s37.167 166.334 66.5 248.001s68.833 158.5 118.5 230.5s106.167 130.667 169.5 176z" />
    <glyph glyph-name="parenright" unicode=")" horiz-adv-x="469" 
d="M281 694c0 205.333 -40.332 395.334 -120.999 570.001c-44.667 97.333 -99.334 173 -164.001 227l83 108c65.333 -44.667 123.666 -102.334 174.999 -173.001c50.667 -70.667 91.334 -146 122.001 -226c61.333 -163.333 92 -326.666 92 -489.999
c0 -174.667 -29.333 -342.667 -88 -504c-64.667 -180 -165 -317 -301 -411l-100 106c98 84.667 172.833 201.667 224.5 351s77.5 296.666 77.5 441.999z" />
    <glyph glyph-name="asterisk" unicode="*" horiz-adv-x="1017" 
d="M508 1292l139 275l103 -58l-158 -272h311v-92h-309l170 -273l-102 -57l-154 275l-154 -275l-102 57l170 273h-309v92h311l-158 272l103 58z" />
    <glyph glyph-name="plus" unicode="+" horiz-adv-x="1005" 
d="M886 518h-314v-344h-141v344h-313v133h313v344h141v-344h314v-133z" />
    <glyph glyph-name="comma" unicode="," horiz-adv-x="522" 
d="M121 0v292.998h281v-249c0 -76 -19.667 -139.167 -59 -189.5s-96 -86.166 -170 -107.499l-51 94c46 16 79.333 35.333 100 58s30.667 56.334 30 101.001h-131z" />
    <glyph glyph-name="hyphen" unicode="-" horiz-adv-x="923" 
d="M799 508h-676v157h676v-157z" />
    <glyph glyph-name="period" unicode="." horiz-adv-x="456" 
d="M150.5 179c21.667 22.667 48.333 33.999 80 33.999s57.5 -11.167 77.5 -33.5s30 -49.5 30 -81.5s-10 -59.167 -30 -81.5s-46 -33.5 -78 -33.5s-58.667 11.167 -80 33.5s-32 49.333 -32 81s10.833 58.834 32.5 81.501z" />
    <glyph glyph-name="slash" unicode="/" horiz-adv-x="727" 
d="M-33 -117l625 1848l169 -62l-624 -1848z" />
    <glyph glyph-name="zero" unicode="0" horiz-adv-x="1374" 
d="M863 1032.5c-50.667 24.333 -107.166 36.5 -169.499 36.5s-115.5 -8.5 -159.5 -25.5s-80.167 -40 -108.5 -69s-51.833 -64.167 -70.5 -105.5c-34 -75.333 -51 -167.666 -51 -276.999c0 -244 77.333 -396 232 -456c44 -17.333 94.333 -25.833 151 -25.5
s107.667 9.5 153 27.5s82 42 110 72c28 30.667 51.333 67.667 70 111c33.333 78 50 161.333 50 250s-7 160 -21 214s-35.833 102.667 -65.5 146s-69.834 77.166 -120.501 101.499zM1256 590c0 -118.667 -21.5 -224.333 -64.5 -317s-108.167 -166.5 -195.5 -221.5
s-183.333 -82.5 -288 -82.5s-193.334 16 -266.001 48c-72 32.667 -131.333 77 -178 133c-97.333 116 -146 262.667 -146 440c0 180 47.333 327.333 142 442c46.667 56 106.334 99.667 179.001 131s162 47 268 47s202.667 -27.5 290 -82.5s152.333 -128.667 195 -221
s64 -197.833 64 -316.5z" />
    <glyph glyph-name="one" unicode="1" horiz-adv-x="650" 
d="M348 0v1057l-207 -100l-53 126l257 119h190v-1202h-187z" />
    <glyph glyph-name="two" unicode="2" horiz-adv-x="1054" 
d="M337 152h595.999v-152h-815v146l408 334c100.667 84 165.334 149.333 194.001 196c34 55.333 51 107.166 51 155.499s-7.66699 86.833 -23 115.5s-36.333 51 -63 67c-51.333 30.667 -117 45.834 -197 45.501s-166 -22.833 -258 -67.5l-53 116c86 60 199.333 90 340 90
c120.667 0 219 -27 295 -81c80 -57.333 120.333 -148 121 -272c0 -127.333 -75.333 -260.333 -226 -399c-48 -44 -90.333 -80.167 -127 -108.5l-132.5 -101z" />
    <glyph glyph-name="three" unicode="3" horiz-adv-x="988" 
d="M724 844c0 42.667 -7.33691 78.666 -22.0039 107.999c-15.333 29.333 -37 52 -65 68c-50.667 28 -122 42.167 -214 42.5s-187 -23.167 -285 -70.5l-50 133c120.667 54 238.334 81 353.001 81c117.333 0 219 -24.667 305 -74c44 -25.333 78.833 -60.666 104.5 -105.999
s38.5 -104.333 38.5 -177s-27.333 -141.334 -82 -206.001s-123.667 -97.334 -207 -98.001c102 -21.333 182.167 -64.166 240.5 -128.499s87.5 -147.833 87.5 -250.5c0 -60.667 -14 -115 -42 -163c-28 -48.667 -64.667 -87 -110 -115
c-92.667 -57.333 -203.167 -86 -331.5 -86s-258.166 32 -389.499 96l54 133c50.667 -27.333 108.334 -49.166 173.001 -65.499s133 -24.5 205 -24.5s133.5 19.667 184.5 59s76.5 101.333 76.5 186c0 165.333 -112 260.333 -336 285v143c82.667 0 153.334 15.667 212.001 47
c66.667 36.667 100 97.667 100 183z" />
    <glyph glyph-name="four" unicode="4" horiz-adv-x="1253" 
d="M794 1208l162 -39v-962h186v-139h-186v-328h-171v328h-647l-28 137zM785 930l-490 -725h490v725z" />
    <glyph glyph-name="five" unicode="5" horiz-adv-x="990" 
d="M441 -56c211.333 0 316.998 100 316.998 300c0 98 -25.167 175.5 -75.5 232.5s-124.166 85.5 -221.499 85.5c-71.333 0 -171 -31.333 -299 -94l-68 69v632h748v-151h-603v-396c23.333 26 58.5 45.167 105.5 57.5s91.833 18.5 134.5 18.5
c134.667 0 243.5 -41.333 326.5 -124s124.5 -194 124.5 -334s-45.167 -249.5 -135.5 -328.5s-208.833 -118.5 -355.5 -118.5c-64 0 -123.667 7.5 -179 22.5s-122.666 38.5 -201.999 70.5l51 145c114 -58 224.667 -87 332 -87z" />
    <glyph glyph-name="six" unicode="6" horiz-adv-x="1235" 
d="M869 567c-50.667 60 -122.001 90.0029 -214.001 90.0029c-54 0 -118.5 -13.167 -193.5 -39.5s-128.833 -57.833 -161.5 -94.5c-4 -26.667 -6 -76.834 -6 -150.501s14.667 -143.834 44 -210.501c50.667 -117.333 145 -176 283 -176c100.667 0 179.834 32.667 237.501 98
s86.5 147.166 86.5 245.499s-25.333 177.5 -76 237.5zM115.999 425.003c0 225.333 64.165 417.667 192.498 577s302.5 265 522.5 317l43 -145c-141.333 -30 -263.666 -91 -366.999 -183s-167.666 -206 -192.999 -342c80 96 191.333 144 334 144
s257.167 -41.833 343.5 -125.5s129.5 -196.834 129.5 -339.501s-46.167 -259 -138.5 -349s-212.833 -135 -361.5 -135c-172.667 0 -301 56 -385 168c-80 106.667 -120 244.334 -120 413.001z" />
    <glyph glyph-name="seven" unicode="7" horiz-adv-x="1114" 
d="M952 1229l57 -122l-572 -1283l-168 76l525 1174h-678v155h836z" />
    <glyph glyph-name="eight" unicode="8" horiz-adv-x="1186" 
d="M590 1334c104 0 194.667 -17.999 272 -53.999c136 -64 204 -168.667 204 -314c0 -82 -23.333 -150.833 -70 -206.5s-110.667 -97.5 -192 -125.5c88.667 -28 154.5 -77.667 197.5 -149s64.5 -156 64.5 -254c0 -131.333 -48 -228.666 -144 -291.999
c-44 -29.333 -93.167 -51.166 -147.5 -65.499s-112.833 -21.5 -175.5 -21.5s-121.667 7.16699 -177 21.5s-106 36.166 -152 65.499s-82.5 69.166 -109.5 119.499s-40.5 116.5 -40.5 198.5s21.5 158.667 64.5 230s108.833 121 197.5 149
c-80.667 26.667 -144.5 68.167 -191.5 124.5s-70.5 120.666 -70.5 192.999s14.167 132.833 42.5 181.5s66 87 113 115s97.833 49 152.5 63s108.667 21 162 21zM599 -8.99902c100 0 173.167 19.501 219.5 58.501s69.5 104.667 69.5 197s-26.5 170.166 -79.5 233.499
s-123.333 95 -211 95s-159.5 -31 -215.5 -93s-84 -139.333 -84 -232s25.167 -159 75.5 -199s125.5 -60 225.5 -60zM802 769.502c57.333 52.333 86 119.169 86 200.502s-28.667 140.666 -86 177.999c-26.667 17.333 -57 30.166 -91 38.499s-71.333 12.5 -112 12.5
c-40.667 0.666992 -78.334 -3 -113.001 -11c-125.333 -28 -188 -102 -188 -222c0 -78 30.333 -143.333 91 -196s130.334 -79 209.001 -79s146.667 26.167 204 78.5z" />
    <glyph glyph-name="nine" unicode="9" horiz-adv-x="1235" 
d="M367 591c50.667 -60 122.002 -90.0029 214.002 -90.0029c54.667 0 119.667 13.167 195 39.5s128.666 57.833 159.999 94.5c4 26.667 6 76.834 6 150.501s-14.667 143.834 -44 210.501c-50.667 117.333 -145 176 -283 176c-100.667 0 -179.834 -32.667 -237.501 -98
s-86.5 -147.166 -86.5 -245.499s25.333 -177.5 76 -237.5zM1120 732.997c0 -225.333 -64.168 -417.832 -192.501 -577.499s-302.5 -265.167 -522.5 -316.5l-43 145c140.667 28.667 262.834 89.5 366.501 182.5s168.167 207.167 193.5 342.5c-80 -96 -191.5 -144 -334.5 -144
s-257.5 41.667 -343.5 125s-129 196.5 -129 339.5s46.167 259.5 138.5 349.5s212.833 135 361.5 135c172.667 0 301 -56 385 -168c80 -106.667 120 -244.334 120 -413.001z" />
    <glyph glyph-name="colon" unicode=":" horiz-adv-x="528" 
d="M129 281h270v-281h-270v281zM129 864h270v-281h-270v281z" />
    <glyph glyph-name="semicolon" unicode=";" horiz-adv-x="535" 
d="M128 864h280v-281h-280v281zM127 0v292.998h281v-249c0 -76 -19.667 -139.167 -59 -189.5s-96 -86.166 -170 -107.499l-51 94c46 16 79.333 35.333 100 58s30.667 56.334 30 101.001h-131z" />
    <glyph glyph-name="less" unicode="&#x3c;" horiz-adv-x="868" 
d="M52 663l655 603l102 -110l-551 -493l551 -493l-102 -110z" />
    <glyph glyph-name="equal" unicode="=" horiz-adv-x="835" 
d="M711 508h-588v131h588v-131zM711 280h-588v131h588v-131z" />
    <glyph glyph-name="greater" unicode="&#x3e;" horiz-adv-x="694" 
d="M730 663l-655 -603l-102 110l551 493l-551 493l102 110z" />
    <glyph glyph-name="question" unicode="?" horiz-adv-x="971" 
d="M386 675l-0.00195312 -383.002h-180v485c132 44.667 228.333 83 289 115c155.333 84 233.333 185.667 234 305c0 104.667 -44 171 -132 199c-45.333 14.667 -100 22 -164 22c-136.667 0 -251 -28.667 -343 -86l-59 143c55.333 32 120.5 57.333 195.5 76
s141.5 28 199.5 28s109.333 -3.5 154 -10.5s88.334 -19.167 131.001 -36.5s79 -39.333 109 -66c66.667 -59.333 100 -142.666 100 -249.999c0 -219.333 -140.667 -385.666 -422 -498.999c-33.333 -13.333 -70.666 -27.333 -111.999 -42zM360.998 -9.50195
c-20.667 -20.333 -45.5 -30.5 -74.5 -30.5s-53.5 11 -73.5 33s-30 47.333 -30 76s11 52.5 33 71.5s46.833 28.5 74.5 28.5s51.5 -10.667 71.5 -32s30 -46 30 -74s-10.333 -52.167 -31 -72.5z" />
    <glyph glyph-name="at" unicode="@" horiz-adv-x="1873" 
d="M1207 987c-66.667 14 -125.332 20.999 -175.999 20.999c-120.667 0 -222.167 -42.167 -304.5 -126.5s-123.5 -187.166 -123.5 -308.499c0 -162 75 -243 225 -243c249.333 0 375.666 219 378.999 657zM1440 133.999l91.001 -92c-43.333 -48 -100.333 -87.333 -171 -118
c-121.333 -52.667 -260.333 -79 -417 -79c-193.333 0.666992 -358.666 39 -495.999 115c-144.667 80.667 -243.667 197.334 -297 350.001c-28 80.667 -42 176 -42 286s21.167 219 63.5 327s100.5 201.167 174.5 279.5s164.167 140.166 270.5 185.499s218 68 335 68
s223.5 -14.5 319.5 -43.5s181.5 -71.667 256.5 -128s134 -129.833 177 -220.5s64.5 -193.334 64.5 -308.001c0 -181.333 -51.667 -327.333 -155 -438c-74.667 -80 -170 -119.667 -286 -119c-72 0 -108 61.333 -108 184c0 22.667 1.33301 53 4 91s4 62.667 4 74
c-21.333 -104 -69.666 -188.167 -144.999 -252.5s-168.333 -96.5 -279 -96.5s-197.667 35.667 -261 107s-95 160.5 -95 267.5s27.167 202.167 81.5 285.5s125.166 149 212.499 197s178.333 72 273 72c59.333 0 154.333 -10.667 285 -32l55 -109v-670h3
c167.333 0 251 147 251 441c0 278.667 -129.333 454.334 -388 527.001c-76 21.333 -164.5 32 -265.5 32s-195.5 -18.5 -283.5 -55.5s-161.333 -88.167 -220 -153.5c-122.667 -136.667 -184.334 -313.334 -185.001 -530.001c-0.666992 -237.333 91.666 -406 276.999 -506
c110 -58.667 246.333 -88 409 -88c98 0 186.333 11.333 265 34s152.667 61.334 222 116.001z" />
    <glyph glyph-name="A" unicode="A" horiz-adv-x="1501" 
d="M1067 485l-317 975l-317 -975h634zM1100 383h-700l-123 -383h-193l516 1579h300l516 -1579h-193z" />
    <glyph glyph-name="B" unicode="B" horiz-adv-x="1350" 
d="M996 1186c0 34 -5.16602 64 -15.499 90s-23.5 47.667 -39.5 65s-37 32 -63 44s-50.667 21.333 -74 28c-24 6 -52.667 11 -86 15c-46 5.33301 -103.333 8 -172 8h-229v-521h259c116 -0.666992 200.333 8.33301 253 27c55.333 19.333 95.666 46.333 120.999 81
c30.667 42.667 46 97 46 163zM543.001 143c113.333 0 187.998 3.33105 223.998 9.99805s67.333 13.834 94 21.501s48.834 16.834 66.501 27.501s35.834 24 54.501 40c18 16 32.333 34.667 43 56c24 47.333 36 97.333 36 150s-4.83301 95.334 -14.5 128.001
s-22.5 60 -38.5 82s-36.667 41 -62 57s-50.666 28.333 -75.999 37c-26.667 9.33301 -57.334 16.666 -92.001 21.999c-52.667 8 -118.667 12 -198 12h-263v-643h226zM835.999 861.998c131.333 -14.667 231.996 -57.334 301.996 -128.001s105 -170.667 105 -300
c0.666992 -152 -59.666 -263.333 -180.999 -334c-114.667 -66.667 -287.667 -100 -519 -100h-420v1579h361c144.667 0 239.334 -4 284.001 -12s84.834 -16.5 120.501 -25.5s65.5 -20 89.5 -33s48.667 -29.5 74 -49.5c24.667 -19.333 44.334 -41.666 59.001 -66.999
c33.333 -56.667 50 -130.167 50 -220.5s-27.333 -160.5 -82 -210.5s-135.667 -83 -243 -99z" />
    <glyph glyph-name="C" unicode="C" horiz-adv-x="1328" 
d="M1151 1385c-130 48.667 -241.499 72.999 -334.499 72.999s-168.667 -13 -227 -39s-104.666 -59.667 -138.999 -101s-62 -92.5 -83 -153.5s-35 -121.333 -42 -181s-10.5 -126.167 -10.5 -199.5s3.66699 -140.166 11 -200.499s21.666 -120.833 42.999 -181.5
s49.166 -111.5 83.499 -152.5s80.5 -74.333 138.5 -100s125.667 -38.5 203 -38.5c74.667 -0.666992 176.667 25.666 306 78.999l68 28l56 -139c-118 -48 -206 -80 -264 -96s-128 -24 -210 -24s-161.333 14.833 -238 44.5s-139.334 69.834 -188.001 120.501
c-49.333 49.333 -90 110 -122 182c-58.667 131.333 -88 292 -88 482c0 421.333 138.667 681.333 416 780c77.333 28 165.333 42 264 42c74.667 0 134.334 -5.66699 179.001 -17s73.5 -18.833 86.5 -22.5l67.5 -20l69 -20.5z" />
    <glyph glyph-name="D" unicode="D" horiz-adv-x="1469" 
d="M698 1436l-381 -0.000976562v-1293h381c76 0 142 12.333 198 37s100.333 56.667 133 96s59 88.333 79 147c32 96.667 48 218.667 48 366c0 292.667 -65.667 484.334 -197 575.001c-68.667 48 -155.667 72 -261 72zM698 1579c439.333 0 659 -263.167 659 -789.5
s-219.667 -789.5 -659 -789.5h-575v1579h575z" />
    <glyph glyph-name="E" unicode="E" horiz-adv-x="1219" 
d="M1106 0h-983v1579h970v-143h-776v-545h678v-115h-678v-633h789v-143z" />
    <glyph glyph-name="F" unicode="F" horiz-adv-x="1154" 
d="M319 762v-762h-196v1579h921v-143h-725v-557h664v-117h-664z" />
    <glyph glyph-name="G" unicode="G" horiz-adv-x="1473" 
d="M888 -29c-46 -8 -100.001 -11.999 -162.001 -11.999s-124.5 11.167 -187.5 33.5s-117.167 53.333 -162.5 93s-85 85.5 -119 137.5s-61.333 109.333 -82 172c-40.667 123.333 -61 242.833 -61 358.5s7.33301 213.667 22 294s38.667 155.5 72 225.5s75.333 129.667 126 179
c108.667 105.333 260 158 454 158c153.333 0 300.666 -44.667 441.999 -134l-66 -135c-44 37.333 -101.833 66.166 -173.5 86.499s-137.667 30.5 -198 30.5s-113.5 -6.83301 -159.5 -20.5s-85 -32.167 -117 -55.5s-60.167 -52.333 -84.5 -87s-43.833 -70.667 -58.5 -108
s-26.334 -79.666 -35.001 -126.999c-15.333 -84 -23 -164.167 -23 -240.5s1.66699 -136.333 5 -180s9.66602 -88.834 18.999 -135.501s21.333 -88.667 36 -126s34.334 -73 59.001 -107s53.334 -62.333 86.001 -85c70.667 -49.333 161.334 -74.333 272.001 -75
c100.667 0.666992 186.334 21.667 257.001 63c79.333 46.667 119 121.667 119 225v285h-402v127h587v-811h-88l-53 213c-12 -48 -34.5 -89.5 -67.5 -124.5s-72.5 -61.333 -118.5 -79s-92 -30.5 -138 -38.5z" />
    <glyph glyph-name="H" unicode="H" horiz-adv-x="1467" 
d="M1149 0v764h-832v-764h-194v1579h194v-700h832v700h194v-1579h-194z" />
    <glyph glyph-name="I" unicode="I" horiz-adv-x="823" 
d="M114 112h204v1349h-204v118h593v-118h-206v-1349h206v-112h-593v112z" />
    <glyph glyph-name="J" unicode="J" horiz-adv-x="727" 
d="M136 -90l-47 127.001c124.667 19.333 207 51.333 247 96c26 30 42.333 56.333 49 79s11.667 42 15 58c4 16 6.66699 36.667 8 62c2.66699 34.667 3.66699 83.667 3 147v1100h192v-1065c0.666992 -174.667 -17.666 -302.667 -54.999 -384
c-33.333 -74.667 -80 -128.334 -140 -161.001c-70.667 -39.333 -161.334 -59 -272.001 -59z" />
    <glyph glyph-name="K" unicode="K" horiz-adv-x="1366" 
d="M317 747v-747h-194v1579h194v-725h223l490 725h193l-529 -781l596 -798h-203l-555 747h-215z" />
    <glyph glyph-name="L" unicode="L" horiz-adv-x="1175" 
d="M1063 0h-940v1579h194v-1436h746v-143z" />
    <glyph glyph-name="M" unicode="M" horiz-adv-x="1779" 
d="M791 0l-513 1469v-1469h-155v1579h291l475 -1401l475 1401h291v-1579h-155v1469l-513 -1469h-196z" />
    <glyph glyph-name="N" unicode="N" horiz-adv-x="1500" 
d="M1214 145v1434h162v-1579h-262l-829 1434v-1434h-162v1579h262z" />
    <glyph glyph-name="O" unicode="O" horiz-adv-x="1536" 
d="M1404 1044c13.333 -79.333 19.999 -165.501 19.999 -258.501s-6.5 -178.667 -19.5 -257s-35.333 -153.166 -67 -224.499s-72.167 -132 -121.5 -182c-106.667 -108.667 -256 -163 -448 -163c-276 -0.666992 -464.667 113 -566 341c-58.667 130.667 -88 292 -88 484
c0 294.667 68 514.667 204 660c48 50.667 109.167 91 183.5 121s159.833 45 256.5 45s183.834 -14.333 261.501 -43s141.5 -67.667 191.5 -117s91.333 -109.5 124 -180.5s55.667 -146.167 69 -225.5zM1224 783.999c0 205.333 -26.998 357.999 -80.998 457.999
c-51.333 95.333 -119.666 158.333 -204.999 189c-49.333 18 -103.333 27 -162 27s-110.334 -7 -155.001 -21s-82.5 -32.833 -113.5 -56.5s-58.333 -53.167 -82 -88.5s-42.334 -71.833 -56.001 -109.5s-24.834 -79.834 -33.501 -126.501
c-14.667 -79.333 -22 -159.166 -22 -239.499s2.5 -145.666 7.5 -195.999s13.5 -102 25.5 -155s29.333 -100.167 52 -141.5c22.667 -40 50.667 -76.667 84 -110c69.333 -68 168 -102.333 296 -103c296.667 0 445 224.333 445 673z" />
    <glyph glyph-name="P" unicode="P" horiz-adv-x="1330" 
d="M487 784c142.667 0 237.168 6.00195 283.501 18.002s86.166 25.333 119.499 40c32 15.333 58 33.333 78 54c46.667 48.667 70 106 70 172s-5.16699 119.167 -15.5 159.5s-27.333 73.166 -51 98.499s-48.167 45.666 -73.5 60.999s-60 26.333 -104 33
c-70.667 10.667 -158 16 -262 16h-215v-652h170zM1220 1116c0 -54 -5.5 -101.331 -16.5 -141.998s-25.333 -75.834 -43 -105.501s-40.667 -56.5 -69 -80.5s-57 -43.833 -86 -59.5s-63.667 -29.334 -104 -41.001s-77.833 -20.5 -112.5 -26.5c-34 -6 -74.333 -10.667 -121 -14
c-74 -5.33301 -154.333 -8 -241 -8h-110v-639h-194v1579h397c191.333 -0.666992 333 -17.667 425 -51c90.667 -33.333 157 -80 199 -140c50.667 -72 76 -162.667 76 -272z" />
    <glyph glyph-name="Q" unicode="Q" horiz-adv-x="1549" 
d="M776 1458c-308.667 0 -463.001 -224.667 -463.001 -674c0 -296 66.667 -494.667 200 -596c68.667 -52 156.334 -77.667 263.001 -77c278 0.666992 430.667 179 458 535c3.33301 42.667 5 88.667 5 138c0 449.333 -154.333 674 -463 674zM1439 794
c0 -85.333 -4.83203 -162.334 -14.499 -231.001s-27 -137.167 -52 -205.5s-56.833 -128 -95.5 -179s-89.167 -95.167 -151.5 -132.5s-133.833 -62.333 -214.5 -75l379 -264l-119 -131l-493 389c-146 16 -261 65.667 -345 149c-83.333 84 -141 184 -173 300
c-32 116.667 -48 231.334 -48 344.001s7.16699 208.334 21.5 287.001s38.166 153 71.499 223s75 130 125 180c108 108 256.667 162 446 162c274.667 0 465.334 -114.333 572.001 -343c61.333 -130.667 91.666 -288.334 90.999 -473.001z" />
    <glyph glyph-name="R" unicode="R" horiz-adv-x="1333" 
d="M1032 0l3.99707 312c0 130.667 -14 220 -42 268c-26.667 48 -64 81.667 -112 101c-62.667 25.333 -127.167 40.333 -193.5 45s-130.166 7 -191.499 7h-180v-733h-194v1579h376c160 0 261.167 -3.66699 303.5 -11s83.5 -15.833 123.5 -25.5s71.833 -21.334 95.5 -35.001
s49.334 -31.167 77.001 -52.5s48.834 -45.666 63.501 -72.999c36 -64.667 54 -138.667 54 -222c0 -112 -40.167 -200.5 -120.5 -265.5s-177.833 -97.5 -292.5 -97.5c206 -23.333 333.667 -99 383 -227c18.667 -49.333 28 -107 28 -173v-397h-182zM611.997 1437
l-113 -1.00195h-182v-574h241c214.667 0 357 38 427 114c40.667 44.667 61 102.667 61 174c0 106.667 -35 181.334 -105 224.001c-43.333 26.667 -87.333 43.334 -132 50.001c-64 8.66699 -129.667 13 -197 13z" />
    <glyph glyph-name="S" unicode="S" horiz-adv-x="1096" 
d="M70 72l19.998 149.995c76 -40 143.667 -68.5 203 -85.5s120 -25.5 182 -25.5s111.833 2.5 149.5 7.5s74.834 14.167 111.501 27.5s67.334 31.333 92.001 54c55.333 50 83 122 83 216c0 93.333 -38.333 166 -115 218c-62 42 -134.167 75.833 -216.5 101.5l-199 63.5
c-50.333 16.667 -98.166 37 -143.499 61c-45.333 22.667 -85.666 49.334 -120.999 80.001c-76.667 66 -115 158.333 -115 277c0 66.667 14.5 125.834 43.5 177.501s67.5 92.834 115.5 123.501c96.667 61.333 210 92 340 92c180.667 0 345 -42 493 -126l-30 -147
c-57.333 36.667 -122 66 -194 88s-134.833 33 -188.5 33s-96.5 -1.5 -128.5 -4.5s-65.5 -9.66699 -100.5 -20s-64.167 -24.166 -87.5 -41.499c-53.333 -40.667 -80 -102 -80 -184c0 -80 38.333 -141.333 115 -184c53.333 -30 123.5 -57.167 210.5 -81.5
s155.667 -44.666 206 -60.999s98.166 -37 143.499 -62s85.666 -54.167 120.999 -87.5c76.667 -72 115 -174 115 -306c0 -188 -77.667 -321 -233 -399c-90.667 -45.333 -200.667 -68 -330 -68c-78 0 -160 9.66699 -246 29s-158 47.333 -216 84z" />
    <glyph glyph-name="T" unicode="T" horiz-adv-x="1341" 
d="M1224 1436h-458v-1436h-190v1436h-460v143h1108v-143z" />
    <glyph glyph-name="U" unicode="U" horiz-adv-x="1499" 
d="M748 -41c-96 0 -180 12.502 -252 37.502s-131.333 59.167 -178 102.5c-48 43.333 -86.667 97.333 -116 162c-53.333 116.667 -80 268 -80 454v864h192v-868c0 -174.667 16 -302.334 48 -383.001c30 -76 73.333 -131.667 130 -167c65.333 -40.667 150.666 -61 255.999 -61
c158.667 0 270 45.333 334 136c40.667 57.333 66.334 117.333 77.001 180c15.333 91.333 23 189.666 23 294.999v868h196v-864c0 -290 -65.333 -495.333 -196 -616c-101.333 -93.333 -246 -140 -434 -140z" />
    <glyph glyph-name="V" unicode="V" horiz-adv-x="1406" 
d="M582 0l-496 1579h184l434 -1399l434 1399h182l-494 -1579h-244z" />
    <glyph glyph-name="W" unicode="W" horiz-adv-x="2020" 
d="M1147 1489l294 -1314l310 1404h180l-356 -1579h-266l-299 1333l-299 -1333h-267l-356 1579h181l310 -1404l294 1314h274z" />
    <glyph glyph-name="X" unicode="X" horiz-adv-x="1404" 
d="M314 0h-218l497 800l-495 779h196l408 -656l408 656h196l-495 -779l497 -800h-218l-388 626z" />
    <glyph glyph-name="Y" unicode="Y" horiz-adv-x="1383" 
d="M696 677l413 902h191l-514 -1094v-485h-190v485l-514 1094h197z" />
    <glyph glyph-name="Z" unicode="Z" horiz-adv-x="1270" 
d="M1149 1579v-160l-833 -1276h835v-143h-1032v180l829 1267h-829v132h1030z" />
    <glyph glyph-name="bracketleft" unicode="[" horiz-adv-x="900" 
d="M121 1579h664v-143h-471v-1293h471v-143h-664v1579z" />
    <glyph glyph-name="backslash" unicode="\" horiz-adv-x="714" 
d="M125 1731l623 -1845l-160 -58l-621 1851z" />
    <glyph glyph-name="bracketright" unicode="]" horiz-adv-x="900" 
d="M116 1579h664v-1579h-664v143h471v1293h-471v143z" />
    <glyph glyph-name="asciicircum" unicode="^" horiz-adv-x="877" 
d="M438 809l-212 -377l-128 78l292 501h96l292 -501l-128 -78z" />
    <glyph glyph-name="underscore" unicode="_" horiz-adv-x="1187" 
d="M1063 -111h-940v144h940v-144z" />
    <glyph glyph-name="grave" unicode="`" horiz-adv-x="458" 
d="M424 356l-67 -26l-328 555l242 89z" />
    <glyph glyph-name="a" unicode="a" horiz-adv-x="1193" 
d="M549 117c114 0 226 51.332 336 153.999v298c-87.333 14 -162.333 21 -225 21s-108.5 -1.66699 -137.5 -5s-58 -10 -87 -20s-52.833 -23.333 -71.5 -40c-42 -37.333 -63 -96.166 -63 -176.499s20 -139 60 -176s102.667 -55.5 188 -55.5zM885 664.999v48.002
c-0.666992 145.333 -24.334 238 -71.001 278c-44 37.333 -103 56 -177 56c-140.667 0 -269.667 -37.333 -387 -112l-67 122c76.667 43.333 147.834 76.333 213.501 99s139.667 34 222 34s153.833 -9.16699 214.5 -27.5s109 -48.833 145 -91.5s61.167 -94.334 75.5 -155.001
s21.5 -137.334 21.5 -230.001v-686h-140l-28 178c-96.667 -132 -231.667 -198 -405 -198c-122.667 0 -218.667 30.5 -288 91.5s-104 151.5 -104 271.5c0 126 44.667 220.667 134 284c82.667 58.667 186 88 310 88c46 0 103 -4.83301 171 -14.5s121.333 -21.5 160 -35.5z" />
    <glyph glyph-name="b" unicode="b" horiz-adv-x="1252" 
d="M662 -20c-68 0 -133.834 18.333 -197.501 55s-120.5 84.334 -170.5 143.001l-28 -178h-140v1579l190 35v-584c44.667 44.667 99.334 82.5 164.001 113.5s128.167 46.5 190.5 46.5s120.833 -11.667 175.5 -35s100 -54.333 136 -93s66 -84.667 90 -138
c45.333 -99.333 68 -214 68 -344c0 -206.667 -53 -365.334 -159 -476.001c-78.667 -82.667 -185 -124 -319 -124zM957.999 584c0 308.667 -95.668 463 -287.001 463c-57.333 0 -120.166 -14 -188.499 -42s-123.833 -62.333 -166.5 -103v-629
c105.333 -104 223.666 -156 354.999 -156c80.667 0.666992 142.334 27 185.001 79c42 52 68 104.333 78 157c16 85.333 24 162.333 24 231z" />
    <glyph glyph-name="c" unicode="c" horiz-adv-x="1115" 
d="M310 717c-6 -42 -8.99902 -100.332 -8.99902 -174.999s13.333 -148 40 -220c50.667 -136.667 145 -205 283 -205c134 0 243.667 42.667 329 128l57 -134c-124.667 -87.333 -255 -131 -391 -131c-84.667 0 -160.334 16 -227.001 48c-66 32 -119 76 -159 132
c-81.333 113.333 -122 253.333 -122 420c0.666992 168 41.667 310 123 426c40 57.333 93.333 102.333 160 135s142.667 49 228 49c134 0 263.333 -44.333 388 -133l-57 -133c-89.333 77.333 -189.666 116 -300.999 116s-194.333 -31.667 -249 -95
c-24.667 -28.667 -44.834 -63.334 -60.501 -104.001s-26.5 -82 -32.5 -124z" />
    <glyph glyph-name="d" unicode="d" horiz-adv-x="1253" 
d="M129.5 402c-11 57.333 -16.5 116.834 -16.5 178.501s5.33301 120.5 16 176.5s27.834 110.5 51.501 163.5s52.834 99.167 87.501 138.5c78 87.333 180.333 131 307 131c66 0 133.5 -14.833 202.5 -44.5s123.167 -68.834 162.5 -117.501v586l190 -35v-1579h-141l-28 179
c-44 -56.667 -98.833 -104 -164.5 -142s-132.334 -57 -200.001 -57s-129 11.167 -184 33.5s-100.833 52.333 -137.5 90s-67.334 82.5 -92.001 134.5s-42.5 106.667 -53.5 164zM587 1047c-194.667 0 -291.998 -155 -291.998 -465s99.333 -465 298 -465
c61.333 0 124.166 14.667 188.499 44s117.166 67.333 158.499 114v628c-126 96 -243.667 144 -353 144z" />
    <glyph glyph-name="e" unicode="e" horiz-adv-x="1182" 
d="M903 717c0 95.333 -20.001 174.333 -60.001 237c-44 68 -115.333 102.333 -214 103c-195.333 0 -303.666 -125 -324.999 -375h599v35zM299.999 563c2.66699 -226.667 72.6641 -367.332 209.997 -421.999c40 -16 86.333 -24 139 -24c112.667 0 214.667 42.333 306 127
l62 -145c-49.333 -34.667 -109.833 -63.167 -181.5 -85.5s-144.667 -33.5 -219 -33.5s-145.5 15.333 -213.5 46c-68.667 31.333 -123.667 74.333 -165 129c-84 110 -125.667 251 -125 423c0.666992 167.333 42.334 309 125.001 425c41.333 57.333 95.333 102.833 162 136.5
s139.834 50.5 219.501 50.5s148.334 -13.5 206.001 -40.5s104.167 -64.167 139.5 -111.5c70.667 -94.667 106 -215.334 106 -362.001c0 -30 -3.66699 -67.667 -11 -113h-760z" />
    <glyph glyph-name="f" unicode="f" horiz-adv-x="898" 
d="M447 1324l5.00098 -155h348v-105h-348v-1064h-190v1064h-195v105h195c0 134 11.333 233.667 34 299c21.333 62.667 54 108.667 98 138c51.333 34.667 117.666 52.334 198.999 53.001c78 0 158.667 -30.667 242 -92l-63 -125c-54.667 49.333 -103 74 -145 74
s-74.667 -4.83301 -98 -14.5s-41 -23.834 -53 -42.501c-20 -31.333 -29.667 -76.333 -29 -135z" />
    <glyph glyph-name="g" unicode="g" horiz-adv-x="1225" 
d="M252.5 -178c8.33301 -19.333 20.999 -34.8301 37.999 -46.4971s38.667 -23.334 65 -35.001s87.5 -17.5 183.5 -17.5h66c22.667 0 57.667 1 105 3c46.667 1.33301 95.334 11.666 146.001 30.999c65.333 24.667 98 68.667 98 132c0 64 -21.333 111.333 -64 142
c-42 30 -119 45 -231 45h-322c-30.667 -19.333 -54.5 -45.833 -71.5 -79.5s-25.5 -66.334 -25.5 -98.001s4.16699 -57.167 12.5 -76.5zM330.499 671.503c34.333 -56.333 78.168 -96.168 131.501 -119.501c35.333 0 98.333 10.333 189 31c35.333 8.66699 69 27 101 55
c46.667 40.667 70 114.667 70 222c0 64 -17.333 112 -52 144c-40 36 -111.667 54 -215 54c-76.667 0 -140.334 -14.667 -191.001 -44c-26.667 -16 -47.5 -38.333 -62.5 -67s-22.5 -67.667 -22.5 -117s17.167 -102.166 51.5 -158.499zM575.001 217.001
c93.333 0 178.007 -6.99902 254.007 -20.999c43.333 -8 81.333 -19.667 114 -35s62.5 -34.5 89.5 -57.5s47.667 -52.333 62 -88s21.5 -77.5 21.5 -125.5s-11.833 -91.667 -35.5 -131s-53.334 -70.333 -89.001 -93s-77.834 -41.334 -126.501 -56.001
s-94.834 -24.5 -138.501 -29.5s-94.834 -7.5 -153.501 -7.5c-58 0 -116.333 3.66699 -175 11c-210.667 26.667 -316 123.667 -316 291c0 104.667 55.333 182 166 232c-35.333 24 -64 55.167 -86 93.5s-33 80.5 -33 126.5s18.167 87.833 54.5 125.5s80.166 60.5 131.499 68.5
c-62 27.333 -110.333 71.833 -145 133.5s-52 133 -52 214s32 149.5 96 205.5c88.667 77.333 203.667 116 345 116c121.333 0 214.666 -25.333 279.999 -76c44.667 23.333 90.167 38.5 136.5 45.5s102.5 10.833 168.5 11.5v-145h-238c55.333 -32.667 83 -107 83 -223
c-0.666992 -116 -38.334 -202.333 -113.001 -259c-33.333 -25.333 -71.666 -46.666 -114.999 -63.999s-87.5 -29.333 -132.5 -36l-132.5 -20c-43.333 -6.66699 -81.833 -12.834 -115.5 -18.501s-60.834 -15.5 -81.501 -29.5s-31 -33.667 -31 -59s7 -61 21 -107z" />
    <glyph glyph-name="h" unicode="h" horiz-adv-x="1229" 
d="M669 1047c-50 0 -111.168 -15.168 -183.501 -45.501s-129.833 -68.166 -172.5 -113.499v-888h-190v1579l190 37v-605c61.333 56 122.833 99.833 184.5 131.5s129.834 47.5 204.501 47.5c142 0 245.5 -39.5 310.5 -118.5s97.5 -193.833 97.5 -344.5v-727h-190v727
c0 118.667 -22 203.667 -66 255c-37.333 43.333 -99 65 -185 65z" />
    <glyph glyph-name="i" unicode="i" horiz-adv-x="468" 
d="M324 0h-182v1169h182v-1169zM157.5 1543c21.667 22.667 48.333 33.999 80 33.999s57.5 -11.167 77.5 -33.5s30 -49.5 30 -81.5s-10 -59.167 -30 -81.5s-46 -33.5 -78 -33.5s-58.667 11.167 -80 33.5s-32 49.333 -32 81s10.833 58.834 32.5 81.501z" />
    <glyph glyph-name="j" unicode="j" horiz-adv-x="606" 
d="M93 -258c94 61.333 150.999 138.667 170.999 232c10.667 52.667 16.334 120 17.001 202v993h190v-1015c0 -117.333 -25.333 -225.333 -76 -324c-25.333 -49.333 -59.833 -92 -103.5 -128s-94.167 -61 -151.5 -75zM295.499 1543c21.667 22.667 48.333 33.999 80 33.999
s57.5 -11.167 77.5 -33.5s30 -49.5 30 -81.5s-10 -59.167 -30 -81.5s-46 -33.5 -78 -33.5s-58.667 11.167 -80 33.5s-32 49.333 -32 81s10.833 58.834 32.5 81.501z" />
    <glyph glyph-name="k" unicode="k" horiz-adv-x="1213" 
d="M1099 1169l-553 -521l586 -648h-221l-480 555l-116 -96v-459h-190v1579l190 35v-987l559 542h225z" />
    <glyph glyph-name="l" unicode="l" horiz-adv-x="437" 
d="M123 0v1579l190 35v-1614h-190z" />
    <glyph glyph-name="m" unicode="m" horiz-adv-x="1901" 
d="M1005 967c46 67.333 107.166 121.333 183.499 162s149.833 61 220.5 61s129.334 -11.333 176.001 -34s84 -54 112 -94c56 -79.333 84 -178 84 -296v-766h-190v768c0.666992 106.667 -16.333 180.667 -51 222c-31.333 37.333 -79 56.333 -143 57
c-120.667 0 -241.334 -63 -362.001 -189v-858h-190v768c0 108.667 -16.667 183 -50 223c-31.333 37.333 -78.666 56 -141.999 56c-102 0 -215.333 -62.333 -340 -187v-860h-190v1169h141l27 -206c42.667 68 99.167 122.833 169.5 164.5s144.333 62.5 222 62.5
s145 -19.333 202 -58s97.167 -93.667 120.5 -165z" />
    <glyph glyph-name="n" unicode="n" horiz-adv-x="1227" 
d="M313 880l-0.000976562 -879.999h-190v1169h140l24 -187c46 58 113.167 106.833 201.5 146.5s168.333 59.5 240 59.5s132 -12.167 181 -36.5s87.5 -58.166 115.5 -101.499c54.667 -84.667 82 -192.334 82 -323.001v-727h-190v727c-0.666992 116.667 -21.667 201 -63 253
c-35.333 44 -84.333 66.167 -147 66.5s-133.167 -17.334 -211.5 -53.001s-139.166 -73.5 -182.499 -113.5z" />
    <glyph glyph-name="o" unicode="o" horiz-adv-x="1285" 
d="M294 582c0 -48.667 3.33789 -94.332 10.0049 -136.999s18.334 -84.5 35.001 -125.5s37.667 -76.167 63 -105.5c56.667 -64.667 136.667 -97 240 -97c149.333 -0.666992 250.666 66.333 303.999 201c29.333 74.667 44 162.667 44 264
c0 233.333 -69.333 380.666 -208 441.999c-40.667 18 -87.334 27 -140.001 27s-99.334 -9 -140.001 -27s-73.834 -41.833 -99.501 -71.5s-46.834 -65.167 -63.501 -106.5s-28.334 -83.5 -35.001 -126.5s-10 -88.833 -10 -137.5zM112.005 582.002
c0 84.667 11 163.169 33 235.502s54.333 136.5 97 192.5s98.167 100 166.5 132s146.166 48 233.499 48s165.333 -16 234 -48s124.334 -75.833 167.001 -131.5s75 -119.834 97 -192.501s33 -151.334 33 -236.001s-11 -163 -33 -235s-54.333 -135.5 -97 -190.5
s-98.334 -98.167 -167.001 -129.5s-146.667 -47 -234 -47s-165.166 15.667 -233.499 47s-123.833 74.5 -166.5 129.5s-75 118.5 -97 190.5s-33 150.333 -33 235z" />
    <glyph glyph-name="p" unicode="p" horiz-adv-x="1256" 
d="M674 -20c-66.667 0 -131.667 16.835 -195 50.502s-117.666 78.167 -162.999 133.5v-629l-190 -22v1656h141l33 -198c47.333 63.333 103.666 115.666 168.999 156.999s132.5 62 201.5 62s130.333 -11.5 184 -34.5s98.167 -53.833 133.5 -92.5s65 -84.334 89 -137.001
c44.667 -98 67 -212 67 -342c0 -202 -52.667 -360.667 -158 -476c-77.333 -85.333 -181.333 -128 -312 -128zM953.5 416.502c5.66699 39 8.50195 79 8.50195 120s-1.16699 78 -3.5 111s-6.83301 69.833 -13.5 110.5s-16.834 77.167 -30.501 109.5s-30.5 62.5 -50.5 90.5
c-43.333 59.333 -106.333 89 -189 89c-55.333 0 -119.333 -16 -192 -48s-128.334 -68.333 -167.001 -109v-605c32.667 -41.333 84.834 -79.666 156.501 -114.999s131.834 -53 180.501 -53s91.167 8.16699 127.5 24.5s65.666 37.666 87.999 63.999s40.666 58.333 54.999 96
s24.333 76 30 115z" />
    <glyph glyph-name="q" unicode="q" horiz-adv-x="1245" 
d="M391 1155c53.333 23.333 114.669 35.002 184.002 35.002s139.166 -20.833 209.499 -62.5s126.5 -93.834 168.5 -156.501l34 198h139v-1648l-190 -23v666c-43.333 -55.333 -96.666 -99.833 -159.999 -133.5s-128.333 -50.5 -195 -50.5s-126.834 11.5 -180.501 34.5
s-98.167 53.833 -133.5 92.5s-65.166 84.167 -89.499 136.5s-41.833 106.833 -52.5 163.5s-16 115.667 -16 177s4.83301 120.166 14.5 176.499s26.167 110.833 49.5 163.5s52.166 98.5 86.499 137.5s78.166 70.167 131.499 93.5zM291.003 584.002
c0.666992 -230 55.666 -375.668 164.999 -437.001c36 -20 80 -30 132 -30s112.833 14.667 182.5 44s124.834 65 165.501 107v623c-42.667 42.667 -99.5 79.334 -170.5 110.001s-136.167 46 -195.5 46c-186 0 -279 -154.333 -279 -463z" />
    <glyph glyph-name="r" unicode="r" horiz-adv-x="831" 
d="M618 1190c38 0 71.334 -4 100.001 -12v-152c-13.333 2.66699 -40 4 -80 4s-94.833 -13.833 -164.5 -41.5s-123.167 -59.167 -160.5 -94.5v-894h-190v1169h143l30 -192c109.333 142 216.666 213 321.999 213z" />
    <glyph glyph-name="s" unicode="s" horiz-adv-x="1007" 
d="M99 100l63.998 144.995c42.667 -36.667 94.5 -67.167 155.5 -91.5s112.5 -36.5 154.5 -36.5s77 3 105 9c28 6.66699 55.333 16.667 82 30c58.667 30 88.334 82.667 89.001 158c0 78 -43.667 135 -131 171c-38.667 16 -81.5 30.5 -128.5 43.5s-94 27.833 -141 44.5
s-89.833 36.834 -128.5 60.501s-70.167 57.334 -94.5 101.001s-36.5 93.334 -36.5 149.001s12 103.334 36 143.001s55.667 70.834 95 93.501c79.333 46.667 168 70 266 70c55.333 0 123.166 -12.333 203.499 -37s139.833 -53.334 178.5 -86.001l-62 -143
c-97.333 78.667 -200.333 118 -309 118c-165.333 0 -248 -54 -248 -162c-0.666992 -57.333 43.666 -102.333 132.999 -135c40 -14.667 83.833 -29.167 131.5 -43.5s95.334 -31.5 143.001 -51.5s91.334 -43.5 131.001 -70.5s71.834 -63.667 96.501 -110s37 -99.333 37 -159
s-12.667 -111.5 -38 -155.5c-26 -44 -60.333 -78.333 -103 -103c-84 -48 -183 -72 -297 -72c-57.333 0 -125.5 11.833 -204.5 35.5s-138.833 51.834 -179.5 84.501z" />
    <glyph glyph-name="t" unicode="t" horiz-adv-x="915" 
d="M815 40c-76 -36 -157.668 -54 -245.001 -54s-157.666 28.833 -210.999 86.5s-80 133.5 -80 227.5v765h-183v104h211v361l162 46v-407h333v-104h-333v-767c0 -49.333 11.833 -90.5 35.5 -123.5s60.167 -49.5 109.5 -49.5s104.333 14.667 165 44z" />
    <glyph glyph-name="u" unicode="u" horiz-adv-x="1210" 
d="M543 117c129.333 0 247.333 52.333 354 157v895h190v-1169h-141l-27 176c-116 -130.667 -244.833 -196 -386.5 -196s-245.667 40.5 -312 121.5s-99.5 194.5 -99.5 340.5v727h190v-727c0.666992 -156 39 -255.333 115 -298c32 -17.333 71 -26.333 117 -27z" />
    <glyph glyph-name="v" unicode="v" horiz-adv-x="1229" 
d="M707 0h-186l-428 1169h188l336 -970l330 970h190z" />
    <glyph glyph-name="w" unicode="w" horiz-adv-x="1751" 
d="M876 996l-248 -996h-206l-329 1169h184l250 -1016l251 1016h202l263 -1018l234 1018h179l-320 -1169h-206z" />
    <glyph glyph-name="x" unicode="x" horiz-adv-x="1183" 
d="M92 1169h216l282 -467l290 467h210l-406 -585l398 -584h-204l-282 477l-288 -477h-212l408 584z" />
    <glyph glyph-name="y" unicode="y" horiz-adv-x="1209" 
d="M624 249l300.997 919.999h195l-437 -1206l-27 -73.5c-6.66699 -18.333 -16 -41.333 -28 -69s-22.667 -49.834 -32 -66.501s-21.166 -36 -35.499 -58s-28.666 -39.667 -42.999 -53s-31.166 -27.166 -50.499 -41.499s-39.666 -25.5 -60.999 -33.5
c-48 -18 -100.333 -27 -157 -27l-51 125c85.333 16 152.333 43.333 201 82c51.333 40.667 97.666 132.334 138.999 275.001l-451 1146h182z" />
    <glyph glyph-name="z" unicode="z" horiz-adv-x="1034" 
d="M916 1169v-165l-626 -859h626v-145h-802v166l638 863h-608v140h772z" />
    <glyph glyph-name="braceleft" unicode="{" horiz-adv-x="766" 
d="M57 571l0.00292969 188h1c94.667 0.666992 158 33.667 190 99c14.667 30.667 25.667 65.334 33 104.001s13 79.334 17 122.001c3.33301 44 7.66602 87.333 12.999 130c11.333 92 43 167.333 95 226c58 65.333 157 98.333 297 99h1l1 -169h-3
c-94 0 -157.333 -25.333 -190 -76c-15.333 -24 -26.5 -51 -33.5 -81s-11.167 -62.667 -12.5 -98s-3.33301 -82.833 -6 -142.5s-17.334 -116.5 -44.001 -170.5c-33.333 -66.667 -97.333 -112.334 -192 -137.001c94.667 -24.667 158.667 -70.334 192 -137.001
c14.667 -30 25.667 -63.667 33 -101s13 -108 17 -212c2.66699 -76.667 18 -136.334 46 -179.001c32.667 -50.667 96 -76 190 -76h3l-1 -169h-1c-140 0.666992 -239 33.667 -297 99c-26.667 30.667 -47.834 65.334 -63.501 104.001s-26.167 79.5 -31.5 122.5
s-11 100.5 -17 172.5c-6 71.333 -21.333 132.333 -46 183c-32 65.333 -95.333 98.333 -190 99h-1z" />
    <glyph glyph-name="bar" unicode="|" horiz-adv-x="436" 
d="M129 -111v1807h178v-1807h-178z" />
    <glyph glyph-name="braceright" unicode="}" horiz-adv-x="766" 
d="M710 571h-0.999023c-94.667 -0.666992 -158 -33.667 -190 -99c-24.667 -50.667 -40 -111.834 -46 -183.501s-11.667 -129 -17 -172s-16 -83.833 -32 -122.5c-15.333 -38.667 -36.333 -73.334 -63 -104.001c-58 -65.333 -157 -98.333 -297 -99h-1l-1 169h3
c94 0 157.333 25.333 190 76c28 42.667 43.333 102.334 46 179.001c4 104 9.66699 174.667 17 212c8 37.333 19.333 71 34 101c33.333 66.667 97 112.334 191 137.001c-94 24.667 -157.667 70.334 -191 137.001c-27.333 55.333 -42.333 112.5 -45 171.5l-6.5 141.5
c-1.66699 35.333 -5.83398 68.333 -12.501 99c-8 29.333 -19.333 56 -34 80c-32 50.667 -95 76 -189 76h-3l1 169h1c140 -0.666992 239 -33.667 297 -99c52 -58.667 83.667 -134 95 -226c5.33301 -42.667 9.83301 -85.667 13.5 -129s9.16699 -84.333 16.5 -123
s18.333 -73.334 33 -104.001c32 -65.333 95.333 -98.333 190 -99h1v-188z" />
    <glyph glyph-name="asciitilde" unicode="~" horiz-adv-x="972" 
d="M410 480c-38.667 20 -66.334 29.832 -83.001 29.499s-29.667 -4.16602 -39 -11.499s-15.333 -18 -18 -32c-5.33301 -23.333 -7.66602 -47.333 -6.99902 -72h-156c0 173.333 67 260 201 260c61.333 0 124 -20.833 188 -62.5s115.833 -62.5 155.5 -62.5s59.5 37 59.5 111
h156c0 -67.333 -16.167 -125.833 -48.5 -175.5s-79 -74.5 -140 -74.5s-150.5 30 -268.5 90z" />
    <glyph glyph-name="uni00A0" unicode="&#xa0;" horiz-adv-x="512" 
 />
    <glyph glyph-name="exclamdown" unicode="&#xa1;" horiz-adv-x="410" 
d="M281 1393h-209v202h209v-202zM296 1180v-1180h-174v1180h174z" />
    <glyph glyph-name="cent" unicode="&#xa2;" horiz-adv-x="1014" 
d="M962 1077l-56.999 -133c-84 61.333 -172.333 92.666 -265 93.999v-908c94 0 182.333 25 265 75l46 -137c-112 -56.667 -215.667 -85.667 -311 -87v-140h-103v137c-80.667 4.66699 -152 24.167 -214 58.5s-111.667 79.5 -149 135.5c-74.667 112 -111.667 248 -111 408
c0 163.333 37 300 111 410c78.667 116.667 199.667 183 363 199v140h103v-143c97.333 -1.33301 204.666 -37.666 321.999 -108.999zM537.001 129v908.002c-189.333 -24 -284 -176.333 -284 -457c0 -90.667 11.333 -169.334 34 -236.001
c44 -130.667 127.333 -202.334 250 -215.001z" />
    <glyph glyph-name="sterling" unicode="&#xa3;" horiz-adv-x="1009" 
d="M116 126c45.333 50.667 80.332 122.668 104.999 216.001s37 180.333 37 261h-197v103h172c-32 24.667 -59.167 62 -81.5 112s-33.5 102.5 -33.5 157.5s18.333 110.833 55 167.5s84.834 100.667 144.501 132s125.5 47 197.5 47s148.5 -8.5 229.5 -25.5
s148.833 -42.833 203.5 -77.5l-50 -131c-126 61.333 -236 92 -330 92c-178.667 0 -268 -73.667 -268 -221c0 -86.667 38.667 -171 116 -253h428v-103h-428c0 -80.667 -10 -165.834 -30 -255.501s-49.667 -161.5 -89 -215.5h616v-132h-797v126z" />
    <glyph glyph-name="currency" unicode="&#xa4;" horiz-adv-x="1180" 
d="M394 1178.5c-58.667 -58.333 -87.999 -125.17 -87.999 -200.503s27.5 -140.666 82.5 -195.999s119.667 -83 194 -83s141.166 29.833 200.499 89.5s89 126.834 89 201.501s-27.333 139.334 -82 194.001s-119.667 82 -195 82s-142.333 -29.167 -201 -87.5zM231.001 741.996
c-45.333 69.333 -68 145.833 -68 229.5s25 162.5 75 236.5l-194 194l124 124l194 -193c74.667 50.667 154 76 238 76s160.667 -22.667 230 -68l186 185l124 -124l-187 -187c40.667 -64.667 61 -138.5 61 -221.5s-25.333 -161.833 -76 -236.5l202 -202l-124 -125l-203 203
c-72.667 -50 -150.667 -75 -234 -75s-157.333 20.333 -222 61l-189 -189l-124 125z" />
    <glyph glyph-name="yen" unicode="&#xa5;" horiz-adv-x="1060" 
d="M398 688l-483 891h194l420 -791l420 791h194l-481 -891h263v-104h-296v-96h296v-99h-296v-389h-190v389h-302v99h302v96h-302v104h261z" />
    <glyph glyph-name="brokenbar" unicode="&#xa6;" horiz-adv-x="430" 
d="M122 889v690h188v-690h-188zM122 0v690h188v-690h-188z" />
    <glyph glyph-name="section" unicode="&#xa7;" horiz-adv-x="924" 
d="M89 20l60.999 137.999c36 -32 81.167 -58 135.5 -78s101.833 -30 142.5 -30s74.834 2.5 102.501 7.5s54.834 13.5 81.501 25.5c58.667 26 88 72.667 88 140c0 60 -26 106 -78 138c-38 23.333 -86.333 43.5 -145 60.5s-105 31.167 -139 42.5s-66.667 25.333 -98 42
c-31.333 16 -59 35.333 -83 58c-52 48.667 -78 117.667 -78 207c0 44.667 13 83.667 39 117c46.667 60 118.667 95.667 216 107c-80 30.667 -136.5 60.834 -169.5 90.501s-55.5 60 -67.5 91s-18 68.833 -18 113.5s11.333 86 34 124c22.667 38.667 52.667 68.667 90 90
c75.333 44 159.666 65.667 252.999 65c51.333 0 115.833 -11.833 193.5 -35.5s133.834 -50.834 168.501 -81.501l-58 -136c-93.333 72 -191.333 108 -294 108c-154 0 -231 -49.667 -231 -149c0.666992 -50 33.667 -88.333 99 -115c70 -29.333 133.5 -52.5 190.5 -69.5
s104.5 -35.5 142.5 -55.5c38 -19.333 71.667 -41 101 -65c65.333 -52.667 98.333 -127.334 99 -224.001c0 -64 -24.833 -116.167 -74.5 -156.5s-107.834 -62.833 -174.501 -67.5c81.333 -28 143.5 -65.667 186.5 -113s64.5 -104.833 64.5 -172.5s-12 -122.667 -36 -165
s-56.5 -75.166 -97.5 -98.499s-85 -40.666 -132 -51.999s-97.167 -17 -150.5 -17s-117.833 11.5 -193.5 34.5s-132.5 50.167 -170.5 81.5zM706.999 750.999c-0.666992 92.667 -58.333 143.667 -173 153c-20 1.33301 -42 2 -66 2c-156.667 0 -235 -51 -235 -153
s79 -153 237 -153s237 50.333 237 151z" />
    <glyph glyph-name="dieresis" unicode="&#xa8;" horiz-adv-x="820" 
d="M93.5 577c21.667 22.667 48.333 33.999 80 33.999s57.5 -11.167 77.5 -33.5s30 -49.5 30 -81.5s-10 -59.167 -30 -81.5s-46 -33.5 -78 -33.5s-58.667 11.167 -80 33.5s-32 49.333 -32 81s10.833 58.834 32.5 81.501zM583.499 576.999
c21.667 22.667 48.333 33.999 80 33.999s57.5 -11.167 77.5 -33.5s30 -49.5 30 -81.5s-10 -59.167 -30 -81.5s-46 -33.5 -78 -33.5s-58.667 11.167 -80 33.5s-32 49.333 -32 81s10.833 58.834 32.5 81.501z" />
    <glyph glyph-name="copyright" unicode="&#xa9;" horiz-adv-x="1817" 
d="M947 336c-169.333 0 -298.666 41 -387.999 123s-134 206 -134 372s44.667 290 134 372s218.666 123 387.999 123c85.333 0 178.666 -26 279.999 -78v-126c-100 50.667 -198 76 -294 76c-127.333 0 -216.833 -28.5 -268.5 -85.5s-77.5 -150.833 -77.5 -281.5
s25.833 -224.5 77.5 -281.5s141.167 -85.5 268.5 -85.5c96 0 194 25.333 294 76v-126c-101.333 -52 -194.666 -78 -279.999 -78zM105.5 1165c47 106 110 197 189 273s172.167 136.5 279.5 181.5s219.333 67.5 336 67.5s228.667 -22.5 336 -67.5s200.5 -105.5 279.5 -181.5
s142 -167 189 -273s70.5 -217.667 70.5 -335c0 -158.667 -39.5 -303.5 -118.5 -434.5s-185.333 -233.5 -319 -307.5s-279.5 -111 -437.5 -111c-118.667 0 -231.667 21.833 -339 65.5s-200.333 102.834 -279 177.501s-141.167 165.167 -187.5 271.5
s-69.5 218.666 -69.5 336.999s23.5 230.5 70.5 336.5zM277 455.5c62.667 -111 149.333 -197.833 260 -260.5s235 -94 373 -94s262.333 31.333 373 94s197.334 149.5 260.001 260.5s94 235.5 94 373.5c0 98 -19.167 192.167 -57.5 282.5s-89.833 168.5 -154.5 234.5
s-142 118.5 -232 157.5s-192.667 58.5 -308 58.5s-228.833 -33 -340.5 -99s-199.834 -155.167 -264.501 -267.5s-97 -236 -97 -371s31.333 -258 94 -369z" />
    <glyph glyph-name="ordfeminine" unicode="&#xaa;" horiz-adv-x="913" 
d="M121 575h684v-129h-684v129zM261.5 823c29 -28 72.333 -42 130 -42s108.667 11.333 153 34s79.5 52 105.5 88v238c-73.333 11.333 -132 17 -176 17c-170.667 0 -256 -62.333 -256 -187c0 -70.667 14.5 -120 43.5 -148zM458 1513
c-108 0 -204.999 -23.332 -290.999 -69.999l-53 109c46 26.667 99.667 47.667 161 63s123.666 23 186.999 23s118.5 -8 165.5 -24s83.833 -41.333 110.5 -76c48 -62.667 72.333 -163.667 73 -303v-549h-116l-27 142c-22.667 -50.667 -62.334 -90 -119.001 -118
s-115 -42 -175 -42c-96 0 -172.833 25.167 -230.5 75.5s-86.5 122.5 -86.5 216.5c0 145.333 74.333 238.666 223 279.999c42 12 94.5 18 157.5 18s133.833 -13.333 212.5 -40v58c0 78 -8.5 132 -25.5 162s-38.667 50 -65 60s-60.166 15 -101.499 15z" />
    <glyph glyph-name="guillemotleft" unicode="&#xab;" horiz-adv-x="1273" 
d="M1231 842l-437 -265l437 -271v-207l-608 382v185l608 383v-207zM623 842l-436 -265l436 -271v-207l-608 382v185l608 383v-207z" />
    <glyph glyph-name="logicalnot" unicode="&#xac;" horiz-adv-x="1452" 
d="M1355 338h-176v685h-1178v151h1354v-836z" />
    <glyph glyph-name="uni00AD" unicode="&#xad;" horiz-adv-x="591" 
d="M536 508h-468v131h468v-131z" />
    <glyph glyph-name="registered" unicode="&#xae;" horiz-adv-x="1233" 
d="M594 1150c73.333 0 118.667 17 136 51c8 14.667 12 33 12 55c0 46.667 -54.333 70 -163 70h-33v-176h48zM816.001 1340c20 -21.333 29.999 -53.333 29.999 -96s-13.333 -76.167 -40 -100.5s-68.667 -43.5 -126 -57.5l180 -250
c-9.33301 -3.33301 -42.666 -20.333 -99.999 -51l-174 283h-43v-261h-106v601h120c128.667 0 215 -22.667 259 -68zM910 614.5c-90 -48.333 -187.831 -72.502 -293.498 -72.502s-203.334 24.167 -293.001 72.5s-161.334 116 -215.001 203s-80.5 183.667 -80.5 290
s27 203 81 290s126 154.833 216 203.5s187.5 73 292.5 73s202.5 -24.167 292.5 -72.5s162 -116.166 216 -203.499s81 -184.166 81 -290.499s-27 -203 -81 -290s-126 -154.667 -216 -203zM374.502 699.998c73 -39.333 153.331 -59 240.998 -59s168.334 19.833 242.001 59.5
s132.334 95.167 176.001 166.5s65.5 151 65.5 239c0 133.333 -47 244.333 -141 333s-208 133 -342 133c-88 0 -168.5 -20 -241.5 -60s-131 -95.833 -174 -167.5s-64.5 -151.667 -64.5 -240s21.5 -168 64.5 -239s101 -126.167 174 -165.5z" />
    <glyph glyph-name="glyph113" unicode="&#xaf;" horiz-adv-x="836" 
d="M770 98h-682v117h682v-117z" />
    <glyph glyph-name="degree" unicode="&#xb0;" horiz-adv-x="565" 
d="M285 1048c-41.333 0 -75.834 -14.5 -103.501 -43.5s-41.5 -64 -41.5 -105s14.167 -76.167 42.5 -105.5s62.833 -44 103.5 -44s74.167 14.333 100.5 43s39.5 64 39.5 106s-13.167 77.333 -39.5 106s-60.166 43 -101.499 43zM112.499 1071
c46.333 45.333 104 68.002 173 68.002s125.833 -22.833 170.5 -68.5s67 -102.834 67 -171.501s-22.167 -125.667 -66.5 -171s-101 -68 -170 -68s-126.833 22.5 -173.5 67.5s-70 102.167 -70 171.5s23.167 126.666 69.5 171.999z" />
    <glyph glyph-name="plusminus" unicode="&#xb1;" horiz-adv-x="852" 
d="M819 518h-314v-344h-141v344h-313v133h313v344h141v-344h314v-133zM786 -55h-701v143h701v-143z" />
    <glyph glyph-name="uni00B2" unicode="&#xb2;" horiz-adv-x="777" 
d="M283 820l405.999 -0.00195312v-152h-638v137c11.333 10 34.833 29.5 70.5 58.5l103 84.5c33 27.333 69.833 60 110.5 98s75.667 73.667 105 107c70 79.333 105 144.833 105 196.5s-18.5 88.834 -55.5 111.501s-84.667 34 -143 34s-151.166 -17.333 -278.499 -52v145
c87.333 33.333 189.333 50 306 50c92 0 171 -22.667 237 -68c70.667 -48 106 -119 106 -213c0.666992 -98 -53 -200.333 -161 -307c-36 -35.333 -86.5 -79.166 -151.5 -131.499z" />
    <glyph glyph-name="uni00B3" unicode="&#xb3;" horiz-adv-x="797" 
d="M559 1383c0 105.333 -74.6641 158.003 -223.997 158.003c-80 0 -158 -19 -234 -57l-47 127c89.333 44 184.666 66 285.999 66c96 0 180 -21 252 -63c36.667 -21.333 66 -51 88 -89s33 -85.833 33 -143.5s-24.167 -111.834 -72.5 -162.501
s-105.833 -76.334 -172.5 -77.001c82.667 -16 149.334 -50.5 200.001 -103.5s76 -120.833 76 -203.5c0 -49.333 -12 -93.666 -36 -132.999c-22.667 -38.667 -53.334 -69.334 -92.001 -92.001c-77.333 -46.667 -164.333 -70 -261 -70c-54.667 0 -113.334 6.66699 -176.001 20
s-113.334 32.666 -152.001 57.999l51 127c96 -48.667 181.333 -73 256 -73s134 16 178 48s66 76.333 66 133c0 126 -87.333 199 -262 219v135c89.333 0.666992 157.333 25.667 204 75c26.667 28 39.667 61.667 39 101z" />
    <glyph glyph-name="acute" unicode="&#xb4;" horiz-adv-x="430" 
d="M96 328l-57 26l159 611l232 -91z" />
    <glyph glyph-name="uni00B5" unicode="&#xb5;" horiz-adv-x="1320" 
d="M611 123c70.667 0 137.333 14.5 200 43.5s111.667 64.833 147 107.5v895h208v-1153h-146l-24 154c-114 -126.667 -246.333 -190 -397 -190c-91.333 0 -171.333 44.333 -240 133v-404h-174v1460h174v-727c0 -212.667 84 -319 252 -319z" />
    <glyph glyph-name="paragraph" unicode="&#xb6;" horiz-adv-x="1086" 
d="M501 1578l466 0.000976562v-1578h-186v1428h-135v-1428h-190v905c-102.667 -0.666992 -193 13 -271 41c-44 16 -81.5 36.5 -112.5 61.5s-56.333 58.167 -76 99.5s-29.5 95.666 -29.5 162.999c0.666992 66.667 22.334 125.667 65.001 177
c73.333 87.333 229.666 131 468.999 131z" />
    <glyph glyph-name="periodcentered" unicode="&#xb7;" horiz-adv-x="329" 
d="M93.5 731c21.667 22.667 48.333 33.999 80 33.999s57.5 -11.167 77.5 -33.5s30 -49.5 30 -81.5s-10 -59.167 -30 -81.5s-46 -33.5 -78 -33.5s-58.667 11.167 -80 33.5s-32 49.333 -32 81s10.833 58.834 32.5 81.501z" />
    <glyph glyph-name="cedilla" unicode="&#xb8;" horiz-adv-x="502" 
d="M67 -540v116.999c78 -27.333 137.833 -41 179.5 -41s72.667 9.33301 93 28s30.5 46.834 30.5 84.501s-3.5 65 -10.5 82s-17.833 30.5 -32.5 40.5s-29.167 18 -43.5 24s-32.833 10.333 -55.5 13c-33.333 4 -70.333 6 -111 6v262h121v-174
c86.667 0 152.5 -19.333 197.5 -58s67.5 -100.667 67.5 -186c0 -157.333 -84 -236 -252 -236c-48 0 -109.333 12.667 -184 38z" />
    <glyph glyph-name="uni00B9" unicode="&#xb9;" horiz-adv-x="454" 
d="M179 478v826l-171 -72l-37 113l237 95l140 -26v-936h-169z" />
    <glyph glyph-name="ordmasculine" unicode="&#xba;" horiz-adv-x="956" 
d="M141 575h684v-129h-684v129zM219.5 1259.5c-5 -33 -7.49805 -70.6699 -7.49805 -113.003s4.33301 -83.5 13 -123.5s22.667 -77.667 42 -113c41.333 -75.333 112 -113 212 -113c113.333 0 191 51.667 233 155c22.667 56 34 113 34 171s-2.5 103.333 -7.5 136
s-14 64.834 -27 96.501s-29.333 58.834 -49 81.501s-45.167 40.834 -76.5 54.501s-67 20.5 -107 20.5s-75.833 -6.83301 -107.5 -20.5s-57.334 -31.667 -77.001 -54s-35.834 -49.333 -48.501 -81s-21.5 -64 -26.5 -97zM100.002 908.497c-30 71 -45 146.167 -45 225.5
s8.83301 148 26.5 206s43.5 109.333 77.5 154c73.333 96 180 144 320 144c140.667 0 247.667 -48 321 -144c69.333 -90.667 104 -204.667 104 -342s-34.667 -251 -104 -341c-72.667 -94 -179.667 -141 -321 -141c-92.667 0 -171.5 22 -236.5 66s-112.5 101.5 -142.5 172.5z
" />
    <glyph glyph-name="guillemotright" unicode="&#xbb;" horiz-adv-x="1280" 
d="M59 842v207l609 -383v-185l-609 -382v207l447 271zM666 842v207l609 -383v-185l-609 -382v207l447 271z" />
    <glyph glyph-name="onequarter" unicode="&#xbc;" horiz-adv-x="1442" 
d="M1189 946l128 -31v-770h151v-111h-151v-261l-145 -23v284h-525l-22 110zM784 144h388v559c-122 -188 -251.333 -374.333 -388 -559zM158 568v845l-170 -72l-38 93l238 95l130 -26v-935h-160zM20 -30l1039 1395l122 -93l-1041 -1395z" />
    <glyph glyph-name="onehalf" unicode="&#xbd;" horiz-adv-x="1638" 
d="M1192 -20l405.999 -0.00195312v-152h-638v137c11.333 10 34.833 29.5 70.5 58.5l103 84.5c33 27.333 69.833 60 110.5 98s75.667 73.667 105 107c70 79.333 105 144.833 105 196.5s-18.5 88.834 -55.5 111.501s-84.667 34 -143 34s-151.166 -17.333 -278.499 -52v145
c87.333 33.333 189.333 50 306 50c92 0 171 -22.667 237 -68c70.667 -48 106 -119 106 -213c0 -98 -54 -200.333 -162 -307c-36 -35.333 -86.333 -79.166 -151 -131.499zM19.999 -30.002l1039 1395l122 -93l-1041 -1395zM157.999 567.998v845l-170 -72l-38 93l238 95
l130 -26v-935h-160z" />
    <glyph glyph-name="threequarters" unicode="&#xbe;" horiz-adv-x="1758" 
d="M1506 946l128 -31v-770h151v-111h-151v-261l-145 -23v284h-525l-22 110zM521 1383c0 105.333 -74.667 158.002 -224 158.002c-80 0 -158 -19 -234 -57l-47 127c89.333 44 184.666 66 285.999 66c96 0 180 -21 252 -63c36.667 -21.333 66 -51 88 -89s33 -85.833 33 -143.5
s-24.167 -111.834 -72.5 -162.501s-105.833 -76.334 -172.5 -77.001c82.667 -16 149.334 -50.5 200.001 -103.5s76 -120.833 76 -203.5c0 -49.333 -12 -93.666 -36 -132.999c-22.667 -38.667 -53.334 -69.334 -92.001 -92.001c-77.333 -46.667 -169.666 -70 -276.999 -70
s-211.333 26 -312 78l51 127c96 -48.667 181.333 -73 256 -73s134 16 178 48s66 76.333 66 133c0 126 -87.333 199 -262 219v135c89.333 0.666992 157.333 25.667 204 75c26.667 28 39.667 61.667 39 101zM337 -29.998l1030 1395l131 -93l-1041 -1395zM1101 144.002h388v559
c-64.667 -108 -129.5 -206.5 -194.5 -295.5z" />
    <glyph glyph-name="questiondown" unicode="&#xbf;" horiz-adv-x="862" 
d="M551 790l0.00195312 383.002h180v-485c-125.333 -43.333 -214.333 -78.333 -267 -105c-170.667 -85.333 -256 -190.333 -256 -315c0 -105.333 43.667 -172 131 -200c45.333 -14.667 100.333 -21.667 165 -21c137.333 0 251.666 28.667 342.999 86l59 -143
c-52.667 -32 -117 -57.333 -193 -76s-143.167 -28 -201.5 -28s-109.833 3.5 -154.5 10.5s-88.334 19.167 -131.001 36.5s-79 39.333 -109 66c-66.667 59.333 -100 142.666 -100 249.999c0.666992 128.667 43.667 235 129 319c53.333 52 107.333 91.667 162 119
c74.667 37.333 155.667 71.666 243 102.999zM576.002 1474.5c20.667 20.333 45.5 30.5 74.5 30.5s53.5 -11 73.5 -33s30 -47.167 30 -75.5s-11 -52.166 -33 -71.499s-46.833 -29 -74.5 -29s-51.5 10.5 -71.5 31.5s-30 45.667 -30 74s10.333 52.666 31 72.999z" />
    <glyph glyph-name="Agrave" unicode="&#xc0;" horiz-adv-x="1501" 
d="M784 1738l-67 -26l-328 555l242 89zM1067 485l-317 975l-317 -975h634zM1100 383h-700l-123 -383h-193l516 1579h300l516 -1579h-193z" />
    <glyph glyph-name="Aacute" unicode="&#xc1;" horiz-adv-x="1501" 
d="M778 1712l-57 26l159 611l232 -91zM1067 485l-317 975l-317 -975h634zM1100 383h-700l-123 -383h-193l516 1579h300l516 -1579h-193z" />
    <glyph glyph-name="Acircumflex" unicode="&#xc2;" horiz-adv-x="1501" 
d="M750 2089l-212 -377l-128 78l292 501h96l292 -501l-128 -78zM1067 485l-317 975l-317 -975h634zM1100 383h-700l-123 -383h-193l516 1579h300l516 -1579h-193z" />
    <glyph glyph-name="Atilde" unicode="&#xc3;" horiz-adv-x="1501" 
d="M1130 1962c0 -72.667 -16.1699 -132.5 -48.5029 -179.5s-80.166 -70.5 -143.499 -70.5c-62 -0.666992 -124.333 19 -187 59c-79.333 36.667 -134.666 56.667 -165.999 60c-24 0 -39.833 -9.66699 -47.5 -29s-11.5 -48 -11.5 -86h-156c0 173.333 67 260 201 260
c62.667 0 122.334 -20.833 179.001 -62.5s111.667 -62.5 165 -62.5c39.333 0 59 37 59 111h156zM1067 485l-317 975l-317 -975h634zM1100 383h-700l-123 -383h-193l516 1579h300l516 -1579h-193z" />
    <glyph glyph-name="Adieresis" unicode="&#xc4;" horiz-adv-x="1501" 
d="M427.5 1908c21.667 22.667 48.333 33.999 80 33.999s57.5 -11.167 77.5 -33.5s30 -49.5 30 -81.5s-10 -59.167 -30 -81.5s-46 -33.5 -78 -33.5s-58.667 11.167 -80 33.5s-32 49.333 -32 81s10.833 58.834 32.5 81.501zM917.499 1908
c21.667 22.667 48.333 33.999 80 33.999s57.5 -11.167 77.5 -33.5s30 -49.5 30 -81.5s-10 -59.167 -30 -81.5s-46 -33.5 -78 -33.5s-58.667 11.167 -80 33.5s-32 49.333 -32 81s10.833 58.834 32.5 81.501zM1067 484.998l-317 975l-317 -975h634zM1100 382.998h-700
l-123 -383h-193l516 1579h300l516 -1579h-193z" />
    <glyph glyph-name="Aring" unicode="&#xc5;" horiz-adv-x="1501" 
d="M750 1594c-72 0 -130.333 22 -175 66s-67 102 -67 174s22.333 130 67 174s103 66 175 66s130.333 -22 175 -66s67 -102 67 -174s-22.333 -130 -67 -174s-103 -66 -175 -66zM645.5 1727.5c27 -28.333 61.667 -42.5 104 -42.5s77.166 14.167 104.499 42.5
s41 63.833 41 106.5s-13.667 78.167 -41 106.5s-62.166 42.5 -104.499 42.5s-77 -14.167 -104 -42.5s-40.5 -63.833 -40.5 -106.5s13.5 -78.167 40.5 -106.5zM1067 485l-317 975l-317 -975h634zM1100 383h-700l-123 -383h-193l516 1579h300l516 -1579h-193z" />
    <glyph glyph-name="AE" unicode="&#xc6;" horiz-adv-x="1805" 
d="M1769 0h-839v371h-552l-192 -371h-209l826 1579h938v-143h-648v-545h605v-127h-603v-621h674v-143zM928 1459l-490 -966h490v966z" />
    <glyph glyph-name="Ccedilla" unicode="&#xc7;" horiz-adv-x="1328" 
d="M559 -635v116.999c78 -27.333 137.833 -41 179.5 -41s72.667 9.33301 93 28s30.5 46.834 30.5 84.501s-3.5 65 -10.5 82s-17.833 30.5 -32.5 40.5s-29.167 18 -43.5 24s-32.833 10.333 -55.5 13c-33.333 4 -70.333 6 -111 6v262h121v-174
c86.667 0 152.5 -19.333 197.5 -58s67.5 -100.667 67.5 -186c0 -157.333 -84 -236 -252 -236c-48 0 -109.333 12.667 -184 38zM1151 1385c-130 48.667 -241.499 72.999 -334.499 72.999s-168.667 -13 -227 -39s-104.666 -59.667 -138.999 -101s-62 -92.5 -83 -153.5
s-35 -121.333 -42 -181s-10.5 -126.167 -10.5 -199.5s3.66699 -140.166 11 -200.499s21.666 -120.833 42.999 -181.5s49.166 -111.5 83.499 -152.5s80.5 -74.333 138.5 -100s125.667 -38.5 203 -38.5c74.667 -0.666992 176.667 25.666 306 78.999l68 28l56 -139
c-118 -48 -206 -80 -264 -96s-128 -24 -210 -24s-161.333 14.833 -238 44.5s-139.334 69.834 -188.001 120.501c-49.333 49.333 -90 110 -122 182c-58.667 131.333 -88 292 -88 482c0 421.333 138.667 681.333 416 780c77.333 28 165.333 42 264 42
c74.667 0 134.334 -5.66699 179.001 -17s73.5 -18.833 86.5 -22.5l67.5 -20l69 -20.5z" />
    <glyph glyph-name="Egrave" unicode="&#xc8;" horiz-adv-x="1219" 
d="M648 1738l-67 -26l-328 555l242 89zM1106 0h-983v1579h970v-143h-776v-545h678v-115h-678v-633h789v-143z" />
    <glyph glyph-name="Eacute" unicode="&#xc9;" horiz-adv-x="1219" 
d="M643 1712l-57 26l159 611l232 -91zM1106 0h-983v1579h970v-143h-776v-545h678v-115h-678v-633h789v-143z" />
    <glyph glyph-name="Ecircumflex" unicode="&#xca;" horiz-adv-x="1219" 
d="M614 2089l-212 -377l-128 78l292 501h96l292 -501l-128 -78zM1106 0h-983v1579h970v-143h-776v-545h678v-115h-678v-633h789v-143z" />
    <glyph glyph-name="Edieresis" unicode="&#xcb;" horiz-adv-x="1219" 
d="M291.5 1908c21.667 22.667 48.333 33.999 80 33.999s57.5 -11.167 77.5 -33.5s30 -49.5 30 -81.5s-10 -59.167 -30 -81.5s-46 -33.5 -78 -33.5s-58.667 11.167 -80 33.5s-32 49.333 -32 81s10.833 58.834 32.5 81.501zM781.499 1908
c21.667 22.667 48.333 33.999 80 33.999s57.5 -11.167 77.5 -33.5s30 -49.5 30 -81.5s-10 -59.167 -30 -81.5s-46 -33.5 -78 -33.5s-58.667 11.167 -80 33.5s-32 49.333 -32 81s10.833 58.834 32.5 81.501zM1106 -0.00195312h-983v1579h970v-143h-776v-545h678v-115h-678
v-633h789v-143z" />
    <glyph glyph-name="Igrave" unicode="&#xcc;" horiz-adv-x="823" 
d="M444 1738l-67 -26l-328 555l242 89zM114 112h204v1349h-204v118h593v-118h-206v-1349h206v-112h-593v112z" />
    <glyph glyph-name="Iacute" unicode="&#xcd;" horiz-adv-x="823" 
d="M439 1712l-57 26l159 611l232 -91zM114 112h204v1349h-204v118h593v-118h-206v-1349h206v-112h-593v112z" />
    <glyph glyph-name="Icircumflex" unicode="&#xce;" horiz-adv-x="823" 
d="M410 2089l-212 -377l-128 78l292 501h96l292 -501l-128 -78zM114 112h204v1349h-204v118h593v-118h-206v-1349h206v-112h-593v112z" />
    <glyph glyph-name="Idieresis" unicode="&#xcf;" horiz-adv-x="823" 
d="M87.5 1908c21.667 22.667 48.333 33.999 80 33.999s57.5 -11.167 77.5 -33.5s30 -49.5 30 -81.5s-10 -59.167 -30 -81.5s-46 -33.5 -78 -33.5s-58.667 11.167 -80 33.5s-32 49.333 -32 81s10.833 58.834 32.5 81.501zM577.499 1908
c21.667 22.667 48.333 33.999 80 33.999s57.5 -11.167 77.5 -33.5s30 -49.5 30 -81.5s-10 -59.167 -30 -81.5s-46 -33.5 -78 -33.5s-58.667 11.167 -80 33.5s-32 49.333 -32 81s10.833 58.834 32.5 81.501zM113.998 111.998h204v1349h-204v118h593v-118h-206v-1349h206v-112
h-593v112z" />
    <glyph glyph-name="Eth" unicode="&#xd0;" horiz-adv-x="1448" 
d="M725 1579c276.667 0.666992 466.333 -106.333 569 -321c60 -126 90 -282.667 90 -470c0 -525.333 -219.667 -788 -659 -788h-553v764h-162v131h162v684h553zM599.999 764l-234 -0.000976562v-621h359c76 0 142 12.333 198 37s100.333 56.667 133 96
c32 39.333 58 88.333 78 147c32 96.667 48.333 218.667 49 366c0 292.667 -65.667 484.334 -197 575.001c-68.667 48 -155.667 72 -261 72h-359v-541h234v-131z" />
    <glyph glyph-name="Ntilde" unicode="&#xd1;" horiz-adv-x="1500" 
d="M1129 1962c0 -72.667 -16.1699 -132.5 -48.5029 -179.5s-80.166 -70.5 -143.499 -70.5c-62 -0.666992 -124.333 19 -187 59c-79.333 36.667 -134.666 56.667 -165.999 60c-24 0 -39.833 -9.66699 -47.5 -29s-11.5 -48 -11.5 -86h-156c0 173.333 67 260 201 260
c62.667 0 122.334 -20.833 179.001 -62.5s111.667 -62.5 165 -62.5c39.333 0 59 37 59 111h156zM1214 145v1434h162v-1579h-262l-829 1434v-1434h-162v1579h262z" />
    <glyph glyph-name="Ograve" unicode="&#xd2;" horiz-adv-x="1536" 
d="M802 1738l-67 -26l-328 555l242 89zM1404 1044c13.333 -79.333 19.999 -165.501 19.999 -258.501s-6.5 -178.667 -19.5 -257s-35.333 -153.166 -67 -224.499s-72.167 -132 -121.5 -182c-106.667 -108.667 -256 -163 -448 -163c-276 -0.666992 -464.667 113 -566 341
c-58.667 130.667 -88 292 -88 484c0 294.667 68 514.667 204 660c48 50.667 109.167 91 183.5 121s159.833 45 256.5 45s183.834 -14.333 261.501 -43s141.5 -67.667 191.5 -117s91.333 -109.5 124 -180.5s55.667 -146.167 69 -225.5zM1224 783.999
c0 205.333 -26.998 357.999 -80.998 457.999c-51.333 95.333 -119.666 158.333 -204.999 189c-49.333 18 -103.333 27 -162 27s-110.334 -7 -155.001 -21s-82.5 -32.833 -113.5 -56.5s-58.333 -53.167 -82 -88.5s-42.334 -71.833 -56.001 -109.5
s-24.834 -79.834 -33.501 -126.501c-14.667 -79.333 -22 -159.166 -22 -239.499s2.5 -145.666 7.5 -195.999s13.5 -102 25.5 -155s29.333 -100.167 52 -141.5c22.667 -40 50.667 -76.667 84 -110c69.333 -68 168 -102.333 296 -103c296.667 0 445 224.333 445 673z" />
    <glyph glyph-name="Oacute" unicode="&#xd3;" horiz-adv-x="1536" 
d="M798 1712l-57 26l159 611l232 -91zM1404 1044c13.333 -79.333 19.999 -165.501 19.999 -258.501s-6.5 -178.667 -19.5 -257s-35.333 -153.166 -67 -224.499s-72.167 -132 -121.5 -182c-106.667 -108.667 -256 -163 -448 -163c-276 -0.666992 -464.667 113 -566 341
c-58.667 130.667 -88 292 -88 484c0 294.667 68 514.667 204 660c48 50.667 109.167 91 183.5 121s159.833 45 256.5 45s183.834 -14.333 261.501 -43s141.5 -67.667 191.5 -117s91.333 -109.5 124 -180.5s55.667 -146.167 69 -225.5zM1224 783.999
c0 205.333 -26.998 357.999 -80.998 457.999c-51.333 95.333 -119.666 158.333 -204.999 189c-49.333 18 -103.333 27 -162 27s-110.334 -7 -155.001 -21s-82.5 -32.833 -113.5 -56.5s-58.333 -53.167 -82 -88.5s-42.334 -71.833 -56.001 -109.5
s-24.834 -79.834 -33.501 -126.501c-14.667 -79.333 -22 -159.166 -22 -239.499s2.5 -145.666 7.5 -195.999s13.5 -102 25.5 -155s29.333 -100.167 52 -141.5c22.667 -40 50.667 -76.667 84 -110c69.333 -68 168 -102.333 296 -103c296.667 0 445 224.333 445 673z" />
    <glyph glyph-name="Ocircumflex" unicode="&#xd4;" horiz-adv-x="1536" 
d="M769 2089l-212 -377l-128 78l292 501h96l292 -501l-128 -78zM1404 1044c13.333 -79.333 19.999 -165.501 19.999 -258.501s-6.5 -178.667 -19.5 -257s-35.333 -153.166 -67 -224.499s-72.167 -132 -121.5 -182c-106.667 -108.667 -256 -163 -448 -163
c-276 -0.666992 -464.667 113 -566 341c-58.667 130.667 -88 292 -88 484c0 294.667 68 514.667 204 660c48 50.667 109.167 91 183.5 121s159.833 45 256.5 45s183.834 -14.333 261.501 -43s141.5 -67.667 191.5 -117s91.333 -109.5 124 -180.5s55.667 -146.167 69 -225.5z
M1224 783.999c0 205.333 -26.998 357.999 -80.998 457.999c-51.333 95.333 -119.666 158.333 -204.999 189c-49.333 18 -103.333 27 -162 27s-110.334 -7 -155.001 -21s-82.5 -32.833 -113.5 -56.5s-58.333 -53.167 -82 -88.5s-42.334 -71.833 -56.001 -109.5
s-24.834 -79.834 -33.501 -126.501c-14.667 -79.333 -22 -159.166 -22 -239.499s2.5 -145.666 7.5 -195.999s13.5 -102 25.5 -155s29.333 -100.167 52 -141.5c22.667 -40 50.667 -76.667 84 -110c69.333 -68 168 -102.333 296 -103c296.667 0 445 224.333 445 673z" />
    <glyph glyph-name="Otilde" unicode="&#xd5;" horiz-adv-x="1536" 
d="M1149 1962c0 -72.667 -16.1699 -132.5 -48.5029 -179.5s-80.166 -70.5 -143.499 -70.5c-62 -0.666992 -124.333 19 -187 59c-79.333 36.667 -134.666 56.667 -165.999 60c-24 0 -39.833 -9.66699 -47.5 -29s-11.5 -48 -11.5 -86h-156c0 173.333 67 260 201 260
c62.667 0 122.334 -20.833 179.001 -62.5s111.667 -62.5 165 -62.5c39.333 0 59 37 59 111h156zM1404 1044c13.333 -79.333 19.999 -165.501 19.999 -258.501s-6.5 -178.667 -19.5 -257s-35.333 -153.166 -67 -224.499s-72.167 -132 -121.5 -182
c-106.667 -108.667 -256 -163 -448 -163c-276 -0.666992 -464.667 113 -566 341c-58.667 130.667 -88 292 -88 484c0 294.667 68 514.667 204 660c48 50.667 109.167 91 183.5 121s159.833 45 256.5 45s183.834 -14.333 261.501 -43s141.5 -67.667 191.5 -117
s91.333 -109.5 124 -180.5s55.667 -146.167 69 -225.5zM1224 783.999c0 205.333 -26.998 357.999 -80.998 457.999c-51.333 95.333 -119.666 158.333 -204.999 189c-49.333 18 -103.333 27 -162 27s-110.334 -7 -155.001 -21s-82.5 -32.833 -113.5 -56.5
s-58.333 -53.167 -82 -88.5s-42.334 -71.833 -56.001 -109.5s-24.834 -79.834 -33.501 -126.501c-14.667 -79.333 -22 -159.166 -22 -239.499s2.5 -145.666 7.5 -195.999s13.5 -102 25.5 -155s29.333 -100.167 52 -141.5c22.667 -40 50.667 -76.667 84 -110
c69.333 -68 168 -102.333 296 -103c296.667 0 445 224.333 445 673z" />
    <glyph glyph-name="Odieresis" unicode="&#xd6;" horiz-adv-x="1536" 
d="M446.5 1908c21.667 22.667 48.333 33.999 80 33.999s57.5 -11.167 77.5 -33.5s30 -49.5 30 -81.5s-10 -59.167 -30 -81.5s-46 -33.5 -78 -33.5s-58.667 11.167 -80 33.5s-32 49.333 -32 81s10.833 58.834 32.5 81.501zM936.499 1908
c21.667 22.667 48.333 33.999 80 33.999s57.5 -11.167 77.5 -33.5s30 -49.5 30 -81.5s-10 -59.167 -30 -81.5s-46 -33.5 -78 -33.5s-58.667 11.167 -80 33.5s-32 49.333 -32 81s10.833 58.834 32.5 81.501zM1404 1044c13.333 -79.333 19.999 -165.501 19.999 -258.501
s-6.5 -178.667 -19.5 -257s-35.333 -153.166 -67 -224.499s-72.167 -132 -121.5 -182c-106.667 -108.667 -256 -163 -448 -163c-276 -0.666992 -464.667 113 -566 341c-58.667 130.667 -88 292 -88 484c0 294.667 68 514.667 204 660c48 50.667 109.167 91 183.5 121
s159.833 45 256.5 45s183.834 -14.333 261.501 -43s141.5 -67.667 191.5 -117s91.333 -109.5 124 -180.5s55.667 -146.167 69 -225.5zM1224 783.997c0 205.333 -26.998 357.999 -80.998 457.999c-51.333 95.333 -119.666 158.333 -204.999 189
c-49.333 18 -103.333 27 -162 27s-110.334 -7 -155.001 -21s-82.5 -32.833 -113.5 -56.5s-58.333 -53.167 -82 -88.5s-42.334 -71.833 -56.001 -109.5s-24.834 -79.834 -33.501 -126.501c-14.667 -79.333 -22 -159.166 -22 -239.499s2.5 -145.666 7.5 -195.999
s13.5 -102 25.5 -155s29.333 -100.167 52 -141.5c22.667 -40 50.667 -76.667 84 -110c69.333 -68 168 -102.333 296 -103c296.667 0 445 224.333 445 673z" />
    <glyph glyph-name="multiply" unicode="&#xd7;" horiz-adv-x="901" 
d="M24 863l102 102l317 -317l317 317l102 -102l-317 -317l317 -317l-102 -102l-317 317l-317 -317l-102 102l317 317z" />
    <glyph glyph-name="Oslash" unicode="&#xd8;" horiz-adv-x="1431" 
d="M1365 784c0 -418.667 -131.999 -678.998 -395.999 -780.998c-76 -29.333 -162.333 -44 -259 -44s-182.334 13.667 -257.001 41l-72 -159l-101 46l73 162c-119.333 80.667 -200.333 189.667 -243 327c-37.333 120.667 -56 241.167 -56 361.5s6.5 219.666 19.5 297.999
s35.333 153.166 67 224.499s71.334 132.5 119.001 183.5s108.667 91.5 183 121.5s167.666 45 279.999 45s213.833 -24 304.5 -72l78 172l101 -42l-86 -191c163.333 -131.333 245 -362.333 245 -693zM710.001 1458c-274.667 0 -424.667 -178.666 -450 -535.999
c-2.66699 -42.667 -4.33398 -88.667 -5.00098 -138c0 -276.667 57 -468.334 171 -575.001l534 1181c-67.333 45.333 -150.666 68 -249.999 68zM1164 784.003c0 239.333 -40.334 413.669 -121.001 523.002l-524 -1160h2c55.333 -24 116.333 -36 183 -36
s124.834 9.16699 174.501 27.5s90.667 44.333 123 78s59.5 71.167 81.5 112.5s38.667 88.666 50 141.999c20.667 97.333 31 201.666 31 312.999z" />
    <glyph glyph-name="Ugrave" unicode="&#xd9;" horiz-adv-x="1499" 
d="M784 1738l-67 -26l-328 555l242 89zM748 -41c-96 0 -180 12.502 -252 37.502s-131.333 59.167 -178 102.5c-48 43.333 -86.667 97.333 -116 162c-53.333 116.667 -80 268 -80 454v864h192v-868c0 -174.667 16 -302.334 48 -383.001c30 -76 73.333 -131.667 130 -167
c65.333 -40.667 150.666 -61 255.999 -61c158.667 0 270 45.333 334 136c40.667 57.333 66.334 117.333 77.001 180c15.333 91.333 23 189.666 23 294.999v868h196v-864c0 -290 -65.333 -495.333 -196 -616c-101.333 -93.333 -246 -140 -434 -140z" />
    <glyph glyph-name="Uacute" unicode="&#xda;" horiz-adv-x="1499" 
d="M778 1712l-57 26l159 611l232 -91zM748 -41c-96 0 -180 12.502 -252 37.502s-131.333 59.167 -178 102.5c-48 43.333 -86.667 97.333 -116 162c-53.333 116.667 -80 268 -80 454v864h192v-868c0 -174.667 16 -302.334 48 -383.001c30 -76 73.333 -131.667 130 -167
c65.333 -40.667 150.666 -61 255.999 -61c158.667 0 270 45.333 334 136c40.667 57.333 66.334 117.333 77.001 180c15.333 91.333 23 189.666 23 294.999v868h196v-864c0 -290 -65.333 -495.333 -196 -616c-101.333 -93.333 -246 -140 -434 -140z" />
    <glyph glyph-name="Ucircumflex" unicode="&#xdb;" horiz-adv-x="1499" 
d="M750 2089l-212 -377l-128 78l292 501h96l292 -501l-128 -78zM748 -41c-96 0 -180 12.502 -252 37.502s-131.333 59.167 -178 102.5c-48 43.333 -86.667 97.333 -116 162c-53.333 116.667 -80 268 -80 454v864h192v-868c0 -174.667 16 -302.334 48 -383.001
c30 -76 73.333 -131.667 130 -167c65.333 -40.667 150.666 -61 255.999 -61c158.667 0 270 45.333 334 136c40.667 57.333 66.334 117.333 77.001 180c15.333 91.333 23 189.666 23 294.999v868h196v-864c0 -290 -65.333 -495.333 -196 -616
c-101.333 -93.333 -246 -140 -434 -140z" />
    <glyph glyph-name="Udieresis" unicode="&#xdc;" horiz-adv-x="1499" 
d="M427.5 1908c21.667 22.667 48.333 33.999 80 33.999s57.5 -11.167 77.5 -33.5s30 -49.5 30 -81.5s-10 -59.167 -30 -81.5s-46 -33.5 -78 -33.5s-58.667 11.167 -80 33.5s-32 49.333 -32 81s10.833 58.834 32.5 81.501zM917.499 1908
c21.667 22.667 48.333 33.999 80 33.999s57.5 -11.167 77.5 -33.5s30 -49.5 30 -81.5s-10 -59.167 -30 -81.5s-46 -33.5 -78 -33.5s-58.667 11.167 -80 33.5s-32 49.333 -32 81s10.833 58.834 32.5 81.501zM747.998 -41.002c-96 0 -180 12.502 -252 37.502
s-131.333 59.167 -178 102.5c-48 43.333 -86.667 97.333 -116 162c-53.333 116.667 -80 268 -80 454v864h192v-868c0 -174.667 16 -302.334 48 -383.001c30 -76 73.333 -131.667 130 -167c65.333 -40.667 150.666 -61 255.999 -61c158.667 0 270 45.333 334 136
c40.667 57.333 66.334 117.333 77.001 180c15.333 91.333 23 189.666 23 294.999v868h196v-864c0 -290 -65.333 -495.333 -196 -616c-101.333 -93.333 -246 -140 -434 -140z" />
    <glyph glyph-name="Yacute" unicode="&#xdd;" horiz-adv-x="1383" 
d="M720 1712l-57 26l159 611l232 -91zM696 677l413 902h191l-514 -1094v-485h-190v485l-514 1094h197z" />
    <glyph glyph-name="Thorn" unicode="&#xde;" horiz-adv-x="1254" 
d="M317 1444l182.998 1.00098c146.667 0 247.667 -5.83301 303 -17.5s100.5 -23.334 135.5 -35.001s65.333 -25.667 91 -42s50.5 -36.5 74.5 -60.5s43.333 -51 58 -81c33.333 -66 50 -144.667 50 -236c0 -143.333 -43.333 -250.333 -130 -321
c-57.333 -46.667 -114.166 -77.834 -170.499 -93.501s-101.666 -26.667 -135.999 -33s-74.833 -11.166 -121.5 -14.499c-66 -4.66699 -146.667 -7 -242 -7h-95v-504h-194v1579h194v-135zM478.998 649.001c114 0 189.334 3 226.001 9s69.667 12.667 99 20
s53.833 16.166 73.5 26.499s40 23.333 61 39s37.5 33.5 49.5 53.5c28 46.667 42 94.334 42 143.001s-2.83301 87.834 -8.5 117.501s-13 55.5 -22 77.5s-21.667 41.667 -38 59s-32.5 31.666 -48.5 42.999s-36.667 21 -62 29s-48.333 14 -69 18c-21.333 4 -48 7.33301 -80 10
c-50.667 4 -109.334 6 -176.001 6h-209v-651h162z" />
    <glyph glyph-name="germandbls" unicode="&#xdf;" horiz-adv-x="1303" 
d="M881.5 1073c13 36 19.502 75.8291 19.502 119.496s-5.83301 79.834 -17.5 108.501s-27.167 51.5 -46.5 68.5s-43.333 30.5 -72 40.5c-50 17.333 -104.5 26 -163.5 26s-104.667 -4.66699 -137 -14s-58.333 -25 -78 -47s-35.334 -43 -47.001 -63
s-19.834 -49.333 -24.501 -88c-6.66699 -56 -10 -124.667 -10 -206v-1002l-194 -22l-1 1052c0 269.333 82 435.333 246 498c61.333 24 136 35.667 224 35c328.667 0 493 -134.333 493 -403c0 -120 -35 -210.667 -105 -272c-38 -33.333 -85 -53.333 -141 -60
c134 0 238.833 -41 314.5 -123s113.5 -190.667 113.5 -326c0 -83.333 -16 -156.666 -48 -219.999s-73 -113.666 -123 -150.999c-49.333 -37.333 -109.333 -68 -180 -92c-120 -40 -261 -60.333 -423 -61v156c166 0 288.333 14.333 367 43
c74.667 27.333 129.334 67.333 164.001 120c41.333 62.667 61.666 143.334 60.999 242.001c-0.666992 129.333 -57.667 220 -171 272c-90.667 41.333 -204.667 64 -342 68c-32 1.33301 -69 2 -111 2v131c38.667 -1.33301 73.667 -2 105 -2s63.833 2.16699 97.5 6.5
s66.667 13 99 26s59 30.167 80 51.5s38 50 51 86z" />
    <glyph glyph-name="agrave" unicode="&#xe0;" horiz-adv-x="1193" 
d="M626 1318l-67 -26l-328 555l242 89zM549 117c114 0 226 51.332 336 153.999v298c-87.333 14 -162.333 21 -225 21s-108.5 -1.66699 -137.5 -5s-58 -10 -87 -20s-52.833 -23.333 -71.5 -40c-42 -37.333 -63 -96.166 -63 -176.499s20 -139 60 -176s102.667 -55.5 188 -55.5
zM885 664.999v48.002c-0.666992 145.333 -24.334 238 -71.001 278c-44 37.333 -103 56 -177 56c-140.667 0 -269.667 -37.333 -387 -112l-67 122c76.667 43.333 147.834 76.333 213.501 99s139.667 34 222 34s153.833 -9.16699 214.5 -27.5s109 -48.833 145 -91.5
s61.167 -94.334 75.5 -155.001s21.5 -137.334 21.5 -230.001v-686h-140l-28 178c-96.667 -132 -231.667 -198 -405 -198c-122.667 0 -218.667 30.5 -288 91.5s-104 151.5 -104 271.5c0 126 44.667 220.667 134 284c82.667 58.667 186 88 310 88c46 0 103 -4.83301 171 -14.5
s121.333 -21.5 160 -35.5z" />
    <glyph glyph-name="aacute" unicode="&#xe1;" horiz-adv-x="1193" 
d="M621 1292l-57 26l159 611l232 -91zM549 117c114 0 226 51.332 336 153.999v298c-87.333 14 -162.333 21 -225 21s-108.5 -1.66699 -137.5 -5s-58 -10 -87 -20s-52.833 -23.333 -71.5 -40c-42 -37.333 -63 -96.166 -63 -176.499s20 -139 60 -176s102.667 -55.5 188 -55.5z
M885 664.999v48.002c-0.666992 145.333 -24.334 238 -71.001 278c-44 37.333 -103 56 -177 56c-140.667 0 -269.667 -37.333 -387 -112l-67 122c76.667 43.333 147.834 76.333 213.501 99s139.667 34 222 34s153.833 -9.16699 214.5 -27.5s109 -48.833 145 -91.5
s61.167 -94.334 75.5 -155.001s21.5 -137.334 21.5 -230.001v-686h-140l-28 178c-96.667 -132 -231.667 -198 -405 -198c-122.667 0 -218.667 30.5 -288 91.5s-104 151.5 -104 271.5c0 126 44.667 220.667 134 284c82.667 58.667 186 88 310 88c46 0 103 -4.83301 171 -14.5
s121.333 -21.5 160 -35.5z" />
    <glyph glyph-name="acircumflex" unicode="&#xe2;" horiz-adv-x="1193" 
d="M592 1669l-212 -377l-128 78l292 501h96l292 -501l-128 -78zM549 117c114 0 226 51.332 336 153.999v298c-87.333 14 -162.333 21 -225 21s-108.5 -1.66699 -137.5 -5s-58 -10 -87 -20s-52.833 -23.333 -71.5 -40c-42 -37.333 -63 -96.166 -63 -176.499s20 -139 60 -176
s102.667 -55.5 188 -55.5zM885 664.999v48.002c-0.666992 145.333 -24.334 238 -71.001 278c-44 37.333 -103 56 -177 56c-140.667 0 -269.667 -37.333 -387 -112l-67 122c76.667 43.333 147.834 76.333 213.501 99s139.667 34 222 34s153.833 -9.16699 214.5 -27.5
s109 -48.833 145 -91.5s61.167 -94.334 75.5 -155.001s21.5 -137.334 21.5 -230.001v-686h-140l-28 178c-96.667 -132 -231.667 -198 -405 -198c-122.667 0 -218.667 30.5 -288 91.5s-104 151.5 -104 271.5c0 126 44.667 220.667 134 284c82.667 58.667 186 88 310 88
c46 0 103 -4.83301 171 -14.5s121.333 -21.5 160 -35.5z" />
    <glyph glyph-name="atilde" unicode="&#xe3;" horiz-adv-x="1193" 
d="M973 1542c0 -72.667 -16.1699 -132.5 -48.5029 -179.5s-80.166 -70.5 -143.499 -70.5c-62 -0.666992 -124.333 19 -187 59c-79.333 36.667 -134.666 56.667 -165.999 60c-24 0 -39.833 -9.66699 -47.5 -29s-11.5 -48 -11.5 -86h-156c0 173.333 67 260 201 260
c62.667 0 122.334 -20.833 179.001 -62.5s111.667 -62.5 165 -62.5c39.333 0 59 37 59 111h156zM548.997 117c114 0 226 51.332 336 153.999v298c-87.333 14 -162.333 21 -225 21s-108.5 -1.66699 -137.5 -5s-58 -10 -87 -20s-52.833 -23.333 -71.5 -40
c-42 -37.333 -63 -96.166 -63 -176.499s20 -139 60 -176s102.667 -55.5 188 -55.5zM884.997 664.999v48.002c-0.666992 145.333 -24.334 238 -71.001 278c-44 37.333 -103 56 -177 56c-140.667 0 -269.667 -37.333 -387 -112l-67 122
c76.667 43.333 147.834 76.333 213.501 99s139.667 34 222 34s153.833 -9.16699 214.5 -27.5s109 -48.833 145 -91.5s61.167 -94.334 75.5 -155.001s21.5 -137.334 21.5 -230.001v-686h-140l-28 178c-96.667 -132 -231.667 -198 -405 -198
c-122.667 0 -218.667 30.5 -288 91.5s-104 151.5 -104 271.5c0 126 44.667 220.667 134 284c82.667 58.667 186 88 310 88c46 0 103 -4.83301 171 -14.5s121.333 -21.5 160 -35.5z" />
    <glyph glyph-name="adieresis" unicode="&#xe4;" horiz-adv-x="1193" 
d="M269.5 1488c21.667 22.667 48.333 33.999 80 33.999s57.5 -11.167 77.5 -33.5s30 -49.5 30 -81.5s-10 -59.167 -30 -81.5s-46 -33.5 -78 -33.5s-58.667 11.167 -80 33.5s-32 49.333 -32 81s10.833 58.834 32.5 81.501zM759.499 1488
c21.667 22.667 48.333 33.999 80 33.999s57.5 -11.167 77.5 -33.5s30 -49.5 30 -81.5s-10 -59.167 -30 -81.5s-46 -33.5 -78 -33.5s-58.667 11.167 -80 33.5s-32 49.333 -32 81s10.833 58.834 32.5 81.501zM548.998 116.998c114 0 226 51.332 336 153.999v298
c-87.333 14 -162.333 21 -225 21s-108.5 -1.66699 -137.5 -5s-58 -10 -87 -20s-52.833 -23.333 -71.5 -40c-42 -37.333 -63 -96.166 -63 -176.499s20 -139 60 -176s102.667 -55.5 188 -55.5zM884.998 664.997v48.002c-0.666992 145.333 -24.334 238 -71.001 278
c-44 37.333 -103 56 -177 56c-140.667 0 -269.667 -37.333 -387 -112l-67 122c76.667 43.333 147.834 76.333 213.501 99s139.667 34 222 34s153.833 -9.16699 214.5 -27.5s109 -48.833 145 -91.5s61.167 -94.334 75.5 -155.001s21.5 -137.334 21.5 -230.001v-686h-140
l-28 178c-96.667 -132 -231.667 -198 -405 -198c-122.667 0 -218.667 30.5 -288 91.5s-104 151.5 -104 271.5c0 126 44.667 220.667 134 284c82.667 58.667 186 88 310 88c46 0 103 -4.83301 171 -14.5s121.333 -21.5 160 -35.5z" />
    <glyph glyph-name="aring" unicode="&#xe5;" horiz-adv-x="1193" 
d="M592 1292c-72 0 -130.333 22 -175 66s-67 102 -67 174s22.333 130 67 174s103 66 175 66s130.333 -22 175 -66s67 -102 67 -174s-22.333 -130 -67 -174s-103 -66 -175 -66zM487.5 1425.5c27 -28.333 61.667 -42.5 104 -42.5s77.166 14.167 104.499 42.5
s41 63.833 41 106.5s-13.667 78.167 -41 106.5s-62.166 42.5 -104.499 42.5s-77 -14.167 -104 -42.5s-40.5 -63.833 -40.5 -106.5s13.5 -78.167 40.5 -106.5zM549 117c114 0 226 51.332 336 153.999v298c-87.333 14 -162.333 21 -225 21s-108.5 -1.66699 -137.5 -5
s-58 -10 -87 -20s-52.833 -23.333 -71.5 -40c-42 -37.333 -63 -96.166 -63 -176.499s20 -139 60 -176s102.667 -55.5 188 -55.5zM885 664.999v48.002c-0.666992 145.333 -24.334 238 -71.001 278c-44 37.333 -103 56 -177 56c-140.667 0 -269.667 -37.333 -387 -112l-67 122
c76.667 43.333 147.834 76.333 213.501 99s139.667 34 222 34s153.833 -9.16699 214.5 -27.5s109 -48.833 145 -91.5s61.167 -94.334 75.5 -155.001s21.5 -137.334 21.5 -230.001v-686h-140l-28 178c-96.667 -132 -231.667 -198 -405 -198
c-122.667 0 -218.667 30.5 -288 91.5s-104 151.5 -104 271.5c0 126 44.667 220.667 134 284c82.667 58.667 186 88 310 88c46 0 103 -4.83301 171 -14.5s121.333 -21.5 160 -35.5z" />
    <glyph glyph-name="ae" unicode="&#xe6;" horiz-adv-x="1802" 
d="M1310 -23c-200.667 0 -345.002 76.6699 -433.002 230.003c-52.667 -70 -118.834 -125.833 -198.501 -167.5s-162.5 -62.5 -248.5 -62.5c-122.667 0 -218.667 30.667 -288 92s-104 152.666 -104 273.999c0 126 44.667 220.667 134 284c82.667 58.667 186 88 310 88
c47.333 0 100.5 -4.5 159.5 -13.5s107.167 -21.167 144.5 -36.5v48c0 112 -5.5 180.667 -16.5 206s-22.667 46.166 -35 62.499s-27.166 28.5 -44.499 36.5c-40 18.667 -90.167 28.167 -150.5 28.5s-125.833 -10.167 -196.5 -31.5s-128 -48 -172 -80l-67 122
c44 37.333 109.167 68.833 195.5 94.5s157.166 38.5 212.499 38.5s101.333 -3 138 -9s72.667 -16.333 108 -31c72 -30.667 121.333 -90.667 148 -180c34.667 72 87.834 126.667 159.501 164s147.5 56 227.5 56s148.833 -13.5 206.5 -40.5s103.834 -64.167 138.501 -111.5
c70.667 -95.333 106 -216 106 -362c0 -34 -2.66699 -70.333 -8 -109h-760c0 -168.667 34.333 -287.334 103 -356.001c56 -56 138.833 -84 248.5 -84s209.834 39 300.501 117l62 -145c-46.667 -34 -107 -62.833 -181 -86.5s-140.333 -35.5 -199 -35.5zM288.498 174.003
c39.667 -36.667 105.168 -55 196.501 -55s191.666 50.667 300.999 152v298c-84 14 -153.667 21 -209 21s-97.5 -1.66699 -126.5 -5s-58 -10 -87 -20s-52.833 -23.333 -71.5 -40c-42 -37.333 -63 -96 -63 -176s19.833 -138.333 59.5 -175zM1576 717.003
c0 162 -48.667 266.332 -146 312.999c-36 17.333 -78.667 26.333 -128 27c-108.667 0 -190.167 -34.167 -244.5 -102.5s-81.5 -159.166 -81.5 -272.499h600v35z" />
    <glyph glyph-name="ccedilla" unicode="&#xe7;" horiz-adv-x="1115" 
d="M450 -614v116.999c78 -27.333 137.833 -41 179.5 -41s72.667 9.33301 93 28s30.5 46.834 30.5 84.501s-3.5 65 -10.5 82s-17.833 30.5 -32.5 40.5s-29.167 18 -43.5 24s-32.833 10.333 -55.5 13c-33.333 4 -70.333 6 -111 6v262h121v-174
c86.667 0 152.5 -19.333 197.5 -58s67.5 -100.667 67.5 -186c0 -157.333 -84 -236 -252 -236c-48 0 -109.333 12.667 -184 38zM310 716.999c-6 -42 -8.99902 -100.332 -8.99902 -174.999s13.333 -148 40 -220c50.667 -136.667 145 -205 283 -205
c134 0 243.667 42.667 329 128l57 -134c-124.667 -87.333 -255 -131 -391 -131c-84.667 0 -160.334 16 -227.001 48c-66 32 -119 76 -159 132c-81.333 113.333 -122 253.333 -122 420c0.666992 168 41.667 310 123 426c40 57.333 93.333 102.333 160 135s142.667 49 228 49
c134 0 263.333 -44.333 388 -133l-57 -133c-89.333 77.333 -189.666 116 -300.999 116s-194.333 -31.667 -249 -95c-24.667 -28.667 -44.834 -63.334 -60.501 -104.001s-26.5 -82 -32.5 -124z" />
    <glyph glyph-name="egrave" unicode="&#xe8;" horiz-adv-x="1182" 
d="M903 717c0 95.333 -20.001 174.333 -60.001 237c-44 68 -115.333 102.333 -214 103c-195.333 0 -303.666 -125 -324.999 -375h599v35zM299.999 563c2.66699 -226.667 72.6641 -367.332 209.997 -421.999c40 -16 86.333 -24 139 -24c112.667 0 214.667 42.333 306 127
l62 -145c-49.333 -34.667 -109.833 -63.167 -181.5 -85.5s-144.667 -33.5 -219 -33.5s-145.5 15.333 -213.5 46c-68.667 31.333 -123.667 74.333 -165 129c-84 110 -125.667 251 -125 423c0.666992 167.333 42.334 309 125.001 425c41.333 57.333 95.333 102.833 162 136.5
s139.834 50.5 219.501 50.5s148.334 -13.5 206.001 -40.5s104.167 -64.167 139.5 -111.5c70.667 -94.667 106 -215.334 106 -362.001c0 -30 -3.66699 -67.667 -11 -113h-760zM661.996 1338l-67 -26l-328 555l242 89z" />
    <glyph glyph-name="eacute" unicode="&#xe9;" horiz-adv-x="1182" 
d="M903 717c0 95.333 -20.001 174.333 -60.001 237c-44 68 -115.333 102.333 -214 103c-195.333 0 -303.666 -125 -324.999 -375h599v35zM299.999 563c2.66699 -226.667 72.6641 -367.332 209.997 -421.999c40 -16 86.333 -24 139 -24c112.667 0 214.667 42.333 306 127
l62 -145c-49.333 -34.667 -109.833 -63.167 -181.5 -85.5s-144.667 -33.5 -219 -33.5s-145.5 15.333 -213.5 46c-68.667 31.333 -123.667 74.333 -165 129c-84 110 -125.667 251 -125 423c0.666992 167.333 42.334 309 125.001 425c41.333 57.333 95.333 102.833 162 136.5
s139.834 50.5 219.501 50.5s148.334 -13.5 206.001 -40.5s104.167 -64.167 139.5 -111.5c70.667 -94.667 106 -215.334 106 -362.001c0 -30 -3.66699 -67.667 -11 -113h-760zM655.996 1312l-57 26l159 611l232 -91z" />
    <glyph glyph-name="ecircumflex" unicode="&#xea;" horiz-adv-x="1182" 
d="M903 717c0 95.333 -20.001 174.333 -60.001 237c-44 68 -115.333 102.333 -214 103c-195.333 0 -303.666 -125 -324.999 -375h599v35zM299.999 563c2.66699 -226.667 72.6641 -367.332 209.997 -421.999c40 -16 86.333 -24 139 -24c112.667 0 214.667 42.333 306 127
l62 -145c-49.333 -34.667 -109.833 -63.167 -181.5 -85.5s-144.667 -33.5 -219 -33.5s-145.5 15.333 -213.5 46c-68.667 31.333 -123.667 74.333 -165 129c-84 110 -125.667 251 -125 423c0.666992 167.333 42.334 309 125.001 425c41.333 57.333 95.333 102.833 162 136.5
s139.834 50.5 219.501 50.5s148.334 -13.5 206.001 -40.5s104.167 -64.167 139.5 -111.5c70.667 -94.667 106 -215.334 106 -362.001c0 -30 -3.66699 -67.667 -11 -113h-760zM627.996 1689l-212 -377l-128 78l292 501h96l292 -501l-128 -78z" />
    <glyph glyph-name="edieresis" unicode="&#xeb;" horiz-adv-x="1182" 
d="M903 717c0 95.333 -20.001 174.333 -60.001 237c-44 68 -115.333 102.333 -214 103c-195.333 0 -303.666 -125 -324.999 -375h599v35zM299.999 563c2.66699 -226.667 72.6641 -367.332 209.997 -421.999c40 -16 86.333 -24 139 -24c112.667 0 214.667 42.333 306 127
l62 -145c-49.333 -34.667 -109.833 -63.167 -181.5 -85.5s-144.667 -33.5 -219 -33.5s-145.5 15.333 -213.5 46c-68.667 31.333 -123.667 74.333 -165 129c-84 110 -125.667 251 -125 423c0.666992 167.333 42.334 309 125.001 425c41.333 57.333 95.333 102.833 162 136.5
s139.834 50.5 219.501 50.5s148.334 -13.5 206.001 -40.5s104.167 -64.167 139.5 -111.5c70.667 -94.667 106 -215.334 106 -362.001c0 -30 -3.66699 -67.667 -11 -113h-760zM305.496 1508c21.667 22.667 48.333 33.999 80 33.999s57.5 -11.167 77.5 -33.5
s30 -49.5 30 -81.5s-10 -59.167 -30 -81.5s-46 -33.5 -78 -33.5s-58.667 11.167 -80 33.5s-32 49.333 -32 81s10.833 58.834 32.5 81.501zM795.495 1508c21.667 22.667 48.333 33.999 80 33.999s57.5 -11.167 77.5 -33.5s30 -49.5 30 -81.5s-10 -59.167 -30 -81.5
s-46 -33.5 -78 -33.5s-58.667 11.167 -80 33.5s-32 49.333 -32 81s10.833 58.834 32.5 81.501z" />
    <glyph glyph-name="igrave" unicode="&#xec;" horiz-adv-x="634" 
d="M348 1318l-67 -26l-328 555l242 89zM406 0h-182v1169h182v-1169z" />
    <glyph glyph-name="iacute" unicode="&#xed;" horiz-adv-x="634" 
d="M344 1292l-57 26l159 611l232 -91zM406 0h-182v1169h182v-1169z" />
    <glyph glyph-name="icircumflex" unicode="&#xee;" horiz-adv-x="634" 
d="M315 1669l-212 -377l-128 78l292 501h96l292 -501l-128 -78zM406 0h-182v1169h182v-1169z" />
    <glyph glyph-name="idieresis" unicode="&#xef;" horiz-adv-x="634" 
d="M-7.5 1488c21.667 22.667 48.333 33.999 80 33.999s57.5 -11.167 77.5 -33.5s30 -49.5 30 -81.5s-10 -59.167 -30 -81.5s-46 -33.5 -78 -33.5s-58.667 11.167 -80 33.5s-32 49.333 -32 81s10.833 58.834 32.5 81.501zM482.499 1488
c21.667 22.667 48.333 33.999 80 33.999s57.5 -11.167 77.5 -33.5s30 -49.5 30 -81.5s-10 -59.167 -30 -81.5s-46 -33.5 -78 -33.5s-58.667 11.167 -80 33.5s-32 49.333 -32 81s10.833 58.834 32.5 81.501zM405.998 -0.00195312h-182v1169h182v-1169z" />
    <glyph glyph-name="eth" unicode="&#xf0;" horiz-adv-x="1131" 
d="M441 1743c85.333 -48 184 -126.332 296 -234.999l286 85l42 -90l-260 -77c84 -114 146 -230.167 186 -348.5s60 -247.5 60 -387.5c0 -473.333 -177.667 -710 -533 -710c-194.667 0 -332.667 86 -414 258c-46.667 98.667 -70 214 -70 346c0 122.667 22.667 234.667 68 336
c50 112 123 190 219 234c52.667 24 111.334 36 176.001 36s131.667 -14.833 201 -44.5s123.666 -68.834 162.999 -117.501c-39.333 118.667 -109 236 -209 352l-235 -69l-42 90l203 60c-73.333 73.333 -147 133.333 -221 180zM832 855.001
c-23.333 56.667 -60.333 102.833 -111 138.5s-106.834 53.5 -168.501 53.5s-112.167 -8.66699 -151.5 -26s-70.666 -39.833 -93.999 -67.5s-42 -62.167 -56 -103.5c-23.333 -69.333 -35 -157 -35 -263c0 -309.333 99.333 -464 298 -464c192 0 304.667 108.333 338 325
c10 64.667 15 134.5 15 209.5s-11.667 140.833 -35 197.5z" />
    <glyph glyph-name="ntilde" unicode="&#xf1;" horiz-adv-x="1227" 
d="M313 880l-0.000976562 -879.999h-190v1169h140l24 -187c46 58 113.167 106.833 201.5 146.5s168.333 59.5 240 59.5s132 -12.167 181 -36.5s87.5 -58.166 115.5 -101.499c54.667 -84.667 82 -192.334 82 -323.001v-727h-190v727c-0.666992 116.667 -21.667 201 -63 253
c-35.333 44 -84.333 66.167 -147 66.5s-133.167 -17.334 -211.5 -53.001s-139.166 -73.5 -182.499 -113.5zM586.999 1402c-38.667 20 -66.334 29.832 -83.001 29.499s-29.667 -4.16602 -39 -11.499s-15.333 -18 -18 -32c-5.33301 -23.333 -7.66602 -47.333 -6.99902 -72
h-156c0 173.333 67 260 201 260c61.333 0 124 -20.833 188 -62.5s115.833 -62.5 155.5 -62.5s59.5 37 59.5 111h156c0 -67.333 -16.167 -125.833 -48.5 -175.5s-79 -74.5 -140 -74.5s-150.5 30 -268.5 90z" />
    <glyph glyph-name="ograve" unicode="&#xf2;" horiz-adv-x="1285" 
d="M676 1318l-67 -26l-328 555l242 89zM294 582c0 -48.667 3.33789 -94.332 10.0049 -136.999s18.334 -84.5 35.001 -125.5s37.667 -76.167 63 -105.5c56.667 -64.667 136.667 -97 240 -97c149.333 -0.666992 250.666 66.333 303.999 201c29.333 74.667 44 162.667 44 264
c0 233.333 -69.333 380.666 -208 441.999c-40.667 18 -87.334 27 -140.001 27s-99.334 -9 -140.001 -27s-73.834 -41.833 -99.501 -71.5s-46.834 -65.167 -63.501 -106.5s-28.334 -83.5 -35.001 -126.5s-10 -88.833 -10 -137.5zM112.005 582.002
c0 84.667 11 163.169 33 235.502s54.333 136.5 97 192.5s98.167 100 166.5 132s146.166 48 233.499 48s165.333 -16 234 -48s124.334 -75.833 167.001 -131.5s75 -119.834 97 -192.501s33 -151.334 33 -236.001s-11 -163 -33 -235s-54.333 -135.5 -97 -190.5
s-98.334 -98.167 -167.001 -129.5s-146.667 -47 -234 -47s-165.166 15.667 -233.499 47s-123.833 74.5 -166.5 129.5s-75 118.5 -97 190.5s-33 150.333 -33 235z" />
    <glyph glyph-name="oacute" unicode="&#xf3;" horiz-adv-x="1285" 
d="M671 1292l-57 26l159 611l232 -91zM294 582c0 -48.667 3.33789 -94.332 10.0049 -136.999s18.334 -84.5 35.001 -125.5s37.667 -76.167 63 -105.5c56.667 -64.667 136.667 -97 240 -97c149.333 -0.666992 250.666 66.333 303.999 201c29.333 74.667 44 162.667 44 264
c0 233.333 -69.333 380.666 -208 441.999c-40.667 18 -87.334 27 -140.001 27s-99.334 -9 -140.001 -27s-73.834 -41.833 -99.501 -71.5s-46.834 -65.167 -63.501 -106.5s-28.334 -83.5 -35.001 -126.5s-10 -88.833 -10 -137.5zM112.005 582.002
c0 84.667 11 163.169 33 235.502s54.333 136.5 97 192.5s98.167 100 166.5 132s146.166 48 233.499 48s165.333 -16 234 -48s124.334 -75.833 167.001 -131.5s75 -119.834 97 -192.501s33 -151.334 33 -236.001s-11 -163 -33 -235s-54.333 -135.5 -97 -190.5
s-98.334 -98.167 -167.001 -129.5s-146.667 -47 -234 -47s-165.166 15.667 -233.499 47s-123.833 74.5 -166.5 129.5s-75 118.5 -97 190.5s-33 150.333 -33 235z" />
    <glyph glyph-name="ocircumflex" unicode="&#xf4;" horiz-adv-x="1285" 
d="M642 1669l-212 -377l-128 78l292 501h96l292 -501l-128 -78zM294 582c0 -48.667 3.33789 -94.332 10.0049 -136.999s18.334 -84.5 35.001 -125.5s37.667 -76.167 63 -105.5c56.667 -64.667 136.667 -97 240 -97c149.333 -0.666992 250.666 66.333 303.999 201
c29.333 74.667 44 162.667 44 264c0 233.333 -69.333 380.666 -208 441.999c-40.667 18 -87.334 27 -140.001 27s-99.334 -9 -140.001 -27s-73.834 -41.833 -99.501 -71.5s-46.834 -65.167 -63.501 -106.5s-28.334 -83.5 -35.001 -126.5s-10 -88.833 -10 -137.5z
M112.005 582.002c0 84.667 11 163.169 33 235.502s54.333 136.5 97 192.5s98.167 100 166.5 132s146.166 48 233.499 48s165.333 -16 234 -48s124.334 -75.833 167.001 -131.5s75 -119.834 97 -192.501s33 -151.334 33 -236.001s-11 -163 -33 -235
s-54.333 -135.5 -97 -190.5s-98.334 -98.167 -167.001 -129.5s-146.667 -47 -234 -47s-165.166 15.667 -233.499 47s-123.833 74.5 -166.5 129.5s-75 118.5 -97 190.5s-33 150.333 -33 235z" />
    <glyph glyph-name="otilde" unicode="&#xf5;" horiz-adv-x="1285" 
d="M1023 1542c0 -72.667 -16.1699 -132.5 -48.5029 -179.5s-80.166 -70.5 -143.499 -70.5c-62 -0.666992 -124.333 19 -187 59c-79.333 36.667 -134.666 56.667 -165.999 60c-24 0 -39.833 -9.66699 -47.5 -29s-11.5 -48 -11.5 -86h-156c0 173.333 67 260 201 260
c62.667 0 122.334 -20.833 179.001 -62.5s111.667 -62.5 165 -62.5c39.333 0 59 37 59 111h156zM293.997 582c0 -48.667 3.33789 -94.332 10.0049 -136.999s18.334 -84.5 35.001 -125.5s37.667 -76.167 63 -105.5c56.667 -64.667 136.667 -97 240 -97
c149.333 -0.666992 250.666 66.333 303.999 201c29.333 74.667 44 162.667 44 264c0 233.333 -69.333 380.666 -208 441.999c-40.667 18 -87.334 27 -140.001 27s-99.334 -9 -140.001 -27s-73.834 -41.833 -99.501 -71.5s-46.834 -65.167 -63.501 -106.5
s-28.334 -83.5 -35.001 -126.5s-10 -88.833 -10 -137.5zM112.002 582.002c0 84.667 11 163.169 33 235.502s54.333 136.5 97 192.5s98.167 100 166.5 132s146.166 48 233.499 48s165.333 -16 234 -48s124.334 -75.833 167.001 -131.5s75 -119.834 97 -192.501
s33 -151.334 33 -236.001s-11 -163 -33 -235s-54.333 -135.5 -97 -190.5s-98.334 -98.167 -167.001 -129.5s-146.667 -47 -234 -47s-165.166 15.667 -233.499 47s-123.833 74.5 -166.5 129.5s-75 118.5 -97 190.5s-33 150.333 -33 235z" />
    <glyph glyph-name="odieresis" unicode="&#xf6;" horiz-adv-x="1285" 
d="M319.5 1488c21.667 22.667 48.333 33.999 80 33.999s57.5 -11.167 77.5 -33.5s30 -49.5 30 -81.5s-10 -59.167 -30 -81.5s-46 -33.5 -78 -33.5s-58.667 11.167 -80 33.5s-32 49.333 -32 81s10.833 58.834 32.5 81.501zM809.499 1488
c21.667 22.667 48.333 33.999 80 33.999s57.5 -11.167 77.5 -33.5s30 -49.5 30 -81.5s-10 -59.167 -30 -81.5s-46 -33.5 -78 -33.5s-58.667 11.167 -80 33.5s-32 49.333 -32 81s10.833 58.834 32.5 81.501zM293.998 581.998c0 -48.667 3.33789 -94.332 10.0049 -136.999
s18.334 -84.5 35.001 -125.5s37.667 -76.167 63 -105.5c56.667 -64.667 136.667 -97 240 -97c149.333 -0.666992 250.666 66.333 303.999 201c29.333 74.667 44 162.667 44 264c0 233.333 -69.333 380.666 -208 441.999c-40.667 18 -87.334 27 -140.001 27
s-99.334 -9 -140.001 -27s-73.834 -41.833 -99.501 -71.5s-46.834 -65.167 -63.501 -106.5s-28.334 -83.5 -35.001 -126.5s-10 -88.833 -10 -137.5zM112.003 582c0 84.667 11 163.169 33 235.502s54.333 136.5 97 192.5s98.167 100 166.5 132s146.166 48 233.499 48
s165.333 -16 234 -48s124.334 -75.833 167.001 -131.5s75 -119.834 97 -192.501s33 -151.334 33 -236.001s-11 -163 -33 -235s-54.333 -135.5 -97 -190.5s-98.334 -98.167 -167.001 -129.5s-146.667 -47 -234 -47s-165.166 15.667 -233.499 47s-123.833 74.5 -166.5 129.5
s-75 118.5 -97 190.5s-33 150.333 -33 235z" />
    <glyph glyph-name="divide" unicode="&#xf7;" horiz-adv-x="724" 
d="M691 508h-682v131h682v-131zM268.5 896c21.667 22.667 48.333 33.999 80 33.999s57.5 -11.167 77.5 -33.5s30 -49.5 30 -81.5s-10 -59.167 -30 -81.5s-46 -33.5 -78 -33.5s-58.667 11.167 -80 33.5s-32 49.333 -32 81s10.833 58.834 32.5 81.501zM266.499 410.999
c21.667 22.667 48.333 33.999 80 33.999s57.5 -11.167 77.5 -33.5s30 -49.5 30 -81.5s-10 -59.167 -30 -81.5s-46 -33.5 -78 -33.5s-58.667 11.167 -80 33.5s-32 49.333 -32 81s10.833 58.834 32.5 81.501z" />
    <glyph glyph-name="oslash" unicode="&#xf8;" horiz-adv-x="1161" 
d="M261 -168l66.999 195.999c-101.333 48.667 -175.5 122.334 -222.5 221.001s-70.5 200 -70.5 304s11 192.167 33 264.5s54.167 136.5 96.5 192.5s97.833 100 166.5 132s139 48 211 48s132.333 -6.66699 181 -20l67 195l81 -30l-67 -195
c100.667 -51.333 174.5 -126.5 221.5 -225.5s70.5 -209.833 70.5 -332.5c0 -213.333 -62.667 -375.333 -188 -486c-87.333 -77.333 -201.666 -116 -342.999 -116c-54.667 0 -104.667 6 -150 18l-66 -196zM216.999 581.999c0 -202 53.335 -339.667 160.002 -413l299 866
c-32 10.667 -71.667 16 -119 16s-91.333 -9 -132 -27s-73.834 -41.833 -99.501 -71.5s-46.834 -65.167 -63.501 -106.5c-30 -74.667 -45 -162.667 -45 -264zM460.001 129.999c29.333 -8.66699 67.333 -13 114 -13s90.5 8.83301 131.5 26.5s74.5 41.167 100.5 70.5
c25.333 28 46 62.667 62 104c29.333 74.667 44.333 162.667 45 264c0 202 -52.667 340 -158 414z" />
    <glyph glyph-name="ugrave" unicode="&#xf9;" horiz-adv-x="1210" 
d="M638 1318l-67 -26l-328 555l242 89zM543 117c129.333 0 247.333 52.333 354 157v895h190v-1169h-141l-27 176c-116 -130.667 -244.833 -196 -386.5 -196s-245.667 40.5 -312 121.5s-99.5 194.5 -99.5 340.5v727h190v-727c0.666992 -156 39 -255.333 115 -298
c32 -17.333 71 -26.333 117 -27z" />
    <glyph glyph-name="uacute" unicode="&#xfa;" horiz-adv-x="1210" 
d="M632 1292l-57 26l159 611l232 -91zM543 117c129.333 0 247.333 52.333 354 157v895h190v-1169h-141l-27 176c-116 -130.667 -244.833 -196 -386.5 -196s-245.667 40.5 -312 121.5s-99.5 194.5 -99.5 340.5v727h190v-727c0.666992 -156 39 -255.333 115 -298
c32 -17.333 71 -26.333 117 -27z" />
    <glyph glyph-name="ucircumflex" unicode="&#xfb;" horiz-adv-x="1210" 
d="M604 1669l-212 -377l-128 78l292 501h96l292 -501l-128 -78zM543 117c129.333 0 247.333 52.333 354 157v895h190v-1169h-141l-27 176c-116 -130.667 -244.833 -196 -386.5 -196s-245.667 40.5 -312 121.5s-99.5 194.5 -99.5 340.5v727h190v-727
c0.666992 -156 39 -255.333 115 -298c32 -17.333 71 -26.333 117 -27z" />
    <glyph glyph-name="udieresis" unicode="&#xfc;" horiz-adv-x="1210" 
d="M281.5 1488c21.667 22.667 48.333 33.999 80 33.999s57.5 -11.167 77.5 -33.5s30 -49.5 30 -81.5s-10 -59.167 -30 -81.5s-46 -33.5 -78 -33.5s-58.667 11.167 -80 33.5s-32 49.333 -32 81s10.833 58.834 32.5 81.501zM771.499 1488
c21.667 22.667 48.333 33.999 80 33.999s57.5 -11.167 77.5 -33.5s30 -49.5 30 -81.5s-10 -59.167 -30 -81.5s-46 -33.5 -78 -33.5s-58.667 11.167 -80 33.5s-32 49.333 -32 81s10.833 58.834 32.5 81.501zM542.998 116.998c129.333 0 247.333 52.333 354 157v895h190v-1169
h-141l-27 176c-116 -130.667 -244.833 -196 -386.5 -196s-245.667 40.5 -312 121.5s-99.5 194.5 -99.5 340.5v727h190v-727c0.666992 -156 39 -255.333 115 -298c32 -17.333 71 -26.333 117 -27z" />
    <glyph glyph-name="yacute" unicode="&#xfd;" horiz-adv-x="1209" 
d="M632 1292l-57 26l159 611l232 -91zM624 249l300.997 919.999h195l-437 -1206l-27 -73.5c-6.66699 -18.333 -16 -41.333 -28 -69s-22.667 -49.834 -32 -66.501s-21.166 -36 -35.499 -58s-28.666 -39.667 -42.999 -53s-31.166 -27.166 -50.499 -41.499
s-39.666 -25.5 -60.999 -33.5c-48 -18 -100.333 -27 -157 -27l-51 125c85.333 16 152.333 43.333 201 82c51.333 40.667 97.666 132.334 138.999 275.001l-451 1146h182z" />
    <glyph glyph-name="thorn" unicode="&#xfe;" horiz-adv-x="1361" 
d="M1115.5 818.5c18.333 -71.667 27.5 -149.669 27.5 -234.002s-9.33301 -162.166 -28 -233.499s-46.5 -135 -83.5 -191s-86 -100 -147 -132s-131.167 -48 -210.5 -48c-166 0 -285.667 45.667 -359 137v-582l-186 -22v2052h184v-561c42.667 52.667 95 96.834 157 132.501
s131.5 53.5 208.5 53.5s146.167 -15.833 207.5 -47.5s110.333 -75.667 147 -132s64.167 -120.333 82.5 -192zM945.5 390.998c10.333 48 15.501 96.3291 15.501 144.996s-1.5 91.834 -4.5 129.501s-8.33301 76.334 -16 116.001s-18.5 74.834 -32.5 105.501
c-14.667 30.667 -32 58.334 -52 83.001c-42 51.333 -102.667 77 -182 77c-119.333 0 -231.333 -52.333 -336 -157l-16 -646c39.333 -33.333 92.666 -61.833 159.999 -85.5s129.833 -35.5 187.5 -35.5s105 12.167 142 36.5s66 57 87 98s36.667 85.5 47 133.5z" />
    <glyph glyph-name="ydieresis" unicode="&#xff;" horiz-adv-x="1209" 
d="M281.5 1488c21.667 22.667 48.333 33.999 80 33.999s57.5 -11.167 77.5 -33.5s30 -49.5 30 -81.5s-10 -59.167 -30 -81.5s-46 -33.5 -78 -33.5s-58.667 11.167 -80 33.5s-32 49.333 -32 81s10.833 58.834 32.5 81.501zM771.499 1488
c21.667 22.667 48.333 33.999 80 33.999s57.5 -11.167 77.5 -33.5s30 -49.5 30 -81.5s-10 -59.167 -30 -81.5s-46 -33.5 -78 -33.5s-58.667 11.167 -80 33.5s-32 49.333 -32 81s10.833 58.834 32.5 81.501zM623.998 248.998l300.997 919.999h195l-437 -1206l-27 -73.5
c-6.66699 -18.333 -16 -41.333 -28 -69s-22.667 -49.834 -32 -66.501s-21.166 -36 -35.499 -58s-28.666 -39.667 -42.999 -53s-31.166 -27.166 -50.499 -41.499s-39.666 -25.5 -60.999 -33.5c-48 -18 -100.333 -27 -157 -27l-51 125c85.333 16 152.333 43.333 201 82
c51.333 40.667 97.666 132.334 138.999 275.001l-451 1146h182z" />
    <glyph glyph-name="Amacron" unicode="&#x100;" horiz-adv-x="1501" 
d="M1091 1712h-682v117h682v-117zM1067 485l-317 975l-317 -975h634zM1100 383h-700l-123 -383h-193l516 1579h300l516 -1579h-193z" />
    <glyph glyph-name="amacron" unicode="&#x101;" horiz-adv-x="1193" 
d="M934 1292h-682v117h682v-117zM549 117c114 0 226 51.332 336 153.999v298c-87.333 14 -162.333 21 -225 21s-108.5 -1.66699 -137.5 -5s-58 -10 -87 -20s-52.833 -23.333 -71.5 -40c-42 -37.333 -63 -96.166 -63 -176.499s20 -139 60 -176s102.667 -55.5 188 -55.5z
M885 664.999v48.002c-0.666992 145.333 -24.334 238 -71.001 278c-44 37.333 -103 56 -177 56c-140.667 0 -269.667 -37.333 -387 -112l-67 122c76.667 43.333 147.834 76.333 213.501 99s139.667 34 222 34s153.833 -9.16699 214.5 -27.5s109 -48.833 145 -91.5
s61.167 -94.334 75.5 -155.001s21.5 -137.334 21.5 -230.001v-686h-140l-28 178c-96.667 -132 -231.667 -198 -405 -198c-122.667 0 -218.667 30.5 -288 91.5s-104 151.5 -104 271.5c0 126 44.667 220.667 134 284c82.667 58.667 186 88 310 88c46 0 103 -4.83301 171 -14.5
s121.333 -21.5 160 -35.5z" />
    <glyph glyph-name="Abreve" unicode="&#x102;" horiz-adv-x="1501" 
d="M752 1822c43.333 0 77.667 11.333 103 34s38 54.334 38 95.001h117c0 -159.333 -86 -239 -258 -239c-84 0 -148.667 20 -194 60s-68 99.667 -68 179h117c0 -40.667 13.333 -72.334 40 -95.001s61.667 -34 105 -34zM1067 485l-317 975l-317 -975h634zM1100 383h-700
l-123 -383h-193l516 1579h300l516 -1579h-193z" />
    <glyph glyph-name="abreve" unicode="&#x103;" horiz-adv-x="1193" 
d="M595 1402c43.333 0 77.667 11.333 103 34s38 54.334 38 95.001h117c0 -159.333 -86 -239 -258 -239c-84 0 -148.667 20 -194 60s-68 99.667 -68 179h117c0 -40.667 13.333 -72.334 40 -95.001s61.667 -34 105 -34zM549.001 117c114 0 226 51.332 336 153.999v298
c-87.333 14 -162.333 21 -225 21s-108.5 -1.66699 -137.5 -5s-58 -10 -87 -20s-52.833 -23.333 -71.5 -40c-42 -37.333 -63 -96.166 -63 -176.499s20 -139 60 -176s102.667 -55.5 188 -55.5zM885.001 664.999v48.002c-0.666992 145.333 -24.334 238 -71.001 278
c-44 37.333 -103 56 -177 56c-140.667 0 -269.667 -37.333 -387 -112l-67 122c76.667 43.333 147.834 76.333 213.501 99s139.667 34 222 34s153.833 -9.16699 214.5 -27.5s109 -48.833 145 -91.5s61.167 -94.334 75.5 -155.001s21.5 -137.334 21.5 -230.001v-686h-140
l-28 178c-96.667 -132 -231.667 -198 -405 -198c-122.667 0 -218.667 30.5 -288 91.5s-104 151.5 -104 271.5c0 126 44.667 220.667 134 284c82.667 58.667 186 88 310 88c46 0 103 -4.83301 171 -14.5s121.333 -21.5 160 -35.5z" />
    <glyph glyph-name="Aogonek" unicode="&#x104;" horiz-adv-x="2048" 
 />
    <glyph glyph-name="aogonek" unicode="&#x105;" horiz-adv-x="2048" 
 />
    <glyph glyph-name="Cacute" unicode="&#x106;" horiz-adv-x="1328" 
d="M698 1712l-57 26l159 611l232 -91zM1151 1385c-130 48.667 -241.499 72.999 -334.499 72.999s-168.667 -13 -227 -39s-104.666 -59.667 -138.999 -101s-62 -92.5 -83 -153.5s-35 -121.333 -42 -181s-10.5 -126.167 -10.5 -199.5s3.66699 -140.166 11 -200.499
s21.666 -120.833 42.999 -181.5s49.166 -111.5 83.499 -152.5s80.5 -74.333 138.5 -100s125.667 -38.5 203 -38.5c74.667 -0.666992 176.667 25.666 306 78.999l68 28l56 -139c-118 -48 -206 -80 -264 -96s-128 -24 -210 -24s-161.333 14.833 -238 44.5
s-139.334 69.834 -188.001 120.501c-49.333 49.333 -90 110 -122 182c-58.667 131.333 -88 292 -88 482c0 421.333 138.667 681.333 416 780c77.333 28 165.333 42 264 42c74.667 0 134.334 -5.66699 179.001 -17s73.5 -18.833 86.5 -22.5l67.5 -20l69 -20.5z" />
    <glyph glyph-name="cacute" unicode="&#x107;" horiz-adv-x="1115" 
d="M589 1292l-57 26l159 611l232 -91zM310 717c-6 -42 -8.99902 -100.332 -8.99902 -174.999s13.333 -148 40 -220c50.667 -136.667 145 -205 283 -205c134 0 243.667 42.667 329 128l57 -134c-124.667 -87.333 -255 -131 -391 -131c-84.667 0 -160.334 16 -227.001 48
c-66 32 -119 76 -159 132c-81.333 113.333 -122 253.333 -122 420c0.666992 168 41.667 310 123 426c40 57.333 93.333 102.333 160 135s142.667 49 228 49c134 0 263.333 -44.333 388 -133l-57 -133c-89.333 77.333 -189.666 116 -300.999 116s-194.333 -31.667 -249 -95
c-24.667 -28.667 -44.834 -63.334 -60.501 -104.001s-26.5 -82 -32.5 -124z" />
    <glyph glyph-name="Ccircumflex" unicode="&#x108;" horiz-adv-x="1328" 
d="M669 2089l-212 -377l-128 78l292 501h96l292 -501l-128 -78zM1151 1385c-130 48.667 -241.499 72.999 -334.499 72.999s-168.667 -13 -227 -39s-104.666 -59.667 -138.999 -101s-62 -92.5 -83 -153.5s-35 -121.333 -42 -181s-10.5 -126.167 -10.5 -199.5
s3.66699 -140.166 11 -200.499s21.666 -120.833 42.999 -181.5s49.166 -111.5 83.499 -152.5s80.5 -74.333 138.5 -100s125.667 -38.5 203 -38.5c74.667 -0.666992 176.667 25.666 306 78.999l68 28l56 -139c-118 -48 -206 -80 -264 -96s-128 -24 -210 -24
s-161.333 14.833 -238 44.5s-139.334 69.834 -188.001 120.501c-49.333 49.333 -90 110 -122 182c-58.667 131.333 -88 292 -88 482c0 421.333 138.667 681.333 416 780c77.333 28 165.333 42 264 42c74.667 0 134.334 -5.66699 179.001 -17s73.5 -18.833 86.5 -22.5
l67.5 -20l69 -20.5z" />
    <glyph glyph-name="ccircumflex" unicode="&#x109;" horiz-adv-x="1115" 
d="M560 1669l-212 -377l-128 78l292 501h96l292 -501l-128 -78zM310 717c-6 -42 -8.99902 -100.332 -8.99902 -174.999s13.333 -148 40 -220c50.667 -136.667 145 -205 283 -205c134 0 243.667 42.667 329 128l57 -134c-124.667 -87.333 -255 -131 -391 -131
c-84.667 0 -160.334 16 -227.001 48c-66 32 -119 76 -159 132c-81.333 113.333 -122 253.333 -122 420c0.666992 168 41.667 310 123 426c40 57.333 93.333 102.333 160 135s142.667 49 228 49c134 0 263.333 -44.333 388 -133l-57 -133
c-89.333 77.333 -189.666 116 -300.999 116s-194.333 -31.667 -249 -95c-24.667 -28.667 -44.834 -63.334 -60.501 -104.001s-26.5 -82 -32.5 -124z" />
    <glyph glyph-name="Ccaron" unicode="&#x10c;" horiz-adv-x="1328" 
d="M669 1914l212 377l128 -78l-292 -501h-96l-292 501l128 78zM1151 1385c-130 48.667 -241.499 72.999 -334.499 72.999s-168.667 -13 -227 -39s-104.666 -59.667 -138.999 -101s-62 -92.5 -83 -153.5s-35 -121.333 -42 -181s-10.5 -126.167 -10.5 -199.5
s3.66699 -140.166 11 -200.499s21.666 -120.833 42.999 -181.5s49.166 -111.5 83.499 -152.5s80.5 -74.333 138.5 -100s125.667 -38.5 203 -38.5c74.667 -0.666992 176.667 25.666 306 78.999l68 28l56 -139c-118 -48 -206 -80 -264 -96s-128 -24 -210 -24
s-161.333 14.833 -238 44.5s-139.334 69.834 -188.001 120.501c-49.333 49.333 -90 110 -122 182c-58.667 131.333 -88 292 -88 482c0 421.333 138.667 681.333 416 780c77.333 28 165.333 42 264 42c74.667 0 134.334 -5.66699 179.001 -17s73.5 -18.833 86.5 -22.5
l67.5 -20l69 -20.5z" />
    <glyph glyph-name="ccaron" unicode="&#x10d;" horiz-adv-x="1115" 
d="M560 1494l212 377l128 -78l-292 -501h-96l-292 501l128 78zM310 717c-6 -42 -8.99902 -100.332 -8.99902 -174.999s13.333 -148 40 -220c50.667 -136.667 145 -205 283 -205c134 0 243.667 42.667 329 128l57 -134c-124.667 -87.333 -255 -131 -391 -131
c-84.667 0 -160.334 16 -227.001 48c-66 32 -119 76 -159 132c-81.333 113.333 -122 253.333 -122 420c0.666992 168 41.667 310 123 426c40 57.333 93.333 102.333 160 135s142.667 49 228 49c134 0 263.333 -44.333 388 -133l-57 -133
c-89.333 77.333 -189.666 116 -300.999 116s-194.333 -31.667 -249 -95c-24.667 -28.667 -44.834 -63.334 -60.501 -104.001s-26.5 -82 -32.5 -124z" />
    <glyph glyph-name="Emacron" unicode="&#x112;" horiz-adv-x="1219" 
d="M956 1712h-682v117h682v-117zM1106 0h-983v1579h970v-143h-776v-545h678v-115h-678v-633h789v-143z" />
    <glyph glyph-name="emacron" unicode="&#x113;" horiz-adv-x="1182" 
d="M933 1292h-682v117h682v-117zM903 717c0 95.333 -20.001 174.333 -60.001 237c-44 68 -115.333 102.333 -214 103c-195.333 0 -303.666 -125 -324.999 -375h599v35zM299.999 563c2.66699 -226.667 72.6641 -367.332 209.997 -421.999c40 -16 86.333 -24 139 -24
c112.667 0 214.667 42.333 306 127l62 -145c-49.333 -34.667 -109.833 -63.167 -181.5 -85.5s-144.667 -33.5 -219 -33.5s-145.5 15.333 -213.5 46c-68.667 31.333 -123.667 74.333 -165 129c-84 110 -125.667 251 -125 423c0.666992 167.333 42.334 309 125.001 425
c41.333 57.333 95.333 102.833 162 136.5s139.834 50.5 219.501 50.5s148.334 -13.5 206.001 -40.5s104.167 -64.167 139.5 -111.5c70.667 -94.667 106 -215.334 106 -362.001c0 -30 -3.66699 -67.667 -11 -113h-760z" />
    <glyph glyph-name="Eogonek" unicode="&#x118;" horiz-adv-x="2048" 
 />
    <glyph glyph-name="eogonek" unicode="&#x119;" horiz-adv-x="2048" 
 />
    <glyph glyph-name="Gcedilla" unicode="&#x122;" horiz-adv-x="1473" 
d="M593 -436v292.998h281v-249c0 -76 -19.667 -139.167 -59 -189.5s-96 -86.166 -170 -107.499l-51 94c46 16 79.333 35.333 100 58s30.667 56.334 30 101.001h-131zM888 -29.002c-46 -8 -100.001 -11.999 -162.001 -11.999s-124.5 11.167 -187.5 33.5
s-117.167 53.333 -162.5 93s-85 85.5 -119 137.5s-61.333 109.333 -82 172c-40.667 123.333 -61 242.833 -61 358.5s7.33301 213.667 22 294s38.667 155.5 72 225.5s75.333 129.667 126 179c108.667 105.333 260 158 454 158c153.333 0 300.666 -44.667 441.999 -134
l-66 -135c-44 37.333 -101.833 66.166 -173.5 86.499s-137.667 30.5 -198 30.5s-113.5 -6.83301 -159.5 -20.5s-85 -32.167 -117 -55.5s-60.167 -52.333 -84.5 -87s-43.833 -70.667 -58.5 -108s-26.334 -79.666 -35.001 -126.999c-15.333 -84 -23 -164.167 -23 -240.5
s1.66699 -136.333 5 -180s9.66602 -88.834 18.999 -135.501s21.333 -88.667 36 -126s34.334 -73 59.001 -107s53.334 -62.333 86.001 -85c70.667 -49.333 161.334 -74.333 272.001 -75c100.667 0.666992 186.334 21.667 257.001 63c79.333 46.667 119 121.667 119 225v285
h-402v127h587v-811h-88l-53 213c-12 -48 -34.5 -89.5 -67.5 -124.5s-72.5 -61.333 -118.5 -79s-92 -30.5 -138 -38.5z" />
    <glyph glyph-name="gcedilla" unicode="&#x123;" horiz-adv-x="2048" 
 />
    <glyph glyph-name="Itilde" unicode="&#x128;" horiz-adv-x="823" 
d="M791 1962c0 -72.667 -16.1699 -132.5 -48.5029 -179.5s-80.166 -70.5 -143.499 -70.5c-62 -0.666992 -124.333 19 -187 59c-79.333 36.667 -134.666 56.667 -165.999 60c-24 0 -39.833 -9.66699 -47.5 -29s-11.5 -48 -11.5 -86h-156c0 173.333 67 260 201 260
c62.667 0 122.334 -20.833 179.001 -62.5s111.667 -62.5 165 -62.5c39.333 0 59 37 59 111h156zM113.997 112h204v1349h-204v118h593v-118h-206v-1349h206v-112h-593v112z" />
    <glyph glyph-name="itilde" unicode="&#x129;" horiz-adv-x="634" 
d="M695 1542c0 -72.667 -16.1699 -132.5 -48.5029 -179.5s-80.166 -70.5 -143.499 -70.5c-62 -0.666992 -124.333 19 -187 59c-79.333 36.667 -134.666 56.667 -165.999 60c-24 0 -39.833 -9.66699 -47.5 -29s-11.5 -48 -11.5 -86h-156c0 173.333 67 260 201 260
c62.667 0 122.334 -20.833 179.001 -62.5s111.667 -62.5 165 -62.5c39.333 0 59 37 59 111h156zM405.997 0h-182v1169h182v-1169z" />
    <glyph glyph-name="Imacron" unicode="&#x12a;" horiz-adv-x="823" 
d="M752 1712h-682v117h682v-117zM114 112h204v1349h-204v118h593v-118h-206v-1349h206v-112h-593v112z" />
    <glyph glyph-name="imacron" unicode="&#x12b;" horiz-adv-x="634" 
d="M656 1292h-682v117h682v-117zM406 0h-182v1169h182v-1169z" />
    <glyph glyph-name="Iogonek" unicode="&#x12e;" horiz-adv-x="2048" 
 />
    <glyph glyph-name="iogonek" unicode="&#x12f;" horiz-adv-x="2048" 
 />
    <glyph glyph-name="dotlessi" unicode="&#x131;" horiz-adv-x="634" 
d="M406 0h-182v1169h182v-1169z" />
    <glyph glyph-name="Jcircumflex" unicode="&#x134;" horiz-adv-x="727" 
d="M505 2089l-212 -377l-128 78l292 501h96l292 -501l-128 -78zM136 -90l-47 127.001c124.667 19.333 207 51.333 247 96c26 30 42.333 56.333 49 79s11.667 42 15 58c4 16 6.66699 36.667 8 62c2.66699 34.667 3.66699 83.667 3 147v1100h192v-1065
c0.666992 -174.667 -17.666 -302.667 -54.999 -384c-33.333 -74.667 -80 -128.334 -140 -161.001c-70.667 -39.333 -161.334 -59 -272.001 -59z" />
    <glyph glyph-name="jcircumflex" unicode="&#x135;" horiz-adv-x="606" 
d="M288 2056l-212 -377l-128 78l292 501h96l292 -501l-128 -78zM93 -258c94 61.333 150.999 138.667 170.999 232c10.667 52.667 16.334 120 17.001 202v993h190v-1015c0 -117.333 -25.333 -225.333 -76 -324c-25.333 -49.333 -59.833 -92 -103.5 -128
s-94.167 -61 -151.5 -75zM295.499 1543c21.667 22.667 48.333 33.999 80 33.999s57.5 -11.167 77.5 -33.5s30 -49.5 30 -81.5s-10 -59.167 -30 -81.5s-46 -33.5 -78 -33.5s-58.667 11.167 -80 33.5s-32 49.333 -32 81s10.833 58.834 32.5 81.501z" />
    <glyph glyph-name="kcommaaccent" unicode="&#x137;" horiz-adv-x="1213" 
d="M488 -395v292.998h281v-249c0 -76 -19.667 -139.167 -59 -189.5s-96 -86.166 -170 -107.499l-51 94c46 16 79.333 35.333 100 58s30.667 56.334 30 101.001h-131zM1099 1169l-553 -521l586 -648h-221l-480 555l-116 -96v-459h-190v1579l190 35v-987l559 542h225z" />
    <glyph glyph-name="Nacute" unicode="&#x143;" horiz-adv-x="1500" 
d="M778 1712l-57 26l159 611l232 -91zM1214 145v1434h162v-1579h-262l-829 1434v-1434h-162v1579h262z" />
    <glyph glyph-name="nacute" unicode="&#x144;" horiz-adv-x="1227" 
d="M644 1292l-57 26l159 611l232 -91zM313 880l-0.000976562 -879.999h-190v1169h140l24 -187c46 58 113.167 106.833 201.5 146.5s168.333 59.5 240 59.5s132 -12.167 181 -36.5s87.5 -58.166 115.5 -101.499c54.667 -84.667 82 -192.334 82 -323.001v-727h-190v727
c-0.666992 116.667 -21.667 201 -63 253c-35.333 44 -84.333 66.167 -147 66.5s-133.167 -17.334 -211.5 -53.001s-139.166 -73.5 -182.499 -113.5z" />
    <glyph glyph-name="OE" unicode="&#x152;" horiz-adv-x="2269" 
d="M2215 0l-983 0.000976562v169c-102.667 -140 -254 -210 -454 -210c-271.333 0 -458.333 108.667 -561 326c-62 131.333 -93 297.666 -93 498.999c0 425.333 131.667 687.333 395 786c72 26.667 153.667 40 245 40c208 0 364 -71 468 -213v182h970v-143h-776v-545h678
v-115h-678v-633h789v-143zM1232 878.001c-10.667 224 -61.3301 381.332 -151.997 471.999c-72 72 -172 108 -300 108c-202.667 0 -336.334 -92.667 -401.001 -278c-36.667 -104.667 -55 -236.667 -55 -396c0 -255.333 46 -437 138 -545
c73.333 -85.333 179.333 -128 318 -128c185.333 0.666992 312.666 79.667 381.999 237c39.333 88.667 62.666 203.334 69.999 344.001v186z" />
    <glyph glyph-name="oe" unicode="&#x153;" horiz-adv-x="2041" 
d="M1095 961c90 152.667 231.335 228.999 424.002 228.999c143.333 0 253 -46.833 329 -140.5s114 -218.167 114 -373.5c0 -28.667 -2.66699 -65 -8 -109h-760c0 -219.333 60 -355.666 180 -408.999c45.333 -20 100.666 -30.333 165.999 -31c113.333 0 215.333 39 306 117
l62 -145c-42.667 -31.333 -101.334 -59.5 -176.001 -84.5s-142.667 -37.5 -204 -37.5c-198.667 0 -343.334 75.667 -434.001 227c-92 -149.333 -238 -224 -438 -224c-115.333 0 -213.333 26 -294 78c-157.333 100.667 -236 275.334 -236 524.001
c0 249.333 79 425.666 237 528.999c80.667 52.667 178.334 79 293.001 79c200.667 0 347 -76.333 439 -229zM656.002 116.999c62.667 0 117 11.832 163 35.499s82.333 56.834 109 99.501c50.667 83.333 76 193.333 76 330c0 239.333 -70.667 387.666 -212 444.999
c-40 16 -88.333 24 -145 24s-108 -12 -154 -36s-82.333 -58 -109 -102c-50.667 -85.333 -76 -195.666 -76 -330.999c0 -222.667 61.667 -366 185 -430c46 -24 100.333 -35.667 163 -35zM1794 716.998c0 226.667 -91.333 340.001 -274 340.001
c-107.333 0 -188.5 -33.333 -243.5 -100s-82.5 -158.334 -82.5 -275.001h600v35z" />
    <glyph glyph-name="Racute" unicode="&#x154;" horiz-adv-x="1333" 
d="M698 1712l-57 26l159 611l232 -91zM1032 0l3.99707 312c0 130.667 -14 220 -42 268c-26.667 48 -64 81.667 -112 101c-62.667 25.333 -127.167 40.333 -193.5 45s-130.166 7 -191.499 7h-180v-733h-194v1579h376c160 0 261.167 -3.66699 303.5 -11
s83.5 -15.833 123.5 -25.5s71.833 -21.334 95.5 -35.001s49.334 -31.167 77.001 -52.5s48.834 -45.666 63.501 -72.999c36 -64.667 54 -138.667 54 -222c0 -112 -40.167 -200.5 -120.5 -265.5s-177.833 -97.5 -292.5 -97.5c206 -23.333 333.667 -99 383 -227
c18.667 -49.333 28 -107 28 -173v-397h-182zM611.997 1437l-113 -1.00195h-182v-574h241c214.667 0 357 38 427 114c40.667 44.667 61 102.667 61 174c0 106.667 -35 181.334 -105 224.001c-43.333 26.667 -87.333 43.334 -132 50.001c-64 8.66699 -129.667 13 -197 13z" />
    <glyph glyph-name="Rcommaaccent" unicode="&#x156;" horiz-adv-x="1333" 
d="M529 -395v292.998h281v-249c0 -76 -19.667 -139.167 -59 -189.5s-96 -86.166 -170 -107.499l-51 94c46 16 79.333 35.333 100 58s30.667 56.334 30 101.001h-131zM1032 -0.00195312l3.99707 312c0 130.667 -14 220 -42 268c-26.667 48 -64 81.667 -112 101
c-62.667 25.333 -127.167 40.333 -193.5 45s-130.166 7 -191.499 7h-180v-733h-194v1579h376c160 0 261.167 -3.66699 303.5 -11s83.5 -15.833 123.5 -25.5s71.833 -21.334 95.5 -35.001s49.334 -31.167 77.001 -52.5s48.834 -45.666 63.501 -72.999
c36 -64.667 54 -138.667 54 -222c0 -112 -40.167 -200.5 -120.5 -265.5s-177.833 -97.5 -292.5 -97.5c206 -23.333 333.667 -99 383 -227c18.667 -49.333 28 -107 28 -173v-397h-182zM611.997 1437l-113 -1.00195h-182v-574h241c214.667 0 357 38 427 114
c40.667 44.667 61 102.667 61 174c0 106.667 -35 181.334 -105 224.001c-43.333 26.667 -87.333 43.334 -132 50.001c-64 8.66699 -129.667 13 -197 13z" />
    <glyph glyph-name="rcommaaccent" unicode="&#x157;" horiz-adv-x="831" 
d="M280 -395v292.998h281v-249c0 -76 -19.667 -139.167 -59 -189.5s-96 -86.166 -170 -107.499l-51 94c46 16 79.333 35.333 100 58s30.667 56.334 30 101.001h-131zM618 1190c38 0 71.334 -4 100.001 -12v-152c-13.333 2.66699 -40 4 -80 4s-94.833 -13.833 -164.5 -41.5
s-123.167 -59.167 -160.5 -94.5v-894h-190v1169h143l30 -192c109.333 142 216.666 213 321.999 213z" />
    <glyph glyph-name="Rcaron" unicode="&#x158;" horiz-adv-x="1333" 
d="M670 1914l212 377l128 -78l-292 -501h-96l-292 501l128 78zM1032 0l3.99707 312c0 130.667 -14 220 -42 268c-26.667 48 -64 81.667 -112 101c-62.667 25.333 -127.167 40.333 -193.5 45s-130.166 7 -191.499 7h-180v-733h-194v1579h376
c160 0 261.167 -3.66699 303.5 -11s83.5 -15.833 123.5 -25.5s71.833 -21.334 95.5 -35.001s49.334 -31.167 77.001 -52.5s48.834 -45.666 63.501 -72.999c36 -64.667 54 -138.667 54 -222c0 -112 -40.167 -200.5 -120.5 -265.5s-177.833 -97.5 -292.5 -97.5
c206 -23.333 333.667 -99 383 -227c18.667 -49.333 28 -107 28 -173v-397h-182zM611.997 1437l-113 -1.00195h-182v-574h241c214.667 0 357 38 427 114c40.667 44.667 61 102.667 61 174c0 106.667 -35 181.334 -105 224.001c-43.333 26.667 -87.333 43.334 -132 50.001
c-64 8.66699 -129.667 13 -197 13z" />
    <glyph glyph-name="rcaron" unicode="&#x159;" horiz-adv-x="831" 
d="M420 1494l212 377l128 -78l-292 -501h-96l-292 501l128 78zM618 1190c38 0 71.334 -4 100.001 -12v-152c-13.333 2.66699 -40 4 -80 4s-94.833 -13.833 -164.5 -41.5s-123.167 -59.167 -160.5 -94.5v-894h-190v1169h143l30 -192c109.333 142 216.666 213 321.999 213z
" />
    <glyph glyph-name="Sacute" unicode="&#x15a;" horiz-adv-x="1096" 
d="M576 1712l-57 26l159 611l232 -91zM70 72l19.998 149.995c76 -40 143.667 -68.5 203 -85.5s120 -25.5 182 -25.5s111.833 2.5 149.5 7.5s74.834 14.167 111.501 27.5s67.334 31.333 92.001 54c55.333 50 83 122 83 216c0 93.333 -38.333 166 -115 218
c-62 42 -134.167 75.833 -216.5 101.5l-199 63.5c-50.333 16.667 -98.166 37 -143.499 61c-45.333 22.667 -85.666 49.334 -120.999 80.001c-76.667 66 -115 158.333 -115 277c0 66.667 14.5 125.834 43.5 177.501s67.5 92.834 115.5 123.501c96.667 61.333 210 92 340 92
c180.667 0 345 -42 493 -126l-30 -147c-57.333 36.667 -122 66 -194 88s-134.833 33 -188.5 33s-96.5 -1.5 -128.5 -4.5s-65.5 -9.66699 -100.5 -20s-64.167 -24.166 -87.5 -41.499c-53.333 -40.667 -80 -102 -80 -184c0 -80 38.333 -141.333 115 -184
c53.333 -30 123.5 -57.167 210.5 -81.5s155.667 -44.666 206 -60.999s98.166 -37 143.499 -62s85.666 -54.167 120.999 -87.5c76.667 -72 115 -174 115 -306c0 -188 -77.667 -321 -233 -399c-90.667 -45.333 -200.667 -68 -330 -68c-78 0 -160 9.66699 -246 29
s-158 47.333 -216 84z" />
    <glyph glyph-name="sacute" unicode="&#x15b;" horiz-adv-x="1007" 
d="M534 1292l-57 26l159 611l232 -91zM99 100l63.998 144.995c42.667 -36.667 94.5 -67.167 155.5 -91.5s112.5 -36.5 154.5 -36.5s77 3 105 9c28 6.66699 55.333 16.667 82 30c58.667 30 88.334 82.667 89.001 158c0 78 -43.667 135 -131 171
c-38.667 16 -81.5 30.5 -128.5 43.5s-94 27.833 -141 44.5s-89.833 36.834 -128.5 60.501s-70.167 57.334 -94.5 101.001s-36.5 93.334 -36.5 149.001s12 103.334 36 143.001s55.667 70.834 95 93.501c79.333 46.667 168 70 266 70c55.333 0 123.166 -12.333 203.499 -37
s139.833 -53.334 178.5 -86.001l-62 -143c-97.333 78.667 -200.333 118 -309 118c-165.333 0 -248 -54 -248 -162c-0.666992 -57.333 43.666 -102.333 132.999 -135c40 -14.667 83.833 -29.167 131.5 -43.5s95.334 -31.5 143.001 -51.5s91.334 -43.5 131.001 -70.5
s71.834 -63.667 96.501 -110s37 -99.333 37 -159s-12.667 -111.5 -38 -155.5c-26 -44 -60.333 -78.333 -103 -103c-84 -48 -183 -72 -297 -72c-57.333 0 -125.5 11.833 -204.5 35.5s-138.833 51.834 -179.5 84.501z" />
    <glyph glyph-name="Scaron" unicode="&#x160;" horiz-adv-x="1096" 
d="M548 1914l212 377l128 -78l-292 -501h-96l-292 501l128 78zM70 72l19.998 149.995c76 -40 143.667 -68.5 203 -85.5s120 -25.5 182 -25.5s111.833 2.5 149.5 7.5s74.834 14.167 111.501 27.5s67.334 31.333 92.001 54c55.333 50 83 122 83 216
c0 93.333 -38.333 166 -115 218c-62 42 -134.167 75.833 -216.5 101.5l-199 63.5c-50.333 16.667 -98.166 37 -143.499 61c-45.333 22.667 -85.666 49.334 -120.999 80.001c-76.667 66 -115 158.333 -115 277c0 66.667 14.5 125.834 43.5 177.501s67.5 92.834 115.5 123.501
c96.667 61.333 210 92 340 92c180.667 0 345 -42 493 -126l-30 -147c-57.333 36.667 -122 66 -194 88s-134.833 33 -188.5 33s-96.5 -1.5 -128.5 -4.5s-65.5 -9.66699 -100.5 -20s-64.167 -24.166 -87.5 -41.499c-53.333 -40.667 -80 -102 -80 -184
c0 -80 38.333 -141.333 115 -184c53.333 -30 123.5 -57.167 210.5 -81.5s155.667 -44.666 206 -60.999s98.166 -37 143.499 -62s85.666 -54.167 120.999 -87.5c76.667 -72 115 -174 115 -306c0 -188 -77.667 -321 -233 -399c-90.667 -45.333 -200.667 -68 -330 -68
c-78 0 -160 9.66699 -246 29s-158 47.333 -216 84z" />
    <glyph glyph-name="scaron" unicode="&#x161;" horiz-adv-x="1007" 
d="M505 1494l212 377l128 -78l-292 -501h-96l-292 501l128 78zM99 100l63.998 144.995c42.667 -36.667 94.5 -67.167 155.5 -91.5s112.5 -36.5 154.5 -36.5s77 3 105 9c28 6.66699 55.333 16.667 82 30c58.667 30 88.334 82.667 89.001 158c0 78 -43.667 135 -131 171
c-38.667 16 -81.5 30.5 -128.5 43.5s-94 27.833 -141 44.5s-89.833 36.834 -128.5 60.501s-70.167 57.334 -94.5 101.001s-36.5 93.334 -36.5 149.001s12 103.334 36 143.001s55.667 70.834 95 93.501c79.333 46.667 168 70 266 70c55.333 0 123.166 -12.333 203.499 -37
s139.833 -53.334 178.5 -86.001l-62 -143c-97.333 78.667 -200.333 118 -309 118c-165.333 0 -248 -54 -248 -162c-0.666992 -57.333 43.666 -102.333 132.999 -135c40 -14.667 83.833 -29.167 131.5 -43.5s95.334 -31.5 143.001 -51.5s91.334 -43.5 131.001 -70.5
s71.834 -63.667 96.501 -110s37 -99.333 37 -159s-12.667 -111.5 -38 -155.5c-26 -44 -60.333 -78.333 -103 -103c-84 -48 -183 -72 -297 -72c-57.333 0 -125.5 11.833 -204.5 35.5s-138.833 51.834 -179.5 84.501z" />
    <glyph glyph-name="Umacron" unicode="&#x16a;" horiz-adv-x="1499" 
d="M1091 1712h-682v117h682v-117zM748 -41c-96 0 -180 12.502 -252 37.502s-131.333 59.167 -178 102.5c-48 43.333 -86.667 97.333 -116 162c-53.333 116.667 -80 268 -80 454v864h192v-868c0 -174.667 16 -302.334 48 -383.001c30 -76 73.333 -131.667 130 -167
c65.333 -40.667 150.666 -61 255.999 -61c158.667 0 270 45.333 334 136c40.667 57.333 66.334 117.333 77.001 180c15.333 91.333 23 189.666 23 294.999v868h196v-864c0 -290 -65.333 -495.333 -196 -616c-101.333 -93.333 -246 -140 -434 -140z" />
    <glyph glyph-name="umacron" unicode="&#x16b;" horiz-adv-x="1210" 
d="M945 1292h-682v117h682v-117zM543 117c129.333 0 247.333 52.333 354 157v895h190v-1169h-141l-27 176c-116 -130.667 -244.833 -196 -386.5 -196s-245.667 40.5 -312 121.5s-99.5 194.5 -99.5 340.5v727h190v-727c0.666992 -156 39 -255.333 115 -298
c32 -17.333 71 -26.333 117 -27z" />
    <glyph glyph-name="Uogonek" unicode="&#x172;" horiz-adv-x="2048" 
 />
    <glyph glyph-name="uogonek" unicode="&#x173;" horiz-adv-x="2048" 
 />
    <glyph glyph-name="Ydieresis" unicode="&#x178;" horiz-adv-x="1383" 
d="M368.5 1908c21.667 22.667 48.333 33.999 80 33.999s57.5 -11.167 77.5 -33.5s30 -49.5 30 -81.5s-10 -59.167 -30 -81.5s-46 -33.5 -78 -33.5s-58.667 11.167 -80 33.5s-32 49.333 -32 81s10.833 58.834 32.5 81.501zM858.499 1908
c21.667 22.667 48.333 33.999 80 33.999s57.5 -11.167 77.5 -33.5s30 -49.5 30 -81.5s-10 -59.167 -30 -81.5s-46 -33.5 -78 -33.5s-58.667 11.167 -80 33.5s-32 49.333 -32 81s10.833 58.834 32.5 81.501zM695.998 676.998l413 902h191l-514 -1094v-485h-190v485l-514 1094
h197z" />
    <glyph glyph-name="Zacute" unicode="&#x179;" horiz-adv-x="1270" 
d="M664 1712l-57 26l159 611l232 -91zM1149 1579v-160l-833 -1276h835v-143h-1032v180l829 1267h-829v132h1030z" />
    <glyph glyph-name="zacute" unicode="&#x17a;" horiz-adv-x="1034" 
d="M544 1292l-57 26l159 611l232 -91zM916 1169v-165l-626 -859h626v-145h-802v166l638 863h-608v140h772z" />
    <glyph glyph-name="Zdotaccent" unicode="&#x17b;" horiz-adv-x="1270" 
d="M557.5 1908c21.667 22.667 48.333 33.999 80 33.999s57.5 -11.167 77.5 -33.5s30 -49.5 30 -81.5s-10 -59.167 -30 -81.5s-46 -33.5 -78 -33.5s-58.667 11.167 -80 33.5s-32 49.333 -32 81s10.833 58.834 32.5 81.501zM1149 1579v-160l-833 -1276h835v-143h-1032v180
l829 1267h-829v132h1030z" />
    <glyph glyph-name="zdotaccent" unicode="&#x17c;" horiz-adv-x="1034" 
d="M437.5 1488c21.667 22.667 48.333 33.999 80 33.999s57.5 -11.167 77.5 -33.5s30 -49.5 30 -81.5s-10 -59.167 -30 -81.5s-46 -33.5 -78 -33.5s-58.667 11.167 -80 33.5s-32 49.333 -32 81s10.833 58.834 32.5 81.501zM915.999 1169v-165l-626 -859h626v-145h-802v166
l638 863h-608v140h772z" />
    <glyph glyph-name="Zcaron" unicode="&#x17d;" horiz-adv-x="1270" 
d="M635 1914l212 377l128 -78l-292 -501h-96l-292 501l128 78zM1149 1579v-160l-833 -1276h835v-143h-1032v180l829 1267h-829v132h1030z" />
    <glyph glyph-name="zcaron" unicode="&#x17e;" horiz-adv-x="1034" 
d="M515 1494l212 377l128 -78l-292 -501h-96l-292 501l128 78zM916 1169v-165l-626 -859h626v-145h-802v166l638 863h-608v140h772z" />
    <glyph glyph-name="circumflex" unicode="&#x2c6;" horiz-adv-x="1428" 
d="M714 809l-212 -377l-128 78l292 501h96l292 -501l-128 -78z" />
    <glyph glyph-name="caron" unicode="&#x2c7;" horiz-adv-x="1428" 
d="M714 633l212 377l128 -78l-292 -501h-96l-292 501l128 78z" />
    <glyph glyph-name="ring" unicode="&#x2da;" horiz-adv-x="1707" 
d="M854 1035c-72 0 -130.333 22 -175 66s-67 102 -67 174s22.333 130 67 174s103 66 175 66s130.333 -22 175 -66s67 -102 67 -174s-22.333 -130 -67 -174s-103 -66 -175 -66zM749.5 1168.5c27 -28.333 61.667 -42.5 104 -42.5s77.166 14.167 104.499 42.5
s41 63.833 41 106.5s-13.667 78.167 -41 106.5s-62.166 42.5 -104.499 42.5s-77 -14.167 -104 -42.5s-40.5 -63.833 -40.5 -106.5s13.5 -78.167 40.5 -106.5z" />
    <glyph glyph-name="tilde" unicode="&#x2dc;" horiz-adv-x="1707" 
d="M1231 1285c0 -72.667 -16.1699 -132.5 -48.5029 -179.5s-80.166 -70.5 -143.499 -70.5c-62 -0.666992 -124.333 19 -187 59c-79.333 36.667 -134.666 56.667 -165.999 60c-24 0 -39.833 -9.66699 -47.5 -29s-11.5 -48 -11.5 -86h-156c0 173.333 67 260 201 260
c62.667 0 122.334 -20.833 179.001 -62.5s111.667 -62.5 165 -62.5c39.333 0 59 37 59 111h156z" />
    <glyph glyph-name="acutecomb" unicode="&#x301;" horiz-adv-x="1097" 
d="M546 1639l-57 26l159 611l232 -91z" />
    <glyph glyph-name="uni0306" unicode="&#x306;" horiz-adv-x="780" 
d="M385 1509c43.333 0 77.667 11.333 103 34s38 54.334 38 95.001h117c0 -159.333 -86 -239 -258 -239c-84 0 -148.667 20 -194 60s-68 99.667 -68 179h117c0 -40.667 13.333 -72.334 40 -95.001s61.667 -34 105 -34z" />
    <glyph glyph-name="uni0E81" unicode="&#xe81;" horiz-adv-x="1510" 
d="M292 396l118.998 -16v447c-36.667 -12.667 -70 -19 -100 -19c-71.333 0 -127.666 15.667 -168.999 47s-62 79 -62 143s21 112.333 63 145s96.667 49 164 49c128.667 0 212.667 -54.667 252 -164c5.33301 3.33301 20.666 13.666 45.999 30.999s42.5 28.666 51.5 33.999
l49 29c23.667 14 43 23.667 58 29l56.5 20c40 14 93.333 21 160 21s127.334 -9.66699 182.001 -29s98.667 -49.666 132 -90.999c61.333 -76 92 -196.333 92 -361v-711h-171v768c0.666992 110.667 -15.666 190.334 -48.999 239.001c-36 52.667 -107 79 -213 79
c-98.667 0 -201.667 -41.333 -309 -124c-10 -8 -30.667 -23.333 -62 -46v-555c0 -240.667 -89.333 -361 -268 -361c-155.333 0 -233 65.667 -233 197c0 59.333 19.833 107 59.5 143s90.167 54.667 151.5 56zM410.998 936c0 102.667 -32.001 154 -96.001 154
c-31.333 0 -56.333 -7.16699 -75 -21.5s-28 -35.5 -28 -63.5c0 -64.667 31.667 -97 95 -97c30.667 0 65.334 9.33301 104.001 28zM213.997 197c0 -29.333 8.33203 -52.5 24.999 -69.5s36.667 -25.5 60 -25.5s41.333 3.16699 54 9.5s22.667 14.333 30 24s13 22.5 17 38.5
c6.66699 25.333 10.334 58.333 11.001 99v33h-79c-78.667 0 -118 -36.333 -118 -109z" />
    <glyph glyph-name="uni0E82" unicode="&#xe82;" horiz-adv-x="1327" 
d="M263 227c0 -62.667 31.668 -93.9971 95.001 -93.9971c30 0 58 5.5 84 16.5s52 22.833 78 35.5l52 25l248 113c65.333 30 132 46.667 200 50c126.667 -2.66699 190 -76.334 190 -221.001v-152h-168v151c0 26 -6.5 47 -19.5 63s-34.167 24 -63.5 24s-64 -10.333 -104 -31
l-336 -154c-78 -35.333 -146.5 -53 -205.5 -53s-110.333 20 -154 60s-65.5 92.667 -65.5 158c0 58 14.667 103.667 44 137c32 36.667 63.667 62.334 95 77.001c45.333 22 81.666 37.667 108.999 47s42.666 14.666 45.999 15.999l241 88c18 6.66699 45.333 15.667 82 27
l93 29c25.333 8 54 19.5 86 34.5s58 30.833 78 47.5c48 40.667 71.667 91 71 151c0 62.667 -19.667 109.667 -59 141c-40 32 -82.333 51.333 -127 58c-69.333 11.333 -137 17 -203 17c-155.333 0 -267.666 -26.333 -336.999 -79c16 2 32.667 3 50 3
c67.333 0 120.5 -17.667 159.5 -53s58.5 -85.333 58.5 -150s-21 -112.834 -63 -144.501s-98 -47.5 -168 -47.5c-160.667 0 -241 81.333 -241 244c0.666992 182 128.334 288.667 383.001 320c49.333 6 103 9 161 9s111.5 -2.33301 160.5 -7s99.167 -14 150.5 -28
s94.333 -32.333 129 -55s63 -53.834 85 -93.501s33 -80.5 33 -122.5s-4.5 -76.333 -13.5 -103s-22.5 -50.167 -40.5 -70.5s-36.5 -38.166 -55.5 -53.499s-42.833 -30 -71.5 -44c-40.667 -20 -78.5 -36.333 -113.5 -49s-54.833 -20 -59.5 -22l-475 -180
c-60.667 -24.667 -97.334 -52 -110.001 -82c-6 -14.667 -9 -32.334 -9 -53.001zM356.001 710.003c62.667 0 94 36.667 94 110c0 38 -12.667 64 -38 78s-61.333 21 -108 21h-59c-6.66699 -23.333 -10 -44.333 -10 -63c0 -97.333 40.333 -146 121 -146z" />
    <glyph glyph-name="uni0E84" unicode="&#xe84;" horiz-adv-x="1282" 
d="M636 1085c-242.667 0 -364 -63.665 -364 -190.998c0 -56 18 -100.5 54 -133.5s82.667 -49.5 140 -49.5h135v-121h-135c-60 0 -106 -17.833 -138 -53.5s-50.333 -84.834 -55 -147.501v-9l66 11c16.667 2.66699 34.667 4 54 4c64 0 114.833 -16.333 152.5 -49
s56.5 -81.5 56.5 -146.5s-20.5 -114.5 -61.5 -148.5s-101.167 -51 -180.5 -51s-141.333 31 -186 93s-67 140 -67 234s24.667 168.333 74 223s118 88 206 100c-79.333 1.33301 -145.833 23.166 -199.5 65.499s-80.5 100.5 -80.5 174.5c0 201.333 176.333 302 529 302
c187.333 0 324.666 -34 411.999 -102c92 -72 138 -198.333 138 -379v-711h-172v706c0 139.333 -28.167 237.333 -84.5 294s-154.166 85 -293.499 85zM273 284.002c2 -120.667 35.167 -181.001 99.5 -181.001s96.5 34.667 96.5 104c0 36.667 -11.167 62.334 -33.5 77.001
s-54.5 22 -96.5 22h-66v-22z" />
    <glyph glyph-name="uni0E87" unicode="&#xe87;" horiz-adv-x="1072" 
d="M993 144c0.666992 -306 -87.001 -494.667 -263.001 -566c-65.333 -26.667 -145.333 -40 -240 -40c-136 0 -240.667 26.167 -314 78.5s-110 137.166 -110 254.499h130c2.66699 -150 99.334 -225 290.001 -225c101.333 0 175.333 20.667 222 62
c50 44.667 82 102.334 96 173.001c14 70 21 156.667 21 260v505c0 142 -21.667 249.667 -65 323c-47.333 80 -137.333 120 -270 120h-33c19.333 -58 29 -97.333 29 -118c-2.66699 -117.333 -75 -176 -217 -176c-64 0 -117.5 16.167 -160.5 48.5s-64.5 77.833 -64.5 136.5
c0 141.333 132.667 212 398 212c180 0 316.833 -45.833 410.5 -137.5s140.5 -226.167 140.5 -403.5v-507zM177.999 983c0 -64 33.333 -96 100 -96c59.333 0 89 37 89 111v91c-91.333 -2.66699 -149 -20 -173 -52c-10.667 -14.667 -16 -32.667 -16 -54z" />
    <glyph glyph-name="uni0E88" unicode="&#xe88;" horiz-adv-x="1369" 
d="M614 877c166.667 0 249.999 -93.001 249.999 -279.001c0 -116.667 19.5 -223.5 58.5 -320.5s93.833 -166.5 164.5 -208.5v612c0 150.667 -29.833 255.667 -89.5 315s-164.834 89 -315.501 89c-325.333 0 -490.333 -110.333 -495 -331v-22h-152c-0.666992 10 -1 21 -1 33
v15c0 169.333 92 288 276 356c102.667 37.333 213.334 56 332.001 56s213.667 -8.33301 285 -25s132.333 -45 183 -85c98 -76.667 147 -212 147 -406v-674l-157 -72l-46 20c-94 48 -170.667 118.167 -230 210.5s-96.666 200.833 -111.999 325.5l-46 -8
c-30 -3.33301 -49.333 -5 -58 -5c-157.333 0 -236 65.667 -236 197c0 66.667 22.333 117.834 67 153.501s103 53.5 175 53.5zM605.999 781.999c-67.333 0 -101.001 -36.667 -101.001 -110c0 -40.667 11.833 -69 35.5 -85s59.834 -24 108.501 -24h55
c-0.666992 2.66699 -1 8.66699 -1 18v29c0 56.667 -6.66699 99.5 -20 128.5s-39 43.5 -77 43.5z" />
    <glyph glyph-name="uni0E8A" unicode="&#xe8a;" horiz-adv-x="1318" 
d="M250 230c0 -60 30.0039 -92.668 90.0039 -98.001c74.667 2.66699 160.667 30.667 258 84c114.667 63.333 196.334 103 245.001 119s87.5 24 116.5 24s50.667 -0.833008 65 -2.5s27.166 -5.16699 38.499 -10.5l30.5 -14.5c9 -4.33301 17.167 -11.5 24.5 -21.5l18.5 -24.5
c5 -6.33301 9.83301 -16.833 14.5 -31.5s8.16699 -26 10.5 -34s5.16602 -21.333 8.49902 -40c5.33301 -28.667 9.66602 -57.667 12.999 -87l61 -445h-145l-57 445c-0.666992 6 -1.66699 15.5 -3 28.5s-2.5 22.833 -3.5 29.5s-2.5 15.5 -4.5 26.5s-4.66699 19.333 -8 25
s-7.33301 11.834 -12 18.501c-8.66699 12 -28 18 -58 18s-67.333 -8.16699 -112 -24.5s-87.167 -36.166 -127.5 -59.499l-122.5 -71c-98.667 -56 -184.334 -84 -257.001 -84s-130.834 20.167 -174.501 60.5s-65.5 93.5 -65.5 159.5c0 92 48.333 163 145 213
c43.333 22.667 85.5 41.167 126.5 55.5l72.5 25.5l198 72c16 6 43 15 81 27s70 22.5 96 31.5s56.333 21.333 91 37s62.667 31.5 84 47.5c52 39.333 77.833 81.833 77.5 127.5s-12 83.667 -35 114s-54.5 53.5 -94.5 69.5c-76.667 32 -168.334 48 -275.001 48
c-160.667 0 -277 -26.667 -349 -80c36.667 3.33301 56 5 58 5c66.667 -1.33301 119 -19 157 -53s57 -83.333 57 -148s-22.5 -115.334 -67.5 -152.001s-102.833 -55 -173.5 -55c-158 0 -237 85.333 -237 256c0 136.667 78.667 232.334 236 287.001
c85.333 29.333 175.333 44 270 44s173.334 -5 236.001 -15s122.5 -26.667 179.5 -50s101.833 -57.333 134.5 -102s49 -91.834 49 -141.501s-5.83301 -89 -17.5 -118s-26.334 -53 -44.001 -72s-40.167 -36.833 -67.5 -53.5c-39.333 -24 -105.666 -53 -198.999 -87l-314 -119
c-45.333 -17.333 -89 -32 -131 -44s-74 -22.667 -96 -32c-21.333 -9.33301 -38 -19.333 -50 -30c-28 -24 -42 -56.667 -42 -98zM261.004 743.999c17.333 -24.667 46 -37.001 86 -37.001s66.833 9.16699 80.5 27.5s21.167 46.833 22.5 85.5c0 66 -47 99 -141 99h-64
c-6.66699 -23.333 -10 -52.166 -10 -86.499s8.66699 -63.833 26 -88.5z" />
    <glyph glyph-name="uni0E8D" unicode="&#xe8d;" horiz-adv-x="1267" 
d="M258 300c0 -130 114.004 -195.001 342.004 -195.001c141.333 0 242.666 25 303.999 75c64 52 96 147 96 285v727h171v-710c-0.666992 -178.667 -47 -304.667 -139 -378c-88.667 -69.333 -225.334 -104 -410.001 -104c-352.667 0 -529 100.667 -529 302
c0 72 27.167 129.833 81.5 173.5s120.5 65.5 198.5 65.5c-90.667 9.33301 -160 41 -208 95s-72 130.167 -72 228.5s22.5 177.5 67.5 237.5s107.167 90 186.5 90c160.667 0 241 -66 241 -198c0 -63.333 -18.167 -111.666 -54.5 -144.999s-87.833 -51 -154.5 -53
c-4.66699 0 -25.334 1.66699 -62.001 5l-58 11v-21c0 -55.333 16.667 -100.5 50 -135.5s77.666 -52.5 132.999 -52.5h145v-122h-145c-54 0 -98.167 -16.833 -132.5 -50.5s-51.5 -77.167 -51.5 -130.5zM327.004 886.999c44.667 0 76.833 7.16895 96.5 21.502
s30.167 40.166 31.5 77.499c-2.66699 67.333 -31.667 101.666 -87 102.999c-36.667 0 -64 -13.667 -82 -41s-27 -63.333 -27 -108v-53h68z" />
    <glyph glyph-name="uni0E94" unicode="&#xe94;" horiz-adv-x="1296" 
d="M379 395c68.667 0 124 -15.999 166 -47.999s63 -79 63 -141c0 -137.333 -81.667 -206 -245 -206c-170.667 0 -256 116.667 -256 350v361c0 176 43.333 300.167 130 372.5s223.667 108.5 411 108.5c184.667 0 321.667 -34.667 411 -104
c92.667 -72.667 139 -198.334 139 -377.001v-711h-170v706c0 135.333 -29.333 232.333 -88 291s-155.5 88 -290.5 88s-230.833 -29.333 -287.5 -88s-85 -155.667 -85 -291v-326l60 12c20.667 2 34.667 3 42 3zM277 265.001c0 -53.333 7 -93.5 21 -120.5
s41.667 -41.167 83 -42.5c61.333 2 92.333 36.667 93 104c0 38.667 -11.667 65 -35 79s-59.333 21 -108 21h-54v-41z" />
    <glyph glyph-name="uni0E95" unicode="&#xe95;" horiz-adv-x="1549" 
d="M495 1192c165.333 0 260 -79.002 284 -237.002c12 81.333 41.333 141.166 88 179.499s110.334 57.5 191.001 57.5s146 -11.333 196 -34c50.667 -22 90 -55 118 -99c53.333 -82 79.666 -199.667 78.999 -353v-706h-170v715c0 123.333 -10.333 208.333 -31 255
c-22.667 51.333 -52.667 84.666 -90 99.999c-22.667 9.33301 -48.834 14 -78.501 14s-55.667 -3.83301 -78 -11.5s-41 -17.167 -56 -28.5s-27.833 -27.666 -38.5 -48.999s-18.667 -41.666 -24 -60.999c-6 -18.667 -10.333 -43.667 -13 -75
c-4 -45.333 -6 -102.666 -6 -171.999v-134h-172v134c0 138 -8.33301 229 -25 273c-14.667 38.667 -27.667 63.334 -39 74.001s-23 20 -35 28c-23.333 15.333 -54.333 23 -93 23s-71.834 -5.5 -99.501 -16.5s-49.667 -25.5 -66 -43.5s-29.166 -42.333 -38.499 -73
c-14.667 -48.667 -21.667 -117.667 -21 -207v-363l41 9c29.333 2.66699 49 4 59 4c70.667 0 126.834 -15.667 168.501 -47s62.5 -81 62.5 -149c0 -132.667 -81 -199 -243 -199c-88 0 -153 29.667 -195 89s-63 140.333 -63 243v379c-0.666992 243.333 66.333 393 201 449
c50.667 21.333 113 32 187 32zM475 205.998c0 36.667 -12 62.5 -36 77.5s-58.333 22.5 -103 22.5h-59v-60c0 -96 36 -144 108 -144c59.333 0 89.333 34.667 90 104z" />
    <glyph glyph-name="uni0E96" unicode="&#xe96;" horiz-adv-x="1380" 
d="M850 1192c150.667 0 259.499 -38.001 326.499 -114.001s100.5 -192.333 100.5 -349v-1065h-170v1083c0 117.333 -18.833 203 -56.5 257s-108.167 81 -211.5 81c-56.667 0 -105.167 -10.167 -145.5 -30.5s-69.333 -35.666 -87 -45.999s-42.167 -26 -73.5 -47l-64 -42.5
v-538l34 8c12.667 2.66699 34.334 4 65.001 4c72 0 128.5 -15.333 169.5 -46s61.5 -77.667 61.5 -141c-8 -137.333 -88.667 -206 -242 -206c-172 0 -258 116 -258 348v483c-45.333 -14.667 -83.333 -22 -114 -22c-72 0 -124.833 15.5 -158.5 46.5
s-53.167 80.167 -58.5 147.5c0 64 21 111.5 63 142.5s100 46.5 174 46.5c125.333 0 206 -52.333 242 -157c0 -2 0.333008 -3.33301 1 -4c5.33301 3.33301 18.333 12 39 26s34.167 23 40.5 27l37.5 23.5c18.667 11.667 32.667 19.667 42 24l40.5 19.5
c17.667 8.66699 33 14.667 46 18s28.5 7 46.5 11c32 8 68.667 12 110 12zM100.999 1005c3.33301 -60.667 34.999 -91 94.999 -91c30.667 0 65 9 103 27v8c0 48.667 -7.5 84.5 -22.5 107.5s-42.167 34.5 -81.5 34.5c-61.333 0 -92.666 -28.667 -93.999 -86zM562.998 101.999
c65.333 0 99.333 30 102 90v14c0 38 -11.5 64.167 -34.5 78.5s-57.5 21.5 -103.5 21.5h-58v-46c0 -50 6.66699 -88.833 20 -116.5s38 -41.5 74 -41.5z" />
    <glyph glyph-name="uni0E97" unicode="&#xe97;" horiz-adv-x="1497" 
d="M515 0c-224.667 0 -336.998 99.335 -336.998 298.002c0 92 25.333 212 76 360c25.333 75.333 41.666 126.333 48.999 153l-74 -14c-66.667 0 -119.167 17 -157.5 51s-57.5 83 -57.5 147c0 131.333 77.667 197 233 197c76 0 137.333 -17 184 -51s70 -84.333 70 -151
c0 -22.667 -4 -50.667 -12 -84c-92.667 -334.667 -139 -534.334 -139 -599.001s12.5 -114.334 37.5 -149.001s66.5 -52 124.5 -52c60 0 103.333 18 130 54c28.667 38 46 77.333 52 118c8 60 12 122 12 186v277c0 146.667 26.667 258.5 80 335.5s141.666 115.5 264.999 115.5
c131.333 0 222.333 -42 273 -126c46.667 -76.667 70 -186 70 -328v-738h-168v808c0 184.667 -56 277 -168 277c-120 0 -180 -88.667 -180 -266v-319c0 -128 -11 -221.833 -33 -281.5s-46.333 -103.167 -73 -130.5c-57.333 -58.667 -143 -88 -257 -88zM323.002 1063.5
c-18.667 17 -44 25.5 -76 25.5c-66 0 -99 -30 -99 -90v-6c0 -39.333 10.667 -66.833 32 -82.5s54 -23.5 98 -23.5h46l9 27c12 36 18 65.667 18 89s-9.33301 43.5 -28 60.5z" />
    <glyph glyph-name="uni0E99" unicode="&#xe99;" horiz-adv-x="1423" 
d="M227 796c-64.667 0 -116.67 16.667 -156.003 50s-59.666 80.333 -60.999 141c0.666992 136.667 78.334 205 233.001 205c177.333 0 266 -110.333 266 -331v-426c0 -112.667 28 -195.667 84 -249s138.833 -80 248.5 -80s188.834 23.667 237.501 71s73 122.333 73 225v790
h170v-730c0 -156 -39.333 -272 -118 -348s-197 -114 -355 -114c-112.667 0 -206 21.167 -280 63.5s-121.333 105.833 -142 190.5c-19.333 -82.667 -62.166 -145.667 -128.499 -189s-151.833 -65 -256.5 -65v107c96.667 0 170.5 28.667 221.5 86s76.5 137 76.5 239v392
c-44.667 -18.667 -82.334 -28 -113.001 -28zM319.997 1047.5c-13.333 27.667 -38.001 41.498 -74.001 41.498s-62.167 -8.16699 -78.5 -24.5s-24.5 -43.166 -24.5 -80.499s10.833 -62.833 32.5 -76.5s55.834 -20.5 102.501 -20.5h62v40
c0 52.667 -6.66699 92.834 -20 120.501z" />
    <glyph glyph-name="uni0E9A" unicode="&#xe9a;" horiz-adv-x="1318" 
d="M473 834l-110 -431.001c-8.66699 -38 -13 -75.333 -13 -112s10 -67.667 30 -93c20 -24 47.333 -42.667 82 -56c64 -24 140.333 -36 229 -36c128.667 0 219.834 28 273.501 84s80.5 149.667 80.5 281v721h170v-692c0 -176.667 -41.5 -304.167 -124.5 -382.5
s-214.167 -117.5 -393.5 -117.5c-256 0 -418.333 62.667 -487 188c-20 36.667 -30 76.5 -30 119.5s4.66699 78.833 14 107.5l113 394c-32.667 -9.33301 -59.334 -14 -80.001 -14c-62.667 0 -113.667 18 -153 54s-59 84.667 -59 146c0 130 84.667 195.667 254 197
c66 0 121.333 -19 166 -57s67 -88 67 -150c0 -23.333 -9.66699 -73.666 -29 -150.999zM242 1089c-60.667 0 -91.667 -31.332 -93 -93.999c0 -42 11.167 -70.5 33.5 -85.5s57.5 -22.5 105.5 -22.5h39l20 68c3.33301 13.333 5 23.666 5 30.999c0 32.667 -9.66699 58 -29 76
s-46.333 27 -81 27z" />
    <glyph glyph-name="uni0E9B" unicode="&#xe9b;" horiz-adv-x="1318" 
d="M222 795c-60 0 -109.334 18.499 -148.001 55.499s-58 85.167 -58 144.5c0 126 83 191.667 249 197c68.667 0 125.5 -16.167 170.5 -48.5s67.5 -75.666 67.5 -129.999s-7 -103.5 -21 -147.5l-117 -460c-9.33301 -32.667 -14 -66 -14 -100s7.16699 -62.667 21.5 -86
s32.833 -42 55.5 -56c22.667 -13.333 50 -24.666 82 -33.999c55.333 -16 120 -24 194 -24c125.333 0 214 29.667 266 89s78 154.333 78 285v1061h169v-1019c0 -184.667 -40.167 -317.834 -120.5 -399.501s-212.166 -122.5 -395.499 -122.5c-258.667 -0 -422 62.333 -490 187
c-20 36.667 -30 77.167 -30 121.5s4.66699 81.5 14 111.5l112 388c-32 -8.66699 -60.333 -13 -85 -13zM352.999 997.999c0 60.667 -33.334 91.001 -100.001 91.001c-65.333 -6 -99.666 -36.667 -102.999 -92c0 -43.333 10.5 -72.5 31.5 -87.5s55.833 -22.5 104.5 -22.5h42
l20 68c3.33301 23.333 5 37.666 5 42.999z" />
    <glyph glyph-name="uni0E9C" unicode="&#xe9c;" horiz-adv-x="1679" 
d="M1178 796c-158 0 -236.998 64.666 -236.998 193.999c0 70 21 120.667 63 152s103 48 183 50c135.333 -1.33301 215.333 -75.666 240 -222.999c26.667 39.333 40 95.333 40 168v200h127v-200c0 -66 -13.333 -120.833 -40 -164.5s-64.667 -81.834 -114 -114.501
c0.666992 -12.667 1 -28.667 1 -48v-289c0 -255.333 -64.667 -416.333 -194 -483c-48.667 -25.333 -111.167 -38 -187.5 -38s-140 21.333 -191 64s-82.5 102.667 -94.5 180c-10.667 -78.667 -40.834 -139 -90.501 -181s-114.667 -63 -195 -63s-145.333 11.333 -195 34
s-87.834 57 -114.501 103c-48 82.667 -72 204.334 -72 365.001v366c0 216 87.667 324 263 324c158.667 0 238 -68.333 238 -205c0 -59.333 -20 -106 -60 -140s-92 -51 -156 -51c-34 0 -72.667 7.66699 -116 23v-376c0 -138 17.667 -229.333 53 -274
c33.333 -42 84 -63 152 -63c82 0 138 33.333 168 100c26 58.667 39 140 39 244v61h171v-62c0 -228.667 69.667 -343 209 -343c82.667 0 138 31.667 166 95c25.333 56.667 38 134.667 38 234v367c-28 -4 -59.333 -6 -94 -6zM1171 1089c-64 0 -96.002 -31.999 -96.002 -95.999
c0 -43.333 12.333 -72 37 -86s53.834 -21 87.501 -21s57.834 1 72.501 3v38c0 53.333 -7 93.666 -21 120.999s-40.667 41 -80 41zM473 986c0 68 -31.332 102.333 -93.999 103c-39.333 0 -66.333 -14.167 -81 -42.5s-22 -68.166 -22 -119.499v-40h56
c47.333 0 82.666 6.66699 105.999 20s35 39.666 35 78.999z" />
    <glyph glyph-name="uni0E9D" unicode="&#xe9d;" horiz-adv-x="1547" 
d="M275 437c0 -134 19.334 -223.665 58.001 -268.998c34 -40 85.333 -60.667 154 -62c80.667 0 136 32 166 96c26 56 39 134.333 39 235v76h170v-76c0 -220.667 66.667 -331 200 -331c103.333 0 168 44 194 132c14.667 50 22 116.333 22 199v1104h172v-1020
c0 -132.667 -11.333 -230 -34 -292s-47.334 -107.333 -74.001 -136c-58.667 -62 -145.667 -93 -261 -93c-170 2 -271.333 83.333 -304 244c-18 -81.333 -49.667 -142 -95 -182s-104.666 -60 -177.999 -60c-1.33301 0 -3 -0.333008 -5 -1c-71.333 -0.666992 -129 7 -173 23
s-80 37.667 -108 65s-50.667 62.666 -68 105.999c-29.333 75.333 -44 179.666 -44 312.999v331c0 114 20 200.333 60 259s107.667 90 203 94c158.667 -2 238 -66.667 238 -194c0 -64.667 -19.5 -114.5 -58.5 -149.5s-92.5 -52.5 -160.5 -52.5
c-30.667 0 -68.334 9.33301 -113.001 28v-387zM473.001 987.002c0 68 -29.666 102.001 -88.999 102.001c-42.667 0 -71.5 -13.333 -86.5 -40s-22.5 -67.334 -22.5 -122.001v-40h57c47.333 0 82.666 6.83301 105.999 20.5s35 40.167 35 79.5z" />
    <glyph glyph-name="uni0E9E" unicode="&#xe9e;" horiz-adv-x="1563" 
d="M13 1000c0 128 84.668 192.001 254.001 192.001c66.667 0 122.167 -19 166.5 -57s66.5 -88.667 66.5 -152c0 -24.667 -5 -56.667 -15 -96l-113 -445c-16.667 -64.667 -25 -123 -25 -175s13.667 -91.833 41 -119.5s62.166 -41.5 104.499 -41.5s75.5 5.5 99.5 16.5
s43.333 25.5 58 43.5c14.667 18.667 26.667 42 36 70c16 48.667 24 113 24 193v763h170v-763c0 -215.333 72.333 -323 217 -323c114 0 178.333 74 193 222c2.66699 30.667 4 66 4 106v758h169v-670c0 -134 -10.833 -231.667 -32.5 -293s-45.834 -106.333 -72.501 -135
c-58 -62.667 -145 -94 -261 -94c-88.667 0 -156.167 21.167 -202.5 63.5s-79.5 104.166 -99.5 185.499c-14.667 -86 -46.5 -149 -95.5 -189s-122.667 -60 -221 -60s-173.666 25 -225.999 75s-78.5 124 -78.5 222c0 36.667 6 76 18 118l111 393c-32 -8.66699 -58 -13 -78 -13
c-66 0 -117.833 18 -155.5 54s-56.5 86.333 -56.5 151zM241.001 1089c-61.333 0 -92.665 -30.666 -93.998 -91.999c0 -42.667 10.5 -71.667 31.5 -87s55.167 -23 102.5 -23h44l17 59c1.33301 5.33301 2.66602 13.666 3.99902 24.999s2.66602 19.666 3.99902 24.999
c0 28.667 -10 51.334 -30 68.001s-46.333 25 -79 25z" />
    <glyph glyph-name="uni0E9F" unicode="&#xe9f;" horiz-adv-x="1654" 
d="M13 996c0 130.667 80.668 196.002 242.001 196.002c71.333 0 130 -17.167 176 -51.5s69 -83.5 69 -147.5c0 -22 -6 -57 -18 -105l-107 -428c-20 -63.333 -30 -122.333 -30 -177s13.167 -97.834 39.5 -129.501s61.333 -47.5 105 -47.5s78.5 5.33301 104.5 16
s46.333 24.667 61 42c15.333 17.333 27 40.666 35 69.999c13.333 47.333 20 112.333 20 195v763h170v-763c0 -160.667 37.333 -260.334 112 -299.001c30 -16 64.333 -24 103 -24s69.834 6 93.501 18s42.167 27.333 55.5 46c12 18.667 22 43.334 30 74.001
c12 46 18 109 18 189v1109h169v-1020c0 -134 -10.833 -231.667 -32.5 -293s-45.834 -106.333 -72.501 -135c-59.333 -62.667 -140.333 -94 -243 -94s-177 20.667 -223 62s-77.667 103.666 -95 186.999c-14 -84.667 -45.333 -147.334 -94 -188.001s-119.334 -61 -212.001 -61
h-12c-91.333 1.33301 -164.833 28.333 -220.5 81s-83.5 124.334 -83.5 215.001c0 38.667 6 79.334 18 122.001l114 396c-38 -9.33301 -69.333 -14 -94 -14c-60 0 -108 17.667 -144 53s-54 83 -54 143zM350.001 1001c0 26 -10.834 47.499 -32.501 64.499
s-47.5 25.5 -77.5 25.5c-61.333 0 -92.666 -34 -93.999 -102c0 -38.667 11.667 -65.167 35 -79.5s58.333 -21.5 105 -21.5h38l12 43c1.33301 6 3.33301 13.667 6 23c5.33301 22.667 8 38.334 8 47.001z" />
    <glyph glyph-name="uni0EA1" unicode="&#xea1;" horiz-adv-x="1617" 
d="M703 448c0 -116 27.332 -201.669 81.999 -257.002s135.334 -83.333 242.001 -84h4c209.333 0 314 99 314 297v788h170v-688c0 -336 -158.333 -504 -475 -504c-230.667 0 -371 85 -421 255c-43.333 -170 -172 -255 -386 -255c-73.333 0 -133.5 16.833 -180.5 50.5
s-70.5 82.334 -70.5 146.001s19 112.834 57 147.501s89.667 52 155 52c146 0 219 -58 219 -174c0 -21.333 -8.33301 -56 -25 -104c97.333 36 146 145.667 146 329v745h169v-744zM293.999 205.998c0 66.667 -29.668 100 -89.001 100s-89 -36.333 -89 -109
c0 -39.333 10.833 -65 32.5 -77s56.834 -18 105.501 -18l40 1v103z" />
    <glyph glyph-name="uni0EA2" unicode="&#xea2;" horiz-adv-x="1323" 
d="M395 541c-187.333 19.333 -280.999 127.001 -280.999 323.001c0 98.667 22.667 178 68 238s107.5 90 186.5 90s139 -17 180 -51s61.5 -82.833 61.5 -146.5s-18.5 -112.334 -55.5 -146.001s-88.5 -51.167 -154.5 -52.5c-4 0 -24.333 1.66699 -61 5l-59 11v-21
c0 -54.667 17 -99.667 51 -135s78.333 -53 133 -53h145v-122h-145c-54 0 -98.333 -17 -133 -51s-52 -73.5 -52 -118.5s9.33301 -80.5 28 -106.5s44.667 -46 78 -60c63.333 -26.667 142.333 -40 237 -40l21 1c135.333 0 232.166 26.833 290.499 80.5s87.5 146.5 87.5 278.5
v694c0 146.667 21 269.667 63 369h163c-36 -136.667 -54 -268 -54 -394v-652c0 -178.667 -46.333 -304 -139 -376c-89.333 -69.333 -226.333 -104.333 -411 -105c-352.667 0 -529 100.333 -529 301c0 72 27.167 129.833 81.5 173.5s120.833 65.5 199.5 65.5z
M349.001 887.001c45.333 0 77.668 7.00098 97.001 21.001s29.666 40 30.999 78c-2 67.333 -31 101.666 -87 102.999c-36.667 0 -64.167 -13.667 -82.5 -41s-27.5 -63.333 -27.5 -108v-53h69z" />
    <glyph glyph-name="uni0EA3" unicode="&#xea3;" horiz-adv-x="1355" 
d="M339 578c154 0 230.999 -65.6729 230.999 -197.006c0 -57.333 -18 -103.5 -54 -138.5s-82.333 -53.167 -139 -54.5l-95 16c78 -66.667 203 -100 375 -100c135.333 0 234.333 13 297 39c89.333 37.333 134.333 96.333 135 177
c-0.666992 74.667 -27.667 127.334 -81 158.001c-43.333 25.333 -84.666 43 -123.999 53l-456 157c-8.66699 3.33301 -26.167 9.33301 -52.5 18s-45 15 -56 19s-27.833 11 -50.5 21s-39.334 18.667 -50.001 26s-24 17.5 -40 30.5s-27.667 26.167 -35 39.5
c-19.333 34 -29 69.333 -29 106c0.666992 34.667 7.66699 65 21 91c13.333 26.667 33 48.667 59 66s54.833 32 86.5 44s68.5 21 110.5 27c74.667 10.667 147.667 16 219 16s126.5 -1 165.5 -3s80 -5.83301 123 -11.5s80.333 -13.5 112 -23.5s62.667 -23.667 93 -41
s54.833 -38 73.5 -62c41.333 -53.333 62 -121 62 -203v-23h-137v27c0.666992 88 -35 149.333 -107 184c-60.667 29.333 -144 45.333 -250 48c-26.667 0.666992 -59.334 1 -98.001 1h-14c-93.333 0 -154.166 -2.5 -182.499 -7.5s-52.833 -10.833 -73.5 -17.5
s-36.834 -14.5 -48.501 -23.5s-21.667 -20.667 -30 -35s-12.5 -30.5 -12.5 -48.5s5.16699 -34.833 15.5 -50.5s22.333 -28.667 36 -39s32.334 -20.666 56.001 -30.999s43.834 -18.166 60.501 -23.499s38.334 -11.833 65.001 -19.5s45 -13.167 55 -16.5l137 -45
c54 -16.667 104 -31.167 150 -43.5s86 -24.666 120 -36.999s63.167 -24.5 87.5 -36.5s49.166 -27 74.499 -45c25.333 -18.667 46 -38.667 62 -60c36 -48 54.333 -102 55 -162c0 -57.333 -11.333 -105.666 -34 -144.999c-22.667 -40 -52.667 -72.333 -90 -97
c-37.333 -24 -83 -44 -137 -60c-95.333 -28 -211 -42 -347 -42c-190 0 -336.333 35 -439 105c-80 54.667 -120.333 130.334 -121 227.001c0 162.667 82 244.667 246 246zM352.999 482.994c-88.667 0 -133 -48.667 -133 -146c0 -20.667 4 -42 12 -64h39
c60 0 102.333 6.33301 127 19s37.667 42 39 88c0 68.667 -28 103 -84 103z" />
    <glyph glyph-name="uni0EA5" unicode="&#xea5;" horiz-adv-x="1403" 
d="M141.5 81c-44.333 54 -66.5039 128.332 -66.5039 222.999s30.833 177.834 92.5 249.501s142.5 107.5 242.5 107.5c90.667 0 167.334 -33 230.001 -99c53.333 -56.667 96.333 -115.334 129 -176.001c62 -117.333 110.167 -192.333 144.5 -225s63.5 -49 87.5 -49
s43.333 3.66699 58 11s26.334 18.166 35.001 32.499s15.834 29.333 21.501 45s9.83398 34.834 12.501 57.501c4 34 6 74.333 6 121v294c0 126 -18 220.333 -54 283c-50 86 -171.667 129 -365 129h-5c-217.333 0.666992 -358 -55 -422 -167
c-24 -41.333 -36.333 -90.666 -37 -147.999h-147c0 281.333 210.333 422 631 422c194 0 336.333 -36.667 427 -110c94.667 -76 142 -207.667 142 -395v-241c0 -173.333 -30 -294.333 -90 -363c-48.667 -55.333 -120.334 -83 -215.001 -83c-80.667 0 -151 33.667 -211 101
c-52.667 58.667 -95.334 118 -128.001 178c-62.667 115.333 -111.167 189.166 -145.5 221.499s-68.166 48.5 -101.499 48.5c-96 0 -151.667 -61 -167 -183c9.33301 2.66699 21.333 7.33398 36 14.001c32.667 13.333 57 20 73 20c66.667 0 119.334 -18 158.001 -54
s58 -86.333 58 -151c0 -130 -82 -195 -246 -195c-78 0 -139.167 27 -183.5 81zM287.996 115.999c14.667 -9.33301 35.332 -14.001 61.999 -14.001c54.667 0 84 35 88 105c0 35.333 -10.333 59.833 -31 73.5s-52 22.167 -94 25.5h-72v-21
c0.666992 -93.333 16.334 -149.666 47.001 -168.999z" />
    <glyph glyph-name="uni0EA7" unicode="&#xea7;" horiz-adv-x="1406" 
d="M394 578c154.667 0 231.997 -64.999 231.997 -194.999s-63.333 -195 -190 -195l-111 19c64.667 -68.667 186 -103 364 -103c299.333 0 449 132.333 449 397v172c0 127.333 -20 222.333 -60 285c-53.333 84 -179 126.333 -377 127c-288.667 0 -435.667 -105 -441 -315
h-148c0 75.333 15.833 141 47.5 197s75.5 100 131.5 132c108.667 62 248 93 418 93c244.667 0 410.334 -46.333 497.001 -139c68 -73.333 102 -180.666 102 -321.999v-245c0 -244 -122.667 -396.667 -368 -458c-73.333 -18.667 -150.666 -28 -231.999 -28
s-153.833 5.5 -217.5 16.5s-124.5 28.333 -182.5 52s-104.167 57.667 -138.5 102s-51.5 101.666 -51.5 171.999s24.833 127.166 74.5 170.499s116.834 65 201.501 65zM390.997 482.001c-76 0 -114.001 -48.332 -114.001 -144.999c0 -16 3 -37.333 9 -64h18
c82.667 0 134 8 154 24c22.667 18 33.834 45.167 33.501 81.5s-8.5 62.666 -24.5 78.999s-41.333 24.5 -76 24.5z" />
    <glyph glyph-name="uni0EAA" unicode="&#xeaa;" horiz-adv-x="1493" 
d="M1289 963c41.333 -46.667 62.001 -133.996 62.001 -261.996v-268c0 -138.667 -23.833 -245.334 -71.5 -320.001s-127.834 -112 -240.501 -112c-94.667 0 -169 28.667 -223 86c-48.667 51.333 -86.334 103.333 -113.001 156c-52.667 104 -98.5 173 -137.5 207
s-83 51 -132 51s-86.667 -11 -113 -33s-43.833 -56 -52.5 -102l120 30c62.667 0 112.334 -16.833 149.001 -50.5s55 -80.834 55 -141.501c0 -136 -80.333 -204 -241 -204c-78.667 0 -137.334 26.333 -176.001 79s-58 126 -58 220s27.167 168.167 81.5 222.5
s130.5 81.5 228.5 81.5c94.667 -0.666992 168.667 -25 222 -73c41.333 -38 76 -82.667 104 -134c27.333 -50.667 49.666 -90 66.999 -118c40 -67.333 88.333 -116 145 -146c24 -12.667 48 -19 72 -19s43.833 3.5 59.5 10.5s28.334 17.5 38.001 31.5s17.667 28.667 24 44
s10.833 34.333 13.5 57c4.66699 40 7 82.333 7 127v436c-14 -35.333 -47.333 -65 -100 -89c-91.333 -41.333 -206.666 -61.666 -345.999 -60.999c-154 0 -259.5 6.16699 -316.5 18.5s-101.167 24.666 -132.5 36.999s-57.333 26.833 -78 43.5
c-45.333 36.667 -68 84.667 -68 144c0 77.333 33.333 136.666 100 177.999c65.333 41.333 132 67 200 77c106 16.667 204.333 25 295 25c200 0 354.333 -39.333 463 -118c33.333 63.333 50 147.666 50 252.999h136c0 -114 -31 -235.333 -93 -364zM305.001 912.004
c0 -42.667 24 -73.333 72 -92c51.333 -20 101 -31.333 149 -34c70 -4.66699 150 -7 240 -7c210 0 336 59 378 177c-71.333 86 -208.333 129 -411 129c-285.333 0 -428 -57.667 -428 -173zM459.001 208.005c0 39.333 -12.5 65.5 -37.5 78.5s-63.833 19.5 -116.5 19.5h-43
c-0.666992 -2 -1 -5.33301 -1 -10v-23c0 -53.333 6.66699 -94.5 20 -123.5s39.333 -44.833 78 -47.5c66.667 0.666992 100 36 100 106z" />
    <glyph glyph-name="uni0EAB" unicode="&#xeab;" horiz-adv-x="2014" 
d="M17 997c0 130 76.665 195 229.998 195c72.667 0 133.334 -16.667 182.001 -50s73 -81.666 73 -144.999c0 -28.667 -8.33301 -77.334 -25 -146.001l-104 -410c-10.667 -37.333 -16 -72.333 -16 -105c0 -154 101 -231 303 -231c121.333 0 204 30.333 248 91
c41.333 57.333 61.666 149.666 60.999 276.999v336c-28 -9.33301 -56.667 -14 -86 -14c-164.667 0 -247 67.333 -247 202c0 66.667 23.667 115.5 71 146.5s109 46.5 185 46.5c134 0 214.667 -61.667 242 -185c12.667 8 38.667 26.333 78 55s70.833 50.5 94.5 65.5
s55.334 29.833 95.001 44.5s85.334 22 137.001 22s100.167 -11.333 145.5 -34c46 -24 81.333 -58 106 -102c44.667 -80 67 -193.667 67 -341v-715h-169v749c0 98.667 -3.66699 161.834 -11 189.501s-15.333 50.667 -24 69s-19 32.5 -31 42.5
c-28.667 23.333 -62.834 35 -102.501 35s-78.167 -7.83301 -115.5 -23.5s-69.166 -32.834 -95.499 -51.501l-90.5 -66.5c-34 -25.667 -60.667 -44.167 -80 -55.5v-388c0 -176.667 -35.333 -304.167 -106 -382.5s-191.667 -117.5 -363 -117.5c-134 0 -245.333 24 -334 72
c-98 53.333 -147 139.333 -147 258c0 37.333 5.33301 75 16 113l103 372c-48 -12.667 -74.667 -19 -80 -19c-64 0 -115 17.833 -153 53.5s-57 84.834 -57 147.501zM968.998 989c0 68 -29.667 102 -89 102c-74 0 -111 -28.667 -111 -86
c2.66699 -73.333 43.667 -111.666 123 -114.999c25.333 1.33301 51 7.66602 77 18.999v80zM323.498 1063.5c-18.333 17 -42.167 25.501 -71.5 25.501c-30 -0.666992 -54.333 -9 -73 -25c-19.333 -16.667 -29 -43.667 -29 -81c0 -34 11.333 -58.333 34 -73
c24 -14.667 61 -22.334 111 -23.001h31c16.667 57.333 25 96.833 25 118.5s-9.16699 41 -27.5 58z" />
    <glyph glyph-name="uni0EAD" unicode="&#xead;" horiz-adv-x="1406" 
d="M691 1192c241.333 0 410.334 -46.332 507.001 -138.999c74 -71.333 111 -171.666 111 -300.999v-206c0 -190.667 -52 -329.334 -156 -416.001s-259 -130 -465 -130c-186.667 0 -334.667 35 -444 105c-37.333 24 -67.833 55.167 -91.5 93.5s-35.5 81.166 -35.5 128.499
c0 80 24.667 141.833 74 185.5s113.333 65.5 192 65.5c161.333 0 242 -64.667 242 -194c0 -56.667 -16.5 -103.167 -49.5 -139.5s-76.833 -55.166 -131.5 -56.499c-25.333 0 -65 5 -119 15c62 -66 182 -99 360 -99c139.333 0 240.333 24 303 72
c46.667 36 77.667 73.167 93 111.5s26.333 71.833 33 100.5c6.66699 28 12 62 16 102c6.66699 69.333 10 152.333 10 249v9c-36.667 -36.667 -93.667 -61.167 -171 -73.5s-155.5 -18.5 -234.5 -18.5s-139.5 1.16699 -181.5 3.5s-86 6.66602 -132 12.999
s-86.333 15.833 -121 28.5s-66.334 28 -95.001 46c-59.333 37.333 -89 92.333 -89 165c0 186.667 191.667 280 575 280zM797.501 1081c-34.333 2.66699 -74.334 3.99902 -120.001 3.99902s-89.5 -2 -131.5 -6s-84.333 -11.667 -127 -23c-89.333 -24 -134 -72 -134 -144
c-0.666992 -57.333 33 -96 101 -116c56.667 -17.333 113.334 -26.333 170.001 -27s101.667 -1 135 -1c276.667 0 418.334 48 425.001 144c-0.666992 28 -10.834 52.667 -30.501 74s-44.167 38 -73.5 50s-63.833 21.833 -103.5 29.5s-76.667 12.834 -111 15.501zM491 381
c0 66 -34.667 99.668 -104 101.001c-73.333 -0.666992 -110 -49 -110 -145c0 -22 3 -43.333 9 -64h51c53.333 0 92.333 7.16699 117 21.5s37 43.166 37 86.499z" />
    <glyph glyph-name="uni0EAE" unicode="&#xeae;" horiz-adv-x="1343" 
d="M391 578c158 0 237 -66.6699 237 -200.003c0 -56.667 -18.333 -102.334 -55 -137.001s-83.667 -52 -141 -52l-114 19c58.667 -69.333 182 -104 370 -104c142 0 242 22 300 66c46.667 36 70 83.5 70 142.5s-17.5 107.833 -52.5 146.5s-80.333 70.334 -136 95.001
s-117.167 47.667 -184.5 69l-202 63.5c-67.333 21 -128.833 43.667 -184.5 68s-101 55.333 -136 93s-52.5 85.834 -52.5 144.501s21.167 106.667 63.5 144s99.166 56 170.499 56c77.333 0 165.333 -25.333 264 -76l125 -66c100 -53.333 187 -83 261 -89h6
c71.333 0 107 47.667 107 143v88h120v-87c0 -76 -18.833 -137.667 -56.5 -185s-91.5 -71 -161.5 -71c-50 0.666992 -182.333 45.667 -397 135c-88 37.333 -147.667 61 -179 71s-57 15 -77 15c-62.667 0 -94 -32.667 -94 -98c0 -64 50 -114.667 150 -152l61 -20.5l55 -18.5
l308 -116l55.5 -20c26.333 -9.33301 46.333 -16.666 60 -21.999l57 -23c24.333 -10 43.5 -19.333 57.5 -28l50.5 -32c19.667 -12.667 34.834 -26 45.501 -40c12 -13.333 23.333 -28.666 34 -45.999c21.333 -32.667 31.833 -73.834 31.5 -123.501s-11 -94 -32 -133
s-48.667 -70.667 -83 -95s-75.833 -44.5 -124.5 -60.5c-85.333 -28 -172.666 -42 -261.999 -42s-159.5 3 -210.5 9s-101.333 16.667 -151 32s-91.834 35 -126.501 59c-78.667 54.667 -118 132 -118 232c0 78.667 24.5 139.334 73.5 182.001s114.833 64 197.5 64z
M495 372.997c0 72.667 -31.667 109 -95 109c-80.667 0 -121 -50.667 -121 -152c0 -22 2.66699 -41 8 -57h66c49.333 0 85.333 7 108 21s34 40.333 34 79z" />
    <glyph glyph-name="uni0EAF" unicode="&#xeaf;" horiz-adv-x="1402" 
d="M224 774c0 -150 85.002 -225.001 255.002 -225.001c107.333 0 204 33.333 290 100c71.333 55.333 139.666 126 204.999 212l204 270l182 -91l-624 -1458l-141 59l518 1215l-42 -63c-162.667 -246.667 -354 -370 -574 -370c-209.333 0.666992 -345.333 61 -408 181
c-22.667 44 -34 95.333 -34 154c0 127.333 35.667 231.5 107 312.5s167.666 121.5 288.999 121.5c84 0 152.667 -20 206 -60s80 -96.667 80 -170s-19.167 -130.333 -57.5 -171s-88 -61 -149 -61s-109.667 14.333 -146 43s-54.5 67.334 -54.5 116.001
c0 25.333 12.667 76 38 152c-44 -17.333 -79 -50.5 -105 -99.5s-39 -104.833 -39 -167.5zM439.002 921.999c0 -26 6.5 -46.999 19.5 -62.999s31.833 -24 56.5 -24c54 0 81 33.667 81 101c0 42.667 -13.5 72.667 -40.5 90s-65.833 26.666 -116.5 27.999v-132z" />
    <glyph glyph-name="uni0EB0" unicode="&#xeb0;" horiz-adv-x="1277" 
d="M153 1137.5c40 36.333 92.1689 54.5 156.502 54.5s115 -15 152 -45s55.5 -74.333 55.5 -133c0 -22.667 -4.33301 -46.667 -13 -72l-22 -68h247c116.667 0 200.667 24.333 252 73s77.666 130.334 78.999 245.001h120c-1.33301 -160 -36.833 -275.167 -106.5 -345.5
s-184.5 -105.5 -344.5 -105.5h-238c-158 -0.666992 -265.667 21.666 -323 66.999c-50.667 40 -75.834 95.833 -75.501 167.5s20.5 125.667 60.5 162zM424.002 945c0 46 -8.16797 79.834 -24.501 101.501s-44.5 32.5 -84.5 32.5c-67.333 0 -101 -29.333 -101 -88
c0 -38.667 14.333 -67.834 43 -87.501s66.334 -29.5 113.001 -29.5h54v71zM153.001 567.501c40 36.333 91.334 54.5 154.001 54.5s113.5 -16.167 152.5 -48.5s58.5 -73.833 58.5 -124.5c0 -22 -3.66699 -42.667 -11 -62l-30 -85h252c117.333 0 201.666 24.333 252.999 73
s77.666 130.667 78.999 246h118c0 -156 -32 -269.667 -96 -341s-171 -107 -321 -107h-240c-165.333 0 -279.333 21 -342 63c-57.333 38.667 -86.166 94.5 -86.499 167.5s19.5 127.667 59.5 164zM424.002 393.001c0 76.667 -36 115 -108 115c-68 0 -102 -31.667 -102 -95
c0 -36 13.5 -63.5 40.5 -82.5s62.167 -28.5 105.5 -28.5h64v91z" />
    <glyph glyph-name="uni0EB1" unicode="&#xeb1;" horiz-adv-x="4" 
d="M-1009.5 1764c40.333 36 92.168 54.001 155.501 54.001s113.666 -15.333 150.999 -46s56 -72.334 56 -125.001c0 -24.667 -4 -48.334 -12 -71.001l-26 -77h204c114 0 196.167 23.167 246.5 69.5s75.5 124.833 75.5 235.5h119c0 -166 -38.667 -280 -116 -342
c-75.333 -60 -198 -90 -368 -90h-118c-142 0 -241.333 13 -298 39c-58.667 27.333 -96.667 63.333 -114 108c-10.667 26.667 -16 57.334 -16 92.001c0 66 20.167 117 60.5 153zM-738.998 1594c0 72.667 -36 109 -108 109c-68 0 -102 -30.667 -102 -92
c0 -74.667 49.333 -112 148 -112h62v95z" />
    <glyph glyph-name="uni0EB2" unicode="&#xeb2;" horiz-adv-x="1020" 
d="M571 939c0 -139.333 -69 -209.001 -207 -209.001c-77.333 0 -139.5 20.167 -186.5 60.5s-70.5 97.5 -70.5 171.5c-0.666992 50.667 18.333 94 57 130c70.667 66.667 173 100 307 100c301.333 0 452 -136.333 452 -409v-783h-169v791c0 87.333 -16 155.333 -48 204
s-83 78.334 -153 89.001c8.66699 -52.667 14.667 -101 18 -145zM258 1030c-13.333 -17.333 -19.667 -43 -19 -77c0.666992 -32 11.667 -60 33 -84c22.667 -24.667 55.5 -37 98.5 -37s71.167 11.333 84.5 34s20 62 20 118v105c-116.667 -2 -189 -21.667 -217 -59z" />
    <glyph glyph-name="uni0EB3" unicode="&#xeb3;" horiz-adv-x="1773" 
d="M519.5 1676c45.667 -43.333 68.499 -98.834 68.499 -166.501s-22.667 -122.5 -68 -164.5s-102.666 -63.333 -171.999 -64h-4c-66.667 0 -122.667 21.333 -168 64c-45.333 43.333 -68.166 98.333 -68.499 165s22.667 121.834 69 165.501s103.666 65.5 171.999 65.5
s125.333 -21.667 171 -65zM251.999 1412.5c27.333 -25.667 60.833 -38.499 100.5 -38.499s72.167 12.333 97.5 37c26 25.333 39 58.333 39 99c-0.666992 38.667 -13.667 70.667 -39 96c-26.667 26 -59.667 39 -99 39s-72.5 -13 -99.5 -39s-40.5 -58.333 -40.5 -97
s13.667 -70.834 41 -96.501zM1306 1085l20 -146c0 -138 -69.667 -207 -209 -207c-78 0 -140.333 19.833 -187 59.5s-70 96.5 -70 170.5c0 50.667 19.333 94 58 130c70.667 66.667 176.667 100 318 100c294 0 441 -135.667 441 -407v-785h-170v791
c0 174.667 -67 272.667 -201 294zM1012 1030c-13.333 -17.333 -19.667 -43 -19 -77c0.666992 -31.333 11.667 -59 33 -83c22.667 -24 55.5 -36.167 98.5 -36.5s71.167 11 84.5 34s20 62.5 20 118.5v105c-116 -2 -188.333 -22.333 -217 -61z" />
    <glyph glyph-name="uni0EB4" unicode="&#xeb4;" horiz-adv-x="4" 
d="M-503 1482c106 0 172.332 20 198.999 60c12 17.333 18 39.333 18 66c0 106.667 -131.167 160 -393.5 160s-393.5 -53.667 -393.5 -161c0.666992 -52.667 23.667 -87.667 69 -105c36.667 -13.333 86.334 -20 149.001 -20h48v-105h-68c-223.333 0 -335 79 -335 237
c0 176.667 177.167 265 531.5 265s531.5 -95.333 531.5 -286c0 -144 -120 -216 -360 -216h-43v105h47z" />
    <glyph glyph-name="uni0EB5" unicode="&#xeb5;" horiz-adv-x="5" 
d="M-313 1607c0 -48.667 -27.334 -90.333 -82.001 -125h245v-105h-569v105h50c106 0 172.333 20 199 60c12 17.333 18 39.333 18 66c0 106.667 -131.167 160 -393.5 160s-393.5 -53.667 -393.5 -161c0.666992 -52.667 23.667 -87.667 69 -105
c36.667 -13.333 86.334 -20 149.001 -20h48v-105h-68c-223.333 0 -335 79 -335 237c0 176.667 177.167 265 531.5 265s531.5 -90.667 531.5 -272z" />
    <glyph glyph-name="uni0EB6" unicode="&#xeb6;" horiz-adv-x="4" 
d="M-503 1482c88.667 0 147.669 11.3359 177.002 34.0029c26.667 20 40 50.667 40 92c0 105.333 -131.333 158.333 -394 159h-5c-259.333 0 -389 -53.333 -389 -160c0 -74.667 50 -115.667 150 -123c18.667 -1.33301 41.667 -2 69 -2h48v-105h-68
c-223.333 0 -335 79 -335 237c0 176.667 177 265 531 265c235.333 0 391.666 -37.667 468.999 -113c41.333 -40.667 62.166 -88.334 62.499 -143.001s-8.66699 -97.334 -27 -128.001s-44.5 -54.334 -78.5 -71.001c-64 -31.333 -148.667 -47 -254 -47h-43v105h47z
M-673.998 1661c26 0 48.5 -6.66602 67.5 -19.999s28.5 -31.833 28.5 -55.5s-9 -42.834 -27 -57.501s-40.667 -22 -68 -22s-50.5 7.33301 -69.5 22s-28.5 33.667 -28.5 57s9.66699 41.833 29 55.5s42 20.5 68 20.5z" />
    <glyph glyph-name="uni0EB7" unicode="&#xeb7;" horiz-adv-x="5" 
d="M-395 1482l245.001 0.00195312v-105h-569v105h50c88.667 0 147.667 11.333 177 34c26.667 20 40 50.667 40 92c0 106.667 -131.333 160 -394 160s-394 -53.667 -394 -161c0 -74.667 50 -115.667 150 -123c18.667 -1.33301 41.667 -2 69 -2h48v-105h-68
c-223.333 0 -335 79 -335 237c0 78 28.333 136.333 85 175s115.334 62 176.001 70c94.667 13.333 173 20 235 20s109.333 -0.833008 142 -2.5s67.667 -4.83398 105 -9.50098s70.833 -11 100.5 -19s58.5 -19 86.5 -33s51.333 -30.333 70 -49
c41.333 -40.667 62.166 -89.834 62.499 -147.501s-26.834 -103.167 -81.501 -136.5zM-918.999 1640.5c18.667 13.667 41.168 20.5 67.501 20.5s49.166 -6.66699 68.499 -20s29 -31.333 29 -54c0 -24 -9.33301 -43.667 -28 -59c-18 -14.667 -40.667 -22 -68 -22
s-50.333 7.33301 -69 22s-28 33.667 -28 57s9.33301 41.833 28 55.5z" />
    <glyph glyph-name="uni0EB8" unicode="&#xeb8;" horiz-adv-x="4" 
d="M-298 -467c-66 -14.667 -105 -21.999 -117 -21.999c-42 0 -76.667 14.667 -104 44s-41 68.833 -41 118.5s19 88.834 57 117.501c37.333 28 87.333 42 150 42h4c64.667 -0.666992 119.167 -14.334 163.5 -41.001s66.5 -62.167 66.5 -106.5s-8.33301 -86.5 -25 -126.5
s-38.667 -77.333 -66 -112c-50.667 -64 -104.667 -119.333 -162 -166l-71 65c72.667 83.333 121 145.666 145 186.999zM-268 -409.999c13.333 31.333 20.667 58.667 22 82c-5.33301 52.667 -40 79 -104 79h-2c-65.333 -0.666992 -99 -28.667 -101 -84
c2 -51.333 36.667 -77 104 -77h81z" />
    <glyph glyph-name="uni0EB9" unicode="&#xeb9;" horiz-adv-x="4" 
d="M-344 -659c46 0 74.333 12.668 85 38.001c8.66699 21.333 13 56.666 13 105.999v299h125v-274c0 -93.333 -16.167 -162.666 -48.5 -207.999s-89.833 -68 -172.5 -68c-148 0 -222 51.667 -222 155c0 11.333 1.33301 23.333 4 36l4 26c-22.667 -14 -57.5 -21 -104.5 -21
s-89 15.167 -126 45.5s-55.5 73.166 -55.5 128.499s19 99.166 57 131.499s88 48.5 150 48.5s113.167 -17 153.5 -51s60.5 -81 60.5 -141c0 -18 -5.5 -45.167 -16.5 -81.5s-16.5 -64.166 -16.5 -83.499c0 -57.333 36.667 -86 110 -86zM-638 -313.999
c-68 0 -101.999 -26.667 -101.999 -80c0 -34 11.167 -57.667 33.5 -71s48.166 -20 77.499 -20s57.666 3 84.999 9v61c-1.33301 67.333 -32.666 101 -93.999 101z" />
    <glyph glyph-name="uni0EBB" unicode="&#xebb;" horiz-adv-x="5" 
d="M-818 1370c-38 -31.333 -88.499 -47 -151.499 -47s-114.833 18.333 -155.5 55s-61 88.667 -61 156c0 86.667 34 147.5 102 182.5s179 52.5 333 52.5h152c168 0 285.167 -32.5 351.5 -97.5s99.5 -181.167 99.5 -348.5h-118c0 118 -23.333 201 -70 249
s-128.334 72 -245.001 72h-221l26 -72c10 -28 15 -53.333 15 -76c0 -52.667 -19 -94.667 -57 -126zM-909.999 1644c-101.333 0 -153.332 -36.999 -155.999 -110.999c1.33301 -62.667 35.333 -94.334 102 -95.001h2c65.333 0 100.666 34 105.999 102v104h-54z" />
    <glyph glyph-name="uni0EBC" unicode="&#xebc;" horiz-adv-x="5" 
d="M-291 -191l-1 95.9971h123c0.666992 -134 -9 -223 -29 -267c-22.667 -52 -53.667 -85.333 -93 -100c-23.333 -9.33301 -54.333 -13.666 -93 -12.999c-68.667 0 -145.667 36.333 -231 109l-95 82c-32.667 32.667 -63.667 55.667 -93 69l8 -36c6 -26.667 9 -49.667 9 -69
c0 -45.333 -14.5 -82.166 -43.5 -110.499s-69.833 -42.5 -122.5 -42.5s-96 16.667 -130 50s-51 75.666 -51 126.999s14 91.666 42 120.999c50.667 53.333 129.667 80 237 80s205 -41.667 293 -125l68 -64c4.66699 -4 14 -13.333 28 -28s24.333 -24.667 31 -30
c20.667 -17.333 40.334 -26.166 59.001 -26.499s33.667 4.33398 45 14.001s19.666 23.834 24.999 42.501c9.33301 32 14 72.333 14 121zM-853 -205.003c-109.333 -2 -164 -29.501 -164 -82.501s22 -79.5 66 -79.5c38 0 63.833 9.33301 77.5 28s20.5 49.334 20.5 92.001v42z
" />
    <glyph glyph-name="uni0EBD" unicode="&#xebd;" horiz-adv-x="1227" 
d="M342.5 -229.5c43.667 -47.667 122.166 -71.501 235.499 -71.501s194.333 28.167 243 84.5s73 149.5 73 279.5v314c0 170 -61 290.667 -183 362l-331 161c-61.333 30.667 -105 58.334 -131 83.001c-44.667 42 -67 101.333 -67 178s24.5 137 73.5 181s114.833 66 197.5 66
c22 0 68.5 -16.667 139.5 -50l221.5 -100.5c76.667 -33.667 132.667 -50.5 168 -50.5c26 0 46 24.333 60 73l40 139h113l-51 -175c-24 -80 -50 -128 -78 -144c-14 -8 -38.833 -12 -74.5 -12s-83.167 11 -142.5 33s-122.333 49.667 -189 83c-105.333 52 -174.333 78 -207 78
c-78 0 -117 -42.333 -117 -127c0 -38.667 10.667 -68.667 32 -90s52.666 -41.666 93.999 -60.999l324 -157c64.667 -32 116.334 -66.333 155.001 -103c82.667 -78.667 124 -201.334 124 -368.001v-284c0 -175.333 -39.833 -302.5 -119.5 -381.5
s-207.834 -118.5 -384.501 -118.5c-302.667 0 -454 136.667 -454 410c0.666992 194.667 45.667 316 135 364c34.667 18.667 77.334 28 128.001 28c154.667 0 232 -64.833 232 -194.5s-77 -194.5 -231 -194.5c-7.33301 0 -38.666 3 -93.999 9v-14
c0 -105.333 21.833 -181.833 65.5 -229.5zM470.999 197.999c0 72 -30.334 108.334 -91.001 109.001c-41.333 0 -68.833 -15.833 -82.5 -47.5s-20.5 -77.834 -20.5 -138.501v-36h50c50.667 0 87.334 7.83301 110.001 23.5s34 45.5 34 89.5z" />
    <glyph glyph-name="uni0EC0" unicode="&#xec0;" horiz-adv-x="704" 
d="M399 0c-178.667 0 -267.999 110.668 -267.999 332.001v332c0 149.333 10.667 257.666 32 324.999c22 68.667 51.667 117.667 89 147c47.333 37.333 104.666 56 171.999 56s123 -7.33301 167 -22v-104c-62 11.333 -104.667 17 -128 17s-43.333 -3.66699 -60 -11
s-30.5 -16.166 -41.5 -26.499s-20.333 -25 -28 -44s-13.5 -36.5 -17.5 -52.5c-4 -16.667 -7 -38.334 -9 -65.001c-2.66699 -36 -4 -81.333 -4 -136v-383c56 17.333 107.667 26 155 26s88 -17.5 122 -52.5s51 -80.167 51 -135.5c0 -135.333 -77.333 -203 -232 -203z
M497.001 202.001c0 39.333 -10.668 65.5 -32.001 78.5s-56.666 19.5 -105.999 19.5h-56v-49c0 -100.667 33.333 -151 100 -151c62 0 93.333 34 94 102z" />
    </font>
</defs>
</svg>
